<svg width="24" height="24" viewBox="0 0 24 24" fill="none" xmlns="http://www.w3.org/2000/svg">
<path
    d="M21.882 20.9617L20.448 18.5094C20.4351 18.4528 20.4351 18.394 20.448 18.3373V11.2531C20.448 10.8728 20.2969 10.5081 20.028 10.2391C19.759 9.97018 19.3943 9.81909 19.0139 9.81909H10.4096C10.0293 9.81909 9.66455 9.97018 9.39561 10.2391C9.12667 10.5081 8.97559 10.8728 8.97559 11.2531V19.1404C8.97559 19.5207 9.12667 19.8855 9.39561 20.1544C9.66455 20.4234 10.0293 20.5745 10.4096 20.5745H17.1783H17.3074L20.9212 22.0085C21.0639 22.0579 21.2179 22.0646 21.3643 22.0276C21.5107 21.9906 21.6431 21.9116 21.7452 21.8004C21.8473 21.6892 21.9146 21.5505 21.9389 21.4015C21.9633 21.2525 21.9435 21.0996 21.882 20.9617V20.9617Z"
    fill="#2F4786"
  />
<path
    d="M18.6554 7.66784C18.7505 7.66784 18.8417 7.63007 18.9089 7.56283C18.9761 7.4956 19.0139 7.40441 19.0139 7.30933V3.7242C19.0139 3.4888 18.9675 3.2557 18.8774 3.03822C18.7874 2.82074 18.6553 2.62312 18.4889 2.45667C18.3224 2.29022 18.1248 2.15818 17.9073 2.06809C17.6898 1.97801 17.4567 1.93164 17.2213 1.93164L5.03191 1.93164C4.5565 1.93164 4.10055 2.1205 3.76438 2.45667C3.42821 2.79284 3.23935 3.24879 3.23935 3.7242V12.4862C3.24607 12.529 3.24607 12.5725 3.23935 12.6153L1.87701 16.2721C1.79808 16.4573 1.77342 16.661 1.80591 16.8596C1.8384 17.0582 1.92669 17.2435 2.06048 17.3938C2.19427 17.5442 2.36805 17.6533 2.56155 17.7086C2.75505 17.764 2.96028 17.7631 3.15331 17.7062L6.55201 16.8027C6.62799 16.7816 6.6953 16.7368 6.74426 16.675C6.79322 16.6132 6.8213 16.5374 6.82448 16.4586V11.253C6.82448 10.3021 7.20219 9.39024 7.87453 8.7179C8.54688 8.04556 9.45877 7.66784 10.4096 7.66784H18.6554Z"
    fill="#2F4786"
  />
</svg>
