<svg width="24" height="24" viewBox="0 0 24 24" fill="none" xmlns="http://www.w3.org/2000/svg">
<path d="M13.4286 15.2C13.3339 15.2 13.243 15.2376 13.176 15.3046C13.1091 15.3715 13.0714 15.4624 13.0714 15.5571V16.9857C13.0714 17.2698 12.9585 17.5423 12.7576 17.7433C12.5567 17.9442 12.2842 18.0571 12 18.0571C11.7158 18.0571 11.4433 17.9442 11.2424 17.7433C11.0415 17.5423 10.9286 17.2698 10.9286 16.9857V15.5571C10.9286 15.4624 10.8909 15.3715 10.824 15.3046C10.757 15.2376 10.6661 15.2 10.5714 15.2H2.35714C2.26242 15.2 2.17158 15.2376 2.1046 15.3046C2.03763 15.3715 2 15.4624 2 15.5571V20.2C2 20.7683 2.22576 21.3133 2.62763 21.7152C3.02949 22.117 3.57454 22.3428 4.14286 22.3428H19.8571C20.4255 22.3428 20.9705 22.117 21.3724 21.7152C21.7742 21.3133 22 20.7683 22 20.2V15.5571C22 15.4624 21.9624 15.3715 21.8954 15.3046C21.8284 15.2376 21.7376 15.2 21.6429 15.2H13.4286Z" fill="#2F4786"/>
<path d="M21.6429 13.0571C21.7376 13.0571 21.8284 13.0195 21.8954 12.9525C21.9624 12.8856 22 12.7947 22 12.7V10.2C22 9.63168 21.7742 9.08663 21.3724 8.68477C20.9705 8.28291 20.4255 8.05714 19.8571 8.05714H18.0571C17.9673 8.05362 17.8822 8.01636 17.8186 7.95281C17.7551 7.88926 17.7178 7.80409 17.7143 7.71429C17.7143 6.19876 17.1122 4.74531 16.0406 3.67368C14.969 2.60204 13.5155 2 12 2C10.4845 2 9.03103 2.60204 7.95939 3.67368C6.88775 4.74531 6.28571 6.19876 6.28571 7.71429C6.28219 7.80409 6.24493 7.88926 6.18138 7.95281C6.11783 8.01636 6.03266 8.05362 5.94286 8.05714H4.14286C3.57454 8.05714 3.02949 8.28291 2.62763 8.68477C2.22576 9.08663 2 9.63168 2 10.2L2 12.7C2 12.7947 2.03763 12.8856 2.1046 12.9525C2.17158 13.0195 2.26242 13.0571 2.35714 13.0571H21.6429ZM12 5.2C12.6912 5.1927 13.3615 5.4362 13.8869 5.88538C14.4122 6.33456 14.757 6.95896 14.8571 7.64286C14.8664 7.69387 14.8635 7.74634 14.8486 7.796C14.8337 7.84566 14.8072 7.89109 14.7714 7.92857C14.7352 7.9723 14.6891 8.00677 14.637 8.02913C14.5848 8.05149 14.5281 8.06109 14.4714 8.05714H9.52857C9.47671 8.05671 9.42556 8.04498 9.37869 8.02278C9.33181 8.00057 9.29034 7.96843 9.25714 7.92857C9.21622 7.89389 9.18441 7.84972 9.16448 7.79992C9.14456 7.75012 9.13714 7.69619 9.14286 7.64286C9.24304 6.95896 9.58775 6.33456 10.1131 5.88538C10.6385 5.4362 11.3088 5.1927 12 5.2V5.2Z" fill="#2F4786"/>
</svg>
