<svg width="24" height="24" viewBox="0 0 24 24" fill="none" xmlns="http://www.w3.org/2000/svg">
<path
    d="M9.46319 9.46349C11.248 9.46349 12.6949 8.01659 12.6949 6.23175C12.6949 4.4469 11.248 3 9.46319 3C7.67835 3 6.23145 4.4469 6.23145 6.23175C6.23145 8.01659 7.67835 9.46349 9.46319 9.46349Z"
    stroke="#BEC0C7"
    stroke-width="1.4"
    stroke-linecap="round"
    stroke-linejoin="round"
  />
<path
    d="M15.927 20.2358H3V18.7994C3 17.0852 3.68097 15.4412 4.89311 14.2291C6.10525 13.0169 7.74927 12.3359 9.46349 12.3359C11.1777 12.3359 12.8217 13.0169 14.0339 14.2291C15.246 15.4412 15.927 17.0852 15.927 18.7994V20.2358Z"
    stroke="#BEC0C7"
    stroke-width="1.4"
    stroke-linecap="round"
    stroke-linejoin="round"
  />
<path
    d="M15.209 3C16.0661 3 16.8881 3.34049 17.4942 3.94656C18.1002 4.55263 18.4407 5.37463 18.4407 6.23175C18.4407 7.08886 18.1002 7.91087 17.4942 8.51694C16.8881 9.12301 16.0661 9.46349 15.209 9.46349"
    stroke="#BEC0C7"
    stroke-width="1.4"
    stroke-linecap="round"
    stroke-linejoin="round"
  />
<path
    d="M17.5068 12.6094C18.7304 13.0748 19.7837 13.9008 20.5275 14.978C21.2713 16.0552 21.6705 17.3329 21.6722 18.642V20.2363H19.5177"
    stroke="#BEC0C7"
    stroke-width="1.4"
    stroke-linecap="round"
    stroke-linejoin="round"
  />
</svg>
