<svg width="24" height="24" viewBox="0 0 24 24" fill="none" xmlns="http://www.w3.org/2000/svg">
<path d="M15.0447 19.7077C15.1063 19.7101 15.1646 19.7366 15.207 19.7815C15.2201 19.8092 15.2269 19.8394 15.2269 19.87C15.2269 19.9007 15.2201 19.9309 15.207 19.9586C15.2305 20.7413 14.9421 21.5013 14.4052 22.0714C13.8683 22.6415 13.1269 22.975 12.3442 22.9985C11.5614 23.0219 10.8014 22.7335 10.2313 22.1966C9.66124 21.6598 9.32778 20.9184 9.30429 20.1357C9.29472 20.083 9.29775 20.0288 9.31314 19.9775C9.32853 19.9262 9.35584 19.8792 9.39284 19.8405C9.43679 19.7833 9.49656 19.7402 9.56476 19.7166C9.63296 19.693 9.70658 19.6899 9.77651 19.7077H15.0447Z" fill="#2F4786"/>
<path d="M22.6595 16.7568C22.6595 16.5611 22.5817 16.3734 22.4433 16.235C22.305 16.0967 22.1173 16.0189 21.9216 16.0189C21.051 16.0189 19.3982 14.5432 19.3982 9.06848C19.3982 7.19381 18.6535 5.39591 17.3279 4.07031C16.0023 2.74471 14.2044 2 12.3297 2C10.455 2 8.65715 2.74471 7.33155 4.07031C6.00596 5.39591 5.26124 7.19381 5.26124 9.06848C5.26124 14.558 3.60849 16.0189 2.73784 16.0189C2.54215 16.0189 2.35448 16.0967 2.21611 16.235C2.07774 16.3734 2 16.5611 2 16.7568C2 16.9524 2.07774 17.1401 2.21611 17.2785C2.35448 17.4169 2.54215 17.4946 2.73784 17.4946H21.9216C22.1173 17.4946 22.305 17.4169 22.4433 17.2785C22.5817 17.1401 22.6595 16.9524 22.6595 16.7568Z" fill="#2F4786"/>
</svg>
