<svg width="14" height="18" viewBox="0 0 14 18" fill="none" xmlns="http://www.w3.org/2000/svg">
<path fill-rule="evenodd" clip-rule="evenodd" d="M5.1329 0.666504H8.8684C9.53921 0.666494 10.0928 0.666485 10.5438 0.703333C11.0123 0.741604 11.4428 0.823741 11.8473 1.02982C12.4745 1.34939 12.9844 1.85933 13.304 2.48654C13.5101 2.89098 13.5922 3.32157 13.6305 3.78998C13.6673 4.24098 13.6673 4.79462 13.6673 5.46544V16.4998C13.6673 16.7969 13.5092 17.0715 13.2523 17.2206C12.9953 17.3697 12.6785 17.3708 12.4205 17.2234L7.00065 14.1263L1.58077 17.2234C1.32285 17.3708 1.00598 17.3697 0.749046 17.2206C0.492117 17.0715 0.333985 16.7969 0.333985 16.4998L0.333985 5.46542C0.333974 4.79461 0.333965 4.24098 0.370813 3.78998C0.409084 3.32157 0.491221 2.89098 0.697297 2.48654C1.01687 1.85933 1.52681 1.34939 2.15402 1.02982C2.55846 0.823741 2.98905 0.741604 3.45746 0.703333C3.90846 0.666485 4.46209 0.666494 5.1329 0.666504Z" fill="#004A46" style="fill:#004A46;fill:color(display-p3 0.0000 0.2902 0.2745);fill-opacity:1;"/>
</svg>
