<svg width="25" height="25" viewBox="0 0 25 25" fill="none" xmlns="http://www.w3.org/2000/svg">
<g clip-path="url(#clip0_15849_1454)">
<path d="M22.7234 0.5H2.27187C1.29219 0.5 0.5 1.27344 0.5 2.22969V22.7656C0.5 23.7219 1.29219 24.5 2.27187 24.5H22.7234C23.7031 24.5 24.5 23.7219 24.5 22.7703V2.22969C24.5 1.27344 23.7031 0.5 22.7234 0.5ZM7.62031 20.9516H4.05781V9.49531H7.62031V20.9516ZM5.83906 7.93438C4.69531 7.93438 3.77188 7.01094 3.77188 5.87187C3.77188 4.73281 4.69531 3.80937 5.83906 3.80937C6.97813 3.80937 7.90156 4.73281 7.90156 5.87187C7.90156 7.00625 6.97813 7.93438 5.83906 7.93438ZM20.9516 20.9516H17.3937V15.3828C17.3937 14.0562 17.3703 12.3453 15.5422 12.3453C13.6906 12.3453 13.4094 13.7937 13.4094 15.2891V20.9516H9.85625V9.49531H13.2687V11.0609H13.3156C13.7891 10.1609 14.9516 9.20938 16.6813 9.20938C20.2859 9.20938 20.9516 11.5813 20.9516 14.6656V20.9516Z" fill="white" style="fill:white;fill-opacity:1;"/>
</g>
<defs>
<clipPath id="clip0_15849_1454">
<rect width="24" height="24" fill="white" style="fill:white;fill-opacity:1;" transform="translate(0.5 0.5)"/>
</clipPath>
</defs>
</svg>
