<svg width="131" height="32" viewBox="0 0 131 32" fill="none" xmlns="http://www.w3.org/2000/svg">
<g clip-path="url(#clip0_1019_33137)">
<path d="M31.5104 9.5761C30.5904 7.35613 28.5665 5.92682 26.3385 5.66149C26.0732 3.43352 24.6452 1.40955 22.4239 0.489568C20.2039 -0.430418 17.7626 -0.00909321 16 1.37889C14.2374 -0.00909321 11.7961 -0.430418 9.5761 0.489568C7.35613 1.40955 5.92682 3.43352 5.66149 5.66149C3.43352 5.92682 1.40955 7.3548 0.489568 9.5761C-0.430418 11.7961 -0.00909321 14.2374 1.37889 16C-0.00909321 17.7626 -0.430418 20.2039 0.489568 22.4239C1.40955 24.6439 3.43352 26.0732 5.66149 26.3385C5.92682 28.5665 7.3548 30.5904 9.5761 31.5104C11.7961 32.4304 14.2374 32.0091 16 30.6211C17.7626 32.0091 20.2039 32.4304 22.4239 31.5104C24.6439 30.5904 26.0732 28.5665 26.3385 26.3385C28.5665 26.0732 30.5904 24.6452 31.5104 22.4239C32.4304 20.2039 32.0091 17.7626 30.6211 16C32.0091 14.2374 32.4304 11.7961 31.5104 9.5761ZM28.3931 14.8347L26.9718 16.256L23.9492 19.2799V22.6652L23.9545 22.6706L28.8731 17.752C29.5918 18.8186 29.7811 20.2133 29.2518 21.4906C28.6198 23.0172 27.1438 23.9385 25.5879 23.9399H23.5772H19.3026L16.9093 26.3345V26.3412H23.8652C23.6199 27.6038 22.7666 28.7238 21.4892 29.2518C19.9626 29.8838 18.2666 29.4918 17.1666 28.3918L15.7453 26.9705L12.7214 23.9479H9.3361L9.33076 23.9532L14.2494 28.8718C13.1827 29.5905 11.7881 29.7798 10.5107 29.2505C8.98411 28.6185 8.06279 27.1425 8.06145 25.5865H8.02412V23.5932V19.3026L5.62949 16.9093H5.62282V23.8585C4.37484 23.6039 3.27219 22.7546 2.7482 21.4892C2.11621 19.9626 2.5082 18.2666 3.60819 17.1666L5.0295 15.7453L8.05079 12.7214V9.3361L8.04546 9.33077L3.12686 14.2494C2.40821 13.1827 2.21888 11.7881 2.7482 10.5107C3.38019 8.9841 4.85617 8.06279 6.41215 8.06145H8.42278H12.6974L15.0907 5.66682V5.66016H8.13479C8.38011 4.39751 9.23344 3.27752 10.5107 2.74953C12.0374 2.11754 13.7334 2.50954 14.8333 3.60952L16.2547 5.03083L19.2786 8.05345H22.6639L22.6692 8.04812L17.7506 3.12953C18.8173 2.41087 20.2119 2.22154 21.4892 2.75087C23.0159 3.38286 23.9372 4.85883 23.9385 6.41481V8.42545V12.7L26.3332 15.0933H26.3398V8.13745C27.6025 8.38278 28.7225 9.2361 29.2505 10.5134C29.8825 12.0401 29.4905 13.736 28.3905 14.836L28.3931 14.8347Z" fill="#004A46"/>
</g>
<path d="M47.016 25.8461C45.8287 25.8461 44.7942 25.6933 43.9124 25.3879C43.0306 25.0824 42.3028 24.7398 41.7264 24.3626C41.0425 23.931 40.4675 23.4357 40 22.8779L42.2935 20.5844C42.6176 20.9801 43.0133 21.34 43.4808 21.6641C43.8765 21.9337 44.3666 22.182 44.9509 22.4065C45.5352 22.6322 46.2232 22.7438 47.0147 22.7438C48.0943 22.7438 48.9257 22.4875 49.5114 21.9748C50.0957 21.4622 50.3879 20.8646 50.3879 20.1807C50.3879 19.5512 50.1488 19.0611 49.6734 18.7105C49.1966 18.3599 48.5977 18.0545 47.8792 17.7929C47.1594 17.5326 46.3772 17.2763 45.5312 17.0239C44.6853 16.7716 43.9031 16.4303 43.1833 15.9987C42.4635 15.5671 41.8659 15.0053 41.3891 14.3121C40.9124 13.6202 40.6746 12.6972 40.6746 11.5458C40.6746 10.8446 40.8274 10.166 41.1328 9.50862C41.4383 8.85257 41.8792 8.27621 42.4555 7.78218C43.0306 7.28815 43.7278 6.89106 44.5472 6.59491C45.3652 6.29876 46.2789 6.15002 47.2856 6.15002C48.2922 6.15002 49.1966 6.28549 49.943 6.55508C50.6893 6.82467 51.3228 7.12214 51.846 7.44618C52.4397 7.82334 52.943 8.24699 53.3573 8.71446L51.0638 11.008C50.7942 10.6839 50.4702 10.3971 50.093 10.1447C49.769 9.92827 49.3732 9.72641 48.9058 9.53783C48.4383 9.34925 47.8978 9.25496 47.2869 9.25496C46.2617 9.25496 45.4874 9.48472 44.9668 9.94289C44.4449 10.4011 44.1846 10.9376 44.1846 11.5485C44.1846 12.1594 44.4223 12.668 44.8991 13.0186C45.3759 13.3692 45.9735 13.676 46.6933 13.9363C47.4131 14.1966 48.1953 14.4529 49.0412 14.7052C49.8872 14.9575 50.6694 15.2988 51.3892 15.7304C52.109 16.162 52.7066 16.7251 53.1834 17.417C53.6601 18.1103 53.8978 19.0319 53.8978 20.1833C53.8978 20.9217 53.7358 21.6322 53.4118 22.3148C53.0877 22.9987 52.6243 23.6017 52.0227 24.1223C51.4197 24.6442 50.696 25.0625 49.85 25.3773C49.004 25.692 48.0598 25.85 47.016 25.85V25.8461Z" fill="#004A46"/>
<path d="M62.3893 25.7104C61.4357 25.7104 60.5446 25.5298 59.7173 25.1713C58.8899 24.8114 58.1608 24.3173 57.5313 23.6865C56.9018 23.057 56.4065 22.3279 56.0466 21.5006C55.6867 20.6732 55.5074 19.7834 55.5074 18.8286C55.5074 17.8737 55.6867 17.0065 56.0466 16.1712C56.4065 15.3345 56.9005 14.6015 57.5313 13.972C58.1608 13.3425 58.8899 12.8485 59.7173 12.4872C60.5446 12.1273 61.4344 11.9481 62.3893 11.9481C63.3441 11.9481 64.2113 12.1287 65.0466 12.4872C65.8833 12.8471 66.6164 13.3425 67.2459 13.972C67.8753 14.6015 68.3694 15.3345 68.7306 16.1712C69.0905 17.0078 69.2698 17.8936 69.2698 18.8286C69.2698 19.7635 69.0892 20.6732 68.7306 21.5006C68.3707 22.3279 67.8753 23.057 67.2459 23.6865C66.6164 24.316 65.8833 24.8114 65.0466 25.1713C64.21 25.5311 63.3242 25.7104 62.3893 25.7104ZM62.3893 22.7423C62.9284 22.7423 63.4278 22.648 63.8873 22.4594C64.3454 22.2708 64.7465 22.0012 65.0878 21.6493C65.4291 21.2987 65.6947 20.8844 65.8833 20.4076C66.0719 19.9308 66.1662 19.4049 66.1662 18.8286C66.1662 18.2522 66.0719 17.7263 65.8833 17.2495C65.6947 16.7728 65.4291 16.3598 65.0878 16.0078C64.7465 15.6572 64.3454 15.3877 63.8873 15.1977C63.4291 15.0092 62.9298 14.9149 62.3893 14.9149C61.8487 14.9149 61.3507 15.0092 60.8912 15.1977C60.4331 15.3863 60.032 15.6559 59.6907 16.0078C59.3494 16.3584 59.0838 16.7728 58.8952 17.2495C58.7066 17.7263 58.6123 18.2522 58.6123 18.8286C58.6123 19.4049 58.7066 19.9308 58.8952 20.4076C59.0838 20.8844 59.3494 21.2987 59.6907 21.6493C60.032 21.9999 60.4331 22.2695 60.8912 22.4594C61.3494 22.648 61.8487 22.7423 62.3893 22.7423Z" fill="#004A46"/>
<path d="M77.5779 25.7104C76.6244 25.7104 75.7333 25.5298 74.9059 25.1713C74.0786 24.8114 73.3495 24.3173 72.72 23.6865C72.0905 23.057 71.5952 22.3279 71.2353 21.5006C70.8754 20.6732 70.6961 19.7834 70.6961 18.8286C70.6961 17.8737 70.8754 17.0065 71.2353 16.1712C71.5952 15.3345 72.0892 14.6015 72.72 13.972C73.3495 13.3425 74.0786 12.8485 74.9059 12.4872C75.7333 12.1273 76.6231 11.9481 77.5779 11.9481C78.5328 11.9481 79.3495 12.0875 80.0334 12.3664C80.7174 12.6453 81.2924 12.956 81.7599 13.2973C82.2991 13.6931 82.7493 14.1433 83.1092 14.6466L81.0853 16.6705C80.7971 16.3465 80.4823 16.0596 80.141 15.8073C79.8356 15.5908 79.4664 15.389 79.0348 15.2004C78.6032 15.0118 78.1171 14.9175 77.5779 14.9175C77.0387 14.9175 76.5394 15.0118 76.0799 15.2004C75.6217 15.389 75.2207 15.6586 74.8794 16.0105C74.5381 16.3611 74.2725 16.7754 74.0839 17.2522C73.8953 17.729 73.801 18.2549 73.801 18.8312C73.801 19.4076 73.8953 19.9335 74.0839 20.4103C74.2725 20.887 74.5381 21.3014 74.8794 21.652C75.2207 22.0026 75.6217 22.2722 76.0799 22.4621C76.5381 22.6506 77.0374 22.7449 77.5779 22.7449C78.1184 22.7449 78.6032 22.6546 79.0348 22.4754C79.4664 22.2961 79.8356 22.0982 80.141 21.8817C80.4823 21.6294 80.7971 21.3332 81.0853 20.9906L83.1092 23.0145C82.7493 23.5179 82.2991 23.9681 81.7599 24.3638C81.2924 24.7051 80.7161 25.0159 80.0334 25.2948C79.3495 25.5737 78.5314 25.7131 77.5779 25.7131V25.7104Z" fill="#004A46"/>
<path d="M86.6232 10.3293C86.084 10.3293 85.6338 10.1501 85.2739 9.79017C84.914 9.43027 84.7347 8.98007 84.7347 8.44088C84.7347 7.9017 84.914 7.4515 85.2739 7.0916C85.6338 6.7317 86.084 6.55243 86.6232 6.55243C87.1623 6.55243 87.6126 6.73303 87.9724 7.0916C88.3323 7.4515 88.5116 7.9017 88.5116 8.44088C88.5116 8.98007 88.331 9.43027 87.9724 9.79017C87.6126 10.1501 87.1623 10.3293 86.6232 10.3293ZM85.0043 12.2178H88.1079V25.441H85.0043V12.2178Z" fill="#004A46"/>
<path d="M97.2009 25.7104C96.2474 25.7104 95.3563 25.5298 94.5289 25.1713C93.7015 24.8114 92.9725 24.3173 92.343 23.6865C91.7135 23.057 91.2181 22.3279 90.8582 21.5006C90.4983 20.6732 90.3191 19.7834 90.3191 18.8286C90.3191 17.8737 90.4983 17.0065 90.8582 16.1712C91.2181 15.3345 91.7122 14.6015 92.343 13.972C92.9725 13.3425 93.7015 12.8485 94.5289 12.4872C95.3563 12.1273 96.2461 11.9481 97.2009 11.9481C98.1558 11.9481 99.023 12.1287 99.8583 12.4872C100.695 12.8471 101.428 13.3425 102.058 13.972C102.687 14.6015 103.181 15.3345 103.542 16.1712C103.902 17.0078 104.081 17.8936 104.081 18.8286C104.081 19.7635 103.902 20.6732 103.542 21.5006C103.182 22.3279 102.687 23.057 102.058 23.6865C101.428 24.316 100.695 24.8114 99.8583 25.1713C99.0216 25.5311 98.1358 25.7104 97.2009 25.7104ZM97.2009 22.7423C97.7401 22.7423 98.2394 22.648 98.6989 22.4594C99.1571 22.2708 99.5582 22.0012 99.8995 21.6493C100.241 21.2987 100.506 20.8844 100.695 20.4076C100.884 19.9308 100.978 19.4049 100.978 18.8286C100.978 18.2522 100.884 17.7263 100.695 17.2495C100.506 16.7728 100.241 16.3598 99.8995 16.0078C99.5582 15.6572 99.1571 15.3877 98.6989 15.1977C98.2408 15.0092 97.7414 14.9149 97.2009 14.9149C96.6604 14.9149 96.1624 15.0092 95.7029 15.1977C95.2447 15.3863 94.8437 15.6559 94.5024 16.0078C94.1611 16.3584 93.8954 16.7728 93.7069 17.2495C93.5183 17.7263 93.424 18.2522 93.424 18.8286C93.424 19.4049 93.5183 19.9308 93.7069 20.4076C93.8954 20.8844 94.1611 21.2987 94.5024 21.6493C94.8437 21.9999 95.2447 22.2695 95.7029 22.4594C96.1611 22.648 96.6604 22.7423 97.2009 22.7423Z" fill="#004A46"/>
<path d="M111.246 25.7105C110.545 25.7105 109.888 25.5803 109.277 25.3187C108.664 25.0584 108.135 24.6853 107.684 24.1992C107.234 23.7131 106.884 23.1195 106.633 22.4183C106.38 21.7171 106.255 20.9256 106.255 20.0438V12.2177H109.359V19.6122C109.359 20.583 109.606 21.3253 110.101 21.838C110.595 22.3506 111.249 22.6069 112.058 22.6069C113.011 22.6069 113.789 22.3014 114.392 21.6892C114.995 21.0783 115.297 20.2589 115.297 19.2337V12.2177H118.4V25.4409H115.297V23.5525H115.161C114.873 23.9482 114.541 24.3081 114.163 24.6321C113.838 24.9017 113.429 25.1487 112.935 25.3745C112.44 25.5989 111.878 25.7118 111.249 25.7118L111.246 25.7105Z" fill="#004A46"/>
<path d="M125.743 25.7105C124.861 25.7105 124.092 25.5843 123.436 25.3333C122.779 25.081 122.217 24.8034 121.75 24.4967C121.21 24.1554 120.742 23.7503 120.346 23.2828L122.37 21.2589C122.639 21.5644 122.945 21.8353 123.287 22.069C123.593 22.2669 123.949 22.4515 124.354 22.6228C124.759 22.7941 125.221 22.8791 125.743 22.8791C126.427 22.8791 126.934 22.7437 127.268 22.4741C127.601 22.2045 127.767 21.8897 127.767 21.5298C127.767 21.243 127.596 21.0079 127.254 20.8286C126.913 20.6494 126.489 20.478 125.986 20.316C125.483 20.154 124.929 19.9747 124.326 19.7768C123.723 19.579 123.169 19.328 122.666 19.0212C122.163 18.7157 121.739 18.32 121.398 17.8339C121.056 17.3479 120.885 16.737 120.885 15.9986C120.885 15.4594 120.997 14.9468 121.222 14.4607C121.447 13.9747 121.776 13.5431 122.208 13.1659C122.639 12.7887 123.165 12.4913 123.787 12.2761C124.407 12.0597 125.104 11.9521 125.878 11.9521C126.653 11.9521 127.394 12.0597 127.997 12.2761C128.6 12.4926 129.107 12.7263 129.521 12.9773C129.989 13.2841 130.394 13.6161 130.735 13.976L128.711 15.9999C128.495 15.802 128.244 15.6228 127.955 15.4607C127.703 15.3173 127.403 15.1911 127.051 15.0836C126.7 14.976 126.309 14.9216 125.877 14.9216C125.265 14.9216 124.82 15.0344 124.541 15.2589C124.262 15.4846 124.123 15.7317 124.123 16.0013C124.123 16.2894 124.294 16.5232 124.635 16.7024C124.977 16.8831 125.4 17.0531 125.904 17.2151C126.407 17.3771 126.961 17.5564 127.564 17.7542C128.167 17.9521 128.719 18.2045 129.224 18.5099C129.727 18.8167 130.151 19.2111 130.492 19.6972C130.833 20.1832 131.005 20.7941 131.005 21.5325C131.005 22.0903 130.888 22.6215 130.654 23.1248C130.42 23.6281 130.078 24.0743 129.629 24.4608C129.179 24.8473 128.626 25.154 127.969 25.3785C127.311 25.6029 126.57 25.7158 125.743 25.7158V25.7105Z" fill="#004A46"/>
<defs>
<clipPath id="clip0_1019_33137">
<rect width="32" height="32" fill="white"/>
</clipPath>
</defs>
</svg>
