<svg width="20" height="20" viewBox="0 0 20 20" fill="none" xmlns="http://www.w3.org/2000/svg">
<path fill-rule="evenodd" clip-rule="evenodd" d="M9.99398 3.09742C8.04407 1.39335 5.16035 1.04464 2.92093 2.95805C0.498605 5.02773 0.146663 8.5134 2.06218 10.9783C2.78928 11.9139 4.20844 13.3196 5.57229 14.6069C6.9521 15.9092 8.32873 17.1399 9.00761 17.7411C9.01185 17.7449 9.01618 17.7487 9.02057 17.7526C9.08439 17.8092 9.16384 17.8796 9.24001 17.937C9.33121 18.0057 9.46213 18.0909 9.63696 18.1431C9.86939 18.2124 10.1192 18.2124 10.3517 18.1431C10.5265 18.0909 10.6574 18.0057 10.7486 17.937C10.8248 17.8796 10.9042 17.8092 10.968 17.7526C10.9724 17.7487 10.9768 17.7449 10.981 17.7411C11.6599 17.1399 13.0365 15.9092 14.4163 14.6069C15.7802 13.3196 17.1993 11.9139 17.9264 10.9783C19.8346 8.52288 19.537 5.01032 17.059 2.95074C14.7947 1.06872 11.9417 1.3927 9.99398 3.09742Z" fill="#B03046" style="fill:#B03046;fill:color(display-p3 0.6902 0.1882 0.2745);fill-opacity:1;"/>
</svg>
