<svg width="25" height="24" viewBox="0 0 25 24" fill="none" xmlns="http://www.w3.org/2000/svg">
<g clip-path="url(#clip0_1335_3663)">
<path d="M12.625 24C19.2524 24 24.625 18.6274 24.625 12C24.625 5.37258 19.2524 0 12.625 0C5.99758 0 0.625 5.37258 0.625 12C0.625 18.6274 5.99758 24 12.625 24Z" fill="url(#paint0_linear_1335_3663)" style=""/>
<path fill-rule="evenodd" clip-rule="evenodd" d="M6.05701 11.8733C9.55526 10.3492 11.888 9.3444 13.0551 8.85893C16.3877 7.47282 17.0801 7.23203 17.5315 7.22408C17.6308 7.22234 17.8527 7.24694 17.9965 7.3636C18.1179 7.46211 18.1513 7.59518 18.1673 7.68857C18.1833 7.78197 18.2032 7.99473 18.1873 8.16097C18.0067 10.0585 17.2253 14.6631 16.8278 16.7884C16.6596 17.6876 16.3284 17.9891 16.0077 18.0186C15.3108 18.0828 14.7817 17.5581 14.1067 17.1157C13.0506 16.4233 12.4539 15.9924 11.4287 15.3168C10.244 14.536 11.012 14.1069 11.6872 13.4056C11.8639 13.2221 14.9343 10.4294 14.9937 10.176C15.0012 10.1443 15.0081 10.0262 14.9379 9.96385C14.8677 9.90148 14.7642 9.92281 14.6894 9.93977C14.5835 9.96381 12.8963 11.079 9.62776 13.2853C9.14885 13.6142 8.71507 13.7744 8.32641 13.766C7.89795 13.7568 7.07376 13.5238 6.46106 13.3246C5.70956 13.0803 5.11228 12.9512 5.16429 12.5363C5.19138 12.3202 5.48895 12.0992 6.05701 11.8733Z" fill="white" style="fill:white;fill-opacity:1;"/>
</g>
<defs>
<linearGradient id="paint0_linear_1335_3663" x1="12.625" y1="0" x2="12.625" y2="23.822" gradientUnits="userSpaceOnUse">
<stop stop-color="#2AABEE" style="stop-color:#2AABEE;stop-color:color(display-p3 0.1647 0.6706 0.9333);stop-opacity:1;"/>
<stop offset="1" stop-color="#229ED9" style="stop-color:#229ED9;stop-color:color(display-p3 0.1333 0.6196 0.8510);stop-opacity:1;"/>
</linearGradient>
<clipPath id="clip0_1335_3663">
<rect width="24" height="24" fill="white" style="fill:white;fill-opacity:1;" transform="translate(0.625)"/>
</clipPath>
</defs>
</svg>
