<svg width="20" height="20" viewBox="0 0 20 20" fill="none" xmlns="http://www.w3.org/2000/svg">
<path d="M13.3333 0H6.66667C2.98477 0 0 2.98477 0 6.66667V13.3333C0 17.0152 2.98477 20 6.66667 20H13.3333C17.0152 20 20 17.0152 20 13.3333V6.66667C20 2.98477 17.0152 0 13.3333 0Z" fill="#3396FF" style="fill:#3396FF;fill:color(display-p3 0.2000 0.5882 1.0000);fill-opacity:1;"/>
<path d="M6.11457 7.4418C8.25948 5.35013 11.7372 5.35013 13.8821 7.4418L14.1403 7.69354C14.2475 7.79809 14.2475 7.96767 14.1403 8.07223L13.2572 8.93342C13.2035 8.98567 13.1166 8.98567 13.063 8.93342L12.7078 8.587C11.2113 7.12777 8.78526 7.12777 7.2889 8.587L6.90845 8.95792C6.85482 9.01025 6.7679 9.01025 6.71427 8.95792L5.83121 8.09679C5.72395 7.99223 5.72395 7.82266 5.83121 7.7181L6.11457 7.4418ZM15.7084 9.22267L16.4943 9.98909C16.6016 10.0937 16.6016 10.2633 16.4943 10.3678L12.9504 13.8237C12.8433 13.9283 12.6693 13.9283 12.5621 13.8237L10.0469 11.371C10.0201 11.3448 9.9766 11.3448 9.94985 11.371L7.43462 13.8237C7.3274 13.9283 7.15351 13.9283 7.04625 13.8237L3.50231 10.3678C3.39506 10.2632 3.39506 10.0937 3.50231 9.98909L4.28825 9.22267C4.3955 9.11809 4.56938 9.11809 4.67663 9.22267L7.19186 11.6754C7.21868 11.7016 7.26214 11.7016 7.28895 11.6754L9.8041 9.22267C9.91135 9.11809 10.0852 9.11809 10.1924 9.22267L12.7077 11.6754C12.7345 11.7016 12.778 11.7016 12.8048 11.6754L15.32 9.22267C15.4273 9.11809 15.6011 9.11809 15.7084 9.22267Z" fill="white" style="fill:white;fill-opacity:1;"/>
</svg>
