<svg width="25" height="24" viewBox="0 0 25 24" fill="none" xmlns="http://www.w3.org/2000/svg">
<path d="M0.875 24L2.57127 17.8403C1.52256 16.0323 0.972421 13.9848 0.978152 11.8916C0.978152 5.3327 6.34204 0 12.9266 0C16.1243 0 19.1271 1.23764 21.3793 3.48479C23.6372 5.73194 24.8807 8.72053 24.875 11.8973C24.875 18.4563 19.5111 23.789 12.9208 23.789H12.9151C10.9151 23.789 8.94949 23.2871 7.20164 22.3403L0.875 24ZM7.50537 20.1901L7.8664 20.4068C9.39075 21.308 11.1386 21.7814 12.9208 21.7871H12.9266C18.3993 21.7871 22.8578 17.3555 22.8578 11.903C22.8578 9.26236 21.8263 6.78137 19.9523 4.91065C18.0784 3.03992 15.5799 2.01331 12.9266 2.01331C7.45379 2.0076 2.99534 6.43916 2.99534 11.8916C2.99534 13.7567 3.51683 15.576 4.51397 17.1502L4.74892 17.5266L3.74606 21.1711L7.50537 20.1901Z" fill="white" style="fill:white;fill-opacity:1;"/>
<path d="M1.29297 23.5837L2.93194 17.635C1.91761 15.8955 1.38466 13.9164 1.38466 11.8974C1.39039 5.56657 6.56517 0.416382 12.9262 0.416382C16.015 0.416382 18.909 1.6141 21.0867 3.7814C23.2643 5.9487 24.462 8.83463 24.462 11.9031C24.462 18.2339 19.2815 23.3841 12.9262 23.3841H12.9205C10.9892 23.3841 9.09239 22.8993 7.40758 21.9867L1.29297 23.5837Z" fill="url(#paint0_linear_1335_19492)" style=""/>
<path d="M0.875 24L2.57127 17.8403C1.52256 16.0323 0.972421 13.9848 0.978152 11.8916C0.978152 5.3327 6.34204 0 12.9266 0C16.1243 0 19.1271 1.23764 21.3793 3.48479C23.6372 5.73194 24.8807 8.72053 24.875 11.8973C24.875 18.4563 19.5111 23.789 12.9208 23.789H12.9151C10.9151 23.789 8.94949 23.2871 7.20164 22.3403L0.875 24ZM7.50537 20.1901L7.8664 20.4068C9.39075 21.308 11.1386 21.7814 12.9208 21.7871H12.9266C18.3993 21.7871 22.8578 17.3555 22.8578 11.903C22.8578 9.26236 21.8263 6.78137 19.9523 4.91065C18.0784 3.03992 15.5799 2.01331 12.9266 2.01331C7.45379 2.0076 2.99534 6.43916 2.99534 11.8916C2.99534 13.7567 3.51683 15.576 4.51397 17.1502L4.74892 17.5266L3.74606 21.1711L7.50537 20.1901Z" fill="url(#paint1_linear_1335_19492)" style=""/>
<path fill-rule="evenodd" clip-rule="evenodd" d="M9.94051 6.9183C9.71702 6.42211 9.48206 6.4107 9.27003 6.405C9.09811 6.39929 8.89753 6.39929 8.69696 6.39929C8.49639 6.39929 8.17547 6.47344 7.9004 6.77001C7.62533 7.06659 6.85742 7.78522 6.85742 9.251C6.85742 10.7111 7.92905 12.1255 8.07805 12.3251C8.22705 12.5248 10.1468 15.6217 13.1783 16.8137C15.6998 17.8061 16.2156 17.6065 16.76 17.5552C17.3044 17.5039 18.525 16.8366 18.7772 16.1407C19.0236 15.4449 19.0236 14.8518 18.9491 14.7263C18.8746 14.6008 18.674 14.5267 18.376 14.3784C18.078 14.2301 16.611 13.5115 16.3359 13.4088C16.0609 13.3118 15.8603 13.2605 15.6654 13.5571C15.4649 13.8537 14.8918 14.521 14.7199 14.7206C14.548 14.9202 14.3703 14.943 14.0723 14.7947C13.7743 14.6464 12.8116 14.3328 11.6712 13.3175C10.7829 12.5305 10.1812 11.5552 10.0093 11.2586C9.83736 10.962 9.99209 10.8023 10.1411 10.654C10.2729 10.5229 10.4391 10.3061 10.5881 10.135C10.7371 9.96393 10.7887 9.83846 10.8861 9.63884C10.9835 9.43922 10.9376 9.26811 10.8631 9.11982C10.7887 8.97724 10.2041 7.50576 9.94051 6.9183Z" fill="white" style="fill:white;fill-opacity:1;"/>
<defs>
<linearGradient id="paint0_linear_1335_19492" x1="12.8769" y1="23.5825" x2="12.8769" y2="0.415571" gradientUnits="userSpaceOnUse">
<stop stop-color="#20B038" style="stop-color:#20B038;stop-color:color(display-p3 0.1255 0.6902 0.2196);stop-opacity:1;"/>
<stop offset="1" stop-color="#60D66A" style="stop-color:#60D66A;stop-color:color(display-p3 0.3765 0.8392 0.4157);stop-opacity:1;"/>
</linearGradient>
<linearGradient id="paint1_linear_1335_19492" x1="12.8773" y1="23.9977" x2="12.8773" y2="0" gradientUnits="userSpaceOnUse">
<stop stop-color="#F9F9F9" style="stop-color:#F9F9F9;stop-color:color(display-p3 0.9765 0.9765 0.9765);stop-opacity:1;"/>
<stop offset="1" stop-color="white" style="stop-color:white;stop-opacity:1;"/>
</linearGradient>
</defs>
</svg>
