<svg width="135" height="40" viewBox="0 0 135 40" fill="none" xmlns="http://www.w3.org/2000/svg">
<rect x="0.5" y="0.5" width="134" height="39" rx="4.5" fill="black" style="fill:black;fill-opacity:1;"/>
<rect x="0.5" y="0.5" width="134" height="39" rx="4.5" stroke="#A6A6A6" style="stroke:#A6A6A6;stroke:color(display-p3 0.6510 0.6510 0.6510);stroke-opacity:1;"/>
<path d="M68.1331 21.7509C65.7811 21.7509 63.8641 23.5399 63.8641 26.0039C63.8641 28.4529 65.7811 30.2569 68.1331 30.2569C70.4861 30.2569 72.4031 28.4529 72.4031 26.0039C72.4021 23.5399 70.4851 21.7509 68.1331 21.7509ZM68.1331 28.5829C66.8441 28.5829 65.7331 27.5199 65.7331 26.0049C65.7331 24.4739 66.8451 23.4269 68.1331 23.4269C69.4221 23.4269 70.5331 24.4739 70.5331 26.0049C70.5331 27.5189 69.4221 28.5829 68.1331 28.5829ZM58.8191 21.7509C56.4671 21.7509 54.5501 23.5399 54.5501 26.0039C54.5501 28.4529 56.4671 30.2569 58.8191 30.2569C61.1721 30.2569 63.0891 28.4529 63.0891 26.0039C63.0891 23.5399 61.1721 21.7509 58.8191 21.7509ZM58.8191 28.5829C57.5301 28.5829 56.4191 27.5199 56.4191 26.0049C56.4191 24.4739 57.5311 23.4269 58.8191 23.4269C60.1081 23.4269 61.2191 24.4739 61.2191 26.0049C61.2201 27.5189 60.1081 28.5829 58.8191 28.5829ZM47.7411 23.0569V24.8609H52.0591C51.9301 25.8759 51.5921 26.6169 51.0761 27.1319C50.4481 27.7599 49.4651 28.4529 47.7411 28.4529C45.0831 28.4529 43.0051 26.3099 43.0051 23.6519C43.0051 20.9939 45.0831 18.8509 47.7411 18.8509C49.1751 18.8509 50.2221 19.4149 50.9951 20.1399L52.2681 18.8669C51.1881 17.8359 49.7551 17.0469 47.7411 17.0469C44.1001 17.0469 41.0391 20.0109 41.0391 23.6519C41.0391 27.2929 44.1001 30.2569 47.7411 30.2569C49.7061 30.2569 51.1891 29.6119 52.3481 28.4039C53.5401 27.2119 53.9111 25.5359 53.9111 24.1829C53.9111 23.7649 53.8791 23.3779 53.8141 23.0559H47.7411V23.0569ZM93.0491 24.4579C92.6951 23.5079 91.6151 21.7509 89.4081 21.7509C87.2171 21.7509 85.3961 23.4749 85.3961 26.0039C85.3961 28.3879 87.2011 30.2569 89.6171 30.2569C91.5661 30.2569 92.6941 29.0649 93.1621 28.3719L91.7121 27.4049C91.2291 28.1139 90.5681 28.5809 89.6171 28.5809C88.6671 28.5809 87.9901 28.1459 87.5551 27.2919L93.2421 24.9399L93.0491 24.4579ZM87.2491 25.8759C87.2011 24.2319 88.5221 23.3949 89.4731 23.3949C90.2141 23.3949 90.8421 23.7659 91.0521 24.2969L87.2491 25.8759ZM82.6261 29.9999H84.4941V17.4989H82.6261V29.9999ZM79.5641 22.7019H79.5001C79.0811 22.2019 78.2751 21.7509 77.2611 21.7509C75.1341 21.7509 73.1851 23.6199 73.1851 26.0209C73.1851 28.4049 75.1341 30.2579 77.2611 30.2579C78.2761 30.2579 79.0811 29.8069 79.5001 29.2919H79.5641V29.9039C79.5641 31.5309 78.6941 32.4009 77.2931 32.4009C76.1491 32.4009 75.4401 31.5799 75.1501 30.8869L73.5231 31.5639C73.9901 32.6909 75.2301 34.0769 77.2931 34.0769C79.4841 34.0769 81.3371 32.7879 81.3371 29.6459V22.0099H79.5651V22.7019H79.5641ZM77.4221 28.5829C76.1331 28.5829 75.0541 27.5029 75.0541 26.0209C75.0541 24.5219 76.1331 23.4269 77.4221 23.4269C78.6941 23.4269 79.6931 24.5219 79.6931 26.0209C79.6931 27.5029 78.6941 28.5829 77.4221 28.5829ZM101.803 17.4989H97.3321V29.9999H99.1971V25.2639H101.802C103.87 25.2639 105.904 23.7669 105.904 21.3819C105.904 18.9969 103.871 17.4989 101.803 17.4989ZM101.851 23.5239H99.1971V19.2389H101.851C103.246 19.2389 104.038 20.3939 104.038 21.3819C104.038 22.3499 103.246 23.5239 101.851 23.5239ZM113.383 21.7289C112.032 21.7289 110.633 22.3239 110.054 23.6429L111.71 24.3339C112.064 23.6429 112.724 23.4169 113.415 23.4169C114.38 23.4169 115.361 23.9959 115.377 25.0249V25.1539C115.039 24.9609 114.315 24.6719 113.431 24.6719C111.646 24.6719 109.828 25.6529 109.828 27.4859C109.828 29.1589 111.292 30.2359 112.932 30.2359C114.186 30.2359 114.878 29.6729 115.312 29.0129H115.376V29.9779H117.178V25.1849C117.179 22.9669 115.521 21.7289 113.383 21.7289ZM113.157 28.5799C112.547 28.5799 111.694 28.2739 111.694 27.5179C111.694 26.5529 112.756 26.1829 113.673 26.1829C114.492 26.1829 114.879 26.3599 115.377 26.6009C115.232 27.7599 114.235 28.5799 113.157 28.5799ZM123.74 22.0019L121.601 27.4219H121.537L119.317 22.0019H117.307L120.636 29.5769L118.738 33.7909H120.684L125.815 22.0019H123.74ZM106.934 29.9999H108.799V17.4989H106.934V29.9999Z" fill="white" style="fill:white;fill-opacity:1;"/>
<path d="M47.4176 10.2432C47.4176 11.0812 47.1696 11.7482 46.6726 12.2462C46.1086 12.8382 45.3726 13.1342 44.4686 13.1342C43.6026 13.1342 42.8656 12.8342 42.2606 12.2342C41.6546 11.6332 41.3516 10.8892 41.3516 10.0012C41.3516 9.11219 41.6546 8.36819 42.2606 7.76819C42.8656 7.16719 43.6026 6.86719 44.4686 6.86719C44.8986 6.86719 45.3096 6.95119 45.6996 7.11819C46.0906 7.28619 46.4036 7.50919 46.6376 7.78819L46.1106 8.31619C45.7136 7.84119 45.1666 7.60419 44.4676 7.60419C43.8356 7.60419 43.2896 7.82619 42.8286 8.27019C42.3676 8.71419 42.1376 9.29119 42.1376 10.0002C42.1376 10.7092 42.3676 11.2862 42.8286 11.7302C43.2896 12.1742 43.8356 12.3962 44.4676 12.3962C45.1376 12.3962 45.6966 12.1732 46.1436 11.7262C46.4336 11.4352 46.6016 11.0302 46.6466 10.5112H44.4676V9.79019H47.3746C47.4046 9.94719 47.4176 10.0982 47.4176 10.2432Z" fill="white" style="fill:white;fill-opacity:1;"/>
<path d="M52.0277 7.73724H49.2957V9.63924H51.7597V10.3602H49.2957V12.2622H52.0277V13.0002H48.5247V7.00024H52.0277V7.73724Z" fill="white" style="fill:white;fill-opacity:1;"/>
<path d="M55.2785 13.0002H54.5075V7.73724H52.8315V7.00024H56.9545V7.73724H55.2785V13.0002Z" fill="white" style="fill:white;fill-opacity:1;"/>
<path d="M59.9375 13.0002V7.00024H60.7085V13.0002H59.9375Z" fill="white" style="fill:white;fill-opacity:1;"/>
<path d="M64.1277 13.0002H63.3567V7.73724H61.6807V7.00024H65.8037V7.73724H64.1277V13.0002Z" fill="white" style="fill:white;fill-opacity:1;"/>
<path d="M73.6084 12.2252C73.0184 12.8312 72.2854 13.1342 71.4084 13.1342C70.5314 13.1342 69.7984 12.8312 69.2094 12.2252C68.6194 11.6192 68.3254 10.8772 68.3254 10.0002C68.3254 9.12323 68.6194 8.38123 69.2094 7.77523C69.7984 7.16923 70.5314 6.86523 71.4084 6.86523C72.2804 6.86523 73.0124 7.17023 73.6044 7.77923C74.1964 8.38823 74.4924 9.12823 74.4924 10.0002C74.4924 10.8772 74.1974 11.6192 73.6084 12.2252ZM69.7784 11.7222C70.2224 12.1722 70.7654 12.3962 71.4084 12.3962C72.0514 12.3962 72.5954 12.1712 73.0384 11.7222C73.4824 11.2722 73.7054 10.6982 73.7054 10.0002C73.7054 9.30223 73.4824 8.72823 73.0384 8.27823C72.5954 7.82823 72.0514 7.60423 71.4084 7.60423C70.7654 7.60423 70.2224 7.82923 69.7784 8.27823C69.3354 8.72823 69.1124 9.30223 69.1124 10.0002C69.1124 10.6982 69.3354 11.2722 69.7784 11.7222Z" fill="white" style="fill:white;fill-opacity:1;"/>
<path d="M75.5745 13.0002V7.00024H76.5125L79.4285 11.6672H79.4615L79.4285 10.5112V7.00024H80.1995V13.0002H79.3945L76.3435 8.10625H76.3105L76.3435 9.26224V13.0002H75.5745Z" fill="white" style="fill:white;fill-opacity:1;"/>
<path d="M47.4176 10.2432C47.4176 11.0812 47.1696 11.7482 46.6726 12.2462C46.1086 12.8382 45.3726 13.1342 44.4686 13.1342C43.6026 13.1342 42.8656 12.8342 42.2606 12.2342C41.6546 11.6332 41.3516 10.8892 41.3516 10.0012C41.3516 9.11219 41.6546 8.36819 42.2606 7.76819C42.8656 7.16719 43.6026 6.86719 44.4686 6.86719C44.8986 6.86719 45.3096 6.95119 45.6996 7.11819C46.0906 7.28619 46.4036 7.50919 46.6376 7.78819L46.1106 8.31619C45.7136 7.84119 45.1666 7.60419 44.4676 7.60419C43.8356 7.60419 43.2896 7.82619 42.8286 8.27019C42.3676 8.71419 42.1376 9.29119 42.1376 10.0002C42.1376 10.7092 42.3676 11.2862 42.8286 11.7302C43.2896 12.1742 43.8356 12.3962 44.4676 12.3962C45.1376 12.3962 45.6966 12.1732 46.1436 11.7262C46.4336 11.4352 46.6016 11.0302 46.6466 10.5112H44.4676V9.79019H47.3746C47.4046 9.94719 47.4176 10.0982 47.4176 10.2432Z" stroke="white" style="stroke:white;stroke-opacity:1;" stroke-width="0.2" stroke-miterlimit="10"/>
<path d="M52.0277 7.73724H49.2957V9.63924H51.7597V10.3602H49.2957V12.2622H52.0277V13.0002H48.5247V7.00024H52.0277V7.73724Z" stroke="white" style="stroke:white;stroke-opacity:1;" stroke-width="0.2" stroke-miterlimit="10"/>
<path d="M55.2785 13.0002H54.5075V7.73724H52.8315V7.00024H56.9545V7.73724H55.2785V13.0002Z" stroke="white" style="stroke:white;stroke-opacity:1;" stroke-width="0.2" stroke-miterlimit="10"/>
<path d="M59.9375 13.0002V7.00024H60.7085V13.0002H59.9375Z" stroke="white" style="stroke:white;stroke-opacity:1;" stroke-width="0.2" stroke-miterlimit="10"/>
<path d="M64.1277 13.0002H63.3567V7.73724H61.6807V7.00024H65.8037V7.73724H64.1277V13.0002Z" stroke="white" style="stroke:white;stroke-opacity:1;" stroke-width="0.2" stroke-miterlimit="10"/>
<path d="M73.6084 12.2252C73.0184 12.8312 72.2854 13.1342 71.4084 13.1342C70.5314 13.1342 69.7984 12.8312 69.2094 12.2252C68.6194 11.6192 68.3254 10.8772 68.3254 10.0002C68.3254 9.12323 68.6194 8.38123 69.2094 7.77523C69.7984 7.16923 70.5314 6.86523 71.4084 6.86523C72.2804 6.86523 73.0124 7.17023 73.6044 7.77923C74.1964 8.38823 74.4924 9.12823 74.4924 10.0002C74.4924 10.8772 74.1974 11.6192 73.6084 12.2252ZM69.7784 11.7222C70.2224 12.1722 70.7654 12.3962 71.4084 12.3962C72.0514 12.3962 72.5954 12.1712 73.0384 11.7222C73.4824 11.2722 73.7054 10.6982 73.7054 10.0002C73.7054 9.30223 73.4824 8.72823 73.0384 8.27823C72.5954 7.82823 72.0514 7.60423 71.4084 7.60423C70.7654 7.60423 70.2224 7.82923 69.7784 8.27823C69.3354 8.72823 69.1124 9.30223 69.1124 10.0002C69.1124 10.6982 69.3354 11.2722 69.7784 11.7222Z" stroke="white" style="stroke:white;stroke-opacity:1;" stroke-width="0.2" stroke-miterlimit="10"/>
<path d="M75.5745 13.0002V7.00024H76.5125L79.4285 11.6672H79.4615L79.4285 10.5112V7.00024H80.1995V13.0002H79.3945L76.3435 8.10625H76.3105L76.3435 9.26224V13.0002H75.5745Z" stroke="white" style="stroke:white;stroke-opacity:1;" stroke-width="0.2" stroke-miterlimit="10"/>
<g filter="url(#filter0_ii_1308_49644)">
<path d="M10.4396 7.53784C10.1486 7.84584 9.97656 8.32384 9.97656 8.94284V31.0588C9.97656 31.6788 10.1486 32.1558 10.4396 32.4638L10.5136 32.5358L22.9026 20.1468V20.0008V19.8548L10.5136 7.46484L10.4396 7.53784Z" fill="url(#paint0_linear_1308_49644)" style=""/>
<path d="M27.0352 24.2776L22.9062 20.1466V20.0006V19.8546L27.0362 15.7246L27.1293 15.7776L32.0222 18.5576C33.4192 19.3516 33.4192 20.6506 32.0222 21.4456L27.1293 24.2256L27.0352 24.2776Z" fill="url(#paint1_linear_1308_49644)" style=""/>
<g filter="url(#filter1_i_1308_49644)">
<path d="M27.1235 24.225L22.8995 20.001L10.4375 32.464C10.8975 32.952 11.6585 33.012 12.5155 32.526L27.1235 24.225Z" fill="url(#paint2_linear_1308_49644)" style=""/>
</g>
<path d="M27.1235 15.7767L12.5155 7.4767C11.6585 6.9897 10.8975 7.0507 10.4375 7.5387L22.9005 20.0017L27.1235 15.7767Z" fill="url(#paint3_linear_1308_49644)" style=""/>
</g>
<defs>
<filter id="filter0_ii_1308_49644" x="9.97656" y="7.14062" width="23.0938" height="25.7207" filterUnits="userSpaceOnUse" color-interpolation-filters="sRGB">
<feFlood flood-opacity="0" result="BackgroundImageFix"/>
<feBlend mode="normal" in="SourceGraphic" in2="BackgroundImageFix" result="shape"/>
<feColorMatrix in="SourceAlpha" type="matrix" values="0 0 0 0 0 0 0 0 0 0 0 0 0 0 0 0 0 0 127 0" result="hardAlpha"/>
<feOffset dy="-0.15"/>
<feComposite in2="hardAlpha" operator="arithmetic" k2="-1" k3="1"/>
<feColorMatrix type="matrix" values="0 0 0 0 0 0 0 0 0 0 0 0 0 0 0 0 0 0 0.12 0"/>
<feBlend mode="normal" in2="shape" result="effect1_innerShadow_1308_49644"/>
<feColorMatrix in="SourceAlpha" type="matrix" values="0 0 0 0 0 0 0 0 0 0 0 0 0 0 0 0 0 0 127 0" result="hardAlpha"/>
<feOffset dy="0.15"/>
<feComposite in2="hardAlpha" operator="arithmetic" k2="-1" k3="1"/>
<feColorMatrix type="matrix" values="0 0 0 0 1 0 0 0 0 1 0 0 0 0 1 0 0 0 0.25 0"/>
<feBlend mode="normal" in2="effect1_innerShadow_1308_49644" result="effect2_innerShadow_1308_49644"/>
</filter>
<filter id="filter1_i_1308_49644" x="10.4375" y="20.001" width="16.6875" height="12.8604" filterUnits="userSpaceOnUse" color-interpolation-filters="sRGB">
<feFlood flood-opacity="0" result="BackgroundImageFix"/>
<feBlend mode="normal" in="SourceGraphic" in2="BackgroundImageFix" result="shape"/>
<feColorMatrix in="SourceAlpha" type="matrix" values="0 0 0 0 0 0 0 0 0 0 0 0 0 0 0 0 0 0 127 0" result="hardAlpha"/>
<feOffset dy="-0.15"/>
<feComposite in2="hardAlpha" operator="arithmetic" k2="-1" k3="1"/>
<feColorMatrix type="matrix" values="0 0 0 0 0 0 0 0 0 0 0 0 0 0 0 0 0 0 0.08 0"/>
<feBlend mode="normal" in2="shape" result="effect1_innerShadow_1308_49644"/>
</filter>
<linearGradient id="paint0_linear_1308_49644" x1="21.8044" y1="8.70884" x2="5.02236" y2="25.4908" gradientUnits="userSpaceOnUse">
<stop stop-color="#00A0FF" style="stop-color:#00A0FF;stop-color:color(display-p3 0.0000 0.6275 1.0000);stop-opacity:1;"/>
<stop offset="0.0066" stop-color="#00A1FF" style="stop-color:#00A1FF;stop-color:color(display-p3 0.0000 0.6314 1.0000);stop-opacity:1;"/>
<stop offset="0.2601" stop-color="#00BEFF" style="stop-color:#00BEFF;stop-color:color(display-p3 0.0000 0.7451 1.0000);stop-opacity:1;"/>
<stop offset="0.5122" stop-color="#00D2FF" style="stop-color:#00D2FF;stop-color:color(display-p3 0.0000 0.8235 1.0000);stop-opacity:1;"/>
<stop offset="0.7604" stop-color="#00DFFF" style="stop-color:#00DFFF;stop-color:color(display-p3 0.0000 0.8745 1.0000);stop-opacity:1;"/>
<stop offset="1" stop-color="#00E3FF" style="stop-color:#00E3FF;stop-color:color(display-p3 0.0000 0.8902 1.0000);stop-opacity:1;"/>
</linearGradient>
<linearGradient id="paint1_linear_1308_49644" x1="33.8407" y1="20.0006" x2="9.64485" y2="20.0006" gradientUnits="userSpaceOnUse">
<stop stop-color="#FFE000" style="stop-color:#FFE000;stop-color:color(display-p3 1.0000 0.8784 0.0000);stop-opacity:1;"/>
<stop offset="0.4087" stop-color="#FFBD00" style="stop-color:#FFBD00;stop-color:color(display-p3 1.0000 0.7412 0.0000);stop-opacity:1;"/>
<stop offset="0.7754" stop-color="#FFA500" style="stop-color:#FFA500;stop-color:color(display-p3 1.0000 0.6471 0.0000);stop-opacity:1;"/>
<stop offset="1" stop-color="#FF9C00" style="stop-color:#FF9C00;stop-color:color(display-p3 1.0000 0.6118 0.0000);stop-opacity:1;"/>
</linearGradient>
<linearGradient id="paint2_linear_1308_49644" x1="24.8296" y1="22.2949" x2="2.0711" y2="45.0534" gradientUnits="userSpaceOnUse">
<stop stop-color="#FF3A44" style="stop-color:#FF3A44;stop-color:color(display-p3 1.0000 0.2275 0.2667);stop-opacity:1;"/>
<stop offset="1" stop-color="#C31162" style="stop-color:#C31162;stop-color:color(display-p3 0.7647 0.0667 0.3843);stop-opacity:1;"/>
</linearGradient>
<linearGradient id="paint3_linear_1308_49644" x1="7.2989" y1="0.176501" x2="17.4612" y2="10.3388" gradientUnits="userSpaceOnUse">
<stop stop-color="#32A071" style="stop-color:#32A071;stop-color:color(display-p3 0.1961 0.6275 0.4431);stop-opacity:1;"/>
<stop offset="0.0685" stop-color="#2DA771" style="stop-color:#2DA771;stop-color:color(display-p3 0.1765 0.6549 0.4431);stop-opacity:1;"/>
<stop offset="0.4762" stop-color="#15CF74" style="stop-color:#15CF74;stop-color:color(display-p3 0.0824 0.8118 0.4549);stop-opacity:1;"/>
<stop offset="0.8009" stop-color="#06E775" style="stop-color:#06E775;stop-color:color(display-p3 0.0235 0.9059 0.4588);stop-opacity:1;"/>
<stop offset="1" stop-color="#00F076" style="stop-color:#00F076;stop-color:color(display-p3 0.0000 0.9412 0.4627);stop-opacity:1;"/>
</linearGradient>
</defs>
</svg>
