<svg width="106" height="138" viewBox="0 0 106 138" fill="none" xmlns="http://www.w3.org/2000/svg">
<g id="Logo">
<path id="Vector" d="M62.207 45.9866C62.2007 48.7567 61.2123 51.4347 59.4174 53.5446C57.6226 55.6545 55.1376 57.0595 52.4044 57.5099C49.6712 57.9602 46.8669 57.4266 44.49 56.0041C42.1132 54.5815 40.3178 52.3621 39.4232 49.7405C38.5286 47.1189 38.5926 44.2649 39.604 41.6861C40.6154 39.1073 42.5086 36.9707 44.9469 35.6563C47.3852 34.3418 50.2107 33.9346 52.9209 34.5072C55.6311 35.0797 58.0505 36.5949 59.7489 38.7832C61.3478 40.8435 62.213 43.3787 62.207 45.9866Z" fill="#2F8647"/>
<path id="Vector_2" d="M82.0388 16.5966L66.5424 32.093C66.1994 32.4396 65.734 32.6376 65.2464 32.6444C64.7588 32.6511 64.2881 32.466 63.9357 32.129C58.7717 27.1271 50.6903 25.1777 43.9146 27.6899C36.5851 30.3912 31.4617 38.342 32.2991 46.1172C32.9068 51.7224 36.2429 56.6837 40.1283 60.7762L40.2408 60.8977C43.3431 64.121 45.0634 68.4287 45.0348 72.9023C45.0062 77.3759 43.231 81.6613 40.0878 84.8447L35.5856 89.3828C35.2517 89.7194 34.8025 89.9167 34.3288 89.9351C33.855 89.9535 33.3919 89.7915 33.0329 89.4819C26.9235 84.2188 20.8456 78.8838 15.5556 72.7969C9.88286 66.2778 5.10608 58.8177 2.68843 50.5203C-0.0298257 41.0111 0.52188 30.8649 4.25518 21.7065C5.18454 19.4417 6.31458 17.2645 7.63179 15.2009C8.2891 14.1699 8.98243 13.166 9.7523 12.2025C10.6257 11.0815 11.5937 10.046 12.5661 8.99697L13.8898 7.57879C14.0609 7.39332 14.2677 7.24434 14.4978 7.14079C14.7279 7.03724 14.9766 6.98126 15.2289 6.97621C15.4812 6.97117 15.7319 7.01716 15.966 7.11142C16.2001 7.20569 16.4127 7.34628 16.5911 7.52477L19.9812 10.8969C20.2765 11.192 20.672 11.3651 21.0891 11.3818C21.5062 11.3984 21.9143 11.2575 22.2323 10.9869C30.7451 3.86549 41.6293 0.214052 52.7147 0.760602C63.8 1.30715 74.2722 6.01154 82.0433 13.9358C82.2187 14.1103 82.3579 14.3177 82.4527 14.5462C82.5475 14.7747 82.5961 15.0198 82.5957 15.2671C82.5953 15.5145 82.5458 15.7594 82.4502 15.9876C82.3547 16.2158 82.2148 16.4228 82.0388 16.5966Z" fill="#2F4786"/>
<path id="Vector_3" d="M44.0542 93.2322C44.0557 91.0676 44.6731 88.9481 45.8345 87.1215C46.9958 85.2948 48.653 83.8364 50.6124 82.9167C52.5719 81.9969 54.7526 81.6538 56.8998 81.9274C59.047 82.2011 61.072 83.0802 62.7381 84.462C63.2867 84.9152 63.7902 85.4203 64.2418 85.9702C65.409 87.3798 66.2197 89.0495 66.6056 90.8384C66.9916 92.6273 66.9413 94.4828 66.459 96.2482C65.9768 98.0135 65.0768 99.6369 63.8351 100.981C62.5933 102.326 61.0463 103.351 59.3246 103.972C57.6029 104.592 55.7573 104.789 53.9434 104.546C52.1296 104.303 50.4009 103.627 48.9034 102.575C47.4058 101.523 46.1834 100.126 45.3394 98.5026C44.4954 96.8788 44.0546 95.0757 44.0542 93.2457V93.2322Z" fill="#2F4786"/>
<path id="Vector_4" d="M23.9746 121.42L39.4755 105.928C39.8177 105.582 40.2819 105.384 40.7684 105.376C41.2549 105.369 41.725 105.552 42.0778 105.887C47.2552 110.894 55.3276 112.843 62.0853 110.331C69.4193 107.63 74.5427 99.6789 73.7008 91.9037C73.0976 86.2985 69.7615 81.3371 65.8761 77.2447L65.7591 77.1231C62.6589 73.8988 60.9401 69.5914 60.9687 65.1186C60.9973 60.6457 62.771 56.3607 65.9121 53.1762L70.4143 48.638C70.7474 48.3021 71.1953 48.1047 71.668 48.0855C72.1407 48.0663 72.6032 48.2267 72.9625 48.5345C79.0719 53.802 85.1498 59.137 90.4443 65.2194C96.117 71.7431 100.894 79.2031 103.307 87.5006C106.031 97.009 105.479 107.157 101.74 116.314C100.814 118.58 99.6856 120.757 98.3681 122.82C97.7063 123.851 97.0175 124.855 96.2476 125.818C95.3472 126.939 94.4062 127.975 93.4293 129.024L92.0876 130.424C91.9165 130.61 91.7097 130.759 91.4796 130.862C91.2494 130.966 91.0008 131.022 90.7485 131.027C90.4962 131.032 90.2455 130.986 90.0114 130.891C89.7773 130.797 89.5647 130.657 89.3863 130.478L85.9962 127.106C85.7004 126.812 85.305 126.639 84.8882 126.623C84.4714 126.606 84.0635 126.746 83.7451 127.016C75.2391 134.133 64.3633 137.784 53.2857 137.24C42.2081 136.696 31.7423 131.997 23.9746 124.081C23.7994 123.906 23.6604 123.699 23.5656 123.47C23.4707 123.242 23.4219 122.997 23.4219 122.75C23.4219 122.503 23.4707 122.258 23.5656 122.03C23.6604 121.802 23.7994 121.594 23.9746 121.42Z" fill="#2F8647"/>
</g>
</svg>
