<svg width="20" height="21" viewBox="0 0 20 21" fill="none" xmlns="http://www.w3.org/2000/svg">
<path d="M15.4672 8.23358C15.4672 11.1295 10.2336 18.1192 10.2336 18.1192C10.2336 18.1192 5 11.1295 5 8.23358C5 6.84555 5.55139 5.51437 6.53288 4.53288C7.51436 3.55139 8.84555 3 10.2336 3C11.6216 3 12.9528 3.55139 13.9343 4.53288C14.9158 5.51437 15.4672 6.84555 15.4672 8.23358V8.23358Z" stroke="#2F4786" stroke-width="1.39562" stroke-linecap="round" stroke-linejoin="round"/>
<path d="M10.2328 9.97929C11.1963 9.97929 11.9773 9.19824 11.9773 8.23476C11.9773 7.27129 11.1963 6.49023 10.2328 6.49023C9.26933 6.49023 8.48828 7.27129 8.48828 8.23476C8.48828 9.19824 9.26933 9.97929 10.2328 9.97929Z" stroke="#2F4786" stroke-width="1.39562" stroke-linecap="round" stroke-linejoin="round"/>
</svg>
