<svg width="20" height="19" viewBox="0 0 20 19" fill="none" xmlns="http://www.w3.org/2000/svg">
<path
    d="M2.64233 6.58667H17.8731V16.279C17.8731 16.6462 17.7272 16.9984 17.4676 17.258C17.2079 17.5177 16.8557 17.6636 16.4885 17.6636H4.02695C3.65973 17.6636 3.30754 17.5177 3.04788 17.258C2.78821 16.9984 2.64233 16.6462 2.64233 16.279V6.58667V6.58667Z"
    stroke="#020305"
    stroke-width="1.4"
    stroke-linecap="round"
    stroke-linejoin="round"
  />
<path
    d="M19.2578 5.20219V2.43296C19.2578 1.66825 18.6379 1.04834 17.8732 1.04834L2.64243 1.04834C1.87773 1.04834 1.25781 1.66825 1.25781 2.43296V5.20219C1.25781 5.96689 1.87773 6.5868 2.64243 6.5868L17.8732 6.5868C18.6379 6.5868 19.2578 5.96689 19.2578 5.20219Z"
    stroke="#020305"
    stroke-width="1.4"
    stroke-linecap="round"
    stroke-linejoin="round"
  />
<path d="M8.18115 10.7405H12.335" stroke="#020305" stroke-width="1.4" stroke-linecap="round" stroke-linejoin="round" />
</svg>
