<svg width="24" height="25" viewBox="0 0 24 25" fill="none" xmlns="http://www.w3.org/2000/svg">
<path
    d="M18.9012 9.53322C18.8056 9.43682 18.6919 9.36031 18.5665 9.3081C18.4412 9.25589 18.3068 9.229 18.171 9.229C18.0353 9.229 17.9008 9.25589 17.7755 9.3081C17.6502 9.36031 17.5364 9.43682 17.4408 9.53322L12.1854 14.7886C12.1614 14.8135 12.1327 14.8333 12.1009 14.8468C12.0691 14.8603 12.0349 14.8673 12.0003 14.8673C11.9657 14.8673 11.9315 14.8603 11.8997 14.8468C11.8679 14.8333 11.8392 14.8135 11.8152 14.7886L6.55977 9.53322C6.46416 9.43682 6.35041 9.36031 6.22508 9.3081C6.09976 9.25589 5.96533 9.229 5.82956 9.229C5.6938 9.229 5.55937 9.25589 5.43404 9.3081C5.30872 9.36031 5.19497 9.43682 5.09936 9.53322C4.90781 9.72591 4.80029 9.98658 4.80029 10.2583C4.80029 10.53 4.90781 10.7906 5.09936 10.9833L10.9101 16.7941C11.1994 17.083 11.5915 17.2453 12.0003 17.2453C12.4091 17.2453 12.8012 17.083 13.0905 16.7941L18.9012 10.9833C19.0928 10.7906 19.2003 10.53 19.2003 10.2583C19.2003 9.98658 19.0928 9.72591 18.9012 9.53322Z"
    fill="#020305"
  />
</svg>
