<svg width="18" height="18" viewBox="0 0 18 18" fill="none" xmlns="http://www.w3.org/2000/svg">
<path d="M15.8169 8.78672L9.61048 15.0453C9.36967 15.2907 9.08237 15.4856 8.76536 15.6186C8.44835 15.7517 8.108 15.8202 7.7642 15.8202C7.42041 15.8202 7.08006 15.7517 6.76305 15.6186C6.44604 15.4856 6.15874 15.2907 5.91793 15.0453L4.06122 13.1573C3.57516 12.6636 3.30273 11.9986 3.30273 11.3058C3.30273 10.613 3.57516 9.94798 4.06122 9.4543L10.6744 2.82022C10.8684 2.62468 11.0991 2.46948 11.3533 2.36357C11.6076 2.25765 11.8802 2.20312 12.1556 2.20312C12.431 2.20312 12.7037 2.25765 12.9579 2.36357C13.2122 2.46948 13.4429 2.62468 13.6368 2.82022L14.3774 3.56081C14.573 3.75475 14.7282 3.98549 14.8341 4.23971C14.94 4.49393 14.9945 4.76661 14.9945 5.04201C14.9945 5.31741 14.94 5.59009 14.8341 5.84431C14.7282 6.09853 14.573 6.32926 14.3774 6.5232L8.51523 12.4063C8.41826 12.504 8.3029 12.5816 8.17578 12.6346C8.04867 12.6875 7.91234 12.7148 7.77463 12.7148C7.63693 12.7148 7.5006 12.6875 7.37348 12.6346C7.24637 12.5816 7.13101 12.504 7.03404 12.4063L6.66895 12.0307C6.57119 11.9338 6.49359 11.8184 6.44063 11.6913C6.38767 11.5642 6.36041 11.4278 6.36041 11.2901C6.36041 11.1524 6.38767 11.0161 6.44063 10.889C6.49359 10.7619 6.57119 10.6465 6.66895 10.5495L10.6014 6.64837" stroke="#2F4786" stroke-width="1.4" stroke-linecap="round" stroke-linejoin="round"/>
</svg>
