<svg width="24" height="24" viewBox="0 0 24 24" fill="none" xmlns="http://www.w3.org/2000/svg">
<path
    d="M21.0898 11.7156L12.8146 20.0604C12.4935 20.3875 12.1105 20.6474 11.6878 20.8248C11.2651 21.0022 10.8113 21.0936 10.3529 21.0936C9.89453 21.0936 9.44073 21.0022 9.01805 20.8248C8.59537 20.6474 8.2123 20.3875 7.89122 20.0604L5.41561 17.543C4.76754 16.8848 4.4043 15.9981 4.4043 15.0744C4.4043 14.1507 4.76754 13.264 5.41561 12.6057L14.2332 3.76029C14.4918 3.49957 14.7995 3.29264 15.1384 3.15142C15.4774 3.01021 15.841 2.9375 16.2082 2.9375C16.5754 2.9375 16.9389 3.01021 17.2779 3.15142C17.6169 3.29264 17.9245 3.49957 18.1831 3.76029L19.1705 4.74775C19.4313 5.00634 19.6382 5.31398 19.7794 5.65294C19.9206 5.99191 19.9933 6.35547 19.9933 6.72268C19.9933 7.08988 19.9206 7.45345 19.7794 7.79241C19.6382 8.13137 19.4313 8.43902 19.1705 8.6976L11.3543 16.5417C11.225 16.672 11.0712 16.7755 10.9017 16.8461C10.7322 16.9167 10.5504 16.9531 10.3668 16.9531C10.1832 16.9531 10.0014 16.9167 9.83196 16.8461C9.66248 16.7755 9.50866 16.672 9.37937 16.5417L8.89259 16.041C8.76223 15.9117 8.65877 15.7579 8.58816 15.5884C8.51755 15.4189 8.4812 15.2371 8.4812 15.0535C8.4812 14.8699 8.51755 14.6881 8.58816 14.5187C8.65877 14.3492 8.76223 14.1954 8.89259 14.0661L14.1359 8.8645"
    stroke="#020305"
    stroke-width="1.4"
    stroke-linecap="round"
    stroke-linejoin="round"
  />
</svg>
