<svg width="20" height="20" viewBox="0 0 20 20" fill="none" xmlns="http://www.w3.org/2000/svg">
<path fill-rule="evenodd" clip-rule="evenodd" d="M13.2069 6.72437C13.2188 6.73631 13.2304 6.74796 13.2417 6.75927L16.9667 10.4926L15.7917 11.6676L12.5 8.37594V18.3343H10.8333V13.3343H9.16667V18.3343H7.5V7.25927C5.09167 6.53427 3.33334 4.30094 3.33334 1.6676H5C5 3.95927 6.86667 5.82594 9.15834 5.83427H11.275C12.3206 5.83427 12.8772 6.39323 13.2069 6.72437ZM11.6667 3.33427C11.6667 4.25474 10.9205 5.00094 10 5.00094C9.07953 5.00094 8.33333 4.25474 8.33333 3.33427C8.33333 2.41379 9.07953 1.6676 10 1.6676C10.9205 1.6676 11.6667 2.41379 11.6667 3.33427Z" fill="white"/>
</svg>
