<svg width="24" height="24" viewBox="0 0 24 24" fill="none" xmlns="http://www.w3.org/2000/svg">
<path fill-rule="evenodd" clip-rule="evenodd" d="M2 18.5C2 18.2239 2.22386 18 2.5 18H21.5C21.7761 18 22 18.2239 22 18.5V21.5C22 21.7761 21.7761 22 21.5 22H2.5C2.22386 22 2 21.7761 2 21.5V18.5ZM3 19V21H21V19H3Z" fill="#020305"/>
<path fill-rule="evenodd" clip-rule="evenodd" d="M11.7671 2.05754C11.9129 1.98082 12.0871 1.98082 12.2329 2.05754L21.7329 7.05754C21.8972 7.144 22 7.31436 22 7.5V9.5C22 9.77614 21.7761 10 21.5 10H2.5C2.22386 10 2 9.77614 2 9.5V7.5C2 7.31436 2.10285 7.144 2.26713 7.05754L11.7671 2.05754ZM3 7.80187V9H21V7.80187L12 3.06502L3 7.80187Z" fill="#020305"/>
<path fill-rule="evenodd" clip-rule="evenodd" d="M9.5 9C9.77614 9 10 9.22386 10 9.5L10 18.5C10 18.7761 9.77614 19 9.5 19H4.5C4.22386 19 4 18.7761 4 18.5L4 9.5C4 9.22386 4.22386 9 4.5 9L9.5 9ZM9 10H5L5 18H9L9 10Z" fill="#020305"/>
<path fill-rule="evenodd" clip-rule="evenodd" d="M19.5 9C19.7761 9 20 9.22386 20 9.5V18.5C20 18.7761 19.7761 19 19.5 19H14.5C14.2239 19 14 18.7761 14 18.5L14 9.5C14 9.22386 14.2239 9 14.5 9L19.5 9ZM19 10H15L15 18H19V10Z" fill="#020305"/>
<path fill-rule="evenodd" clip-rule="evenodd" d="M12 5.5C11.4477 5.5 11 5.94772 11 6.5C11 7.05228 11.4477 7.5 12 7.5C12.5523 7.5 13 7.05228 13 6.5C13 5.94772 12.5523 5.5 12 5.5ZM10 6.5C10 5.39543 10.8954 4.5 12 4.5C13.1046 4.5 14 5.39543 14 6.5C14 7.60457 13.1046 8.5 12 8.5C10.8954 8.5 10 7.60457 10 6.5Z" fill="#020305"/>
</svg>
