<svg width="27" height="27" viewBox="0 0 27 27" fill="none" xmlns="http://www.w3.org/2000/svg">
<path d="M13.1052 1C15.2241 1 17.2562 1.84174 18.7545 3.34004C20.2528 4.83835 21.0946 6.87049 21.0946 8.98941C21.0946 17.8727 24.335 19.6233 25.2103 19.6233H1C1.89392 19.6233 5.11576 17.8541 5.11576 8.98941C5.11576 6.87049 5.9575 4.83835 7.4558 3.34004C8.95411 1.84174 10.9862 1 13.1052 1V1Z" stroke="#004a46" stroke-width="1.86667" stroke-linecap="round" stroke-linejoin="round"/>
<path d="M10.3125 23.0312C10.4735 23.6496 10.8351 24.1971 11.3406 24.5878C11.8461 24.9786 12.467 25.1906 13.106 25.1906C13.745 25.1906 14.3659 24.9786 14.8714 24.5878C15.3769 24.1971 15.7385 23.6496 15.8995 23.0312" stroke="#004a46" stroke-width="1.86667" stroke-linecap="round" stroke-linejoin="round"/>
</svg>
