<svg width="20" height="21" viewBox="0 0 20 21" fill="none" xmlns="http://www.w3.org/2000/svg">
<path d="M6.96129 7.82834C8.67281 7.82834 10.0603 6.44088 10.0603 4.72935C10.0603 3.01783 8.67281 1.63037 6.96129 1.63037C5.24977 1.63037 3.8623 3.01783 3.8623 4.72935C3.8623 6.44088 5.24977 7.82834 6.96129 7.82834Z" stroke="#020305" stroke-width="1.4" stroke-linecap="round" stroke-linejoin="round"/>
<path d="M14.1912 19.5356C16.6634 19.5356 18.6675 17.5315 18.6675 15.0593C18.6675 12.5871 16.6634 10.583 14.1912 10.583C11.719 10.583 9.71484 12.5871 9.71484 15.0593C9.71484 17.5315 11.719 19.5356 14.1912 19.5356Z" stroke="#020305" stroke-width="1.4" stroke-linecap="round" stroke-linejoin="round"/>
<path d="M11.0234 18.2273L17.3591 11.8916" stroke="#020305" stroke-width="1.4" stroke-linecap="round" stroke-linejoin="round"/>
<path d="M8.33802 10.0457C7.4298 9.83603 6.48594 9.83437 5.57698 10.0408C4.66803 10.2473 3.81751 10.6566 3.08901 11.2381C2.36051 11.8195 1.77288 12.5582 1.37005 13.3987C0.967213 14.2393 0.7596 15.1601 0.76273 16.0922V18.1582H6.27203" stroke="#020305" stroke-width="1.4" stroke-linecap="round" stroke-linejoin="round"/>
</svg>
