<svg width="24" height="24" viewBox="0 0 24 24" fill="none" xmlns="http://www.w3.org/2000/svg">
<path d="M21.4695 9.61504C21.4695 9.24374 21.322 8.88764 21.0595 8.62509C20.7969 8.36254 20.4408 8.21504 20.0695 8.21504H17.2695L15.1695 5.41504H9.56953L7.46953 8.21504H4.66953C4.29823 8.21504 3.94213 8.36254 3.67958 8.62509C3.41703 8.88764 3.26953 9.24374 3.26953 9.61504V18.015C3.26953 18.3863 3.41703 18.7424 3.67958 19.005C3.94213 19.2675 4.29823 19.415 4.66953 19.415H20.0695C20.4408 19.415 20.7969 19.2675 21.0595 19.005C21.322 18.7424 21.4695 18.3863 21.4695 18.015V9.61504Z" stroke="#2F4786" stroke-width="1.4" stroke-linecap="round" stroke-linejoin="round"/>
<path d="M12.3688 16.2651C14.1084 16.2651 15.5188 14.8548 15.5188 13.1151C15.5188 11.3754 14.1084 9.96509 12.3688 9.96509C10.6291 9.96509 9.21875 11.3754 9.21875 13.1151C9.21875 14.8548 10.6291 16.2651 12.3688 16.2651Z" stroke="#2F4786" stroke-width="1.4" stroke-linecap="round" stroke-linejoin="round"/>
</svg>
