<svg width="24" height="24" viewBox="0 0 24 24" fill="none" xmlns="http://www.w3.org/2000/svg">
<path
    d="M5.07697 17.1365L3 17.6626L4.38465 13.5087V5.20081C4.38465 4.83358 4.53053 4.48139 4.7902 4.22172C5.04987 3.96204 5.40206 3.81616 5.76929 3.81616H16.8465C17.2137 3.81616 17.5659 3.96204 17.8255 4.22172C18.0852 4.48139 18.2311 4.83358 18.2311 5.20081V7.27778"
    stroke="white"
    stroke-width="1.38465"
    stroke-linecap="round"
    stroke-linejoin="round"
  />
<path
    d="M16.1537 20.4315L21 21.8162L20.3076 17.6622V12.1237C20.3076 11.7564 20.1618 11.4042 19.9021 11.1446C19.6424 10.8849 19.2902 10.739 18.923 10.739H9.92279C9.55556 10.739 9.20337 10.8849 8.9437 11.1446C8.68403 11.4042 8.53815 11.7564 8.53815 12.1237V19.0469C8.53815 19.4141 8.68403 19.7663 8.9437 20.026C9.20337 20.2857 9.55556 20.4315 9.92279 20.4315H16.1537Z"
    stroke="white"
    stroke-width="1.38465"
    stroke-linecap="round"
    stroke-linejoin="round"
  />
</svg>
