<svg width="32" height="32" viewBox="0 0 32 32" fill="none" xmlns="http://www.w3.org/2000/svg">
<path d="M1 16C1 7.71573 7.71573 1 16 1C24.2843 1 31 7.71573 31 16C31 24.2843 24.2843 31 16 31C7.71573 31 1 24.2843 1 16Z" fill="#004A46" style="fill:#004A46;fill:color(display-p3 0.0000 0.2902 0.2745);fill-opacity:1;"/>
<path d="M1 16C1 7.71573 7.71573 1 16 1C24.2843 1 31 7.71573 31 16C31 24.2843 24.2843 31 16 31C7.71573 31 1 24.2843 1 16Z" stroke="#004A46" style="stroke:#004A46;stroke:color(display-p3 0.0000 0.2902 0.2745);stroke-opacity:1;" stroke-width="2"/>
<path fill-rule="evenodd" clip-rule="evenodd" d="M22.7934 9.85334L13.2467 19.0667L10.7134 16.36C10.2467 15.92 9.51339 15.8933 8.98005 16.2667C8.46005 16.6533 8.31338 17.3333 8.63338 17.88L11.6334 22.76C11.9267 23.2133 12.4334 23.4933 13.0067 23.4933C13.5534 23.4933 14.0734 23.2133 14.3667 22.76C14.8467 22.1333 24.0067 11.2133 24.0067 11.2133C25.2067 9.98668 23.7534 8.90668 22.7934 9.84001V9.85334Z" fill="white" style="fill:white;fill-opacity:1;"/>
</svg>
