<svg width="18" height="19" viewBox="0 0 18 19" fill="none" xmlns="http://www.w3.org/2000/svg">
<path d="M4.65178 5.36385C4.45631 5.55932 4.45631 5.87624 4.65178 6.07171L8.08472 9.50474L4.65148 12.9381C4.45602 13.1335 4.45602 13.4505 4.65148 13.6459L4.86384 13.8583C5.0593 14.0538 5.37622 14.0538 5.57168 13.8583L9.00492 10.425L12.4381 13.8582C12.6336 14.0537 12.9505 14.0537 13.1459 13.8582L13.3583 13.6458C13.5538 13.4504 13.5538 13.1335 13.3583 12.938L9.92512 9.50474L13.358 6.07178C13.5535 5.87631 13.5535 5.55939 13.358 5.36392L13.1456 5.15156C12.9502 4.95609 12.6333 4.95609 12.4378 5.15156L9.00492 8.58451L5.57198 5.15149C5.37651 4.95602 5.0596 4.95601 4.86413 5.15149L4.65178 5.36385Z" fill="#2F8647"/>
</svg>
