<svg width="21" height="20" viewBox="0 0 21 20" fill="none" xmlns="http://www.w3.org/2000/svg">
<path
    d="M7.36128 10.0596C7.68243 10.0596 7.94277 9.79925 7.94277 9.4781C7.94277 9.15695 7.68243 8.89661 7.36128 8.89661C7.04013 8.89661 6.77979 9.15695 6.77979 9.4781C6.77979 9.79925 7.04013 10.0596 7.36128 10.0596Z"
    stroke="#2F4786"
    stroke-linecap="round"
    stroke-linejoin="round"
  />
<path
    d="M11.1406 10.0596C11.4617 10.0596 11.7221 9.79925 11.7221 9.4781C11.7221 9.15695 11.4617 8.89661 11.1406 8.89661C10.8194 8.89661 10.5591 9.15695 10.5591 9.4781C10.5591 9.79925 10.8194 10.0596 11.1406 10.0596Z"
    stroke="#2F4786"
    stroke-linecap="round"
    stroke-linejoin="round"
  />
<path
    d="M14.9204 10.0596C15.2415 10.0596 15.5019 9.79925 15.5019 9.4781C15.5019 9.15695 15.2415 8.89661 14.9204 8.89661C14.5992 8.89661 14.3389 9.15695 14.3389 9.4781C14.3389 9.79925 14.5992 10.0596 14.9204 10.0596Z"
    stroke="#2F4786"
    stroke-linecap="round"
    stroke-linejoin="round"
  />
<path
    d="M7.65194 16.4558L3 17.6188L4.16299 14.1299V3.66299C4.16299 3.35454 4.28551 3.05873 4.50362 2.84063C4.72172 2.62253 5.01753 2.5 5.32597 2.5H16.9558C17.2643 2.5 17.5601 2.62253 17.7782 2.84063C17.9963 3.05873 18.1188 3.35454 18.1188 3.66299V15.2928C18.1188 15.6013 17.9963 15.8971 17.7782 16.1152C17.5601 16.3333 17.2643 16.4558 16.9558 16.4558H7.65194Z"
    stroke="#2F4786"
    stroke-linecap="round"
    stroke-linejoin="round"
  />
</svg>
