<svg width="18" height="18" viewBox="0 0 18 18" fill="none" xmlns="http://www.w3.org/2000/svg">
    <circle cx="9" cy="9" r="9" fill="#D2EBC0"/>
    <path d="M6.58473 12.934C6.35332 12.93 6.12579 12.8738 5.91904 12.7698C5.71229 12.6658 5.53163 12.5165 5.39049 12.3331L3.69543 10.4146C3.62756 10.3384 3.57547 10.2496 3.54219 10.1532C3.50891 10.0568 3.49509 9.9548 3.50154 9.85303C3.50799 9.75126 3.53458 9.65178 3.57977 9.56037C3.62495 9.46895 3.68784 9.38741 3.76477 9.32048C3.91909 9.18672 4.1202 9.11971 4.32391 9.13416C4.52761 9.1486 4.71725 9.24333 4.85115 9.39753L6.43834 11.1927C6.4538 11.215 6.4746 11.233 6.49883 11.2451C6.52307 11.2572 6.54995 11.2631 6.57703 11.2621C6.60326 11.2627 6.62932 11.2575 6.6533 11.2469C6.67729 11.2362 6.6986 11.2204 6.71571 11.2004L12.9643 4.69759C13.1089 4.56757 13.2973 4.49702 13.4917 4.5001C13.6862 4.50318 13.8722 4.57966 14.0126 4.7142C14.153 4.84875 14.2373 5.0314 14.2487 5.22552C14.26 5.41964 14.1976 5.61087 14.0738 5.76086L7.75586 12.4101C7.61179 12.5789 7.43194 12.7135 7.22937 12.8041C7.0268 12.8947 6.80659 12.9391 6.58473 12.934Z" fill="#00966D"/>
</svg>
