<svg width="24" height="25" viewBox="0 0 24 25" fill="none" xmlns="http://www.w3.org/2000/svg">
<path d="M9.46319 10.1061C11.248 10.1061 12.6949 8.65917 12.6949 6.87432C12.6949 5.08948 11.248 3.64258 9.46319 3.64258C7.67835 3.64258 6.23145 5.08948 6.23145 6.87432C6.23145 8.65917 7.67835 10.1061 9.46319 10.1061Z" stroke="#020305" stroke-width="1.4" stroke-linecap="round" stroke-linejoin="round"/>
<path d="M15.927 20.8788H3V19.4425C3 17.7283 3.68097 16.0843 4.89311 14.8721C6.10525 13.66 7.74927 12.979 9.46349 12.979C11.1777 12.979 12.8217 13.66 14.0339 14.8721C15.246 16.0843 15.927 17.7283 15.927 19.4425V20.8788Z" stroke="#020305" stroke-width="1.4" stroke-linecap="round" stroke-linejoin="round"/>
<path d="M15.209 3.64258C16.0661 3.64258 16.8881 3.98306 17.4942 4.58913C18.1002 5.1952 18.4407 6.01721 18.4407 6.87432C18.4407 7.73144 18.1002 8.55344 17.4942 9.15951C16.8881 9.76558 16.0661 10.1061 15.209 10.1061" stroke="#020305" stroke-width="1.4" stroke-linecap="round" stroke-linejoin="round"/>
<path d="M17.5068 13.252C18.7304 13.7174 19.7837 14.5434 20.5275 15.6206C21.2713 16.6978 21.6705 17.9755 21.6722 19.2845V20.8789H19.5177" stroke="#020305" stroke-width="1.4" stroke-linecap="round" stroke-linejoin="round"/>
</svg>
