<svg width="22" height="18" viewBox="0 0 22 18" fill="none" xmlns="http://www.w3.org/2000/svg">
<path fill-rule="evenodd" clip-rule="evenodd" d="M3.875 2.25C2.83947 2.25 2 3.08947 2 4.125V4.59375H20V4.125C20 3.08947 19.1605 2.25 18.125 2.25H3.875ZM2 13.875V7.40625H20V13.875C20 14.9105 19.1605 15.75 18.125 15.75H3.875C2.83947 15.75 2 14.9105 2 13.875ZM0.5 4.125C0.5 2.26104 2.01104 0.75 3.875 0.75H18.125C19.989 0.75 21.5 2.26104 21.5 4.125V13.875C21.5 15.739 19.989 17.25 18.125 17.25H3.875C2.01104 17.25 0.5 15.739 0.5 13.875V4.125ZM5 9.65625C4.22335 9.65625 3.59375 10.2858 3.59375 11.0625V12C3.59375 12.7767 4.22335 13.4062 5 13.4062H7.25C8.02665 13.4062 8.65625 12.7767 8.65625 12V11.0625C8.65625 10.2858 8.02665 9.65625 7.25 9.65625H5Z" fill="#373737"/>
</svg>
