<svg width="24" height="25" viewBox="0 0 24 25" fill="none" xmlns="http://www.w3.org/2000/svg">
<path d="M15.9304 4.56714H18.0306C18.4019 4.56714 18.758 4.71465 19.0206 4.97722C19.2832 5.23979 19.4307 5.59591 19.4307 5.96724V19.9682C19.4307 20.3395 19.2832 20.6957 19.0206 20.9582C18.758 21.2208 18.4019 21.3683 18.0306 21.3683H6.82979C6.45846 21.3683 6.10234 21.2208 5.83977 20.9582C5.5772 20.6957 5.42969 20.3395 5.42969 19.9682V5.96724C5.42969 5.59591 5.5772 5.23979 5.83977 4.97722C6.10234 4.71465 6.45846 4.56714 6.82979 4.56714H8.92993" stroke="#020305" stroke-width="1.4001" stroke-linecap="round" stroke-linejoin="round"/>
<path d="M14.5311 3.16699H10.3308C9.55751 3.16699 8.93066 3.79384 8.93066 4.56709V5.26714C8.93066 6.04039 9.55751 6.66724 10.3308 6.66724H14.5311C15.3043 6.66724 15.9312 6.04039 15.9312 5.26714V4.56709C15.9312 3.79384 15.3043 3.16699 14.5311 3.16699Z" stroke="#020305" stroke-width="1.4001" stroke-linecap="round" stroke-linejoin="round"/>
<path d="M8.93066 14.3679L11.7309 16.468L15.2311 10.8676" stroke="#020305" stroke-width="1.4001" stroke-linecap="round" stroke-linejoin="round"/>
</svg>
