<svg width="16" height="20" viewBox="0 0 16 20" fill="none" xmlns="http://www.w3.org/2000/svg">
<path d="M11.7236 2.58496H13.8061C14.1742 2.58496 14.5274 2.73123 14.7877 2.99158C15.0481 3.25193 15.1943 3.60505 15.1943 3.97324V17.8561C15.1943 18.2243 15.0481 18.5774 14.7877 18.8377C14.5274 19.0981 14.1742 19.2443 13.8061 19.2443H2.6998C2.33161 19.2443 1.97849 19.0981 1.71814 18.8377C1.45779 18.5774 1.31152 18.2243 1.31152 17.8561V3.97324C1.31152 3.60505 1.45779 3.25193 1.71814 2.99158C1.97849 2.73123 2.33161 2.58496 2.6998 2.58496H4.78223" stroke="#020305" stroke-width="1.4" stroke-linecap="round" stroke-linejoin="round"/>
<path d="M10.3357 1.19653H6.17084C5.40412 1.19653 4.78256 1.81809 4.78256 2.58481V3.27895C4.78256 4.04568 5.40412 4.66724 6.17084 4.66724H10.3357C11.1024 4.66724 11.724 4.04568 11.724 3.27895V2.58481C11.724 1.81809 11.1024 1.19653 10.3357 1.19653Z" stroke="#020305" stroke-width="1.4" stroke-linecap="round" stroke-linejoin="round"/>
<path d="M4.31152 8.19653H11.2529" stroke="#020305" stroke-width="1.4" stroke-linecap="round" stroke-linejoin="round"/>
<path d="M4.78256 11.6084H11.724" stroke="#020305" stroke-width="1.4" stroke-linecap="round" stroke-linejoin="round"/>
<path d="M4.78256 15.0796H11.724" stroke="#020305" stroke-width="1.4" stroke-linecap="round" stroke-linejoin="round"/>
</svg>
