<svg width="15" height="17" viewBox="0 0 15 17" fill="none" xmlns="http://www.w3.org/2000/svg">
<path
    fill-rule="evenodd"
    clip-rule="evenodd"
    d="M2.4541 1.40853C2.4541 1.08636 2.71527 0.825195 3.03743 0.825195H11.1142C11.4364 0.825195 11.6976 1.08636 11.6976 1.40853V4.87001C11.6976 6.09577 11.2106 7.27133 10.3439 8.13807C9.47715 9.00482 8.3016 9.49175 7.07584 9.49175C5.85008 9.49175 4.67452 9.00482 3.80778 8.13807C2.94103 7.27133 2.4541 6.09577 2.4541 4.87001V1.40853ZM3.62077 1.99186V4.87001C3.62077 5.78636 3.98478 6.66517 4.63273 7.31312C5.28069 7.96107 6.15949 8.32508 7.07584 8.32508C7.99218 8.32508 8.87099 7.96107 9.51894 7.31312C10.1669 6.66517 10.5309 5.78636 10.5309 4.87001V1.99186H3.62077Z"
    fill="#2F4786"
  />
<path
    fill-rule="evenodd"
    clip-rule="evenodd"
    d="M3.80778 9.67887C4.67452 8.81213 5.85008 8.3252 7.07584 8.3252C8.3016 8.3252 9.47715 8.81213 10.3439 9.67887C11.2106 10.5456 11.6976 11.7212 11.6976 12.9469V16.4084C11.6976 16.7306 11.4364 16.9917 11.1142 16.9917H3.03743C2.71527 16.9917 2.4541 16.7306 2.4541 16.4084V12.9469C2.4541 11.7212 2.94103 10.5456 3.80778 9.67887ZM7.07584 9.49186C6.15949 9.49186 5.28069 9.85588 4.63273 10.5038C3.98478 11.1518 3.62077 12.0306 3.62077 12.9469V15.8251H10.5309V12.9469C10.5309 12.0306 10.1669 11.1518 9.51894 10.5038C8.87099 9.85588 7.99218 9.49186 7.07584 9.49186Z"
    fill="#2F4786"
  />
<path
    fill-rule="evenodd"
    clip-rule="evenodd"
    d="M0.146484 1.40853C0.146484 1.08636 0.407652 0.825195 0.729818 0.825195H13.4219C13.7441 0.825195 14.0053 1.08636 14.0053 1.40853C14.0053 1.73069 13.7441 1.99186 13.4219 1.99186H0.729818C0.407652 1.99186 0.146484 1.73069 0.146484 1.40853Z"
    fill="#2F4786"
  />
<path
    fill-rule="evenodd"
    clip-rule="evenodd"
    d="M0.146484 16.4085C0.146484 16.0864 0.407652 15.8252 0.729818 15.8252H13.4219C13.7441 15.8252 14.0053 16.0864 14.0053 16.4085C14.0053 16.7307 13.7441 16.9919 13.4219 16.9919H0.729818C0.407652 16.9919 0.146484 16.7307 0.146484 16.4085Z"
    fill="#2F4786"
  />
</svg>
