<svg width="24" height="24" viewBox="0 0 24 24" fill="none" xmlns="http://www.w3.org/2000/svg">
<g clip-path="url(#clip0_6470_1209)">
<path fill-rule="evenodd" clip-rule="evenodd" d="M12 0C18.627 0 24 5.37305 24 12C24 18.627 18.627 24 12 24C5.37305 24 0 18.627 0 12C0 5.37305 5.37305 0 12 0Z" fill="#2394E0"/>
<path fill-rule="evenodd" clip-rule="evenodd" d="M2.29688 18.1992C1.58984 17.127 1.06055 15.9258 0.75 14.6387L2.86328 15.6582L2.875 16.2891C2.875 16.5215 2.48047 17.0137 2.35352 17.2012L2.29688 18.1992ZM15.2949 1.26953C19.3223 2.60742 22.3438 6.15234 22.9258 10.4688L22.5449 10.4277C22.4766 10.7207 22.4141 10.7266 22.4141 11.0781C22.4141 11.3887 22.8047 11.5957 22.8047 12.25C22.8047 12.4258 22.3926 12.7754 22.375 12.8379L21.7637 12.1211V13.0332L21.6719 13.0293L21.5078 11.3457L21.166 11.4531L20.7598 10.2012L19.4219 11.5996L19.4062 12.623L18.9688 12.916L18.5039 10.291L18.2266 10.4941L17.5977 9.64453L16.6582 9.67188L16.2988 9.25977L15.9297 9.36133L15.2051 8.53125L15.0645 8.62695L15.5137 9.77539H16.0352V9.51563H16.2949C16.4824 10.0352 16.6855 9.72656 16.6855 10.0371C16.6855 11.1211 15.3477 11.918 14.4707 12.1211C14.5176 12.3164 14.5 12.5117 14.7305 12.5117C15.2207 12.5117 14.9766 12.4258 15.5117 12.3809C15.4863 13.4883 14.2422 14.8105 13.7109 15.6328L13.9492 17.3301C14.0117 17.6992 13.1836 18.0879 12.9023 18.5039L13.0371 19.1543L12.6563 19.3086C12.5898 19.9766 11.9414 20.7168 11.2129 20.7168H10.4316C10.4316 19.8027 9.7793 18.4961 9.7793 17.8496C9.7793 17.3008 10.0391 17.2266 10.0391 16.5469C10.0391 15.918 9.38867 15.0176 9.38867 14.8535V13.8105H8.86719C8.78906 13.5195 8.83789 13.4199 8.47656 13.4199H8.3457C7.77734 13.4199 7.87305 13.6797 7.30273 13.6797H6.78125C6.31055 13.6797 5.47852 12.1719 5.47852 11.9863V10.4238C5.47852 9.75 6.0957 9.01562 6.52148 8.73047V8.08008L7.10742 7.48438L7.43359 7.42969C8.13281 7.42969 8.04883 7.03906 8.47656 7.03906H9.64844V7.95117L10.9375 8.50195L11.0586 7.94531C11.6426 8.08203 11.7949 8.3418 12.5137 8.3418H12.7734C13.2676 8.3418 13.2949 7.68555 13.2949 7.16992L12.252 7.27344L11.7969 6.28516L11.3457 6.4043C11.4277 6.75781 11.4707 6.61133 11.4707 6.91016C11.4707 7.08594 11.3262 7.10547 11.209 7.16992L10.7578 6.02539L9.78711 5.33203L9.6582 5.45898L10.4844 6.32812C10.375 6.64062 10.3613 7.54102 9.90625 6.91016L10.332 6.70508L9.26953 5.5918L8.63281 5.83984L8.00391 6.44141C7.9375 6.92578 7.80664 7.16992 7.29883 7.16992C6.96094 7.16992 7.16406 7.08203 6.64648 7.03906V5.73633H7.81836L7.4375 4.86914L7.29688 4.95508V4.69336L9.20117 3.81641C9.16602 3.54297 9.12109 3.68945 9.12109 3.39062C9.12109 3.37305 9.24805 3.13281 9.25195 3.12891L9.74414 3.43555L9.62695 2.875L8.86719 3.03125L8.72656 2.34961C9.32812 2.0332 10.6543 0.916016 11.0762 0.916016H11.4668C11.8789 0.916016 12.9805 1.32227 13.1602 1.56641L12.1152 1.46094L12.8906 2.09961L12.9648 1.82617L13.543 1.66797L13.5508 1.30664H13.8125V1.69727L15.2949 1.26953Z" fill="#A1E367"/>
</g>
<defs>
<clipPath id="clip0_6470_1209">
<rect width="24" height="24" fill="white"/>
</clipPath>
</defs>
</svg>
