<svg width="36" height="36" viewBox="0 0 36 36" fill="none" xmlns="http://www.w3.org/2000/svg">
<path d="M10.1602 25.2354H22.847" stroke="#2F4786" stroke-width="1.4" stroke-linecap="round" stroke-linejoin="round"/>
<path d="M17.0802 21.1988L13.6201 21.8216L14.1968 18.3155L21.9588 10.5765C22.066 10.4684 22.1936 10.3826 22.3341 10.3241C22.4747 10.2655 22.6254 10.2354 22.7777 10.2354C22.9299 10.2354 23.0807 10.2655 23.2212 10.3241C23.3618 10.3826 23.4893 10.4684 23.5966 10.5765L24.8191 11.7991C24.9272 11.9063 25.013 12.0338 25.0716 12.1744C25.1301 12.3149 25.1603 12.4657 25.1603 12.6179C25.1603 12.7702 25.1301 12.9209 25.0716 13.0615C25.013 13.202 24.9272 13.3296 24.8191 13.4368L17.0802 21.1988Z" stroke="#2F4786" stroke-width="1.4" stroke-linecap="round" stroke-linejoin="round"/>
</svg>
