<svg width="24" height="25" viewBox="0 0 24 25" fill="none" xmlns="http://www.w3.org/2000/svg">
<path d="M3 19.2967V6.03863C3 5.6685 3.14703 5.31353 3.40876 5.05181C3.67048 4.79008 4.02545 4.64305 4.39558 4.64305H9.54528C9.86408 4.63376 10.1764 4.73395 10.4304 4.92693C10.6843 5.11991 10.8645 5.39404 10.9409 5.70369L11.3735 7.43421H19.747C20.1171 7.43421 20.4721 7.58125 20.7338 7.84297C20.9955 8.10469 21.1426 8.45967 21.1426 8.8298V19.2967C21.1426 19.6668 20.9955 20.0218 20.7338 20.2835C20.4721 20.5452 20.1171 20.6923 19.747 20.6923H4.39558C4.02545 20.6923 3.67048 20.5452 3.40876 20.2835C3.14703 20.0218 3 19.6668 3 19.2967Z" stroke="#020305" stroke-width="1.39558" stroke-linecap="round" stroke-linejoin="round"/>
<path d="M9.27979 15.1097L11.3732 16.5053L14.8621 10.923" stroke="#020305" stroke-width="1.39558" stroke-linecap="round" stroke-linejoin="round"/>
</svg>
