<svg width="24" height="24" viewBox="0 0 24 24" fill="none" xmlns="http://www.w3.org/2000/svg">
<path
    d="M11.5821 11.5579C11.1689 10.8724 10.5845 10.3062 9.8864 9.91478C9.18827 9.52338 8.40036 9.32025 7.60001 9.32534C6.47339 9.3165 5.38271 9.72144 4.53482 10.4633C3.68693 11.2052 3.1408 12.2325 3 13.3503"
    stroke="#020305"
    stroke-width="1.2"
    stroke-linecap="round"
    stroke-linejoin="round"
  />
<path
    d="M5.01172 5.5875C5.01172 6.27375 5.28433 6.93189 5.76958 7.41714C6.25483 7.9024 6.91297 8.17501 7.59922 8.17501C8.28547 8.17501 8.94361 7.9024 9.42886 7.41714C9.91411 6.93189 10.1867 6.27375 10.1867 5.5875C10.1867 4.90125 9.91411 4.24311 9.42886 3.75786C8.94361 3.27261 8.28547 3 7.59922 3C6.91297 3 6.25483 3.27261 5.76958 3.75786C5.28433 4.24311 5.01172 4.90125 5.01172 5.5875V5.5875Z"
    stroke="#020305"
    stroke-width="1.2"
    stroke-linecap="round"
    stroke-linejoin="round"
  />
<path
    d="M13.0625 5.0125C13.0625 5.54625 13.2745 6.05814 13.6519 6.43556C14.0294 6.81297 14.5413 7.025 15.075 7.025C15.6088 7.025 16.1206 6.81297 16.4981 6.43556C16.8755 6.05814 17.0875 5.54625 17.0875 5.0125C17.0875 4.47875 16.8755 3.96687 16.4981 3.58945C16.1206 3.21203 15.6088 3 15.075 3C14.5413 3 14.0294 3.21203 13.6519 3.58945C13.2745 3.96687 13.0625 4.47875 13.0625 5.0125V5.0125Z"
    stroke="#020305"
    stroke-width="1.2"
    stroke-linecap="round"
    stroke-linejoin="round"
  />
<path
    d="M17.6579 8.76463C17.333 8.39763 16.9336 8.10408 16.4864 7.90354C16.0391 7.703 15.5542 7.60006 15.0641 7.60158C14.5739 7.6031 14.0897 7.70905 13.6437 7.91237C13.1977 8.1157 12.8002 8.41172 12.4775 8.78072"
    stroke="#020305"
    stroke-width="1.2"
    stroke-linecap="round"
    stroke-linejoin="round"
  />
<path
    d="M11.0498 16.225C11.0498 16.6825 11.2315 17.1213 11.555 17.4448C11.8785 17.7683 12.3173 17.95 12.7748 17.95C13.2323 17.95 13.6711 17.7683 13.9946 17.4448C14.3181 17.1213 14.4998 16.6825 14.4998 16.225C14.4998 15.7675 14.3181 15.3287 13.9946 15.0052C13.6711 14.6817 13.2323 14.5 12.7748 14.5C12.3173 14.5 11.8785 14.6817 11.555 15.0052C11.2315 15.3287 11.0498 15.7675 11.0498 16.225Z"
    stroke="#020305"
    stroke-width="1.2"
    stroke-linecap="round"
    stroke-linejoin="round"
  />
<path
    d="M16.7998 18.5248C16.7998 18.9823 16.9815 19.4211 17.305 19.7446C17.6285 20.0681 18.0673 20.2498 18.5248 20.2498C18.9823 20.2498 19.4211 20.0681 19.7446 19.7446C20.0681 19.4211 20.2498 18.9823 20.2498 18.5248C20.2498 18.0673 20.0681 17.6285 19.7446 17.305C19.4211 16.9815 18.9823 16.7998 18.5248 16.7998C18.0673 16.7998 17.6285 16.9815 17.305 17.305C16.9815 17.6285 16.7998 18.0673 16.7998 18.5248V18.5248Z"
    stroke="#020305"
    stroke-width="1.2"
    stroke-linecap="round"
    stroke-linejoin="round"
  />
<path
    d="M16.7998 12.7748C16.7998 13.2323 16.9815 13.6711 17.305 13.9946C17.6285 14.3181 18.0673 14.4998 18.5248 14.4998C18.9823 14.4998 19.4211 14.3181 19.7446 13.9946C20.0681 13.6711 20.2498 13.2323 20.2498 12.7748C20.2498 12.3173 20.0681 11.8785 19.7446 11.555C19.4211 11.2315 18.9823 11.0498 18.5248 11.0498C18.0673 11.0498 17.6285 11.2315 17.305 11.555C16.9815 11.8785 16.7998 12.3173 16.7998 12.7748V12.7748Z"
    stroke="#020305"
    stroke-width="1.2"
    stroke-linecap="round"
    stroke-linejoin="round"
  />
<path
    d="M14.251 15.3392L17.0493 13.6602"
    stroke="#020305"
    stroke-width="1.2"
    stroke-linecap="round"
    stroke-linejoin="round"
  />
<path
    d="M14.376 16.8652L16.9244 17.8849"
    stroke="#020305"
    stroke-width="1.2"
    stroke-linecap="round"
    stroke-linejoin="round"
  />
</svg>
