<svg width="25" height="24" viewBox="0 0 25 24" fill="none" xmlns="http://www.w3.org/2000/svg">
<path
    d="M11.8389 11.565C11.432 10.8899 10.8565 10.3323 10.169 9.94684C9.48144 9.56138 8.7055 9.36134 7.91731 9.36635C6.80782 9.35765 5.73371 9.75643 4.8987 10.4871C4.0637 11.2177 3.52586 12.2294 3.38721 13.3302"
    stroke="#2F4786"
    stroke-width="1.2"
    stroke-linecap="round"
    stroke-linejoin="round"
  />
<path
    d="M5.36865 5.6849C5.36865 6.36072 5.63712 7.00886 6.115 7.48674C6.59287 7.96462 7.24101 8.23308 7.91683 8.23308C8.59265 8.23308 9.24079 7.96462 9.71867 7.48674C10.1965 7.00886 10.465 6.36072 10.465 5.6849C10.465 5.00908 10.1965 4.36094 9.71867 3.88306C9.24079 3.40519 8.59265 3.13672 7.91683 3.13672C7.24101 3.13672 6.59287 3.40519 6.115 3.88306C5.63712 4.36094 5.36865 5.00908 5.36865 5.6849V5.6849Z"
    stroke="#2F4786"
    stroke-width="1.2"
    stroke-linecap="round"
    stroke-linejoin="round"
  />
<path
    d="M13.2964 5.11864C13.2964 5.64428 13.5052 6.14839 13.8769 6.52007C14.2486 6.89175 14.7527 7.10056 15.2783 7.10056C15.8039 7.10056 16.3081 6.89175 16.6797 6.52007C17.0514 6.14839 17.2602 5.64428 17.2602 5.11864C17.2602 4.593 17.0514 4.08889 16.6797 3.71721C16.3081 3.34553 15.8039 3.13672 15.2783 3.13672C14.7527 3.13672 14.2486 3.34553 13.8769 3.71721C13.5052 4.08889 13.2964 4.593 13.2964 5.11864V5.11864Z"
    stroke="#2F4786"
    stroke-width="1.2"
    stroke-linecap="round"
    stroke-linejoin="round"
  />
<path
    d="M17.8228 8.81336C17.5029 8.45194 17.1095 8.16285 16.6691 7.96536C16.2286 7.76786 15.7511 7.66648 15.2684 7.66799C14.7857 7.66949 14.3089 7.77383 13.8697 7.97406C13.4304 8.17429 13.0389 8.46581 12.7212 8.82921"
    stroke="#2F4786"
    stroke-width="1.2"
    stroke-linecap="round"
    stroke-linejoin="round"
  />
<path
    d="M11.3149 16.1607C11.3149 16.6112 11.4939 17.0433 11.8125 17.3619C12.1311 17.6805 12.5632 17.8595 13.0137 17.8595C13.4643 17.8595 13.8964 17.6805 14.215 17.3619C14.5335 17.0433 14.7125 16.6112 14.7125 16.1607C14.7125 15.7102 14.5335 15.2781 14.215 14.9595C13.8964 14.6409 13.4643 14.4619 13.0137 14.4619C12.5632 14.4619 12.1311 14.6409 11.8125 14.9595C11.4939 15.2781 11.3149 15.7102 11.3149 16.1607Z"
    stroke="#2F4786"
    stroke-width="1.2"
    stroke-linecap="round"
    stroke-linejoin="round"
  />
<path
    d="M16.9775 18.4254C16.9775 18.8759 17.1565 19.308 17.4751 19.6266C17.7937 19.9452 18.2258 20.1241 18.6763 20.1241C19.1269 20.1241 19.559 19.9452 19.8776 19.6266C20.1961 19.308 20.3751 18.8759 20.3751 18.4254C20.3751 17.9748 20.1961 17.5427 19.8776 17.2241C19.559 16.9055 19.1269 16.7266 18.6763 16.7266C18.2258 16.7266 17.7937 16.9055 17.4751 17.2241C17.1565 17.5427 16.9775 17.9748 16.9775 18.4254V18.4254Z"
    stroke="#2F4786"
    stroke-width="1.2"
    stroke-linecap="round"
    stroke-linejoin="round"
  />
<path
    d="M16.9775 12.7632C16.9775 13.2138 17.1565 13.6459 17.4751 13.9645C17.7937 14.2831 18.2258 14.462 18.6763 14.462C19.1269 14.462 19.559 14.2831 19.8776 13.9645C20.1961 13.6459 20.3751 13.2138 20.3751 12.7632C20.3751 12.3127 20.1961 11.8806 19.8776 11.562C19.559 11.2434 19.1269 11.0645 18.6763 11.0645C18.2258 11.0645 17.7937 11.2434 17.4751 11.562C17.1565 11.8806 16.9775 12.3127 16.9775 12.7632V12.7632Z"
    stroke="#2F4786"
    stroke-width="1.2"
    stroke-linecap="round"
    stroke-linejoin="round"
  />
<path
    d="M14.4668 15.2883L17.2226 13.6348"
    stroke="#2F4786"
    stroke-width="1.2"
    stroke-linecap="round"
    stroke-linejoin="round"
  />
<path
    d="M14.5903 16.791L17.1 17.7952"
    stroke="#2F4786"
    stroke-width="1.2"
    stroke-linecap="round"
    stroke-linejoin="round"
  />
</svg>
