<svg width="20" height="20" viewBox="0 0 20 20" fill="none" xmlns="http://www.w3.org/2000/svg">
<path
    d="M11.939 13.9321L11.9273 13.9205L11.9135 13.9294C10.8793 14.5935 9.65105 14.9806 8.33338 14.9806C4.66867 14.9806 1.68706 11.999 1.68706 8.33426C1.68706 4.66955 4.6686 1.68801 8.33331 1.68801C11.998 1.68801 14.9796 4.66968 14.9796 8.33426C14.9796 9.65186 14.5925 10.8801 13.9284 11.9144L13.9195 11.9282L13.9311 11.9398L17.9008 15.9096C18.45 16.4588 18.45 17.3524 17.9008 17.9017C17.6349 18.1676 17.2814 18.3139 16.9048 18.3139C16.5282 18.3139 16.1747 18.1676 15.9087 17.9018L11.939 13.9321ZM4.78812 12.8231L4.78599 12.8351L4.7956 12.8427C5.77081 13.6096 6.99967 14.069 8.33372 14.069C9.66777 14.069 10.8961 13.6096 11.8715 12.8427L11.8811 12.8351L11.879 12.8231C11.6376 11.4581 10.4616 10.4568 9.04783 10.4568H7.61926C6.20545 10.4568 5.02953 11.4581 4.78812 12.8231ZM17.2563 16.5544L17.2563 16.5544L13.3835 12.6816L13.368 12.6661L13.3537 12.6826C13.1457 12.9224 12.9212 13.1469 12.6814 13.3549L12.6649 13.3692L12.6804 13.3847L16.5531 17.2575L16.5532 17.2575C16.7406 17.4447 17.0688 17.4448 17.2563 17.2574C17.45 17.0637 17.45 16.7482 17.2563 16.5544ZM12.6245 12.0863L12.636 12.1197L12.6592 12.0931C13.5356 11.0856 14.0681 9.7715 14.0681 8.33446C14.0681 5.17228 11.4954 2.59978 8.33338 2.59978C5.17133 2.59978 2.59849 5.17227 2.59849 8.33446C2.59849 9.77164 3.13092 11.0857 4.00734 12.0931L4.03053 12.1197L4.04204 12.0863C4.55727 10.5904 5.96278 9.54551 7.61899 9.54551H9.04756C10.7039 9.54551 12.1094 10.5904 12.6245 12.0863Z"
    fill="white"
    stroke="white"
    stroke-width="0.0408162"
  />
<path
    d="M10.4464 6.41989C10.4464 7.72147 9.38739 8.78043 8.08581 8.78043C6.78423 8.78043 5.72527 7.72147 5.72527 6.41989C5.72527 5.1183 6.78423 4.05935 8.08581 4.05935C9.38739 4.05935 10.4464 5.1183 10.4464 6.41989ZM9.53479 6.41989C9.53479 5.62086 8.88484 4.97091 8.08581 4.97091C7.28679 4.97091 6.63684 5.62086 6.63684 6.41989C6.63684 7.21891 7.28679 7.86886 8.08581 7.86886C8.88484 7.86886 9.53479 7.21891 9.53479 6.41989Z"
    fill="white"
    stroke="white"
    stroke-width="0.0408162"
  />
</svg>
