<svg width="20" height="18" viewBox="0 0 20 18" fill="none" xmlns="http://www.w3.org/2000/svg">
<path
    d="M1 15.6542V2.39618C1 2.02604 1.14703 1.67107 1.40876 1.40935C1.67048 1.14763 2.02545 1.00059 2.39558 1.00059H7.54528C7.86408 0.991304 8.17645 1.09149 8.43037 1.28447C8.68429 1.47745 8.86446 1.75159 8.94087 2.06124L9.3735 3.79176H17.747C18.1171 3.79176 18.4721 3.93879 18.7338 4.20051C18.9955 4.46224 19.1426 4.81721 19.1426 5.18734V15.6542C19.1426 16.0243 18.9955 16.3793 18.7338 16.641C18.4721 16.9028 18.1171 17.0498 17.747 17.0498H2.39558C2.02545 17.0498 1.67048 16.9028 1.40876 16.641C1.14703 16.3793 1 16.0243 1 15.6542Z"
    stroke="#020305"
    stroke-width="1.39558"
    stroke-linecap="round"
    stroke-linejoin="round"
  />
<path
    d="M7.2793 11.468L9.37267 12.8636L12.8616 7.28125"
    stroke="#020305"
    stroke-width="1.39558"
    stroke-linecap="round"
    stroke-linejoin="round"
  />
</svg>
