<svg width="18" height="19" viewBox="0 0 18 19" fill="none" xmlns="http://www.w3.org/2000/svg">
<path d="M10.7465 13.0366L10.7349 13.025L10.7211 13.0339C9.79061 13.6314 8.68555 13.9796 7.50005 13.9796C4.20294 13.9796 1.52041 11.2971 1.52041 7.99999C1.52041 4.70288 4.20288 2.02041 7.49999 2.02041C10.7971 2.02041 13.4796 4.703 13.4796 7.99999C13.4796 9.18543 13.1314 10.2905 12.5338 11.221L12.5249 11.2348L12.5366 11.2465L16.1093 14.8192C16.6027 15.3127 16.6027 16.1157 16.1093 16.6093C15.8704 16.8482 15.5528 16.9796 15.2143 16.9796C14.8759 16.9796 14.5583 16.8482 14.3193 16.6094C14.3193 16.6094 14.3193 16.6094 14.3193 16.6094L10.7465 13.0366ZM4.30731 12.0396L4.30518 12.0516L4.31479 12.0592C5.19282 12.7497 6.29923 13.1633 7.50036 13.1633C8.70148 13.1633 9.80746 12.7497 10.6856 12.0592L10.6952 12.0516L10.6931 12.0396C10.4757 10.8101 9.41645 9.90821 8.14306 9.90821H6.85735C5.58392 9.90821 4.52475 10.8101 4.30731 12.0396ZM15.5321 15.3967L15.5321 15.3966L12.0466 11.9111L12.0311 11.8956L12.0168 11.9122C11.8297 12.1279 11.6277 12.3299 11.412 12.517L11.3954 12.5314L11.4109 12.5469L14.8964 16.0324L14.8964 16.0324C15.0659 16.2016 15.3626 16.2018 15.5321 16.0322C15.7073 15.8571 15.7073 15.5719 15.5321 15.3967ZM11.3601 11.3775L11.3716 11.4109L11.3948 11.3843C12.1839 10.4772 12.6633 9.29402 12.6633 8.00017C12.6633 5.15308 10.347 2.83692 7.50005 2.83692C4.65308 2.83692 2.33661 5.15308 2.33661 8.00017C2.33661 9.29414 2.81599 10.4773 3.60508 11.3843L3.62827 11.4109L3.63977 11.3775C4.1032 10.032 5.3674 9.09216 6.8571 9.09216H8.14281C9.63264 9.09216 10.8968 10.032 11.3601 11.3775Z" fill="white" stroke="white" stroke-width="0.0408162"/>
<path d="M9.40006 6.27664C9.40006 7.44694 8.44792 8.39909 7.27762 8.39909C6.10732 8.39909 5.15517 7.44694 5.15517 6.27664C5.15517 5.10634 6.10732 4.1542 7.27762 4.1542C8.44792 4.1542 9.40006 5.10634 9.40006 6.27664ZM8.58374 6.27664C8.58374 5.55639 7.99787 4.97052 7.27762 4.97052C6.55737 4.97052 5.9715 5.55639 5.9715 6.27664C5.9715 6.99689 6.55737 7.58276 7.27762 7.58276C7.99787 7.58276 8.58374 6.99689 8.58374 6.27664Z" fill="white" stroke="white" stroke-width="0.0408162"/>
</svg>
