<svg width="20" height="21" viewBox="0 0 20 21" fill="none" xmlns="http://www.w3.org/2000/svg">
<path
    fill-rule="evenodd"
    clip-rule="evenodd"
    d="M5.4541 3.40755C5.4541 3.08539 5.71527 2.82422 6.03743 2.82422H14.1142C14.4364 2.82422 14.6976 3.08539 14.6976 3.40755V6.86904C14.6976 8.0948 14.2106 9.27035 13.3439 10.1371C12.4772 11.0038 11.3016 11.4908 10.0758 11.4908C8.85008 11.4908 7.67452 11.0038 6.80778 10.1371C5.94103 9.27035 5.4541 8.0948 5.4541 6.86904V3.40755ZM6.62077 3.99089V6.86904C6.62077 7.78538 6.98478 8.66419 7.63273 9.31214C8.28069 9.96009 9.15949 10.3241 10.0758 10.3241C10.9922 10.3241 11.871 9.96009 12.5189 9.31214C13.1669 8.66419 13.5309 7.78538 13.5309 6.86904V3.99089H6.62077Z"
    fill="#2F4786"
  />
<path
    fill-rule="evenodd"
    clip-rule="evenodd"
    d="M6.80778 11.6779C7.67452 10.8112 8.85008 10.3242 10.0758 10.3242C11.3016 10.3242 12.4772 10.8112 13.3439 11.6779C14.2106 12.5446 14.6976 13.7202 14.6976 14.946V18.4074C14.6976 18.7296 14.4364 18.9908 14.1142 18.9908H6.03743C5.71527 18.9908 5.4541 18.7296 5.4541 18.4074V14.946C5.4541 13.7202 5.94103 12.5446 6.80778 11.6779ZM10.0758 11.4909C9.15949 11.4909 8.28069 11.8549 7.63273 12.5029C6.98478 13.1508 6.62077 14.0296 6.62077 14.946V17.8241H13.5309V14.946C13.5309 14.0296 13.1669 13.1508 12.5189 12.5029C11.871 11.8549 10.9922 11.4909 10.0758 11.4909Z"
    fill="#2F4786"
  />
<path
    fill-rule="evenodd"
    clip-rule="evenodd"
    d="M3.14648 3.40755C3.14648 3.08539 3.40765 2.82422 3.72982 2.82422H16.4219C16.7441 2.82422 17.0053 3.08539 17.0053 3.40755C17.0053 3.72972 16.7441 3.99089 16.4219 3.99089H3.72982C3.40765 3.99089 3.14648 3.72972 3.14648 3.40755Z"
    fill="#2F4786"
  />
<path
    fill-rule="evenodd"
    clip-rule="evenodd"
    d="M3.14648 18.4076C3.14648 18.0854 3.40765 17.8242 3.72982 17.8242H16.4219C16.7441 17.8242 17.0053 18.0854 17.0053 18.4076C17.0053 18.7297 16.7441 18.9909 16.4219 18.9909H3.72982C3.40765 18.9909 3.14648 18.7297 3.14648 18.4076Z"
    fill="#2F4786"
  />
</svg>
