<svg width="24" height="24" viewBox="0 0 24 24" fill="none" xmlns="http://www.w3.org/2000/svg">
<path
    d="M4.28487 20.8738L19.4155 20.8738C20.1752 20.8738 20.791 20.2579 20.791 19.4983L20.791 4.36764C20.791 3.60796 20.1752 2.99212 19.4155 2.99212L4.28487 2.99212C3.5252 2.99212 2.90936 3.60796 2.90936 4.36764L2.90936 19.4983C2.90936 20.2579 3.5252 20.8738 4.28487 20.8738Z"
    stroke="#2F4786"
    stroke-width="1.4"
    stroke-linecap="round"
    stroke-linejoin="round"
  />
<path
    d="M14.9306 11.2454C16.26 11.2454 17.3377 10.1677 17.3377 8.8383C17.3377 7.50887 16.26 6.43115 14.9306 6.43115C13.6012 6.43115 12.5234 7.50887 12.5234 8.8383C12.5234 10.1677 13.6012 11.2454 14.9306 11.2454Z"
    stroke="#2F4786"
    stroke-width="1.4"
    stroke-linecap="round"
    stroke-linejoin="round"
  />
<path
    d="M15.1366 20.8738C14.6937 18.5148 13.427 16.3899 11.5626 14.8782C9.69825 13.3666 7.35741 12.5665 4.9578 12.6208C4.26547 12.6189 3.57456 12.6834 2.89453 12.8133"
    stroke="#2F4786"
    stroke-width="1.4"
    stroke-linecap="round"
    stroke-linejoin="round"
  />
<path
    d="M20.7773 15.9358C19.6695 15.5617 18.5079 15.3712 17.3386 15.3719C15.8584 15.3686 14.3933 15.6682 13.0332 16.2522"
    stroke="#2F4786"
    stroke-width="1.4"
    stroke-linecap="round"
    stroke-linejoin="round"
  />
</svg>
