<svg width="20" height="21" viewBox="0 0 20 21" fill="none" xmlns="http://www.w3.org/2000/svg">
<path
    d="M9.89068 15.7931C12.781 15.7931 15.1241 13.45 15.1241 10.5596C15.1241 7.66927 12.781 5.32617 9.89068 5.32617C7.00032 5.32617 4.65723 7.66927 4.65723 10.5596C4.65723 13.45 7.00032 15.7931 9.89068 15.7931Z"
    stroke="#2F4786"
    stroke-width="1.39559"
    stroke-linecap="round"
    stroke-linejoin="round"
  />
<path
    d="M9.89107 11.1408C10.2122 11.1408 10.4726 10.8804 10.4726 10.5593C10.4726 10.2381 10.2122 9.97778 9.89107 9.97778C9.56991 9.97778 9.30957 10.2381 9.30957 10.5593C9.30957 10.8804 9.56991 11.1408 9.89107 11.1408Z"
    stroke="#2F4786"
    stroke-width="1.39559"
    stroke-linecap="round"
    stroke-linejoin="round"
  />
<path d="M9.89062 5.32598V3" stroke="#2F4786" stroke-width="1.39559" stroke-linecap="round" stroke-linejoin="round" />
<path
    d="M9.89062 18.1187V15.7927"
    stroke="#2F4786"
    stroke-width="1.39559"
    stroke-linecap="round"
    stroke-linejoin="round"
  />
<path
    d="M15.124 10.5596H17.45"
    stroke="#2F4786"
    stroke-width="1.39559"
    stroke-linecap="round"
    stroke-linejoin="round"
  />
<path
    d="M2.33105 10.5596H4.65704"
    stroke="#2F4786"
    stroke-width="1.39559"
    stroke-linecap="round"
    stroke-linejoin="round"
  />
</svg>
