<svg width="24" height="24" viewBox="0 0 24 24" fill="none" xmlns="http://www.w3.org/2000/svg">
<path
    d="M7.90221 11.3838L3.41362 15.8304C3.28256 15.9604 3.17853 16.1151 3.10754 16.2855C3.03655 16.4559 3 16.6386 3 16.8232C3 17.0078 3.03655 17.1906 3.10754 17.361C3.17853 17.5314 3.28256 17.686 3.41362 17.816L6.37804 20.7805C6.50804 20.9115 6.66269 21.0155 6.83309 21.0865C7.00349 21.1575 7.18625 21.1941 7.37085 21.1941C7.55544 21.1941 7.73821 21.1575 7.90861 21.0865C8.079 21.0155 8.23366 20.9115 8.36365 20.7805L12.8103 16.2919"
    stroke="#2F4786"
    stroke-width="1.39831"
    stroke-linecap="round"
    stroke-linejoin="round"
  />
<path
    d="M16.2928 12.8103L20.7395 8.36365C20.8705 8.23366 20.9746 8.079 21.0456 7.90861C21.1166 7.73821 21.1531 7.55544 21.1531 7.37085C21.1531 7.18625 21.1166 7.00349 21.0456 6.83309C20.9746 6.66269 20.8705 6.50804 20.7395 6.37804L17.817 3.41362C17.687 3.28256 17.5324 3.17853 17.362 3.10754C17.1916 3.03655 17.0088 3 16.8242 3C16.6396 3 16.4568 3.03655 16.2864 3.10754C16.116 3.17853 15.9614 3.28256 15.8314 3.41362L11.3848 7.90221"
    stroke="#2F4786"
    stroke-width="1.39831"
    stroke-linecap="round"
    stroke-linejoin="round"
  />
<path
    d="M14.894 9.30054L9.30078 14.8938"
    stroke="#2F4786"
    stroke-width="1.39831"
    stroke-linecap="round"
    stroke-linejoin="round"
  />
</svg>
