<svg width="24" height="25" viewBox="0 0 24 25" fill="none" xmlns="http://www.w3.org/2000/svg">
<path
    d="M15.6508 12.7862C15.7104 12.6327 15.815 12.5007 15.9509 12.4077C16.0868 12.3147 16.2477 12.2649 16.4124 12.2649C16.5771 12.2649 16.738 12.3147 16.8739 12.4077C17.0098 12.5007 17.1144 12.6327 17.174 12.7862L18.0603 15.0434H20.4283C20.5966 15.0459 20.7604 15.0986 20.8986 15.1949C21.0368 15.2911 21.1431 15.4264 21.2038 15.5835C21.2624 15.7383 21.2726 15.9073 21.233 16.068C21.1934 16.2287 21.106 16.3737 20.9822 16.4836L18.8912 18.3531L19.7774 20.1256C19.8577 20.2812 19.8848 20.4588 19.8548 20.6313C19.8248 20.8037 19.7393 20.9617 19.6113 21.0811C19.4841 21.202 19.3224 21.2803 19.1487 21.3051C18.975 21.3299 18.7978 21.3 18.6419 21.2196L16.4124 19.9594L14.1829 21.178C14.0269 21.2585 13.8498 21.2884 13.6761 21.2636C13.5024 21.2388 13.3407 21.1605 13.2135 21.0396C13.0855 20.9202 12.9999 20.7622 12.9699 20.5897C12.9399 20.4172 12.9671 20.2397 13.0474 20.084L13.9336 18.3115L11.8426 16.4282C11.7188 16.3183 11.6314 16.1733 11.5918 16.0126C11.5522 15.8519 11.5624 15.6829 11.621 15.5281C11.6901 15.3814 11.8 15.2577 11.9375 15.1717C12.075 15.0858 12.2344 15.0412 12.3965 15.0434H14.7645L15.6508 12.7862Z"
    stroke="white"
    stroke-width="1.4"
    stroke-linecap="round"
    stroke-linejoin="round"
  />
<path
    d="M8.1036 15.7356H4.64163C4.27436 15.7356 3.92213 15.5897 3.66243 15.33C3.40273 15.0703 3.25684 14.718 3.25684 14.3508V4.65725C3.25684 4.28998 3.40273 3.93775 3.66243 3.67806C3.92213 3.41836 4.27436 3.27246 4.64163 3.27246H18.4895C18.8568 3.27246 19.209 3.41836 19.4687 3.67806C19.7284 3.93775 19.8743 4.28998 19.8743 4.65725V10.1964"
    stroke="white"
    stroke-width="1.4"
    stroke-linecap="round"
    stroke-linejoin="round"
  />
<path
    d="M3.25684 5.01709L11.5656 10.8886L19.8743 5.01709"
    stroke="white"
    stroke-width="1.4"
    stroke-linecap="round"
    stroke-linejoin="round"
  />
</svg>
