<svg width="24" height="24" viewBox="0 0 24 24" fill="none" xmlns="http://www.w3.org/2000/svg">
<path
    d="M8.1036 15.2356H4.64163C4.27436 15.2356 3.92213 15.0897 3.66243 14.83C3.40273 14.5703 3.25684 14.218 3.25684 13.8508V4.15725C3.25684 3.78998 3.40273 3.43775 3.66243 3.17806C3.92213 2.91836 4.27436 2.77246 4.64163 2.77246H18.4895C18.8568 2.77246 19.209 2.91836 19.4687 3.17806C19.7284 3.43775 19.8743 3.78998 19.8743 4.15725V9.69641"
    stroke="#020305"
    stroke-width="1.4"
    stroke-linecap="round"
    stroke-linejoin="round"
  />
<path
    d="M3.25684 4.51709L11.5656 10.3886L19.8743 4.51709"
    stroke="#020305"
    stroke-width="1.4"
    stroke-linecap="round"
    stroke-linejoin="round"
  />
<path
    d="M12 17.4769L14.1 20.1769C14.1709 20.269 14.2617 20.3438 14.3656 20.3957C14.4695 20.4477 14.5838 20.4755 14.7 20.4769C14.8143 20.4782 14.9275 20.4541 15.0313 20.4062C15.135 20.3582 15.2268 20.2878 15.3 20.2L22 12.0923"
    stroke="#020305"
    stroke-width="1.4"
    stroke-linecap="round"
    stroke-linejoin="round"
  />
</svg>
