<svg width="48" height="24" viewBox="0 0 48 24" fill="none" xmlns="http://www.w3.org/2000/svg">
<rect x="0.375" y="0.375" width="23.25" height="23.25" rx="11.625" fill="white" stroke="#E4E6ED" stroke-width="0.75" />
<path
    d="M11.9992 11.8261C13.7231 11.8261 15.1205 10.4287 15.1205 8.7048C15.1205 6.98095 13.7231 5.5835 11.9992 5.5835C10.2754 5.5835 8.87793 6.98095 8.87793 8.7048C8.87793 10.4287 10.2754 11.8261 11.9992 11.8261Z"
    fill="#BEC0C7"
  />
<path
    d="M17.6005 17.4711C17.1914 16.3126 16.4331 15.3094 15.4301 14.5999C14.427 13.8903 13.2286 13.5093 12 13.5093C10.7714 13.5093 9.57295 13.8903 8.56991 14.5999C7.56687 15.3094 6.80856 16.3126 6.39948 17.4711C6.37671 17.5391 6.3697 17.6113 6.37897 17.6824C6.38824 17.7535 6.41355 17.8215 6.45299 17.8814C6.49546 17.9386 6.55053 17.9852 6.61394 18.0177C6.67735 18.0502 6.74739 18.0676 6.81863 18.0686H17.1814C17.2526 18.0676 17.3226 18.0502 17.3861 18.0177C17.4495 17.9852 17.5045 17.9386 17.547 17.8814C17.5864 17.8215 17.6118 17.7535 17.621 17.6824C17.6303 17.6113 17.6233 17.5391 17.6005 17.4711Z"
    fill="#BEC0C7"
  />
<rect x="12.375" y="0.375" width="23.25" height="23.25" rx="11.625" fill="white" stroke="#E4E6ED" stroke-width="0.75" />
<path
    d="M23.9992 11.8261C25.7231 11.8261 27.1205 10.4287 27.1205 8.7048C27.1205 6.98095 25.7231 5.5835 23.9992 5.5835C22.2754 5.5835 20.8779 6.98095 20.8779 8.7048C20.8779 10.4287 22.2754 11.8261 23.9992 11.8261Z"
    fill="#BEC0C7"
  />
<path
    d="M29.6005 17.4711C29.1914 16.3126 28.4331 15.3094 27.4301 14.5999C26.427 13.8903 25.2286 13.5093 24 13.5093C22.7714 13.5093 21.573 13.8903 20.5699 14.5999C19.5669 15.3094 18.8086 16.3126 18.3995 17.4711C18.3767 17.5391 18.3697 17.6113 18.379 17.6824C18.3882 17.7535 18.4136 17.8215 18.453 17.8814C18.4955 17.9386 18.5505 17.9852 18.6139 18.0177C18.6774 18.0502 18.7474 18.0676 18.8186 18.0686H29.1814C29.2526 18.0676 29.3226 18.0502 29.3861 18.0177C29.4495 17.9852 29.5045 17.9386 29.547 17.8814C29.5864 17.8215 29.6118 17.7535 29.621 17.6824C29.6303 17.6113 29.6233 17.5391 29.6005 17.4711Z"
    fill="#BEC0C7"
  />
<rect x="24.375" y="0.375" width="23.25" height="23.25" rx="11.625" fill="white" stroke="#E4E6ED" stroke-width="0.75" />
<path
    d="M35.9992 11.8261C37.7231 11.8261 39.1205 10.4287 39.1205 8.7048C39.1205 6.98095 37.7231 5.5835 35.9992 5.5835C34.2754 5.5835 32.8779 6.98095 32.8779 8.7048C32.8779 10.4287 34.2754 11.8261 35.9992 11.8261Z"
    fill="#BEC0C7"
  />
<path
    d="M41.6005 17.4711C41.1914 16.3126 40.4331 15.3094 39.4301 14.5999C38.427 13.8903 37.2286 13.5093 36 13.5093C34.7714 13.5093 33.573 13.8903 32.5699 14.5999C31.5669 15.3094 30.8086 16.3126 30.3995 17.4711C30.3767 17.5391 30.3697 17.6113 30.379 17.6824C30.3882 17.7535 30.4136 17.8215 30.453 17.8814C30.4955 17.9386 30.5505 17.9852 30.6139 18.0177C30.6774 18.0502 30.7474 18.0676 30.8186 18.0686H41.1814C41.2526 18.0676 41.3226 18.0502 41.3861 18.0177C41.4495 17.9852 41.5045 17.9386 41.547 17.8814C41.5864 17.8215 41.6118 17.7535 41.621 17.6824C41.6303 17.6113 41.6233 17.5391 41.6005 17.4711Z"
    fill="#BEC0C7"
  />
</svg>
