<svg width="24" height="24" viewBox="0 0 24 24" fill="none" xmlns="http://www.w3.org/2000/svg">
<path
    d="M12.0789 3C13.6681 3 15.1922 3.6313 16.3159 4.75503C17.4396 5.87876 18.0709 7.40286 18.0709 8.99206C18.0709 15.6546 20.5013 16.9675 21.1578 16.9675H3C3.67044 16.9675 6.08682 15.6406 6.08682 8.99206C6.08682 7.40286 6.71812 5.87876 7.84185 4.75503C8.96558 3.6313 10.4897 3 12.0789 3V3Z"
    stroke="#BEC0C7"
    stroke-width="1.4"
    stroke-linecap="round"
    stroke-linejoin="round"
  />
<path
    d="M9.9834 19.5234C10.1041 19.9872 10.3753 20.3978 10.7545 20.6909C11.1336 20.984 11.5993 21.143 12.0785 21.143C12.5577 21.143 13.0234 20.984 13.4026 20.6909C13.7817 20.3978 14.0529 19.9872 14.1736 19.5234"
    stroke="#BEC0C7"
    stroke-width="1.4"
    stroke-linecap="round"
    stroke-linejoin="round"
  />
</svg>
