<svg width="18" height="17" viewBox="0 0 18 17" fill="none" xmlns="http://www.w3.org/2000/svg">
<path
    d="M9.05957 5.652V3.90747"
    stroke="#2F4786"
    stroke-width="1.39563"
    stroke-linecap="round"
    stroke-linejoin="round"
  />
<path
    d="M7.31543 10.3039C7.31543 11.1762 8.09465 11.467 9.05996 11.467C10.0253 11.467 10.8045 11.467 10.8045 10.3039C10.8045 8.55941 7.31543 8.55941 7.31543 6.81488C7.31543 5.65186 8.09465 5.65186 9.05996 5.65186C10.0253 5.65186 10.8045 6.0938 10.8045 6.81488"
    stroke="#2F4786"
    stroke-width="1.39563"
    stroke-linecap="round"
    stroke-linejoin="round"
  />
<path
    d="M9.05957 11.4668V13.2113"
    stroke="#2F4786"
    stroke-width="1.39563"
    stroke-linecap="round"
    stroke-linejoin="round"
  />
<path
    d="M9.05964 16.1193C13.2347 16.1193 16.6193 12.7347 16.6193 8.55964C16.6193 4.38457 13.2347 1 9.05964 1C4.88457 1 1.5 4.38457 1.5 8.55964C1.5 12.7347 4.88457 16.1193 9.05964 16.1193Z"
    stroke="#2F4786"
    stroke-width="1.39563"
    stroke-linecap="round"
    stroke-linejoin="round"
  />
</svg>
