<svg width="20" height="21" viewBox="0 0 20 21" fill="none" xmlns="http://www.w3.org/2000/svg">
<path
    d="M7.73346 16.9559H3.66299C3.35455 16.9559 3.05873 16.8334 2.84063 16.6153C2.62253 16.3971 2.5 16.1013 2.5 15.7929V4.16299C2.5 3.85455 2.62253 3.55873 2.84063 3.34063C3.05873 3.12253 3.35455 3 3.66299 3H16.4559C16.7643 3 17.0601 3.12253 17.2782 3.34063C17.4963 3.55873 17.6189 3.85455 17.6189 4.16299V8.81495"
    stroke="#2F4786"
    stroke-width="1.39559"
    stroke-linecap="round"
    stroke-linejoin="round"
  />
<path d="M2.5 6.48828H17.6189" stroke="#2F4786" stroke-width="1.39559" stroke-linecap="round" stroke-linejoin="round" />
<path
    d="M14.1296 18.1186C16.0565 18.1186 17.6186 16.5565 17.6186 14.6296C17.6186 12.7027 16.0565 11.1406 14.1296 11.1406C12.2027 11.1406 10.6406 12.7027 10.6406 14.6296C10.6406 16.5565 12.2027 18.1186 14.1296 18.1186Z"
    stroke="#2F4786"
    stroke-width="1.39559"
    stroke-linecap="round"
    stroke-linejoin="round"
  />
<path
    d="M14.1299 14.6301L15.0021 13.7578"
    stroke="#2F4786"
    stroke-width="1.39559"
    stroke-linecap="round"
    stroke-linejoin="round"
  />
</svg>
