<svg width="28" height="28" viewBox="0 0 28 28" fill="none" xmlns="http://www.w3.org/2000/svg">
<path d="M14.0002 13.9998H14.006M19.8335 13.9998H19.8393M8.16683 13.9998H8.17266M6.06683 8.1665H21.9335C23.2403 8.1665 23.8937 8.1665 24.3928 8.42082C24.8319 8.64453 25.1888 9.00148 25.4125 9.44053C25.6668 9.93965 25.6668 10.593 25.6668 11.8998V16.0998C25.6668 17.4066 25.6668 18.06 25.4125 18.5591C25.1888 18.9982 24.8319 19.3551 24.3928 19.5789C23.8937 19.8332 23.2403 19.8332 21.9335 19.8332H6.06683C4.76004 19.8332 4.10665 19.8332 3.60752 19.5789C3.16847 19.3551 2.81152 18.9982 2.58781 18.5591C2.3335 18.06 2.3335 17.4066 2.3335 16.0998V11.8998C2.3335 10.593 2.3335 9.93965 2.58781 9.44053C2.81152 9.00148 3.16847 8.64453 3.60752 8.42082C4.10665 8.1665 4.76004 8.1665 6.06683 8.1665ZM14.2918 13.9998C14.2918 14.1609 14.1612 14.2915 14.0002 14.2915C13.8391 14.2915 13.7085 14.1609 13.7085 13.9998C13.7085 13.8388 13.8391 13.7082 14.0002 13.7082C14.1612 13.7082 14.2918 13.8388 14.2918 13.9998ZM20.1252 13.9998C20.1252 14.1609 19.9946 14.2915 19.8335 14.2915C19.6724 14.2915 19.5418 14.1609 19.5418 13.9998C19.5418 13.8388 19.6724 13.7082 19.8335 13.7082C19.9946 13.7082 20.1252 13.8388 20.1252 13.9998ZM8.4585 13.9998C8.4585 14.1609 8.32791 14.2915 8.16683 14.2915C8.00575 14.2915 7.87516 14.1609 7.87516 13.9998C7.87516 13.8388 8.00575 13.7082 8.16683 13.7082C8.32791 13.7082 8.4585 13.8388 8.4585 13.9998Z" stroke="#344054" style="stroke:#344054;stroke:color(display-p3 0.2053 0.2525 0.3280);stroke-opacity:1;" stroke-width="2" stroke-linecap="round" stroke-linejoin="round"/>
</svg>
