<svg width="36" height="36" viewBox="0 0 36 36" fill="none" xmlns="http://www.w3.org/2000/svg">
<path d="M10.1606 25.2354H22.8475" stroke="#2F4786" stroke-width="1.4" stroke-linecap="round" stroke-linejoin="round" />
<path
    d="M17.0804 21.1988L13.6204 21.8216L14.197 18.3155L21.9591 10.5765C22.0663 10.4684 22.1938 10.3826 22.3344 10.3241C22.4749 10.2655 22.6257 10.2354 22.7779 10.2354C22.9302 10.2354 23.0809 10.2655 23.2215 10.3241C23.362 10.3826 23.4896 10.4684 23.5968 10.5765L24.8194 11.7991C24.9275 11.9063 25.0133 12.0338 25.0718 12.1744C25.1304 12.3149 25.1605 12.4657 25.1605 12.6179C25.1605 12.7702 25.1304 12.9209 25.0718 13.0615C25.0133 13.202 24.9275 13.3296 24.8194 13.4368L17.0804 21.1988Z"
    stroke="#2F4786"
    stroke-width="1.4"
    stroke-linecap="round"
    stroke-linejoin="round"
  />
</svg>
