<svg width="19" height="18" viewBox="0 0 19 18" fill="none" xmlns="http://www.w3.org/2000/svg">
<path
    d="M2.74236 17L16.2702 17C16.9494 17 17.5 16.449 17.5 15.7692L17.5 2.23077C17.5 1.55103 16.9494 1 16.2702 1L2.74236 1C2.06316 1 1.51256 1.55103 1.51256 2.23077L1.51256 15.7692C1.51256 16.449 2.06316 17 2.74236 17Z"
    stroke="white"
    stroke-opacity="0.9"
    stroke-width="1.4"
    stroke-linecap="round"
    stroke-linejoin="round"
  />
<path
    d="M12.2606 8.38484C13.4492 8.38484 14.4127 7.42053 14.4127 6.23099C14.4127 5.04146 13.4492 4.07715 12.2606 4.07715C11.072 4.07715 10.1084 5.04146 10.1084 6.23099C10.1084 7.42053 11.072 8.38484 12.2606 8.38484Z"
    stroke="white"
    stroke-opacity="0.9"
    stroke-width="1.4"
    stroke-linecap="round"
    stroke-linejoin="round"
  />
<path
    d="M12.4452 16.9997C12.0493 14.889 10.9168 12.9876 9.24989 11.635C7.583 10.2824 5.49013 9.56656 3.3447 9.61511C2.72572 9.61345 2.10799 9.67115 1.5 9.78742"
    stroke="white"
    stroke-opacity="0.9"
    stroke-width="1.4"
    stroke-linecap="round"
    stroke-linejoin="round"
  />
<path
    d="M17.4882 12.5809C16.4977 12.2464 15.4592 12.0761 14.4137 12.0767C13.0904 12.0738 11.7805 12.3417 10.5645 12.8638"
    stroke="white"
    stroke-opacity="0.9"
    stroke-width="1.4"
    stroke-linecap="round"
    stroke-linejoin="round"
  />
</svg>
