<svg width="24" height="24" viewBox="0 0 24 24" fill="none" xmlns="http://www.w3.org/2000/svg">
<path
    d="M10.4088 17.6571L13.4489 20.6833C13.6355 20.8745 13.8687 21.0137 14.1255 21.0871C14.3823 21.1604 14.6538 21.1655 14.9132 21.1017C15.1742 21.041 15.4152 20.9142 15.613 20.7335C15.8109 20.5528 15.9589 20.3242 16.0428 20.0697L21.0354 5.10601C21.1396 4.82563 21.1611 4.52124 21.0973 4.229C21.0336 3.93676 20.8872 3.66898 20.6757 3.45748C20.4642 3.24597 20.1964 3.09965 19.9042 3.03589C19.612 2.97214 19.3076 2.99364 19.0272 3.09783L4.06348 8.09039C3.80026 8.18029 3.56582 8.33887 3.38439 8.54971C3.20297 8.76055 3.08114 9.01602 3.0315 9.28971C2.98026 9.53863 2.99167 9.79638 3.0647 10.0398C3.13772 10.2832 3.27008 10.5047 3.44987 10.6843L7.27099 14.5054L7.14548 19.3445L10.4088 17.6571Z"
    stroke="#2F4786"
    stroke-width="1.4"
    stroke-linecap="round"
    stroke-linejoin="round"
  />
<path
    d="M20.589 3.40479L7.27087 14.5055"
    stroke="#2F4786"
    stroke-width="1.4"
    stroke-linecap="round"
    stroke-linejoin="round"
  />
</svg>
