<svg width="24" height="24" viewBox="0 0 24 24" fill="none" xmlns="http://www.w3.org/2000/svg">
<path
    d="M9.96081 5.29396L10.5666 3.73023C10.6687 3.46547 10.8485 3.23774 11.0823 3.07686C11.316 2.91598 11.593 2.82945 11.8767 2.82861H13.0319C13.3157 2.82945 13.5926 2.91598 13.8264 3.07686C14.0602 3.23774 14.2399 3.46547 14.3421 3.73023L14.9479 5.29396L17.0047 6.47733L18.667 6.22375C18.9438 6.18618 19.2255 6.23175 19.4764 6.35466C19.7272 6.47757 19.9359 6.67229 20.0758 6.91405L20.6393 7.90019C20.7837 8.14581 20.8502 8.42944 20.8301 8.71365C20.81 8.99785 20.7042 9.26928 20.5266 9.4921L19.4982 10.8023V13.169L20.5548 14.4792C20.7323 14.702 20.8382 14.9734 20.8583 15.2576C20.8784 15.5418 20.8119 15.8255 20.6675 16.0711L20.104 17.0572C19.964 17.299 19.7554 17.4937 19.5046 17.6166C19.2537 17.7395 18.972 17.7851 18.6952 17.7475L17.0328 17.4939L14.976 18.6773L14.3703 20.241C14.2681 20.5058 14.0884 20.7335 13.8546 20.8944C13.6208 21.0553 13.3439 21.1418 13.0601 21.1426H11.8767C11.593 21.1418 11.316 21.0553 11.0823 20.8944C10.8485 20.7335 10.6687 20.5058 10.5666 20.241L9.96081 18.6773L7.904 17.4939L6.24165 17.7475C5.96485 17.7851 5.68313 17.7395 5.43229 17.6166C5.18145 17.4937 4.97281 17.299 4.83288 17.0572L4.26937 16.0711C4.12498 15.8255 4.05845 15.5418 4.07857 15.2576C4.09869 14.9734 4.20451 14.702 4.38207 14.4792L5.41048 13.169V10.8023L4.3539 9.4921C4.17634 9.26928 4.07051 8.99785 4.05039 8.71365C4.03027 8.42944 4.0968 8.14581 4.2412 7.90019L4.80471 6.91405C4.94463 6.67229 5.15327 6.47757 5.40411 6.35466C5.65496 6.23175 5.93668 6.18618 6.21348 6.22375L7.87583 6.47733L9.96081 5.29396ZM9.63679 11.9856C9.63679 12.5429 9.80204 13.0876 10.1116 13.551C10.4212 14.0143 10.8613 14.3754 11.3761 14.5887C11.8909 14.802 12.4575 14.8578 13.004 14.749C13.5506 14.6403 14.0526 14.372 14.4466 13.9779C14.8407 13.5839 15.109 13.0819 15.2177 12.5353C15.3265 11.9888 15.2707 11.4222 15.0574 10.9074C14.8442 10.3926 14.483 9.95252 14.0197 9.64293C13.5563 9.33333 13.0116 9.16809 12.4543 9.16809C11.7071 9.16809 10.9904 9.46493 10.462 9.99333C9.93364 10.5217 9.63679 11.2384 9.63679 11.9856V11.9856Z"
    stroke="#020305"
    stroke-width="1.40877"
    stroke-linecap="round"
    stroke-linejoin="round"
  />
</svg>
