<svg width="20" height="20" viewBox="0 0 20 20" fill="none" xmlns="http://www.w3.org/2000/svg">
<path d="M5.11673 12.6761C6.56191 12.6761 7.73346 11.5045 7.73346 10.0594C7.73346 8.61418 6.56191 7.44263 5.11673 7.44263C3.67155 7.44263 2.5 8.61418 2.5 10.0594C2.5 11.5045 3.67155 12.6761 5.11673 12.6761Z" stroke="#2F4786" stroke-linecap="round" stroke-linejoin="round"/>
<path d="M15.002 17.6188C16.4472 17.6188 17.6187 16.4473 17.6187 15.0021C17.6187 13.5569 16.4472 12.3854 15.002 12.3854C13.5568 12.3854 12.3853 13.5569 12.3853 15.0021C12.3853 16.4473 13.5568 17.6188 15.002 17.6188Z" stroke="#2F4786" stroke-linecap="round" stroke-linejoin="round"/>
<path d="M15.002 7.73346C16.4472 7.73346 17.6187 6.56191 17.6187 5.11673C17.6187 3.67155 16.4472 2.5 15.002 2.5C13.5568 2.5 12.3853 3.67155 12.3853 5.11673C12.3853 6.56191 13.5568 7.73346 15.002 7.73346Z" stroke="#2F4786" stroke-linecap="round" stroke-linejoin="round"/>
<path d="M7.4541 8.89639L12.6643 6.27966" stroke="#2F4786" stroke-linecap="round" stroke-linejoin="round"/>
<path d="M7.4541 11.2223L12.6643 13.839" stroke="#2F4786" stroke-linecap="round" stroke-linejoin="round"/>
</svg>
