<svg width="24" height="24" viewBox="0 0 24 24" fill="none" xmlns="http://www.w3.org/2000/svg">
<path
    d="M9.25 8.25C9.25 8.97935 9.53973 9.67882 10.0555 10.1945C10.5712 10.7103 11.2707 11 12 11C12.7293 11 13.4288 10.7103 13.9445 10.1945C14.4603 9.67882 14.75 8.97935 14.75 8.25C14.75 7.52065 14.4603 6.82118 13.9445 6.30546C13.4288 5.78973 12.7293 5.5 12 5.5C11.2707 5.5 10.5712 5.78973 10.0555 6.30546C9.53973 6.82118 9.25 7.52065 9.25 8.25V8.25Z"
    stroke="#020305"
    stroke-width="1.4"
    stroke-linecap="round"
    stroke-linejoin="round"
  />
<path
    d="M15.5 15.5C15.5 14.5717 15.1313 13.6815 14.4749 13.0251C13.8185 12.3687 12.9283 12 12 12C11.0717 12 10.1815 12.3687 9.52513 13.0251C8.86875 13.6815 8.5 14.5717 8.5 15.5V18.5H10.083L10.5 23.5H13.5L13.917 18.5H15.5V15.5Z"
    stroke="#020305"
    stroke-width="1.4"
    stroke-linecap="round"
    stroke-linejoin="round"
  />
<path
    d="M1.25 2.75C1.25 3.04547 1.3082 3.33806 1.42127 3.61104C1.53434 3.88402 1.70008 4.13206 1.90901 4.34099C2.11794 4.54992 2.36598 4.71566 2.63896 4.82873C2.91194 4.9418 3.20453 5 3.5 5C3.79547 5 4.08806 4.9418 4.36104 4.82873C4.63402 4.71566 4.88206 4.54992 5.09099 4.34099C5.29992 4.13206 5.46566 3.88402 5.57873 3.61104C5.6918 3.33806 5.75 3.04547 5.75 2.75C5.75 2.45453 5.6918 2.16194 5.57873 1.88896C5.46566 1.61598 5.29992 1.36794 5.09099 1.15901C4.88206 0.950078 4.63402 0.784344 4.36104 0.671271C4.08806 0.558198 3.79547 0.5 3.5 0.5C3.20453 0.5 2.91194 0.558198 2.63896 0.671271C2.36598 0.784344 2.11794 0.950078 1.90901 1.15901C1.70008 1.36794 1.53434 1.61598 1.42127 1.88896C1.3082 2.16194 1.25 2.45453 1.25 2.75V2.75Z"
    stroke="#020305"
    stroke-width="1.4"
    stroke-linecap="round"
    stroke-linejoin="round"
  />
<path
    d="M3.5 6C2.70435 6 1.94129 6.31607 1.37868 6.87868C0.81607 7.44129 0.5 8.20435 0.5 9V11.5H2L2.5 16H4.5L5 11.5H6.5V9C6.5 8.20435 6.18393 7.44129 5.62132 6.87868C5.05871 6.31607 4.29565 6 3.5 6Z"
    stroke="#020305"
    stroke-width="1.4"
    stroke-linecap="round"
    stroke-linejoin="round"
  />
<path
    d="M18.25 2.75C18.25 3.34674 18.4871 3.91903 18.909 4.34099C19.331 4.76295 19.9033 5 20.5 5C21.0967 5 21.669 4.76295 22.091 4.34099C22.5129 3.91903 22.75 3.34674 22.75 2.75C22.75 2.15326 22.5129 1.58097 22.091 1.15901C21.669 0.737053 21.0967 0.5 20.5 0.5C19.9033 0.5 19.331 0.737053 18.909 1.15901C18.4871 1.58097 18.25 2.15326 18.25 2.75V2.75Z"
    stroke="#020305"
    stroke-width="1.4"
    stroke-linecap="round"
    stroke-linejoin="round"
  />
<path
    d="M20.5 6C19.7044 6 18.9413 6.31607 18.3787 6.87868C17.8161 7.44129 17.5 8.20435 17.5 9V11.5H19L19.5 16H21.5L22 11.5H23.5V9C23.5 8.20435 23.1839 7.44129 22.6213 6.87868C22.0587 6.31607 21.2956 6 20.5 6Z"
    stroke="#020305"
    stroke-width="1.4"
    stroke-linecap="round"
    stroke-linejoin="round"
  />
</svg>
