<svg width="24" height="24" viewBox="0 0 24 24" fill="none" xmlns="http://www.w3.org/2000/svg">
<path
    d="M18.9233 14.1538C20.0703 14.1538 21.0002 13.224 21.0002 12.0769C21.0002 10.9299 20.0703 10 18.9233 10C17.7762 10 16.8463 10.9299 16.8463 12.0769C16.8463 13.224 17.7762 14.1538 18.9233 14.1538Z"
    stroke="#2F4786"
    stroke-linecap="round"
    stroke-linejoin="round"
  />
<path
    d="M11.9997 14.1538C13.1467 14.1538 14.0766 13.224 14.0766 12.0769C14.0766 10.9299 13.1467 10 11.9997 10C10.8526 10 9.92276 10.9299 9.92276 12.0769C9.92276 13.224 10.8526 14.1538 11.9997 14.1538Z"
    stroke="#2F4786"
    stroke-linecap="round"
    stroke-linejoin="round"
  />
<path
    d="M5.07691 14.1538C6.22396 14.1538 7.15382 13.224 7.15382 12.0769C7.15382 10.9299 6.22396 10 5.07691 10C3.92986 10 3 10.9299 3 12.0769C3 13.224 3.92986 14.1538 5.07691 14.1538Z"
    stroke="#2F4786"
    stroke-linecap="round"
    stroke-linejoin="round"
  />
</svg>
