<svg width="24" height="24" viewBox="0 0 24 24" fill="none" xmlns="http://www.w3.org/2000/svg">
<path d="M10.0915 16.0488L10.0936 16.0489C10.2582 16.0527 10.4217 16.0197 10.572 15.9525C10.7224 15.8852 10.8559 15.7853 10.9628 15.66L10.9695 15.6522L10.9766 15.6447L17.2836 9.00695C17.3409 8.93334 17.3696 8.84134 17.3641 8.748C17.3584 8.65094 17.3163 8.55961 17.2461 8.49234C17.1759 8.42507 17.0828 8.38683 16.9856 8.38529C16.8923 8.38381 16.8017 8.41626 16.7307 8.47638L10.4988 14.9618C10.4461 15.0202 10.3817 15.0669 10.3098 15.0989C10.2371 15.1312 10.1585 15.1477 10.0791 15.1474C9.99158 15.1486 9.90496 15.1289 9.82655 15.0897C9.82655 15.0897 9.82655 15.0897 9.82655 15.0897L10.0915 16.0488ZM10.0915 16.0488C9.91792 16.0458 9.74727 16.0037 9.59221 15.9257C9.43715 15.8476 9.30166 15.7357 9.1958 15.5981L9.18783 15.5878M10.0915 16.0488L9.18783 15.5878M9.18783 15.5878L9.17918 15.578M9.18783 15.5878L9.17918 15.578M9.17918 15.578L7.48413 13.6595L7.48413 13.6595M9.17918 15.578L7.48413 13.6595M7.48413 13.6595L7.48295 13.6582M7.48413 13.6595L7.48295 13.6582M7.48295 13.6582C7.44902 13.6201 7.42298 13.5757 7.40634 13.5275L7.04219 13.6532M7.48295 13.6582L7.04219 13.6532M7.04219 13.6532L7.40634 13.5275C7.38969 13.4793 7.38279 13.4283 7.38601 13.3774C7.38924 13.3265 7.40253 13.2768 7.42512 13.2311C7.44766 13.1855 7.47901 13.1448 7.51735 13.1114M7.04219 13.6532L7.51735 13.1114M7.51735 13.1114C7.59448 13.0446 7.69492 13.0112 7.79665 13.0184C7.89851 13.0257 7.99333 13.073 8.06027 13.1501L8.06026 13.1501L8.06253 13.1527L9.63925 14.9361L7.51735 13.1114Z" fill="white" stroke="white" stroke-width="0.770481"/>
</svg>
