<svg width="20" height="20" viewBox="0 0 20 20" fill="none" xmlns="http://www.w3.org/2000/svg">
<path d="M7.28078 7.28032C9.01504 7.28032 10.4209 5.87442 10.4209 4.14016C10.4209 2.4059 9.01504 1 7.28078 1C5.54652 1 4.14062 2.4059 4.14062 4.14016C4.14062 5.87442 5.54652 7.28032 7.28078 7.28032Z" stroke="#2F4786" stroke-width="1.39563" stroke-linecap="round" stroke-linejoin="round"/>
<path d="M6.5825 17.7473H1V15.6538C1.01111 14.5901 1.29165 13.5465 1.81543 12.6206C2.3392 11.6946 3.08911 10.9165 3.99512 10.359C4.90112 9.80146 5.93366 9.48264 6.99628 9.43234C8.05891 9.38203 9.11694 9.60187 10.0716 10.0713" stroke="#2F4786" stroke-width="1.39563" stroke-linecap="round" stroke-linejoin="round"/>
<path d="M14.9561 10.7695V19.1433" stroke="#2F4786" stroke-width="1.39563" stroke-linecap="round" stroke-linejoin="round"/>
<path d="M10.7695 14.9565H19.1433" stroke="#2F4786" stroke-width="1.39563" stroke-linecap="round" stroke-linejoin="round"/>
</svg>
