<svg width="21" height="20" viewBox="0 0 21 20" fill="none" xmlns="http://www.w3.org/2000/svg">
<path
    d="M18.1198 11.2227L13.3282 17.6193L10.1299 15.2234"
    stroke="#2F4786"
    stroke-width="1.39563"
    stroke-linecap="round"
    stroke-linejoin="round"
  />
<path
    d="M8.23399 7.7336C9.6792 7.7336 10.8508 6.56202 10.8508 5.1168C10.8508 3.67158 9.6792 2.5 8.23399 2.5C6.78877 2.5 5.61719 3.67158 5.61719 5.1168C5.61719 6.56202 6.78877 7.7336 8.23399 7.7336Z"
    stroke="#2F4786"
    stroke-width="1.39563"
    stroke-linecap="round"
    stroke-linejoin="round"
  />
<path
    d="M5.90755 16.4579H3V14.7134C3.00091 13.6789 3.30835 12.668 3.88348 11.8081C4.45862 10.9483 5.27566 10.2782 6.23141 9.8825C7.18716 9.48676 8.23874 9.38313 9.25335 9.58469C10.268 9.78625 11.2001 10.284 11.932 11.015"
    stroke="#2F4786"
    stroke-width="1.39563"
    stroke-linecap="round"
    stroke-linejoin="round"
  />
</svg>
