<svg width="21" height="20" viewBox="0 0 21 20" fill="none" xmlns="http://www.w3.org/2000/svg">
<path d="M8.23399 7.7336C9.6792 7.7336 10.8508 6.56202 10.8508 5.1168C10.8508 3.67158 9.6792 2.5 8.23399 2.5C6.78877 2.5 5.61719 3.67158 5.61719 5.1168C5.61719 6.56202 6.78877 7.7336 8.23399 7.7336Z" stroke="#2F4786" stroke-width="1.39563" stroke-linecap="round" stroke-linejoin="round"/>
<path d="M8.2336 16.4563H3V14.7118C2.99971 13.7952 3.24014 12.8947 3.69721 12.1002C4.15428 11.3058 4.81198 10.6453 5.60449 10.1849C6.397 9.72443 7.29653 9.4802 8.21307 9.4766C9.12962 9.47301 10.031 9.71018 10.8271 10.1644" stroke="#2F4786" stroke-width="1.39563" stroke-linecap="round" stroke-linejoin="round"/>
<path d="M18.1197 12.6875L13.1885 17.6187" stroke="#2F4786" stroke-width="1.39563" stroke-linecap="round" stroke-linejoin="round"/>
<path d="M13.1885 12.6875L18.1197 17.6187" stroke="#2F4786" stroke-width="1.39563" stroke-linecap="round" stroke-linejoin="round"/>
</svg>
