<svg width="78" height="78" viewBox="0 0 78 78" fill="none" xmlns="http://www.w3.org/2000/svg">
<rect x="1.5" y="1.5" width="75" height="75" rx="37.5" fill="#F2F4F7"/>
<rect x="1.5" y="1.5" width="75" height="75" rx="37.5" stroke="white" stroke-width="3"/>
<path d="M51 52.5C51 50.4067 51 49.36 50.7416 48.5083C50.1599 46.5907 48.6593 45.0901 46.7417 44.5084C45.89 44.25 44.8433 44.25 42.75 44.25H35.25C33.1567 44.25 32.11 44.25 31.2583 44.5084C29.3407 45.0901 27.8401 46.5907 27.2584 48.5083C27 49.36 27 50.4067 27 52.5M45.75 32.25C45.75 35.9779 42.7279 39 39 39C35.2721 39 32.25 35.9779 32.25 32.25C32.25 28.5221 35.2721 25.5 39 25.5C42.7279 25.5 45.75 28.5221 45.75 32.25Z" stroke="#475467" stroke-width="3" stroke-linecap="round" stroke-linejoin="round"/>
<g clip-path="url(#clip0_5919_6412)">
<path d="M70.4442 58.542C70.6342 59.0014 70.9988 59.3665 71.4579 59.5572L73.0678 60.224C73.5272 60.4143 73.8922 60.7793 74.0825 61.2387C74.2728 61.6982 74.2728 62.2144 74.0825 62.6738L73.4162 64.2825C73.2258 64.7421 73.2255 65.2589 73.4168 65.7183L74.082 67.3265C74.1763 67.554 74.2249 67.7979 74.2249 68.0443C74.225 68.2906 74.1765 68.5345 74.0822 68.7621C73.9879 68.9897 73.8497 69.1965 73.6755 69.3706C73.5013 69.5448 73.2945 69.6829 73.0669 69.7771L71.4582 70.4434C70.9988 70.6334 70.6336 70.998 70.443 71.4571L69.7762 73.067C69.5859 73.5264 69.2209 73.8914 68.7614 74.0817C68.302 74.272 67.7858 74.272 67.3264 74.0817L65.7177 73.4154C65.2582 73.2255 64.7422 73.2259 64.283 73.4164L62.6732 74.0823C62.214 74.2722 61.6983 74.272 61.2392 74.0819C60.7801 73.8917 60.4153 73.5271 60.2249 73.0682L59.5579 71.4578C59.3679 70.9985 59.0033 70.6333 58.5442 70.4427L56.9344 69.7758C56.4751 69.5856 56.1102 69.2208 55.9198 68.7617C55.7295 68.3025 55.7292 67.7865 55.9191 67.3272L56.5855 65.7185C56.7753 65.259 56.7749 64.743 56.5844 64.2839L55.919 62.6728C55.8247 62.4453 55.7761 62.2014 55.7761 61.9551C55.776 61.7087 55.8245 61.4648 55.9188 61.2372C56.013 61.0096 56.1512 60.8029 56.3254 60.6287C56.4997 60.4546 56.7065 60.3164 56.9341 60.2223L58.5428 59.5559C59.0018 59.3661 59.3667 59.002 59.5575 58.5434L60.2243 56.9335C60.4146 56.4741 60.7796 56.1091 61.2391 55.9188C61.6985 55.7285 62.2147 55.7285 62.6741 55.9188L64.2828 56.5851C64.7423 56.775 65.2583 56.7746 65.7174 56.5841L67.328 55.9198C67.7874 55.7296 68.3034 55.7297 68.7628 55.9199C69.2221 56.1102 69.5871 56.4751 69.7774 56.9344L70.4444 58.5448L70.4442 58.542Z" fill="#0788F5"/>
<path fill-rule="evenodd" clip-rule="evenodd" d="M68.9166 62.3786C69.0502 62.1688 69.0949 61.9145 69.041 61.6716C68.9871 61.4287 68.8389 61.2172 68.6291 61.0836C68.4192 60.95 68.1649 60.9053 67.922 60.9592C67.6792 61.0131 67.4677 61.1613 67.3341 61.3711L63.6628 67.1399L61.9828 65.0399C61.8275 64.8456 61.6014 64.721 61.3542 64.6935C61.107 64.6659 60.859 64.7377 60.6647 64.893C60.4704 65.0483 60.3458 65.2745 60.3183 65.5217C60.2907 65.7689 60.3625 66.0169 60.5178 66.2111L63.0178 69.3361C63.111 69.4528 63.2307 69.5454 63.3669 69.6065C63.5031 69.6675 63.6519 69.6951 63.8009 69.6871C63.95 69.679 64.0949 69.6355 64.2238 69.5601C64.3526 69.4847 64.4615 69.3796 64.5416 69.2536L68.9166 62.3786Z" fill="white"/>
</g>
<defs>
<clipPath id="clip0_5919_6412">
<rect width="20" height="20" fill="white" transform="translate(55 55)"/>
</clipPath>
</defs>
</svg>
