<svg width="49" height="48" viewBox="0 0 49 48" fill="none" xmlns="http://www.w3.org/2000/svg">
<path d="M24.0152 3.39529C24.4954 2.71488 25.5046 2.71488 25.9848 3.39529L29.4864 8.35655C29.7945 8.79316 30.3534 8.97474 30.8593 8.80265L36.6083 6.84709C37.3968 6.5789 38.2132 7.17204 38.2017 8.00477L38.1184 14.0767C38.1111 14.6111 38.4565 15.0864 38.967 15.2446L44.7675 17.0417C45.563 17.2882 45.8748 18.2479 45.3761 18.9149L41.7397 23.7782C41.4197 24.2062 41.4197 24.7938 41.7397 25.2218L45.3761 30.0851C45.8748 30.7521 45.563 31.7118 44.7675 31.9583L38.967 33.7554C38.4565 33.9136 38.1111 34.3889 38.1184 34.9233L38.2017 40.9952C38.2132 41.828 37.3968 42.4211 36.6083 42.1529L30.8593 40.1974C30.3534 40.0253 29.7945 40.2068 29.4864 40.6435L25.9848 45.6047C25.5046 46.2851 24.4954 46.2851 24.0152 45.6047L20.5136 40.6435C20.2055 40.2068 19.6466 40.0253 19.1407 40.1974L13.3917 42.1529C12.6032 42.4211 11.7868 41.828 11.7983 40.9952L11.8816 34.9233C11.8889 34.3889 11.5435 33.9136 11.033 33.7554L5.23255 31.9583C4.43704 31.7118 4.1252 30.7521 4.62392 30.0851L8.2603 25.2218C8.58032 24.7938 8.58032 24.2062 8.2603 23.7782L4.62392 18.9149C4.1252 18.2479 4.43704 17.2882 5.23255 17.0417L11.033 15.2446C11.5435 15.0864 11.8889 14.6111 11.8816 14.0767L11.7983 8.00477C11.7868 7.17204 12.6032 6.5789 13.3917 6.84709L19.1407 8.80265C19.6466 8.97474 20.2055 8.79316 20.5136 8.35655L24.0152 3.39529Z" fill="#2F8647"/>
<path d="M33.5001 18.375L21.1251 30.75L15.5 25.125" stroke="white" stroke-width="2.91667" stroke-linecap="round" stroke-linejoin="round"/>
</svg>
