<svg width="20" height="20" viewBox="0 0 20 20" fill="none" xmlns="http://www.w3.org/2000/svg">
<g id="Verified tick" clip-path="url(#clip0_5151_4502)">
<path id="Vector" d="M15.4442 3.54209C15.6342 4.00148 15.9988 4.36664 16.4579 4.55728L18.0678 5.2241C18.5272 5.41441 18.8922 5.77942 19.0825 6.23885C19.2728 6.69828 19.2728 7.21448 19.0825 7.67391L18.4162 9.28262C18.2258 9.74225 18.2255 10.259 18.4168 10.7184L19.082 12.3266C19.1763 12.5542 19.2249 12.7981 19.2249 13.0444C19.225 13.2907 19.1765 13.5347 19.0822 13.7622C18.9879 13.9898 18.8497 14.1966 18.6755 14.3707C18.5013 14.5449 18.2945 14.683 18.0669 14.7772L16.4582 15.4436C15.9988 15.6335 15.6336 15.9981 15.443 16.4572L14.7762 18.0671C14.5859 18.5265 14.2209 18.8915 13.7614 19.0818C13.302 19.2721 12.7858 19.2721 12.3264 19.0818L10.7177 18.4155C10.2582 18.2256 9.7422 18.226 9.28304 18.4165L7.67318 19.0824C7.21401 19.2723 6.69825 19.2721 6.2392 19.082C5.78014 18.8918 5.41533 18.5272 5.2249 18.0683L4.55788 16.458C4.36793 15.9986 4.00332 15.6334 3.54421 15.4428L1.93435 14.776C1.47513 14.5857 1.11022 14.221 0.919849 13.7618C0.729477 13.3026 0.729219 12.7867 0.919131 12.3273L1.58548 10.7186C1.77531 10.2592 1.77492 9.74314 1.5844 9.28398L0.91901 7.67297C0.824671 7.44542 0.776094 7.20151 0.776054 6.95518C0.776015 6.70885 0.824513 6.46493 0.91878 6.23735C1.01305 6.00977 1.15123 5.803 1.32544 5.62884C1.49965 5.45469 1.70647 5.31657 1.93408 5.22238L3.54278 4.55603C4.00178 4.36624 4.36671 4.0021 4.55749 3.54352L5.22432 1.93366C5.41462 1.47423 5.77964 1.10922 6.23906 0.918916C6.69849 0.728615 7.2147 0.728615 7.67413 0.918916L9.28283 1.58526C9.74227 1.7751 10.2583 1.77471 10.7174 1.58419L12.328 0.919949C12.7874 0.729755 13.3034 0.729794 13.7628 0.920057C14.2221 1.11032 14.5871 1.47523 14.7774 1.93454L15.4444 3.54488L15.4442 3.54209Z" fill="#0788F5" style="fill:#0788F5;fill:color(display-p3 0.0275 0.5333 0.9608);fill-opacity:1;"/>
<path id="Vector_2" fill-rule="evenodd" clip-rule="evenodd" d="M13.9166 7.37876C14.0502 7.16891 14.0949 6.91458 14.041 6.67172C13.9871 6.42886 13.8389 6.21737 13.6291 6.08376C13.4192 5.95016 13.1649 5.90539 12.922 5.95931C12.6792 6.01323 12.4677 6.16141 12.3341 6.37126L8.66283 12.14L6.98283 10.04C6.82751 9.84574 6.60138 9.72113 6.35418 9.69358C6.10699 9.66604 5.85897 9.73782 5.6647 9.89314C5.47043 10.0485 5.34582 10.2746 5.31827 10.5218C5.29073 10.769 5.36251 11.017 5.51783 11.2113L8.01783 14.3363C8.111 14.4529 8.23066 14.5456 8.36687 14.6066C8.50308 14.6676 8.65189 14.6953 8.80094 14.6872C8.94998 14.6791 9.09494 14.6356 9.22376 14.5602C9.35258 14.4848 9.46154 14.3798 9.54158 14.2538L13.9166 7.37876Z" fill="white" style="fill:white;fill:white;fill-opacity:1;"/>
</g>
<defs>
<clipPath id="clip0_5151_4502">
<rect width="20" height="20" fill="white" style="fill:white;fill:white;fill-opacity:1;"/>
</clipPath>
</defs>
</svg>
