<svg width="16" height="16" viewBox="0 0 16 16" fill="none" xmlns="http://www.w3.org/2000/svg">
<path d="M0.979492 9.10352H3.08071C3.7773 9.10352 4.44537 9.38024 4.93793 9.8728C5.4305 10.3654 5.70722 11.0334 5.70722 11.73" stroke="#2F4786" stroke-width="1.40081" stroke-linecap="round" stroke-linejoin="round"/>
<path d="M2.5554 11.7305H7.80843C8.36571 11.7305 8.90016 11.9518 9.29422 12.3459C9.68827 12.74 9.90965 13.2744 9.90965 13.8317C9.90965 13.971 9.8543 14.1046 9.75579 14.2031C9.65728 14.3016 9.52366 14.357 9.38434 14.357H0.979492" stroke="#2F4786" stroke-width="1.40081" stroke-linecap="round" stroke-linejoin="round"/>
<path d="M9.6474 9.10368L5.44497 5.21644C3.15465 2.91561 6.49558 -1.53896 9.6474 2.06462C12.7992 -1.52846 16.1717 2.92611 13.8498 5.21644L9.6474 9.10368Z" stroke="#2F4786" stroke-width="1.40081" stroke-linecap="round" stroke-linejoin="round"/>
</svg>
