<svg width="22" height="20" viewBox="0 0 22 20" fill="none" xmlns="http://www.w3.org/2000/svg">
<path
    fill-rule="evenodd"
    clip-rule="evenodd"
    d="M6.29299 3.51757H18.4766C18.6518 3.51749 18.8268 3.52861 19.0006 3.55086C18.9417 3.13731 18.7997 2.73998 18.583 2.38282C18.3664 2.02566 18.0797 1.71606 17.7402 1.4727C17.4007 1.22934 17.0154 1.05725 16.6076 0.966812C16.1998 0.876374 15.7779 0.869457 15.3673 0.94648L3.51768 2.96953C3.35556 2.99437 3.19166 3.02195 3.02756 3.05257H3.01718C2.94476 3.06642 2.87309 3.08281 2.80229 3.10166C1.02135 3.54985 0.5 5.16469 0.5 6.14261V7.27131C0.484601 7.39384 0.476699 7.51782 0.476562 7.64261V16.6426C0.477431 17.438 0.79378 18.2005 1.3562 18.763C1.91862 19.3254 2.68118 19.6417 3.47656 19.6426H18.4766C19.2719 19.6417 20.0345 19.3254 20.5969 18.763C21.1593 18.2005 21.4757 17.438 21.4766 16.6426V7.64261C21.4757 6.84723 21.1593 6.08467 20.5969 5.52225C20.0345 4.95983 19.2719 4.64348 18.4766 4.64261H6.5C5.7064 4.64261 5.61943 3.6808 6.29299 3.51757ZM16.25 13.6426C15.9533 13.6426 15.6633 13.5546 15.4166 13.3898C15.17 13.225 14.9777 12.9907 14.8642 12.7166C14.7506 12.4425 14.7209 12.1409 14.7788 11.85C14.8367 11.559 14.9796 11.2917 15.1893 11.0819C15.3991 10.8722 15.6664 10.7293 15.9574 10.6714C16.2483 10.6136 16.5499 10.6433 16.824 10.7568C17.0981 10.8703 17.3324 11.0626 17.4972 11.3093C17.662 11.5559 17.75 11.8459 17.75 12.1426C17.75 12.5404 17.592 12.922 17.3107 13.2033C17.0294 13.4846 16.6478 13.6426 16.25 13.6426Z"
    fill="#373737"
  />
</svg>
