<svg width="20" height="20" viewBox="0 0 20 20" fill="none" xmlns="http://www.w3.org/2000/svg">
<path fill-rule="evenodd" clip-rule="evenodd" d="M10 0C15.5225 0 20 4.47754 20 10C20 15.5225 15.5225 20 10 20C4.47754 20 0 15.5225 0 10C0 4.47754 4.47754 0 10 0Z" fill="#2394E0" style="fill:#2394E0;fill:color(display-p3 0.1373 0.5804 0.8784);fill-opacity:1;"/>
<path fill-rule="evenodd" clip-rule="evenodd" d="M1.91406 15.166C1.32487 14.2724 0.883789 13.2714 0.625 12.1989L2.38607 13.0485L2.39583 13.5742C2.39583 13.7679 2.06706 14.178 1.96126 14.3343L1.91406 15.166ZM12.7458 1.0579C16.1019 2.17281 18.6198 5.12691 19.1048 8.72392L18.7874 8.68974C18.7305 8.93388 18.6784 8.93876 18.6784 9.23173C18.6784 9.49052 19.0039 9.66305 19.0039 10.2083C19.0039 10.3548 18.6605 10.6461 18.6458 10.6982L18.1364 10.1009V10.861L18.0599 10.8577L17.9232 9.45471L17.6383 9.54423L17.2998 8.50094L16.1849 9.6663L16.1719 10.5192L15.8073 10.7633L15.4199 8.57581L15.1888 8.74508L14.6647 8.03707L13.8818 8.05986L13.5824 7.71643L13.2747 7.80107L12.6709 7.10934L12.5537 7.18909L12.9281 8.14612H13.3626V7.92965H13.5791C13.7354 8.36259 13.9046 8.10543 13.9046 8.36422C13.9046 9.26754 12.7897 9.9316 12.0589 10.1009C12.098 10.2636 12.0833 10.4264 12.2754 10.4264C12.6839 10.4264 12.4805 10.3548 12.9264 10.3173C12.9053 11.2402 11.8685 12.3421 11.4258 13.0273L11.6243 14.4417C11.6764 14.7493 10.9863 15.0732 10.752 15.4199L10.8643 15.9619L10.5469 16.0905C10.4915 16.6471 9.95117 17.264 9.34408 17.264H8.69303C8.69303 16.5022 8.14941 15.4134 8.14941 14.8746C8.14941 14.4173 8.36589 14.3554 8.36589 13.789C8.36589 13.2649 7.82389 12.5146 7.82389 12.3779V11.5087H7.38932C7.32422 11.2662 7.36491 11.1832 7.0638 11.1832H6.95475C6.48112 11.1832 6.56087 11.3997 6.08561 11.3997H5.65104C5.25879 11.3997 4.56543 10.1432 4.56543 9.98857V8.68648C4.56543 8.12496 5.07975 7.51298 5.43457 7.27535V6.73336L5.92285 6.23694L6.19466 6.19137C6.77734 6.19137 6.70736 5.86585 7.0638 5.86585H8.04037V6.62594L9.11458 7.08492L9.2155 6.62105C9.70215 6.73499 9.8291 6.95146 10.4281 6.95146H10.6445C11.0563 6.95146 11.0791 6.40458 11.0791 5.9749L10.21 6.06116L9.83073 5.23759L9.45475 5.33687C9.52311 5.63147 9.55892 5.5094 9.55892 5.75842C9.55892 5.90491 9.43848 5.92118 9.34082 5.9749L8.96484 5.02112L8.15592 4.44332L8.0485 4.54911L8.73698 5.2734C8.64583 5.53381 8.63444 6.28414 8.25521 5.75842L8.61003 5.58753L7.72461 4.65979L7.19401 4.8665L6.66992 5.3678C6.61458 5.77144 6.50553 5.9749 6.08236 5.9749C5.80078 5.9749 5.97005 5.90165 5.53874 5.86585V4.78023H6.5153L6.19792 4.05758L6.08073 4.12919V3.91109L7.66764 3.1803C7.63835 2.95243 7.60091 3.0745 7.60091 2.82548C7.60091 2.81083 7.70671 2.61064 7.70996 2.60738L8.12012 2.86292L8.02246 2.39579L7.38932 2.526L7.27214 1.95797C7.77344 1.6943 8.87858 0.763306 9.23014 0.763306H9.55566C9.89909 0.763306 10.8171 1.10185 10.9668 1.3053L10.096 1.21741L10.7422 1.74963L10.804 1.52177L11.2858 1.38993L11.2923 1.08883H11.5104V1.41435L12.7458 1.0579Z" fill="#A1E367" style="fill:#A1E367;fill:color(display-p3 0.6314 0.8902 0.4039);fill-opacity:1;"/>
</svg>
