<svg width="46" height="32" viewBox="0 0 46 32" fill="none" xmlns="http://www.w3.org/2000/svg">
<rect x="0.5" y="0.5" width="45" height="31" rx="3.5" fill="white"/>
<rect x="0.5" y="0.5" width="45" height="31" rx="3.5" stroke="#F2F4F7"/>
<path fill-rule="evenodd" clip-rule="evenodd" d="M36.3909 18.5975H37.509H37.51C37.627 18.5998 37.7242 18.5032 37.7285 18.3803V15.1223C37.7285 14.7131 37.7493 14.3436 37.9062 13.974C38.0139 13.6929 38.2677 13.5036 38.5557 13.4896C39.2709 13.4896 39.264 14.3136 39.2586 14.9608C39.2582 15.0154 39.2577 15.0687 39.2577 15.1202V18.4075C39.2715 18.5129 39.3551 18.5929 39.4563 18.5975H40.5844C40.6913 18.5998 40.7835 18.5186 40.7999 18.4075V14.5983C40.7999 14.0126 40.7999 13.1974 40.5069 12.713C40.1902 12.191 39.6996 12 39.1971 12C38.4226 12 37.9827 12.3946 37.6689 13.2224H37.6471V12.2965C37.6244 12.1997 37.5432 12.1306 37.4485 12.1274H36.4078C36.2978 12.1245 36.2041 12.2107 36.1923 12.3257V18.3803C36.1937 18.4964 36.2806 18.5914 36.3909 18.5975ZM35.3383 15.4219C35.3383 13.5116 34.4377 12.0084 32.7724 12.0084C31.1498 12.0084 30.2492 13.4865 30.2492 15.3582C30.2492 17.23 31.1389 18.7332 32.7724 18.7332C34.3453 18.7332 35.3383 17.2686 35.3383 15.4219ZM31.9035 15.1672C31.9035 14.4281 31.9561 13.2443 32.7833 13.2443C33.1388 13.2443 33.39 13.4124 33.5161 13.83C33.6631 14.3133 33.684 14.925 33.684 15.4344C33.684 16.2111 33.6512 17.4847 32.7724 17.4847C31.9032 17.4847 31.9034 15.9405 31.9035 15.1917L31.9035 15.1672ZM10.9212 18.61H12.0424H12.0433C12.0996 18.6114 12.1541 18.5891 12.1947 18.5482C12.2354 18.5072 12.2588 18.451 12.2598 18.3918V15.1839L12.2598 15.1337C12.2593 14.4362 12.2587 13.5136 13.0344 13.5136C13.7514 13.5136 13.7403 14.3242 13.7314 14.9787V14.9788V14.9788C13.7304 15.0494 13.7295 15.1181 13.7295 15.1839V18.3928C13.7314 18.5087 13.818 18.6034 13.9281 18.61H15.0522C15.1083 18.6111 15.1625 18.5887 15.2029 18.5478C15.2433 18.5069 15.2666 18.4508 15.2677 18.3918V15.1839L15.2675 15.1076V15.1076C15.2669 14.7677 15.266 14.3091 15.3729 14.0241C15.482 13.7328 15.7456 13.5378 16.0432 13.5283C16.3679 13.5283 16.6191 13.6431 16.7026 14.0502C16.7451 14.2462 16.7396 14.7004 16.736 15.0016C16.7351 15.0727 16.7343 15.1353 16.7343 15.1839V18.3928C16.7357 18.5089 16.8226 18.6039 16.9329 18.61H18.054C18.1103 18.6114 18.1648 18.5891 18.2054 18.5482C18.246 18.5072 18.2695 18.451 18.2705 18.3918V14.5722C18.2705 14.4791 18.272 14.3839 18.2736 14.2878L18.2736 14.2876C18.2828 13.7173 18.2925 13.1102 17.9875 12.6743C17.6177 12.1799 17.0231 11.9335 16.4319 12.0298C15.8406 12.1261 15.3447 12.55 15.1346 13.1389C14.8198 12.3737 14.37 12.0177 13.6788 12.0177C12.9877 12.0177 12.4743 12.3737 12.2022 13.1389H12.1814V12.3487C12.1755 12.236 12.0899 12.1461 11.9828 12.1399H10.9371C10.8217 12.1387 10.7264 12.2346 10.7226 12.356V18.4106C10.7328 18.5195 10.8172 18.6043 10.9212 18.61ZM8.96997 18.6559C8.89613 18.7233 8.79001 18.7345 8.70484 18.6841C8.38711 18.4062 8.29132 18.256 8.14422 18.0253C8.11892 17.9856 8.09209 17.9436 8.06236 17.8981C7.4457 18.5578 7.00977 18.7551 6.21238 18.7551C5.26803 18.7551 4.5332 18.1423 4.5332 16.9168C4.5332 15.9595 5.02971 15.3092 5.72482 14.9898C6.23809 14.753 6.92294 14.6795 7.51502 14.6159C7.62511 14.6041 7.73199 14.5927 7.83397 14.5805V14.4281C7.83397 14.3991 7.83419 14.3695 7.83442 14.3396V14.3395V14.3395V14.3394V14.3394V14.3394C7.83638 14.0795 7.83857 13.7902 7.69793 13.5721C7.56089 13.355 7.30072 13.2663 7.06836 13.2663C6.64037 13.2663 6.25905 13.497 6.16571 13.974C6.15388 14.0853 6.07242 14.1744 5.96711 14.1912L4.8887 14.0669C4.83489 14.0588 4.78659 14.0279 4.75506 13.9813C4.72354 13.9348 4.71154 13.8767 4.72188 13.8206C4.97112 12.4343 6.16273 12.0157 7.23022 12.0157C7.77637 12.0157 8.48936 12.1681 8.91834 12.6023C9.42192 13.098 9.41881 13.7468 9.4154 14.4559C9.41512 14.5145 9.41484 14.5734 9.41484 14.6327V16.469C9.41484 16.9635 9.58938 17.2095 9.77323 17.4686L9.77327 17.4687C9.79509 17.4994 9.81705 17.5304 9.83886 17.5619C9.91035 17.6663 9.92624 17.7968 9.83886 17.8751C9.60947 18.0766 9.20234 18.4482 8.97891 18.658L8.96997 18.6559ZM7.83892 15.781L7.83895 15.8382C7.83935 16.2724 7.83968 16.6406 7.62939 17.0337C7.45065 17.3657 7.16764 17.5703 6.85187 17.5703C6.42189 17.5703 6.17066 17.2258 6.17066 16.7143C6.17066 15.71 7.02763 15.5273 7.83892 15.5273V15.781ZM24.4757 17.4643C24.4975 17.4951 24.5195 17.5261 24.5414 17.5577C24.6169 17.6663 24.6327 17.7937 24.5364 17.8657C24.307 18.0672 23.8999 18.4398 23.6765 18.6486C23.6022 18.715 23.4964 18.7258 23.4113 18.6758C23.0923 18.3967 22.9977 18.2487 22.8485 18.015C22.8236 17.9759 22.7971 17.9345 22.7679 17.8897C22.1522 18.5494 21.7133 18.7467 20.9189 18.7467C19.9745 18.7467 19.2397 18.134 19.2397 16.9095C19.2397 15.9512 19.7332 15.3008 20.4363 14.9814C20.9507 14.7437 21.6394 14.6706 22.2332 14.6075C22.3409 14.596 22.4455 14.5849 22.5454 14.5732V14.4239C22.5454 14.395 22.5457 14.3655 22.5459 14.3356C22.5478 14.0756 22.55 13.7862 22.4084 13.569C22.2753 13.3519 22.0102 13.2621 21.7788 13.2621C21.3508 13.2621 20.9715 13.4928 20.8772 13.9698C20.865 14.081 20.7837 14.1699 20.6786 14.187L19.5912 14.0638C19.537 14.056 19.4883 14.025 19.4565 13.9782C19.4248 13.9313 19.4128 13.8728 19.4234 13.8164C19.6736 12.429 20.8653 12.0115 21.9327 12.0115C22.4779 12.0115 23.1909 12.1639 23.6209 12.5982C24.1255 13.0912 24.1219 13.7351 24.1181 14.4405C24.1177 14.5027 24.1174 14.5654 24.1174 14.6285V16.4658C24.1174 16.9593 24.2918 17.2052 24.4757 17.4643ZM21.5604 17.564C21.8752 17.564 22.1592 17.3594 22.3369 17.0285C22.5479 16.6332 22.5477 16.2633 22.5474 15.8236L22.5474 15.7768V15.5221C21.7361 15.5221 20.8792 15.7037 20.8792 16.709C20.8792 17.2195 21.1304 17.564 21.5604 17.564ZM25.4907 12.3351V13.1973C25.4901 13.2565 25.5126 13.3133 25.5529 13.3545C25.5933 13.3958 25.6479 13.4178 25.7041 13.4155H27.6346L25.4211 16.756C25.3201 16.9352 25.2724 17.1421 25.2841 17.35V18.2321C25.2841 18.3594 25.4182 18.5045 25.5463 18.4325C26.767 17.7671 28.2188 17.7644 29.4418 18.4252C29.5819 18.5014 29.7139 18.3542 29.7139 18.2269V17.2999C29.7102 17.1581 29.6343 17.0294 29.5153 16.9627C28.8709 16.5817 28.1211 16.47 27.4121 16.4877L29.3227 13.6212C29.5004 13.3644 29.5997 13.2015 29.5997 13.0773V12.3351C29.6003 12.2761 29.5779 12.2195 29.5378 12.1783C29.4977 12.1371 29.4433 12.1149 29.3872 12.1169H25.7002C25.644 12.1136 25.5892 12.1354 25.5493 12.177C25.5093 12.2186 25.488 12.276 25.4907 12.3351Z" fill="black"/>
<path fill-rule="evenodd" clip-rule="evenodd" d="M27.3349 22.4599C27.5901 21.7928 28.1581 20.298 27.888 19.9357H27.89C27.6211 19.5727 26.1116 19.7632 25.4327 19.8489L25.4313 19.8491C25.2247 19.8752 25.193 19.6862 25.3786 19.5495C26.5842 18.659 28.5593 18.9137 28.7886 19.2144C29.018 19.515 28.7261 21.5966 27.597 22.5904C27.4233 22.7428 27.2574 22.6613 27.3349 22.4599ZM19.223 23.4892C21.8485 23.4892 24.906 22.6175 27.0121 20.9838V20.9869C27.3607 20.7114 27.0618 20.3063 26.7063 20.465C24.4073 21.4844 21.9395 22.0165 19.4444 22.0308C15.9828 22.0308 12.6343 21.0329 9.92541 19.3762C9.68808 19.2311 9.51132 19.4869 9.70993 19.6737C12.3179 22.1473 15.7105 23.508 19.223 23.4892Z" fill="#FF9900"/>
</svg>
