<svg width="46" height="32" viewBox="0 0 46 32" fill="none" xmlns="http://www.w3.org/2000/svg">
<rect x="0.5" y="0.5" width="45" height="31" rx="3.5" fill="white"/>
<rect x="0.5" y="0.5" width="45" height="31" rx="3.5" stroke="#F2F4F7"/>
<path d="M5.83838 14.4106C5.5253 14.4106 5.49442 14.3089 5.49442 13.5679V13.4415C5.49442 12.698 5.5253 12.5973 5.83838 12.5973H12.9976C13.3118 12.5973 13.3426 12.698 13.3426 13.4405V13.5669C13.3426 14.3089 13.3112 14.4101 12.9976 14.4101H5.83838V14.4106ZM5.83838 11.1477C5.5253 11.1477 5.49442 11.0465 5.49442 10.3045V10.1781C5.49442 9.43352 5.5253 9.33337 5.83838 9.33337H12.9976C13.3118 9.33337 13.3426 9.43453 13.3426 10.1781V10.3045C13.3426 11.0465 13.3112 11.1477 12.9976 11.1477H5.83838ZM6.91088 20.8378C6.91088 19.6097 7.55167 18.9345 8.51584 18.9345C8.87984 18.9345 9.17126 19.0336 9.5358 19.203C9.66797 19.2658 9.77738 19.2405 9.95072 18.8566L10.0769 18.5956C10.2015 18.281 10.2107 18.151 10.0596 18.0812C9.61272 17.8369 8.92101 17.6826 8.32355 17.6826C6.62109 17.6826 5.33301 18.942 5.33301 20.8378C5.33301 22.733 6.62109 23.9925 8.32301 23.9925C8.92101 23.9925 9.62842 23.8387 10.0769 23.5929C10.2264 23.5246 10.2167 23.3931 10.0932 23.0785L9.96859 22.8028C9.79526 22.4184 9.6853 22.3967 9.55205 22.4563C9.18751 22.6268 8.88038 22.7259 8.51584 22.7259C7.55167 22.7259 6.91251 22.0654 6.91251 20.8378H6.91142H6.91088ZM27.1963 23.7021C27.1963 23.869 27.1291 23.9146 26.6238 23.9146H26.5734C26.0409 23.9146 25.9667 23.8918 25.925 23.7699C25.8971 23.6872 25.8748 23.6029 25.8584 23.5175C25.5767 23.8321 25.2371 24 24.7198 24C23.4653 24 22.7113 23.1402 22.7113 21.7573C22.7113 20.2627 23.5503 19.3775 24.7945 19.3775C25.145 19.3775 25.4678 19.4787 25.717 19.6628V17.7205C25.717 17.5905 25.7333 17.5364 26.432 17.5364H26.4824C27.1291 17.5364 27.1958 17.5905 27.1958 17.7205V23.7021H27.1963ZM25.7176 20.7533C25.6321 20.6661 25.5282 20.5965 25.4124 20.549C25.2965 20.5014 25.1713 20.477 25.0448 20.4771C24.488 20.4771 24.2236 20.9288 24.2236 21.7583C24.2236 22.2338 24.3314 22.5358 24.488 22.6941C24.6288 22.8574 24.8455 22.91 25.054 22.91C25.3113 22.91 25.5101 22.8509 25.6022 22.7411C25.684 22.6571 25.717 22.5272 25.717 22.2277V20.7528L25.7181 20.7533H25.7176ZM34.7341 23.7325C34.7341 23.8615 34.6675 23.9146 34.0191 23.9146H33.9693C33.2716 23.9146 33.257 23.8615 33.257 23.7325V17.7205C33.257 17.5905 33.2716 17.5364 33.9688 17.5364H34.0186C34.6664 17.5364 34.7336 17.5905 34.7336 17.7205V23.7325H34.7341ZM29.532 22.1341C29.6143 22.6789 29.9794 22.9409 30.553 22.9409C30.9945 22.9409 31.4078 22.8499 31.8909 22.6571C31.9917 22.6192 32.0821 22.6571 32.1888 22.9621L32.2647 23.1331C32.3714 23.4477 32.3622 23.5175 32.2473 23.5777C31.6732 23.8766 31.0757 23.999 30.4111 23.999C28.9421 23.999 28.0207 23.1645 28.0207 21.7356C28.0207 20.3461 28.8673 19.3775 30.3206 19.3775C31.7582 19.3775 32.496 20.3305 32.496 21.6506C32.496 22.0886 32.4553 22.1341 32.2891 22.1341H29.532ZM31.0172 21.2829C30.9945 20.8236 30.7951 20.423 30.3049 20.423C29.8797 20.423 29.5721 20.7214 29.5141 21.2829H31.0172ZM37.0351 22.1341C37.1164 22.6789 37.4826 22.9409 38.0567 22.9409C38.4944 22.9409 38.9115 22.8499 39.393 22.6571C39.4916 22.6192 39.5848 22.6571 39.692 22.9621L39.7673 23.1331C39.874 23.4477 39.8653 23.5175 39.751 23.5777C39.1769 23.8766 38.5783 23.999 37.9132 23.999C36.4436 23.999 35.5233 23.1645 35.5233 21.7356C35.5233 20.3461 36.3683 19.3775 37.8222 19.3775C39.2608 19.3775 39.9997 20.3305 39.9997 21.6506C39.9997 22.0886 39.958 22.1341 39.7917 22.1341H37.0346H37.0351ZM38.522 21.2829C38.4949 20.8236 38.2972 20.423 37.807 20.423C37.3834 20.423 37.0747 20.7214 37.0173 21.2829H38.522ZM20.3475 20.7837C20.2726 20.6914 20.176 20.6165 20.0652 20.5648C19.9543 20.513 19.8322 20.4858 19.7083 20.4852C19.1515 20.4852 18.8866 20.9379 18.8866 21.7432C18.8866 22.426 19.0838 22.9333 19.6904 22.9333C19.9158 22.9333 20.0804 22.8797 20.198 22.7709C20.3052 22.6647 20.3475 22.518 20.3475 22.1974V20.7837ZM21.8425 23.7021C21.8425 23.869 21.7769 23.9146 21.2705 23.9146H21.2022C20.6714 23.9146 20.5966 23.8918 20.5555 23.7699C20.527 23.6873 20.5047 23.603 20.4888 23.5175C20.2072 23.8321 19.8659 24 19.3503 24C18.1461 24 17.3732 23.1543 17.3732 21.7745C17.3732 20.2394 18.3287 19.3775 19.4586 19.3775C19.9158 19.3775 20.3133 19.5556 20.53 19.8085L20.5555 19.6163C20.5625 19.5252 20.5891 19.4645 21.135 19.4645H21.1941C21.7596 19.4645 21.8414 19.5015 21.8414 19.6416V23.7021H21.8425ZM14.9097 18.1672C15.4654 18.1672 15.499 18.1737 15.499 18.3427V19.4635H16.4551C16.5872 19.4635 16.6284 19.4863 16.6284 19.9081V19.9703C16.6284 20.3912 16.5872 20.4154 16.4551 20.4154H15.499V22.427C15.499 22.7639 15.5645 22.9409 15.8966 22.9409C16.0699 22.9409 16.2216 22.91 16.3711 22.865C16.5282 22.8089 16.5878 22.8797 16.695 23.2317L16.7199 23.3162C16.8358 23.7021 16.8017 23.7325 16.6538 23.8002C16.3548 23.9307 15.9551 24 15.5819 24C14.4027 24 14.0706 23.4477 14.0706 22.4867V20.4154H13.5138C13.373 20.4154 13.3378 20.3902 13.3378 19.9703V19.9081C13.3378 19.4863 13.3724 19.4645 13.5138 19.4645H14.1367C14.2044 19.1039 14.3193 18.5961 14.3946 18.3427C14.4363 18.1965 14.4612 18.1672 14.9097 18.1672ZM11.82 19.4645C12.4684 19.4645 12.5258 19.5166 12.5258 19.6481V23.7325C12.5258 23.869 12.4684 23.9146 11.82 23.9146H11.7778C11.0644 23.9146 11.0481 23.869 11.0481 23.7325V19.6481C11.0481 19.5166 11.0644 19.4645 11.7778 19.4645H11.82ZM11.7778 17.4681C12.2458 17.4681 12.5848 17.8055 12.5848 18.1889C12.5828 18.285 12.5602 18.3797 12.5186 18.4676C12.4769 18.5555 12.4169 18.6347 12.3422 18.7008C12.1905 18.8348 11.9874 18.9077 11.7778 18.9031C11.3152 18.9031 10.9723 18.5657 10.9723 18.1889C10.9723 17.8045 11.3152 17.4681 11.7778 17.4681Z" fill="#EE293D"/>
</svg>
