<svg width="46" height="32" viewBox="0 0 46 32" fill="none" xmlns="http://www.w3.org/2000/svg">
<rect x="0.5" y="0.5" width="45" height="31" rx="3.5" fill="white"/>
<rect x="0.5" y="0.5" width="45" height="31" rx="3.5" stroke="#F2F4F7"/>
<path fill-rule="evenodd" clip-rule="evenodd" d="M19.3424 14.208H13.5023H13.4053C13.8512 8.47206 16.1812 6.73696 22.2506 6.66721C22.344 6.66663 22.4349 6.66663 22.5271 6.66663H22.6912C22.7837 6.66663 22.8743 6.66663 22.968 6.66721C23.7367 6.67602 24.4449 6.71185 25.0976 6.77867C25.0498 6.78028 25.0029 6.7819 24.9502 6.78762C24.9013 6.79247 24.8401 6.79611 24.7678 6.80041C24.0496 6.84312 22.2386 6.95082 20.5816 8.95253C19.602 10.1371 19.505 14.208 19.505 14.208H19.3424ZM18.9103 21.1878C18.2255 22.0442 17.2398 21.9866 17.226 21.9857V25.4664C14.7872 24.4818 13.6879 22.4288 13.4013 18.6433C13.3666 18.1872 13.3459 17.7863 13.333 17.4542L19.5051 17.4518L19.501 17.8192L19.501 17.8199L19.501 17.821C19.4937 18.4563 19.4796 19.688 19.4812 19.7291C19.4859 19.9098 19.4402 20.5258 18.9103 21.1878ZM27.0517 7.12255C30.1531 7.94855 31.4965 10.0129 31.8172 14.2537C31.917 15.5709 31.9056 16.4483 31.9056 16.4483C31.9056 16.4483 31.9172 17.3261 31.8173 18.6431C31.3807 24.4158 29.0534 26.1596 22.9681 26.2296C22.8744 26.2302 22.3442 26.2302 22.2508 26.2296C21.1953 26.2173 20.2562 26.1534 19.4171 26.0286C19.4208 26.0286 19.4244 26.0285 19.428 26.0285C19.4537 26.0283 19.4789 26.0281 19.5051 26.0263C20.6061 25.9631 22.139 25.1139 23.0514 23.1384C23.4499 22.2746 23.5569 20.7324 23.5569 20.7324V17.4525H23.5572V17.4516H26.8903H27.052V14.2077H26.8903H23.5575C23.5575 14.2077 23.5575 14.2073 23.5572 14.2071C23.5572 14.2071 23.5558 14.2038 23.5546 14.1976L23.5537 14.1933C23.5528 14.1907 23.5521 14.1879 23.5513 14.1848C23.5504 14.181 23.5492 14.1766 23.5475 14.1713C23.5474 14.1702 23.5472 14.1688 23.5469 14.1673C23.5466 14.1652 23.5462 14.163 23.5461 14.161C23.5436 14.1516 23.5414 14.1425 23.5396 14.1301C23.5387 14.127 23.5382 14.1233 23.5377 14.1196C23.5374 14.1171 23.537 14.1146 23.5365 14.1121C23.5342 14.1 23.5323 14.0876 23.5304 14.0731C23.5289 14.0674 23.5285 14.0603 23.528 14.0536C23.5279 14.052 23.5278 14.0505 23.5277 14.049C23.5254 14.0336 23.5238 14.0189 23.5218 14.0013C23.5216 13.9977 23.5215 13.9939 23.5213 13.99C23.5211 13.9844 23.5209 13.9787 23.5204 13.9734C23.5201 13.9697 23.5199 13.966 23.5197 13.9624C23.5187 13.9473 23.5177 13.9322 23.5174 13.9154C23.5173 13.9104 23.5173 13.9051 23.5173 13.8998C23.5173 13.8945 23.5173 13.8892 23.5171 13.8841C23.5171 13.8768 23.517 13.8695 23.5169 13.8621C23.5166 13.8473 23.5163 13.8321 23.5171 13.8158C23.5171 13.8102 23.5175 13.8041 23.5179 13.7979C23.5182 13.7931 23.5185 13.7883 23.5186 13.7837C23.5192 13.7577 23.5202 13.7318 23.523 13.703C23.5233 13.6989 23.5238 13.6944 23.5243 13.6899C23.5248 13.6851 23.5254 13.6801 23.5257 13.6753C23.5285 13.6439 23.5321 13.6121 23.537 13.5784C23.5373 13.5752 23.5379 13.5719 23.5385 13.5686C23.5391 13.5654 23.5398 13.5622 23.5401 13.5591C23.5459 13.521 23.5522 13.4822 23.5606 13.4414C23.5606 13.4405 23.5609 13.4392 23.5612 13.4378C23.6202 13.1543 23.7468 12.8052 24.0004 12.4098C24.6823 11.3487 26.6189 11.3986 26.9903 11.4183C27.0292 11.4207 27.0511 11.4223 27.0517 11.4223V7.12255ZM19.2939 26.0084C19.2961 26.0084 19.2983 26.0085 19.3006 26.0085C19.2984 26.0085 19.2961 26.0084 19.2939 26.0084H19.2939Z" fill="#659AD2"/>
</svg>
