<svg width="46" height="32" viewBox="0 0 46 32" fill="none" xmlns="http://www.w3.org/2000/svg">
<rect x="0.5" y="0.5" width="45" height="31" rx="5.5" fill="white"/>
<rect x="0.5" y="0.5" width="45" height="31" rx="5.5" stroke="#F2F4F7"/>
<path fill-rule="evenodd" clip-rule="evenodd" d="M25.7894 15.3173H27.2736C27.7442 15.2998 28.0304 15.2625 28.1335 15.2041C28.2742 15.1243 28.3686 14.9646 28.4156 14.725C28.4457 14.5655 28.4607 14.3285 28.4607 14.0135C28.4607 13.6278 28.4309 13.3418 28.3709 13.155C28.2852 12.8934 28.0801 12.734 27.7553 12.6762C27.6911 12.6674 27.5373 12.6628 27.2937 12.6628H25.7894V15.3173ZM23.4085 19.7885V10.6666H27.8441C28.4525 10.6666 28.9168 10.7179 29.2358 10.8202C29.9653 11.0559 30.4548 11.5386 30.7055 12.2679C30.8349 12.6507 30.8997 13.2271 30.8997 13.9966C30.8997 14.9219 30.8279 15.5869 30.6859 15.9917C30.4014 16.7922 29.8157 17.2534 28.9314 17.3729C28.8274 17.3908 28.3849 17.4069 27.604 17.4197L27.2087 17.4333H25.7893V19.7885H23.4085ZM11.4536 13.5764H13.6685C13.6828 13.3749 13.69 13.2242 13.69 13.1234C13.69 11.8942 13.2081 11.1462 12.2443 10.8792C11.8493 10.77 11.1869 10.7149 10.2572 10.7149C9.66677 10.7149 9.12995 10.7371 8.64604 10.7806C8.06447 10.8289 7.58668 10.9903 7.21332 11.2653C6.95843 11.4445 6.77373 11.7064 6.65911 12.0515C6.5446 12.3964 6.48729 12.855 6.48729 13.4269C6.48729 14.1779 6.59333 14.7393 6.80528 15.1104C7.04643 15.5471 7.5297 15.8347 8.25486 15.9745C8.53024 16.0231 9.02199 16.0733 9.72987 16.1254C10.6114 16.1866 11.1053 16.2348 11.2114 16.2695C11.4953 16.3571 11.6375 16.6015 11.6375 17.0031C11.6375 17.1823 11.6206 17.3289 11.5867 17.4421C11.5229 17.626 11.3893 17.7589 11.1857 17.8415C11.0713 17.8855 10.8061 17.9074 10.3905 17.9074H9.5763C9.35951 17.9026 9.17513 17.8615 9.02242 17.7833C8.80209 17.6698 8.69165 17.4151 8.69165 17.019L8.69144 16.8293H6.47656C6.47656 17.5716 6.52926 18.1017 6.63572 18.4201C6.82686 18.992 7.22179 19.3718 7.82086 19.5593C8.30895 19.7124 9.17341 19.7885 10.4138 19.7885C11.1569 19.7885 11.7094 19.7534 12.0705 19.6833C12.9325 19.5174 13.4865 19.1224 13.7331 18.497C13.8692 18.1562 13.9371 17.6184 13.9371 16.884C13.9371 16.5654 13.9223 16.2787 13.8925 16.0252C13.8415 15.6016 13.6817 15.2585 13.4137 14.9961C13.0732 14.6596 12.5244 14.452 11.7673 14.3733C11.5289 14.3471 10.931 14.301 9.9737 14.2355L9.52704 14.2029C9.33096 14.1899 9.17374 14.1461 9.05472 14.0718C8.88859 13.967 8.80574 13.7483 8.80574 13.4162C8.80574 13.0493 8.89932 12.8111 9.08627 12.7015C9.27333 12.5923 9.65668 12.5377 10.2349 12.5377C10.8303 12.5377 11.1941 12.6326 11.3259 12.822C11.4109 12.9501 11.4536 13.2016 11.4536 13.5764ZM6.48496 21.5975L6.81701 21.563C6.83697 21.6784 6.87754 21.7631 6.93861 21.8173C6.99978 21.8714 7.0822 21.8984 7.18598 21.8984C7.29588 21.8984 7.37862 21.8744 7.43443 21.8264C7.49013 21.7782 7.51792 21.722 7.51792 21.6576C7.51792 21.6163 7.50622 21.5813 7.48293 21.5522C7.45954 21.5232 7.41876 21.498 7.36048 21.4765C7.32056 21.4624 7.22977 21.4372 7.088 21.4009C6.90544 21.3544 6.77752 21.2971 6.7039 21.229C6.60044 21.1334 6.54871 21.0168 6.54871 20.8791C6.54871 20.7907 6.57307 20.7078 6.6219 20.6308C6.67063 20.5536 6.74103 20.4949 6.83279 20.4546C6.92465 20.4143 7.03552 20.394 7.16537 20.394C7.37744 20.394 7.53702 20.4422 7.64424 20.5382C7.75145 20.6344 7.80769 20.7627 7.81305 20.9231L7.47102 20.937C7.45643 20.8473 7.42509 20.7829 7.37701 20.7435C7.32904 20.7042 7.25703 20.6845 7.16097 20.6845C7.06181 20.6845 6.98432 20.7056 6.9282 20.7476C6.89203 20.7745 6.874 20.8106 6.874 20.8557C6.874 20.897 6.89096 20.9322 6.92476 20.9616C6.96769 20.9988 7.07211 21.0377 7.23803 21.0778C7.40384 21.1181 7.52651 21.1599 7.60603 21.2032C7.68545 21.2465 7.74769 21.3057 7.79266 21.3807C7.83752 21.456 7.86006 21.5487 7.86006 21.6592C7.86006 21.7594 7.83312 21.8532 7.77925 21.9406C7.72537 22.028 7.64928 22.093 7.55087 22.1355C7.45246 22.178 7.32979 22.1993 7.18287 22.1993C6.96908 22.1993 6.80488 22.1481 6.69027 22.0456C6.57576 21.9431 6.50729 21.7938 6.48496 21.5975ZM8.21465 20.9059H8.53993V22.1681H8.21465V20.9059ZM8.21465 20.4252H8.53993V20.733H8.21465V20.4252ZM9.73288 22.1681H10.0582V21.3821C10.0582 21.2845 10.0522 21.2094 10.0402 21.1571C10.0283 21.1046 10.0072 21.0578 9.97682 21.0166C9.94645 20.9753 9.90169 20.9413 9.84256 20.9147C9.78343 20.8882 9.71807 20.8748 9.64659 20.8748C9.48454 20.8748 9.34996 20.9469 9.24317 21.0914V20.9059H8.94139V22.1681H9.26668V21.5952C9.26668 21.4538 9.27483 21.357 9.29136 21.3046C9.30778 21.2522 9.33815 21.2101 9.38258 21.1783C9.42701 21.1466 9.47713 21.1306 9.53305 21.1306C9.57662 21.1306 9.61397 21.1418 9.64498 21.164C9.676 21.1862 9.69832 21.2175 9.71216 21.2576C9.7259 21.2976 9.73288 21.3859 9.73288 21.5225V22.1681ZM10.716 21.5098C10.716 21.6441 10.7409 21.7425 10.7909 21.8048C10.8408 21.8673 10.9024 21.8984 10.9757 21.8984C11.0542 21.8984 11.1205 21.8665 11.1747 21.8025C11.2288 21.7385 11.256 21.6437 11.256 21.5181C11.256 21.3871 11.23 21.2897 11.1781 21.226C11.1262 21.1625 11.0607 21.1307 10.9814 21.1307C10.9044 21.1307 10.8408 21.162 10.7909 21.2243C10.7409 21.2868 10.716 21.3819 10.716 21.5098ZM10.4243 22.2511L10.7931 22.2926C10.7994 22.3397 10.8136 22.372 10.836 22.3897C10.8669 22.4149 10.9155 22.4275 10.9818 22.4275C11.0667 22.4275 11.1303 22.4145 11.1728 22.3884C11.2013 22.3709 11.223 22.3428 11.2377 22.3039C11.2476 22.276 11.2527 22.225 11.2527 22.1504L11.2537 21.9662C11.1577 22.1008 11.036 22.1681 10.8883 22.1681C10.7236 22.1681 10.5933 22.0964 10.4972 21.9527C10.4217 21.8391 10.384 21.6977 10.384 21.5286C10.384 21.3166 10.4334 21.1547 10.5322 21.0427C10.6311 20.9308 10.7541 20.8748 10.901 20.8748C11.0525 20.8748 11.1776 20.9435 11.2761 21.0807V20.9059H11.578V22.0405C11.578 22.1898 11.5661 22.3014 11.5421 22.3751C11.5183 22.449 11.4848 22.5069 11.4417 22.5489C11.3985 22.591 11.341 22.624 11.269 22.6477C11.197 22.6715 11.106 22.6835 10.996 22.6835C10.7881 22.6835 10.6406 22.6465 10.5536 22.5727C10.4666 22.4989 10.4231 22.4053 10.4231 22.2919C10.4231 22.2807 10.4235 22.2672 10.4243 22.2511ZM12.2928 20.4252H11.9675V22.1681H12.2928V20.4252ZM13.4254 21.4316C13.4231 21.3333 13.3988 21.2587 13.3523 21.2075C13.3059 21.1563 13.2495 21.1307 13.1829 21.1307C13.1118 21.1307 13.053 21.1578 13.0066 21.2117C12.9601 21.2656 12.9374 21.3389 12.9381 21.4316H13.4254ZM13.4086 21.7705L13.7306 21.8258C13.689 21.9475 13.6232 22.0402 13.5333 22.1038C13.4435 22.1676 13.331 22.1993 13.1961 22.1993C12.9825 22.1993 12.8244 22.1273 12.7219 21.9833C12.6409 21.868 12.6004 21.7225 12.6004 21.5465C12.6004 21.3367 12.6535 21.1721 12.76 21.0532C12.8663 20.9342 13.0008 20.8748 13.1634 20.8748C13.3462 20.8748 13.4903 20.9372 13.5959 21.0619C13.7015 21.1869 13.752 21.378 13.7473 21.6356H12.9325C12.9347 21.735 12.9611 21.8122 13.0116 21.8676C13.062 21.9227 13.1249 21.9503 13.2002 21.9503C13.2514 21.9503 13.2946 21.9362 13.3294 21.9077C13.3643 21.8794 13.3908 21.8336 13.4086 21.7705ZM14.8117 20.4252V22.1681H16.0962V21.8742H15.1538V21.4005H15.9989V21.1065H15.1538V20.7192H16.0627V20.4252H14.8117ZM17.2589 22.1681V21.9791C17.2142 22.0465 17.1555 22.1 17.0826 22.1398C17.0097 22.1794 16.9329 22.1993 16.852 22.1993C16.7694 22.1993 16.6956 22.1806 16.63 22.1433C16.5646 22.106 16.5171 22.0536 16.4878 21.9862C16.4585 21.9187 16.4439 21.8254 16.4439 21.7063V20.9059H16.7692V21.4864C16.7692 21.6641 16.7751 21.773 16.7871 21.813C16.7991 21.8533 16.8207 21.8849 16.8523 21.9084C16.8838 21.9317 16.9238 21.9433 16.9723 21.9433C17.0276 21.9433 17.0773 21.9279 17.1211 21.8964C17.165 21.8651 17.195 21.8263 17.2112 21.7798C17.2273 21.7334 17.2354 21.6198 17.2354 21.4389V20.9059H17.5607V22.1681H17.2589ZM17.9503 22.1681H18.2756V21.7778C18.2756 21.5629 18.2847 21.4216 18.3028 21.3542C18.321 21.2868 18.3459 21.2402 18.3775 21.2143C18.4092 21.1886 18.4477 21.1757 18.4933 21.1757C18.5403 21.1757 18.5914 21.1939 18.6461 21.2304L18.7451 20.9381C18.6766 20.8959 18.6054 20.8748 18.5315 20.8748C18.4792 20.8748 18.4325 20.8887 18.3913 20.9165C18.3501 20.9444 18.3037 21.0006 18.2521 21.0854V20.9059H17.9503V22.1681ZM19.2083 21.537C19.2083 21.6629 19.2372 21.759 19.295 21.8259C19.3529 21.8927 19.4242 21.9261 19.509 21.9261C19.5938 21.9261 19.665 21.8927 19.7224 21.8259C19.7798 21.759 19.8086 21.662 19.8086 21.5347C19.8086 21.4106 19.7798 21.315 19.7224 21.2483C19.665 21.1815 19.5938 21.148 19.509 21.148C19.4242 21.148 19.3529 21.1815 19.295 21.2483C19.2372 21.315 19.2083 21.4114 19.2083 21.537ZM18.8763 21.5191C18.8763 21.4077 18.9028 21.3 18.9559 21.1957C19.0089 21.0916 19.0841 21.012 19.1814 20.9571C19.2786 20.9022 19.3874 20.8748 19.5073 20.8748C19.6927 20.8748 19.8445 20.937 19.963 21.0615C20.0814 21.186 20.1406 21.3433 20.1406 21.5335C20.1406 21.7251 20.0808 21.8842 19.9612 22.0102C19.8416 22.1363 19.6911 22.1993 19.5096 22.1993C19.3973 22.1993 19.2902 22.173 19.1884 22.1207C19.0864 22.0681 19.0089 21.9912 18.9559 21.8897C18.9028 21.7882 18.8763 21.6648 18.8763 21.5191ZM21.5419 21.2172V20.7192H21.7063C21.8291 20.7192 21.9107 20.7232 21.9513 20.7312C22.0065 20.7416 22.0521 20.7675 22.0882 20.809C22.1242 20.8505 22.1423 20.9031 22.1423 20.967C22.1423 21.0189 22.1294 21.0644 22.1037 21.1034C22.0781 21.1426 22.0426 21.1714 21.9974 21.1898C21.9521 21.2081 21.8624 21.2172 21.7282 21.2172H21.5419ZM21.1999 20.4252V22.1681H21.5419V21.5111H21.7643C21.9185 21.5111 22.0363 21.5028 22.1178 21.4861C22.1777 21.4726 22.2366 21.4452 22.2946 21.4034C22.3525 21.3618 22.4004 21.3045 22.4379 21.2317C22.4756 21.1585 22.4944 21.0687 22.4944 20.9617C22.4944 20.8229 22.4618 20.7097 22.3964 20.6221C22.331 20.5345 22.25 20.4775 22.1532 20.4514C22.0902 20.434 21.9549 20.4252 21.7474 20.4252H21.1999ZM23.5164 21.563C23.4748 21.5774 23.4093 21.5945 23.3195 21.6144C23.2298 21.6342 23.1711 21.6538 23.1437 21.6728C23.1014 21.7039 23.0804 21.7433 23.0804 21.791C23.0804 21.838 23.0972 21.8785 23.1309 21.9128C23.1647 21.947 23.2076 21.9642 23.2599 21.9642C23.3182 21.9642 23.3736 21.9443 23.4267 21.9045C23.4657 21.8742 23.4915 21.8372 23.5037 21.7934C23.5121 21.7648 23.5164 21.7102 23.5164 21.6298V21.563ZM23.0805 21.2898L22.7887 21.2344C22.8217 21.1122 22.8786 21.0218 22.9593 20.963C23.0401 20.9042 23.1601 20.8748 23.3193 20.8748C23.4638 20.8748 23.5716 20.8925 23.6423 20.9277C23.713 20.9632 23.7629 21.008 23.7917 21.0624C23.8206 21.1167 23.8351 21.2166 23.8351 21.3619L23.8317 21.7526C23.8317 21.8637 23.8369 21.9458 23.8472 21.9985C23.8576 22.0513 23.877 22.1078 23.9055 22.1681H23.5835C23.5749 22.1463 23.5646 22.1139 23.5523 22.071C23.5469 22.0514 23.543 22.0385 23.5409 22.0322C23.4855 22.0879 23.4264 22.1297 23.3634 22.1576C23.3004 22.1854 23.2333 22.1993 23.1618 22.1993C23.0358 22.1993 22.9365 22.1639 22.8639 22.0933C22.7914 22.0226 22.7551 21.9332 22.7551 21.8252C22.7551 21.7538 22.7716 21.6901 22.8046 21.6341C22.8377 21.5781 22.8841 21.5351 22.9436 21.5054C23.0033 21.4757 23.0893 21.4495 23.2015 21.4272C23.353 21.3979 23.4579 21.3706 23.5164 21.3451V21.3114C23.5164 21.2463 23.501 21.1999 23.4701 21.1721C23.439 21.1445 23.3808 21.1306 23.2949 21.1306C23.237 21.1306 23.1918 21.1425 23.1593 21.1659C23.1267 21.1895 23.1004 21.2308 23.0805 21.2898ZM24.414 20.9059H24.0686L24.5353 22.1716C24.516 22.2429 24.4882 22.3017 24.4518 22.3479C24.4155 22.394 24.3595 22.4171 24.2837 22.4171C24.2428 22.4171 24.1966 22.412 24.1457 22.4015L24.1759 22.6632C24.2359 22.6767 24.2973 22.6835 24.3596 22.6835C24.4212 22.6835 24.4765 22.6767 24.5255 22.6631C24.5744 22.6497 24.6154 22.6307 24.649 22.6064C24.6825 22.5823 24.7122 22.5507 24.738 22.5118C24.7637 22.4729 24.7909 22.4165 24.8194 22.3426L25.3296 20.9059H24.9942L24.7075 21.802L24.414 20.9059ZM25.5832 20.9059H25.8817V21.0783C25.9889 20.9426 26.1165 20.8748 26.2646 20.8748C26.3431 20.8748 26.4114 20.8914 26.4692 20.9247C26.5271 20.9581 26.5745 21.0086 26.6114 21.076C26.6653 21.0086 26.7236 20.9581 26.7858 20.9247C26.8483 20.8914 26.9147 20.8748 26.9856 20.8748C27.0757 20.8748 27.1519 20.8936 27.2143 20.9314C27.2766 20.969 27.3233 21.0244 27.3541 21.0976C27.3763 21.1515 27.3875 21.2388 27.3875 21.3595V22.1681H27.0622V21.4452C27.0622 21.3197 27.051 21.2388 27.0288 21.2022C26.9988 21.1544 26.9527 21.1306 26.8906 21.1306C26.8452 21.1306 26.8025 21.1449 26.7626 21.1736C26.7226 21.2022 26.6939 21.2441 26.6763 21.2993C26.6586 21.3544 26.6497 21.4416 26.6497 21.5607V22.1681H26.3244V21.475C26.3244 21.3518 26.3187 21.2725 26.3071 21.2367C26.2956 21.2009 26.2778 21.1744 26.2535 21.1569C26.2293 21.1395 26.1965 21.1306 26.155 21.1306C26.1051 21.1306 26.0601 21.1446 26.0202 21.1724C25.9803 21.2001 25.9517 21.2403 25.9344 21.2927C25.9171 21.3451 25.9085 21.432 25.9085 21.5535V22.1681H25.5832V20.9059ZM28.4349 21.2075C28.4814 21.2587 28.5057 21.3333 28.5081 21.4316H28.0208C28.0201 21.3389 28.0428 21.2656 28.0893 21.2117C28.1355 21.1578 28.1945 21.1307 28.2655 21.1307C28.332 21.1307 28.3886 21.1563 28.4349 21.2075ZM28.8133 21.8258L28.4913 21.7705C28.4735 21.8336 28.4471 21.8794 28.412 21.9077C28.3771 21.9362 28.3341 21.9503 28.2829 21.9503C28.2074 21.9503 28.1446 21.9227 28.0942 21.8676C28.0438 21.8122 28.0174 21.735 28.015 21.6356H28.83C28.8346 21.378 28.7841 21.1869 28.6785 21.0619C28.5729 20.9372 28.4288 20.8748 28.2461 20.8748C28.0834 20.8748 27.949 20.9342 27.8426 21.0532C27.7363 21.1721 27.683 21.3367 27.683 21.5465C27.683 21.7225 27.7234 21.868 27.8045 21.9833C27.9071 22.1273 28.0651 22.1993 28.2787 22.1993C28.4137 22.1993 28.5261 22.1676 28.616 22.1038C28.7058 22.0402 28.7715 21.9475 28.8133 21.8258ZM30.2777 22.1681H29.9524V21.5225C29.9524 21.3859 29.9454 21.2976 29.9318 21.2576C29.9179 21.2175 29.8955 21.1862 29.8645 21.164C29.8335 21.1418 29.7961 21.1306 29.7525 21.1306C29.6967 21.1306 29.6465 21.1466 29.6022 21.1783C29.5577 21.2101 29.5274 21.2522 29.5108 21.3046C29.4944 21.357 29.4862 21.4538 29.4862 21.5952V22.1681H29.1609V20.9059H29.4627V21.0914C29.5696 20.9469 29.704 20.8748 29.8661 20.8748C29.9376 20.8748 30.003 20.8882 30.062 20.9147C30.1212 20.9413 30.166 20.9753 30.1964 21.0166C30.2268 21.0578 30.2478 21.1046 30.2597 21.1571C30.2718 21.2094 30.2777 21.2845 30.2777 21.3821V22.1681ZM31.2375 21.1721V20.9059H31.0161V20.4564L30.6908 20.6535V20.9059H30.5432V21.1721H30.6908V21.7239C30.6908 21.8422 30.6941 21.9209 30.7011 21.9599C30.7095 22.0146 30.7245 22.0581 30.7463 22.0902C30.7682 22.1224 30.8024 22.1488 30.849 22.1689C30.8957 22.1891 30.9479 22.1993 31.0062 22.1993C31.101 22.1993 31.1858 22.1826 31.2609 22.1493L31.2324 21.8906C31.1764 21.9119 31.1339 21.9227 31.1043 21.9227C31.0831 21.9227 31.0653 21.917 31.0505 21.906C31.0358 21.8948 31.0264 21.8807 31.0223 21.8636C31.0181 21.8465 31.0161 21.7862 31.0161 21.6829V21.1721H31.2375ZM31.4204 21.812L31.7457 21.7601C31.7595 21.8246 31.7875 21.8735 31.8297 21.9071C31.872 21.9406 31.931 21.9572 32.007 21.9572C32.0908 21.9572 32.1538 21.9413 32.196 21.9094C32.2244 21.8869 32.2387 21.8572 32.2387 21.8195C32.2387 21.7941 32.2309 21.7728 32.2154 21.7562C32.1991 21.7402 32.1628 21.7255 32.1064 21.7119C31.8435 21.652 31.6769 21.5974 31.6067 21.5482C31.5092 21.4799 31.4606 21.3848 31.4606 21.2634C31.4606 21.1537 31.5026 21.0615 31.5868 20.9869C31.6712 20.9122 31.8018 20.8748 31.9788 20.8748C32.1473 20.8748 32.2724 20.9028 32.3544 20.9587C32.4363 21.0147 32.4927 21.0973 32.5237 21.2068L32.2185 21.2655C32.2053 21.2165 32.1802 21.1788 32.1433 21.1527C32.1063 21.1264 32.0536 21.1134 31.9852 21.1134C31.8989 21.1134 31.837 21.1257 31.7997 21.1506C31.7747 21.168 31.7624 21.1907 31.7624 21.2186C31.7624 21.2426 31.7731 21.263 31.7948 21.2798C31.8241 21.3021 31.9255 21.3336 32.0989 21.3743C32.2722 21.4151 32.3932 21.4649 32.462 21.5238C32.5298 21.5836 32.564 21.6669 32.564 21.7737C32.564 21.89 32.517 21.9901 32.4233 22.0737C32.3294 22.1575 32.1907 22.1993 32.007 22.1993C31.8403 22.1993 31.7083 22.1645 31.6111 22.0951C31.5138 22.0255 31.4503 21.9313 31.4204 21.812ZM34.3075 20.8333L34.5438 21.48H34.0791L34.3075 20.8333ZM34.8028 22.1681H35.1711L34.4886 20.4252H34.1288L33.474 22.1681H33.836L33.9753 21.7739H34.6566L34.8028 22.1681ZM35.7294 22.1681H35.4041V20.9059H35.7059V21.0854C35.7575 21.0006 35.8038 20.9444 35.8451 20.9165C35.8862 20.8887 35.9329 20.8748 35.9854 20.8748C36.0592 20.8748 36.1304 20.8959 36.1989 20.9381L36.1 21.2304C36.0451 21.1939 35.9942 21.1757 35.9472 21.1757C35.9014 21.1757 35.8629 21.1886 35.8313 21.2143C35.7996 21.2402 35.7747 21.2868 35.7567 21.3542C35.7384 21.4216 35.7294 21.5629 35.7294 21.7778V22.1681ZM37.0653 21.2075C37.1116 21.2587 37.136 21.3333 37.1384 21.4316H36.6511C36.6503 21.3389 36.6731 21.2656 36.7196 21.2117C36.766 21.1578 36.8247 21.1307 36.8959 21.1307C36.9624 21.1307 37.0188 21.1563 37.0653 21.2075ZM37.4435 21.8258L37.1216 21.7705C37.1037 21.8336 37.0773 21.8794 37.0424 21.9077C37.0074 21.9362 36.9644 21.9503 36.9131 21.9503C36.8378 21.9503 36.7749 21.9227 36.7244 21.8676C36.6741 21.8122 36.6477 21.735 36.6453 21.6356H37.4603C37.4649 21.378 37.4144 21.1869 37.3089 21.0619C37.2032 20.9372 37.059 20.8748 36.8764 20.8748C36.7138 20.8748 36.5792 20.9342 36.4729 21.0532C36.3665 21.1721 36.3133 21.3367 36.3133 21.5465C36.3133 21.7225 36.3537 21.868 36.4347 21.9833C36.5372 22.1273 36.6954 22.1993 36.9091 22.1993C37.044 22.1993 37.1565 22.1676 37.2463 22.1038C37.3361 22.0402 37.4019 21.9475 37.4435 21.8258ZM38.4686 21.563C38.4272 21.5774 38.3615 21.5945 38.2718 21.6144C38.1821 21.6342 38.1235 21.6538 38.0959 21.6728C38.0536 21.7039 38.0327 21.7433 38.0327 21.791C38.0327 21.838 38.0494 21.8785 38.0833 21.9128C38.117 21.947 38.1599 21.9642 38.2121 21.9642C38.2704 21.9642 38.3259 21.9443 38.3789 21.9045C38.418 21.8742 38.4437 21.8372 38.456 21.7934C38.4643 21.7648 38.4686 21.7102 38.4686 21.6298V21.563ZM38.0327 21.2898L37.7409 21.2344C37.7739 21.1122 37.8308 21.0218 37.9115 20.963C37.9923 20.9042 38.1123 20.8748 38.2715 20.8748C38.416 20.8748 38.5238 20.8925 38.5945 20.9277C38.6652 20.9632 38.7151 21.008 38.7439 21.0624C38.7727 21.1167 38.7872 21.2166 38.7872 21.3619L38.7839 21.7526C38.7839 21.8637 38.7891 21.9458 38.7994 21.9985C38.8098 22.0513 38.8292 22.1078 38.8575 22.1681H38.5357C38.5271 22.1463 38.5169 22.1139 38.5044 22.071C38.4992 22.0514 38.4952 22.0385 38.4931 22.0322C38.4377 22.0879 38.3787 22.1297 38.3157 22.1576C38.2527 22.1854 38.1855 22.1993 38.114 22.1993C37.988 22.1993 37.8886 22.1639 37.8161 22.0933C37.7437 22.0226 37.7074 21.9332 37.7074 21.8252C37.7074 21.7538 37.7238 21.6901 37.7569 21.6341C37.7899 21.5781 37.8363 21.5351 37.8958 21.5054C37.9555 21.4757 38.0415 21.4495 38.1537 21.4272C38.3051 21.3979 38.4101 21.3706 38.4686 21.3451V21.3114C38.4686 21.2463 38.4531 21.1999 38.4222 21.1721C38.3913 21.1445 38.3329 21.1306 38.2471 21.1306C38.1891 21.1306 38.144 21.1425 38.1114 21.1659C38.079 21.1895 38.0526 21.2308 38.0327 21.2898ZM34.3933 12.4807L35.5088 16.4349H33.3107L34.3933 12.4807ZM32.7985 18.212H35.9817L36.4359 19.7885H38.8474L36.1569 10.6666H32.5655L29.9076 19.7885H32.3708L32.7985 18.212Z" fill="#10298E"/>
<path fill-rule="evenodd" clip-rule="evenodd" d="M20.1226 11.95C21.1045 11.95 21.9809 12.4164 22.557 13.147L23.0702 12.0124C22.2676 11.2301 21.1752 10.7478 19.9703 10.7478C18.0943 10.7478 16.4895 11.9161 15.8309 13.5699H14.8302L14.2393 14.8761H15.5267C15.517 14.9973 15.5108 15.1186 15.5108 15.2423C15.5108 15.3921 15.5183 15.54 15.5327 15.6862H14.8856L14.2948 16.9929H15.8616C16.539 18.6049 18.1237 19.7365 19.9703 19.7365C20.9008 19.7365 21.7643 19.449 22.4793 18.9579V17.3565C21.9035 18.0324 21.0614 18.4596 20.1226 18.4596C19.0251 18.4596 18.0598 17.876 17.4976 16.9929H20.7785L21.3693 15.6862H17.0149C16.9925 15.529 16.9804 15.3683 16.9804 15.2046C16.9804 15.0939 16.986 14.9844 16.9963 14.8761H21.7355L22.3263 13.5699H17.4062C17.9503 12.6015 18.9629 11.95 20.1226 11.95Z" fill="#FFBE00"/>
</svg>
