<svg width="46" height="32" viewBox="0 0 46 32" fill="none" xmlns="http://www.w3.org/2000/svg">
<rect x="0.5" y="0.5" width="45" height="31" rx="5.5" fill="#5A31F4"/>
<rect x="0.5" y="0.5" width="45" height="31" rx="5.5" stroke="#F2F4F7"/>
<path d="M25.6934 14.6317C25.6934 16.6265 24.2948 18.0505 22.3405 18.0505H20.4992C20.4789 18.0505 20.4588 18.0545 20.44 18.0623C20.4212 18.0701 20.4042 18.0816 20.3899 18.096C20.3755 18.1104 20.3642 18.1275 20.3565 18.1463C20.3488 18.1651 20.3448 18.1852 20.3449 18.2056V20.8274C20.3449 20.8683 20.3287 20.9077 20.2998 20.9367C20.2709 20.9658 20.2316 20.9822 20.1906 20.9824H18.9022C18.8716 20.9823 18.8417 20.9731 18.8162 20.956C18.7908 20.939 18.7709 20.9148 18.7591 20.8865C18.7514 20.868 18.7473 20.8482 18.7472 20.8281V11.3672C18.7471 11.3469 18.751 11.3268 18.7587 11.308C18.7664 11.2891 18.7777 11.272 18.7921 11.2576C18.8064 11.2432 18.8235 11.2318 18.8422 11.224C18.861 11.2162 18.8811 11.2122 18.9015 11.2122H22.3487C24.2948 11.2099 25.6934 12.6339 25.6934 14.6317ZM24.0866 14.6317C24.0866 13.4849 23.3045 12.6467 22.2438 12.6467H20.4992C20.4789 12.6467 20.4588 12.6507 20.44 12.6585C20.4212 12.6663 20.4042 12.6777 20.3899 12.6921C20.3755 12.7065 20.3642 12.7236 20.3565 12.7424C20.3488 12.7612 20.3448 12.7814 20.3449 12.8017V16.4527C20.3449 16.4937 20.3612 16.5329 20.3901 16.5618C20.4191 16.5908 20.4583 16.607 20.4992 16.607H22.2438C23.3045 16.6145 24.0866 15.7756 24.0866 14.6317ZM26.0754 19.1674C26.062 18.8615 26.1253 18.557 26.2595 18.2818C26.3938 18.0065 26.5947 17.7692 26.8439 17.5913C27.3466 17.213 28.1324 17.0175 29.2859 16.9771L30.5144 16.9336V16.5711C30.5144 15.8445 30.0275 15.5374 29.2455 15.5374C28.4634 15.5374 27.9676 15.8145 27.8537 16.2677C27.8444 16.2996 27.8248 16.3275 27.798 16.347C27.7711 16.3665 27.7386 16.3766 27.7054 16.3756H26.4919C26.4695 16.3762 26.4473 16.3719 26.4268 16.3629C26.4064 16.354 26.3881 16.3406 26.3734 16.3238C26.3586 16.307 26.3478 16.2872 26.3416 16.2657C26.3354 16.2442 26.334 16.2216 26.3376 16.1995C26.5173 15.1254 27.411 14.3089 29.3009 14.3089C31.3114 14.3089 32.0373 15.2452 32.0373 17.0325V20.8274C32.0369 20.8687 32.0201 20.9083 31.9907 20.9374C31.9612 20.9664 31.9214 20.9826 31.88 20.9824H30.6567C30.6158 20.9823 30.5766 20.9662 30.5474 20.9375C30.5331 20.9231 30.5217 20.906 30.514 20.8873C30.5063 20.8685 30.5024 20.8484 30.5024 20.8281V20.5442C30.5029 20.5207 30.4962 20.4977 30.4833 20.4781C30.4704 20.4585 30.4518 20.4433 30.4301 20.4345C30.4084 20.4256 30.3845 20.4236 30.3615 20.4286C30.3386 20.4336 30.3177 20.4454 30.3017 20.4626C29.9346 20.8618 29.3421 21.1502 28.393 21.1502C26.9968 21.1502 26.0754 20.4236 26.0754 19.1674ZM30.5144 18.3449V18.0505L28.9234 18.1344C28.0852 18.1771 27.5975 18.5254 27.5975 19.112C27.5975 19.6423 28.0447 19.9359 28.826 19.9359C29.8874 19.9359 30.5144 19.3629 30.5144 18.3449ZM33.2658 23.8499V22.7502C33.266 22.7272 33.2713 22.7044 33.2813 22.6837C33.2913 22.6629 33.3058 22.6446 33.3236 22.63C33.3415 22.6154 33.3624 22.6049 33.3847 22.5993C33.4071 22.5937 33.4304 22.593 33.4531 22.5974C33.6403 22.6326 33.8313 22.6506 34.0224 22.6514C34.3507 22.6673 34.675 22.5727 34.9432 22.3825C35.2114 22.1924 35.4081 21.9178 35.5018 21.6026L35.5812 21.3495C35.5927 21.3155 35.5927 21.2786 35.5812 21.2446L33.0321 14.6976C33.0229 14.6739 33.0195 14.6483 33.0224 14.623C33.0253 14.5977 33.0342 14.5735 33.0485 14.5524C33.0628 14.5313 33.082 14.514 33.1045 14.502C33.1269 14.49 33.1519 14.4836 33.1774 14.4834H34.4134C34.445 14.4837 34.4757 14.4935 34.5016 14.5116C34.5275 14.5296 34.5474 14.555 34.5587 14.5845L36.2898 19.2019C36.3007 19.2325 36.3207 19.2591 36.3473 19.2779C36.3739 19.2967 36.4056 19.3067 36.4381 19.3067C36.4707 19.3067 36.5024 19.2967 36.529 19.2779C36.5555 19.2591 36.5756 19.2325 36.5865 19.2019L38.0899 14.5973C38.1003 14.5658 38.1204 14.5384 38.1473 14.519C38.1742 14.4997 38.2065 14.4893 38.2397 14.4894H39.5183C39.544 14.4896 39.5692 14.4959 39.5918 14.5079C39.6144 14.5199 39.6338 14.5372 39.6483 14.5583C39.6628 14.5794 39.672 14.6038 39.675 14.6292C39.6781 14.6546 39.675 14.6804 39.6659 14.7044L36.9393 21.9749C36.3115 23.6649 35.2351 24.0971 34.0501 24.0971C33.8254 24.1031 33.6006 24.0761 33.3834 24.0169C33.3473 24.0074 33.3157 23.9854 33.2942 23.9548C33.2727 23.9243 33.2626 23.8871 33.2658 23.8499ZM10.4676 10.6668C8.84364 10.6553 7.27702 11.2665 6.08997 12.3747C6.03921 12.4212 6.00756 12.485 6.00119 12.5535C5.99482 12.622 6.01418 12.6905 6.05551 12.7455L6.79036 13.7493C6.81418 13.7827 6.84504 13.8105 6.88076 13.8307C6.91647 13.8509 6.95619 13.8631 6.9971 13.8663C7.03802 13.8695 7.07914 13.8637 7.11758 13.8493C7.15602 13.8349 7.19083 13.8123 7.21958 13.783C7.64641 13.3563 8.15401 13.0189 8.71273 12.7906C9.27144 12.5623 9.87005 12.4477 10.4736 12.4534C12.9935 12.4534 14.3096 14.3501 14.3096 16.2228C14.3096 18.2588 12.9268 19.691 10.9395 19.7195C9.40389 19.7195 8.24657 18.7015 8.24657 17.3569C8.24817 17.0172 8.32512 16.6821 8.47189 16.3757C8.61865 16.0694 8.83156 15.7994 9.09527 15.5853C9.15102 15.5387 9.18626 15.4721 9.19341 15.3998C9.20055 15.3276 9.17903 15.2554 9.13348 15.1988L8.36118 14.2235C8.33782 14.194 8.30879 14.1695 8.27581 14.1514C8.24282 14.1333 8.20654 14.122 8.16912 14.1181C8.13169 14.1143 8.09388 14.118 8.0579 14.129C8.02193 14.14 7.98853 14.1581 7.95967 14.1823C7.48536 14.5644 7.10261 15.0479 6.83949 15.5972C6.57636 16.1465 6.43953 16.7478 6.43904 17.3569C6.43904 19.6715 8.40612 21.4873 10.926 21.5023H10.9597C13.9515 21.4633 16.1149 19.2475 16.1149 16.219C16.1149 13.5298 14.1343 10.6668 10.4683 10.6668H10.4676Z" fill="white"/>
</svg>
