<svg width="46" height="32" viewBox="0 0 46 32" fill="none" xmlns="http://www.w3.org/2000/svg">
<rect x="0.5" y="0.5" width="45" height="31" rx="5.5" fill="#F884A1"/>
<rect x="0.5" y="0.5" width="45" height="31" rx="5.5" stroke="#F2F4F7"/>
<path fill-rule="evenodd" clip-rule="evenodd" d="M26.3791 12.5808L27.6323 6.1575C27.783 5.4369 27.3684 4.71075 26.6738 4.50011C25.8984 4.30056 25.1176 4.76618 24.9183 5.5533L23.7829 9.55501L22.8879 5.61428C22.8179 5.24843 22.6025 4.92139 22.2956 4.71075C21.9886 4.50011 21.6063 4.42805 21.2455 4.50566C20.5348 4.66086 20.0717 5.5145 20.2494 6.29054L20.7775 10.7544C20.3187 10.2836 19.7829 10.1386 19.162 10.5089L19.0812 10.5643C18.5154 10.961 18.4003 11.7716 18.7639 12.5099C18.4629 12.5273 18.1687 12.6565 17.945 12.8924L17.8911 12.9534C17.3688 13.5077 17.4711 14.4445 18.1227 15.1152L18.652 15.6582C18.7115 18.1684 20.695 19.9266 23.0338 19.9266C23.0614 19.9266 23.0882 19.9227 23.1134 19.9154C26.2814 19.8828 27.6736 17.9404 27.9122 14.9932C27.9876 14.062 27.8207 13.4245 27.4707 13.042C27.2768 12.8314 27.0722 12.7316 26.9161 12.7095L26.3791 12.5808ZM25.8121 12.445L27.0615 6.03555C27.1476 5.61428 26.9053 5.19854 26.5176 5.0766C26.0653 4.96019 25.6022 5.24289 25.4784 5.71405L24.0299 10.8248C23.9868 10.9856 23.8252 11.0742 23.6691 11.0299C23.5451 10.9947 23.4652 10.8826 23.4592 10.7574L22.3171 5.73623C22.274 5.52005 22.1502 5.33158 21.9725 5.20963C21.7948 5.08768 21.574 5.04888 21.364 5.09323C20.9871 5.17637 20.7071 5.69743 20.8202 6.16305L20.8255 6.19631L21.4782 11.735L21.8887 12.3657C22.068 12.1095 22.3265 11.9499 22.6352 11.878C22.8937 11.8226 23.1575 11.8281 23.4106 11.8724C23.4737 11.8817 23.5217 11.8949 23.5483 11.9022C23.5535 11.9036 23.5579 11.9048 23.5614 11.9057L25.8121 12.445ZM21.6307 13.0463L20.9879 12.0588C20.966 12.035 20.9479 12.0074 20.9347 11.9771L20.632 11.5122C20.2605 10.9523 19.8997 10.7583 19.4689 11.0133L19.4097 11.0576C19.0758 11.296 19.0328 11.8614 19.3774 12.4046L20.6482 14.3502C20.8743 14.6939 21.3267 14.7826 21.6605 14.5498L21.7251 14.511C21.8144 14.4509 21.8884 14.3682 21.9414 14.2731C21.6222 13.9367 21.5433 13.5207 21.6307 13.0463ZM22.5292 14.0155C22.496 13.9633 22.4464 13.9216 22.3853 13.8983C22.1425 13.6579 22.1329 13.3576 22.2475 12.9644C22.3336 12.6762 22.5006 12.5265 22.7644 12.4656C22.9367 12.4268 23.1252 12.4323 23.3083 12.4656C23.3289 12.4698 23.3471 12.4732 23.3626 12.4761C23.3878 12.4809 23.406 12.4843 23.416 12.4877L26.8084 13.3026L26.873 13.3247C26.9268 13.3469 26.9861 13.3913 27.0453 13.4522C27.2715 13.7017 27.4007 14.1728 27.3361 14.9489C27.1153 17.665 25.8876 19.3501 22.969 19.3224C22.9527 19.3224 22.9366 19.3238 22.921 19.3264C21.1521 19.2778 19.6558 18.0889 19.3082 16.3315L19.7435 16.7781C20.2658 17.2936 21.0897 17.2825 21.5958 16.7504L21.6551 16.6894C22.0568 16.2579 22.1257 15.6223 21.8646 15.1195C21.9032 15.0981 21.9411 15.0745 21.9782 15.0487L22.0428 15.0043C22.1892 14.9017 22.3121 14.7695 22.4065 14.6173C22.603 14.7228 22.8394 14.8152 23.1198 14.8934L23.9329 15.0874C23.3298 15.4367 22.9529 16.0852 22.9098 17.0774C22.899 17.2437 23.0229 17.3823 23.1844 17.3934C23.346 17.3989 23.4806 17.277 23.4914 17.1107C23.5344 16.2127 23.8737 15.7304 24.4175 15.5198C24.7083 15.4089 25.026 15.3868 25.306 15.4145L25.376 15.4256C25.7476 15.4976 25.866 14.9267 25.4945 14.838L23.2598 14.3225C22.9373 14.2318 22.6989 14.131 22.5292 14.0155ZM18.365 13.3137C18.5885 13.0729 18.9524 13.0439 19.2148 13.2316L20.1636 14.6884C20.4238 15.0797 20.8453 15.2871 21.2714 15.2794C21.5038 15.5697 21.4913 15.9991 21.2297 16.2737L21.1758 16.3347C20.8958 16.6284 20.4381 16.634 20.1527 16.3457L18.5373 14.6994C18.0904 14.2394 18.0311 13.674 18.3111 13.3746L18.365 13.3137ZM16.2111 25.5528C16.2111 26.4785 15.5111 27.1105 14.5957 27.1105C13.9549 27.1105 13.4056 26.8111 13.0664 26.3344L13.6964 25.6859C13.8849 25.9353 14.1972 26.2069 14.6064 26.2069C14.9888 26.2069 15.2526 25.9741 15.2526 25.5972C15.2526 25.1981 14.9403 25.0983 14.4503 24.9542C13.551 24.6826 13.1849 24.2003 13.1849 23.5739C13.1849 22.7868 13.7664 22.1106 14.6818 22.1106C15.258 22.1106 15.7911 22.3877 16.028 22.9254L15.2688 23.4187C15.1234 23.1748 14.9241 23.0141 14.6549 23.0141C14.3372 23.0141 14.138 23.2358 14.138 23.5185C14.138 23.8566 14.4287 23.962 14.8918 24.1005C15.6188 24.3223 16.2111 24.6937 16.2111 25.5528ZM16.5394 25.3422C16.5394 26.3123 17.3256 27.1105 18.2948 27.1105C19.2641 27.1105 20.0502 26.3123 20.0502 25.3422C20.0502 24.3722 19.2641 23.574 18.2948 23.574C17.3256 23.574 16.5394 24.3722 16.5394 25.3422ZM18.2946 26.2236C18.7631 26.2236 19.1346 25.8411 19.1346 25.3422C19.1346 24.8433 18.7631 24.4609 18.2946 24.4609C17.8207 24.4609 17.4546 24.8433 17.4546 25.3422C17.4546 25.8466 17.8261 26.2236 18.2946 26.2236ZM22.3172 22.1716V23.0585C21.8056 23.0363 21.4341 23.3024 21.4341 23.8899V24.2502C21.6387 24.0285 21.9295 23.9176 22.2903 23.9176V24.8156C21.7841 24.8267 21.4341 25.1593 21.4341 25.6249V27.0218H20.5187V23.8345C20.5187 22.9365 21.0679 22.1716 22.1826 22.1716H22.3172ZM24.3149 27.1105C23.3457 27.1105 22.5595 26.3123 22.5595 25.3422C22.5595 24.3722 23.3457 23.574 24.3149 23.574C25.2842 23.574 26.0704 24.3722 26.0704 25.3422C26.0704 26.3123 25.2842 27.1105 24.3149 27.1105ZM25.1549 25.3422C25.1549 25.8411 24.7887 26.2236 24.3149 26.2236C23.8464 26.2236 23.4749 25.8466 23.4749 25.3422C23.4749 24.8433 23.8464 24.4609 24.3149 24.4609C24.7833 24.4609 25.1549 24.8433 25.1549 25.3422ZM27.4542 24.0507V23.6682H26.5657V27.0218H27.4811V25.4919C27.4811 24.9376 27.7988 24.6271 28.3481 24.6271V23.6183C27.9334 23.6017 27.6373 23.7458 27.4542 24.0507ZM29.7912 24.4886V25.309C29.7912 25.8965 30.1628 26.1571 30.6743 26.1404V27.0273H30.5397C29.4197 27.0273 28.8758 26.2624 28.8758 25.3644V22.5928H29.7912V23.1194C29.7912 23.574 30.152 23.9176 30.6474 23.9287V24.8212C30.2813 24.8212 29.9959 24.7103 29.7912 24.4886ZM31.7674 27.0772C32.1013 27.0772 32.3813 26.7945 32.3813 26.4453C32.3813 26.1016 32.1067 25.8134 31.7674 25.8134C31.4282 25.8134 31.1536 26.0961 31.1536 26.4453C31.1536 26.7945 31.4282 27.0772 31.7674 27.0772Z" fill="white"/>
</svg>
