<svg width="46" height="32" viewBox="0 0 46 32" fill="none" xmlns="http://www.w3.org/2000/svg">
<rect x="0.5" y="0.5" width="45" height="31" rx="3.5" fill="white"/>
<rect x="0.5" y="0.5" width="45" height="31" rx="3.5" stroke="#F2F4F7"/>
<path d="M14.0244 6.66736H21.1686C22.1659 6.66736 22.7862 7.50413 22.5535 8.53414L19.2274 23.2346C18.9927 24.2611 17.9942 25.0985 16.9962 25.0985H9.85265C8.85677 25.0985 8.2351 24.2611 8.46775 23.2346L11.7953 8.53414C12.0279 7.50413 13.0259 6.66736 14.0244 6.66736Z" fill="#E21836"/>
<path d="M20.5738 6.66663H28.7895C29.7866 6.66663 29.3369 7.5034 29.1024 8.53341L25.7767 23.2339C25.5434 24.2603 25.6162 25.0978 24.617 25.0978H16.4013C15.4021 25.0978 14.7838 24.2603 15.0185 23.2339L18.344 8.53341C18.5801 7.5034 19.576 6.66663 20.5738 6.66663Z" fill="#00447C"/>
<path d="M28.464 6.66663H35.6083C36.607 6.66663 37.2272 7.5034 36.9927 8.53341L33.667 23.2339C33.4323 24.2603 32.4331 25.0978 31.4346 25.0978H24.2937C23.2945 25.0978 22.6747 24.2603 22.9088 23.2339L26.2349 8.53341C26.4676 7.5034 27.4649 6.66663 28.464 6.66663Z" fill="#007B84"/>
<path d="M15.8901 11.3776C15.1554 11.3853 14.9385 11.3776 14.8692 11.3608C14.8425 11.4911 14.3467 13.8453 14.3454 13.8473C14.2386 14.3235 14.1609 14.6631 13.8971 14.8823C13.7474 15.0097 13.5725 15.0712 13.3698 15.0712C13.044 15.0712 12.8542 14.9047 12.8224 14.5888L12.8163 14.4804C12.8163 14.4804 12.9155 13.8424 12.9155 13.8388C12.9155 13.8388 13.4358 11.6935 13.529 11.4099C13.5339 11.3938 13.5353 11.3853 13.5365 11.3776C12.5237 11.3868 12.3442 11.3776 12.3318 11.3608C12.325 11.3839 12.3 11.5169 12.3 11.5169L11.7687 13.9349L11.7231 14.14L11.6348 14.8108C11.6348 15.0097 11.6727 15.1721 11.7483 15.3095C11.9903 15.7449 12.6808 15.8101 13.0714 15.8101C13.5746 15.8101 14.0467 15.7001 14.3657 15.4991C14.9195 15.1623 15.0644 14.6358 15.1936 14.168L15.2535 13.9279C15.2535 13.9279 15.7895 11.6998 15.8805 11.4099C15.884 11.3938 15.8854 11.3853 15.8901 11.3776ZM17.7138 13.1751C17.5846 13.1751 17.3484 13.2074 17.1363 13.3144C17.0594 13.3551 16.9866 13.4021 16.9098 13.4488L16.9791 13.1913L16.9411 13.1479C16.4913 13.2416 16.3907 13.2542 15.9752 13.3144L15.9404 13.3382C15.8921 13.75 15.8493 14.0596 15.6705 14.8689C15.6024 15.1672 15.5317 15.4684 15.4608 15.7659L15.48 15.8037C15.9057 15.7806 16.0349 15.7806 16.405 15.7869L16.4349 15.7534C16.4819 15.5055 16.488 15.4474 16.5922 14.9453C16.6411 14.7072 16.7431 14.1842 16.7935 13.9979C16.8859 13.9538 16.9772 13.9104 17.0642 13.9104C17.2716 13.9104 17.2464 14.0967 17.2384 14.1709C17.2295 14.2955 17.1539 14.7024 17.0764 15.0518L17.0247 15.2773C16.9887 15.4438 16.9491 15.6057 16.9131 15.7708L16.9288 15.8037C17.3484 15.7806 17.4764 15.7806 17.8348 15.7869L17.8769 15.7534C17.9417 15.3662 17.9607 15.2626 18.0756 14.6988L18.1334 14.4398C18.2458 13.9328 18.3022 13.6758 18.2172 13.4664C18.1273 13.2318 17.9118 13.1751 17.7138 13.1751ZM19.751 13.7059C19.5279 13.75 19.3857 13.7794 19.2443 13.7984C19.1041 13.8215 18.9674 13.8425 18.7518 13.8733L18.7348 13.8893L18.7191 13.902C18.6966 14.0673 18.681 14.2101 18.6512 14.3781C18.6259 14.5518 18.5871 14.7492 18.5239 15.0327C18.475 15.2498 18.4497 15.3255 18.4218 15.4018C18.3947 15.4782 18.3647 15.5524 18.3097 15.7659L18.3226 15.7856L18.3334 15.8037C18.5349 15.7939 18.6667 15.7869 18.8022 15.7856C18.9375 15.7806 19.0776 15.7856 19.2946 15.7869L19.3136 15.7709L19.334 15.7534C19.3653 15.5608 19.37 15.509 19.3892 15.4151C19.4081 15.3144 19.4409 15.1749 19.5212 14.8024C19.5591 14.6274 19.6014 14.453 19.6408 14.2745C19.6817 14.0967 19.7245 13.9215 19.7653 13.7466L19.7592 13.7254L19.751 13.7059ZM19.7558 12.9903C19.5531 12.8671 19.1973 12.9062 18.9579 13.0763C18.7191 13.243 18.692 13.4796 18.894 13.6044C19.0932 13.7241 19.4503 13.6885 19.6877 13.5169C19.9259 13.3466 19.9557 13.1121 19.7558 12.9903ZM20.9816 15.8423C21.3917 15.8423 21.812 15.726 22.1284 15.3807C22.3719 15.1007 22.4835 14.6841 22.5222 14.5126C22.6481 13.944 22.55 13.6785 22.4269 13.5168C22.2399 13.2703 21.9094 13.1913 21.5665 13.1913C21.3603 13.1913 20.8693 13.2123 20.4857 13.5763C20.2102 13.8389 20.0829 14.1953 20.0061 14.537C19.9286 14.8851 19.8394 15.5118 20.3993 15.745C20.572 15.8213 20.821 15.8423 20.9816 15.8423ZM20.9495 14.563C21.0441 14.1324 21.1557 13.771 21.4406 13.771C21.6639 13.771 21.68 14.0399 21.5808 14.4719C21.563 14.5678 21.4815 14.9243 21.3713 15.0762C21.2943 15.1882 21.2033 15.2561 21.1026 15.2561C21.0727 15.2561 20.8945 15.2561 20.8917 14.9839C20.8903 14.8494 20.917 14.7121 20.9495 14.563ZM23.5473 15.7869L23.5793 15.7534C23.6248 15.5055 23.6323 15.4473 23.7329 14.9453C23.7833 14.7073 23.8874 14.1842 23.9363 13.998C24.029 13.9537 24.1186 13.9103 24.2085 13.9103C24.4145 13.9103 24.3894 14.0966 24.3812 14.1708C24.3737 14.2955 24.2982 14.7023 24.2193 15.0516L24.1704 15.2771C24.1329 15.4438 24.0922 15.6055 24.0561 15.7708L24.0718 15.8038C24.4929 15.7807 24.616 15.7807 24.9764 15.7869L25.02 15.7534C25.0832 15.3661 25.1002 15.2624 25.2186 14.6989L25.2751 14.4397C25.3879 13.9327 25.445 13.6758 25.3614 13.4665C25.269 13.2318 25.052 13.1752 24.8568 13.1752C24.7274 13.1752 24.4901 13.2073 24.2792 13.3145C24.2038 13.3551 24.1282 13.4019 24.054 13.4489L24.1186 13.1913L24.084 13.1477C23.6344 13.2417 23.5316 13.2542 23.1167 13.3145L23.0848 13.3383C23.0345 13.7501 22.9935 14.0594 22.8147 14.869C22.7466 15.1673 22.6759 15.4684 22.6052 15.766L22.6242 15.8038C23.0507 15.7807 23.178 15.7807 23.5473 15.7869ZM26.6409 15.8037C26.6674 15.6707 26.8246 14.8823 26.826 14.8823C26.826 14.8823 26.9599 14.3039 26.9681 14.2829C26.9681 14.2829 27.0102 14.2227 27.0524 14.1988H27.1144C27.6993 14.1988 28.3598 14.1988 28.8775 13.8068C29.2298 13.5379 29.4706 13.1408 29.578 12.6583C29.6059 12.54 29.6264 12.3993 29.6264 12.2585C29.6264 12.0737 29.5904 11.8909 29.4863 11.748C29.2223 11.3678 28.6966 11.3608 28.0897 11.358C28.0878 11.358 27.7905 11.3608 27.7905 11.3608C27.0137 11.3707 26.7022 11.3678 26.5742 11.3517C26.5634 11.4099 26.543 11.5136 26.543 11.5136C26.543 11.5136 26.2648 12.8411 26.2648 12.8433C26.2648 12.8433 25.5989 15.6659 25.5675 15.7989C26.2458 15.7904 26.5239 15.7904 26.6409 15.8037ZM27.1565 13.4454C27.1565 13.4454 27.4524 12.1205 27.451 12.1255L27.4606 12.0576L27.4647 12.0058L27.583 12.0183C27.583 12.0183 28.1931 12.0723 28.2074 12.0737C28.4482 12.1696 28.5475 12.4168 28.4782 12.7395C28.415 13.0344 28.2292 13.2823 27.9904 13.402C27.7938 13.5035 27.553 13.5119 27.3049 13.5119H27.1443L27.1565 13.4454ZM28.9986 14.5875C28.9204 14.9306 28.8305 15.5573 29.3876 15.7806C29.5652 15.8584 29.7244 15.8816 29.8861 15.8731C30.057 15.8636 30.2153 15.7754 30.3619 15.6485C30.3487 15.7007 30.3354 15.7529 30.3222 15.8052L30.3474 15.8387C30.7481 15.8213 30.8724 15.8213 31.3066 15.8247L31.3459 15.7939C31.4093 15.4103 31.469 15.0378 31.6338 14.3039C31.714 13.9524 31.7941 13.6043 31.8765 13.2542L31.8636 13.2156C31.4154 13.3012 31.2956 13.3194 30.8644 13.3824L30.8317 13.4098C30.8273 13.4455 30.8228 13.4797 30.8186 13.5139C30.7516 13.4024 30.6544 13.3073 30.5045 13.2479C30.3128 13.1703 29.8625 13.2703 29.4754 13.6331C29.2034 13.8922 29.0728 14.2471 28.9986 14.5875ZM29.94 14.6085C30.0359 14.1856 30.1461 13.8278 30.4317 13.8278C30.6123 13.8278 30.7074 13.9994 30.688 14.2919C30.6727 14.3649 30.6562 14.4418 30.6365 14.5287C30.6079 14.6544 30.5769 14.7789 30.5468 14.9037C30.5162 14.989 30.4805 15.0695 30.4413 15.1231C30.3678 15.2303 30.193 15.2968 30.0923 15.2968C30.0638 15.2968 29.8875 15.2968 29.8814 15.0294C29.8801 14.8962 29.9067 14.7591 29.94 14.6085ZM34.8559 13.2122L34.8212 13.1715C34.3777 13.264 34.2974 13.2787 33.8899 13.3354L33.86 13.3662C33.8586 13.3712 33.8574 13.3789 33.8553 13.3859L33.8539 13.3789C33.5506 14.0994 33.5594 13.944 33.3125 14.5111C33.3111 14.4853 33.3111 14.4692 33.3097 14.4417L33.2479 13.2122L33.2091 13.1715C32.7445 13.264 32.7335 13.2787 32.3044 13.3354L32.271 13.3662C32.2663 13.3809 32.2663 13.397 32.2635 13.4146L32.2663 13.4209C32.3199 13.703 32.3071 13.6401 32.3609 14.0854C32.3859 14.3039 32.4194 14.5237 32.4445 14.7395C32.4868 15.1007 32.5105 15.2785 32.5622 15.8297C32.2724 16.322 32.2038 16.5082 31.9248 16.9402L31.9268 16.9445L31.7303 17.2643C31.7079 17.298 31.6875 17.3211 31.6589 17.331C31.6276 17.347 31.5868 17.3498 31.5302 17.3498H31.4214L31.2596 17.9037L31.8146 17.9136C32.1404 17.9122 32.3452 17.7553 32.4554 17.5445L32.8044 16.9289H32.7988L32.8356 16.8856C33.0703 16.3654 34.8559 13.2122 34.8559 13.2122ZM28.9986 20.4869H28.7631L29.6345 17.52H29.9236L30.0153 17.2144L30.0242 17.5543C30.0134 17.7644 30.174 17.9506 30.5957 17.9198H31.0835L31.2514 17.3485H31.0678C30.9623 17.3485 30.9134 17.3211 30.9194 17.2623L30.9106 16.9165H30.0073V16.9183C29.7153 16.9245 28.8432 16.9471 28.6667 16.9955C28.453 17.0522 28.2278 17.2189 28.2278 17.2189L28.3163 16.9129H27.4714L27.2953 17.52L26.4123 20.5323H26.241L26.0729 21.0994H27.7558L27.6993 21.2886H28.5286L28.5836 21.0994H28.8162L28.9986 20.4869ZM28.3081 18.1229C28.1728 18.1614 27.921 18.2783 27.921 18.2783L28.145 17.52H28.8162L28.6543 18.0725C28.6543 18.0725 28.4469 18.0851 28.3081 18.1229ZM28.321 19.2061C28.321 19.2061 28.1101 19.2334 27.9713 19.2656C27.8346 19.3083 27.5783 19.4427 27.5783 19.4427L27.8096 18.6537H28.4843L28.321 19.2061ZM27.9449 20.4939H27.2715L27.4667 19.828H28.138L27.9449 20.4939ZM29.5665 18.6537H30.5372L30.3977 19.1186H29.4142L29.2665 19.627H30.1271L29.4755 20.5715C29.4298 20.6409 29.3889 20.6655 29.3435 20.685C29.2978 20.7088 29.2379 20.7368 29.1686 20.7368H28.9299L28.7658 21.2936H29.3903C29.7149 21.2936 29.9066 21.1416 30.0482 20.942L30.495 20.3125L30.591 20.9517C30.6113 21.0715 30.6949 21.1416 30.7515 21.1688C30.814 21.2011 30.8786 21.2565 30.9699 21.2647C31.0677 21.269 31.1384 21.2724 31.1855 21.2724H31.4923L31.6765 20.6493H31.5555C31.486 20.6493 31.3664 20.6373 31.346 20.6149C31.3256 20.5877 31.3256 20.5457 31.3147 20.4819L31.2173 19.8412H30.8187L30.9936 19.627H31.9752L32.1261 19.1186H31.2173L31.3589 18.6537H32.2649L32.433 18.0802H29.7318L29.5665 18.6537ZM21.3686 20.6234L21.5951 19.8476H22.5262L22.6963 19.2705H21.7644L21.9066 18.793H22.8174L22.9861 18.2342H20.7074L20.5421 18.793H21.0598L20.9217 19.2705H20.4026L20.2306 19.8574H20.7481L20.4462 20.8838C20.4054 21.0197 20.4653 21.0715 20.5033 21.1346C20.5421 21.1961 20.5815 21.2368 20.6699 21.2599C20.7612 21.2809 20.8237 21.2934 20.9087 21.2934H21.9584L22.1454 20.6542L21.6801 20.72C21.5902 20.72 21.3414 20.7089 21.3686 20.6234ZM21.4754 16.9094L21.2394 17.3484C21.1889 17.4443 21.1434 17.5038 21.1025 17.5312C21.0665 17.5544 20.9951 17.564 20.8916 17.564H20.7685L20.604 18.1257H21.0128C21.2094 18.1257 21.3604 18.0514 21.4325 18.0143C21.51 17.9717 21.5304 17.9961 21.5903 17.9365L21.7284 17.8134H23.0051L23.1746 17.2287H22.24L22.4031 16.9094H21.4754ZM23.3603 20.6347C23.3385 20.6024 23.3542 20.5456 23.3874 20.4273L23.7364 19.2382H24.9778C25.1587 19.2356 25.2893 19.2334 25.3743 19.2271C25.4656 19.2173 25.5648 19.1838 25.6729 19.1235C25.7846 19.0604 25.8417 18.9939 25.8899 18.9176C25.9437 18.8414 26.0301 18.6747 26.1043 18.4176L26.5429 16.9129L25.2547 16.9206C25.2547 16.9206 24.858 16.9809 24.6833 17.0474C24.5071 17.1216 24.2553 17.3288 24.2553 17.3288L24.3716 16.9163H23.5758L22.4617 20.72C22.4222 20.8677 22.3957 20.9749 22.3896 21.0392C22.3875 21.1086 22.4746 21.1773 22.531 21.2291C22.5977 21.2809 22.6963 21.2725 22.7908 21.2809C22.8903 21.2886 23.0317 21.2934 23.2269 21.2934H23.8384L24.0262 20.6409L23.4787 20.6942C23.4202 20.6942 23.3778 20.6619 23.3603 20.6347ZM23.9615 18.4352H25.2655L25.1826 18.7026C25.1709 18.7089 25.1431 18.6894 25.0104 18.7055H23.8813L23.9615 18.4352ZM24.2228 17.5382H25.5376L25.4431 17.8603C25.4431 17.8603 24.8233 17.854 24.7241 17.8728C24.2874 17.9506 24.0322 18.1909 24.0322 18.1909L24.2228 17.5382ZM25.2118 19.5982C25.201 19.6382 25.1839 19.6626 25.1601 19.6809C25.1336 19.6985 25.0907 19.7047 25.0268 19.7047H24.841L24.852 19.379H24.0792L24.0478 20.9714C24.0466 21.0863 24.0574 21.1528 24.1391 21.206C24.2208 21.2725 24.4724 21.2809 24.8111 21.2809H25.2954L25.4702 20.6849L25.0486 20.7087L24.9084 20.7172C24.8893 20.7087 24.871 20.701 24.8506 20.6801C24.8329 20.662 24.8029 20.6731 24.8078 20.5582L24.8111 20.15L25.2532 20.1312C25.492 20.1312 25.594 20.0512 25.6811 19.975C25.7641 19.9021 25.7913 19.8182 25.8226 19.7047L25.8968 19.3433H25.2893L25.2118 19.5982Z" fill="#FEFEFE"/>
</svg>
