<svg width="46" height="32" viewBox="0 0 46 32" fill="none" xmlns="http://www.w3.org/2000/svg">
<rect x="0.5" y="0.5" width="45" height="31" rx="3.5" fill="white"/>
<rect x="0.5" y="0.5" width="45" height="31" rx="3.5" stroke="#F2F4F7"/>
<path fill-rule="evenodd" clip-rule="evenodd" d="M19.4528 13.7403H20.9283L21.1655 12.5257H19.6897L19.4528 13.7403ZM19.2997 14.5216H20.7756L19.8381 19.3175C19.7696 19.3418 19.5584 19.4271 19.2667 19.4271C18.873 19.4271 18.5118 19.2712 18.5118 18.7184C18.5118 18.6144 18.5236 18.496 18.55 18.3614C18.8432 16.8649 19.2997 14.5216 19.2997 14.5216ZM33.9534 14.412C32.9712 14.412 32.5807 14.9966 32.3974 15.3524H32.38L32.4367 14.5226H30.9783C30.9687 14.7051 30.9056 15.2802 30.8121 15.7763C30.8121 15.7763 30.4753 17.5171 30.4116 17.8504C30.3631 18.105 30.2743 18.4815 30.2743 18.6999C30.2743 19.165 30.5065 19.4272 31.0246 19.4272C31.3152 19.4272 31.5247 19.3465 31.601 19.3175L32.0887 16.8199C32.2239 16.1302 32.7149 15.6789 33.2985 15.6789C33.7695 15.6789 33.9946 16.0279 33.9946 16.3132C33.9946 16.5615 33.9333 16.8367 33.8858 17.08L33.6761 18.1496C33.6511 18.278 33.5977 18.5247 33.5977 18.7181C33.5977 19.1909 33.8601 19.4272 34.3585 19.4272C34.6306 19.4272 34.8031 19.3581 34.9253 19.3175L35.363 17.0785C35.4578 16.5725 35.4929 16.306 35.4929 15.9839C35.4929 15.0567 34.9592 14.412 33.9534 14.412ZM27.3982 15.5717C26.5733 15.5717 26.1164 16.4286 26.1164 17.1924C26.1164 17.8365 26.4028 18.2679 27.0537 18.2679C27.7895 18.2679 28.3654 17.6317 28.3654 16.5458C28.3654 16.049 28.1051 15.5717 27.3982 15.5717ZM26.9631 19.4274C25.383 19.4274 24.627 18.4645 24.627 17.2372C24.627 15.5533 25.7649 14.412 27.5235 14.412C29.0493 14.412 29.8595 15.3507 29.8595 16.5563C29.8595 18.3628 28.644 19.4274 26.9631 19.4274ZM21.437 18.2726C21.4034 18.4452 21.3821 18.5661 21.3821 18.7147C21.3821 19.2645 21.7438 19.4272 22.127 19.4272C22.4335 19.4272 22.6232 19.3421 22.6926 19.3175L23.4021 15.6822L24.5495 15.682L24.776 14.5216L23.6288 14.5217L23.6845 14.2359C23.7883 13.6999 24.0366 13.4642 24.466 13.4642C24.7528 13.4642 24.9848 13.5161 25.0654 13.5374L25.2814 12.4339C25.1893 12.4103 24.7653 12.3048 24.1378 12.3048C23.1378 12.3048 22.4827 12.9219 22.289 13.9158L22.1704 14.5216H21.4234L21.1967 15.682H21.9442C21.9442 15.682 21.6494 17.1852 21.437 18.2726ZM18.0398 14.4122C17.2991 14.4122 16.8917 14.9348 16.7324 15.3516H16.7154L16.7724 14.5216H15.3134C15.3005 14.8093 15.2413 15.2958 15.0926 16.0606C14.942 16.8357 14.7952 17.6088 14.6436 18.3613C14.6177 18.4899 14.6061 18.6158 14.6061 18.7223C14.6061 19.1164 14.7978 19.4268 15.3641 19.4268C15.6446 19.4268 15.8395 19.3528 15.933 19.3176L16.367 17.0942C16.5234 16.2436 16.8074 15.6812 17.6314 15.6812C18.0062 15.6812 18.3623 15.7624 18.4369 15.7846L18.6867 14.5054C18.6328 14.4865 18.4164 14.4122 18.0398 14.4122ZM39.4445 16.4655C39.5235 16.0257 39.2718 15.5717 38.7029 15.5717C38.0081 15.5717 37.703 16.054 37.5668 16.4655H39.4445ZM40.103 18.2501C40.103 18.9171 39.4674 19.4286 38.3418 19.4286C36.7862 19.4286 36.0256 18.4439 36.0256 17.2385C36.0256 16.0419 36.8072 14.4133 38.7151 14.4133C39.9731 14.4133 40.9137 15.0484 40.9137 16.5022C40.9137 16.8598 40.8353 17.2485 40.8017 17.4041H37.4578C37.4523 17.753 37.7416 18.3576 38.9039 18.3576C39.4219 18.3576 40.0085 18.1716 40.103 18.1242C40.103 18.1605 40.103 18.2261 40.103 18.2501ZM12.7803 16.4655C12.8592 16.0257 12.6075 15.5717 12.0385 15.5717C11.3438 15.5717 11.0388 16.054 10.9025 16.4655H12.7803ZM13.4388 18.2501C13.4388 18.9171 12.8032 19.4286 11.6778 19.4286C10.1221 19.4286 9.36155 18.4439 9.36155 17.2385C9.36155 16.0419 10.1431 14.4133 12.0511 14.4133C13.3091 14.4133 14.2497 15.0484 14.2497 16.5022C14.2497 16.8598 14.1713 17.2485 14.1375 17.4041H10.7938C10.7883 17.753 11.0775 18.3576 12.2398 18.3576C12.7578 18.3576 13.3443 18.1716 13.4388 18.1242C13.4388 18.1605 13.4388 18.2261 13.4388 18.2501ZM4.57129 12.8897H6.05586V17.6583C6.05586 18.3753 6.40707 18.7414 6.9709 18.7414C7.0284 18.7414 7.0623 18.7339 7.07348 18.7311C6.82634 19.1112 6.50593 19.4229 5.77022 19.4229C4.9918 19.4229 4.57129 18.8738 4.57129 18.0497V12.8897Z" fill="#1A1919"/>
<path fill-rule="evenodd" clip-rule="evenodd" d="M6.62373 16.9214C6.52312 17.0811 6.46973 17.2659 6.46973 17.4546V17.6663C6.46973 18.1497 6.72668 18.3229 7.00722 18.3229C7.29398 18.3229 7.44748 18.1253 7.58831 17.9007C7.82427 17.5245 10.7077 12.8898 10.7077 12.8898H9.16466L6.62373 16.9214Z" fill="#00A3DA"/>
</svg>
