<?xml version="1.0" encoding="UTF-8"?>
<svg version="1.1" xmlns="http://www.w3.org/2000/svg" width="322" height="367">
<path d="M0 0 C0.66064453 -0.02449219 1.32128906 -0.04898437 2.00195312 -0.07421875 C12.05568297 -0.13261408 20.60163133 6.16371843 29 11.0625 C30.12946045 11.71750488 31.2589209 12.37250977 32.42260742 13.04736328 C41.26687479 18.19121291 50.01661114 23.48615841 58.74862671 28.81765747 C67.72165477 34.29555831 76.73928921 39.68959133 85.8125 45 C86.41330383 45.35167236 87.01410767 45.70334473 87.63311768 46.06567383 C95.25511181 50.52335214 102.89879217 54.94229435 110.55493164 59.34106445 C114.80177412 61.78286616 119.04316607 64.23394888 123.28125 66.69091797 C125.16758972 67.78399352 127.05552169 68.87432763 128.9453125 69.96142578 C142.31442253 77.68108913 151.50151683 83.91333091 156.1875 99.375 C156.86424545 104.64656132 156.86383813 109.8568852 156.81860352 115.15844727 C156.82375368 116.70886042 156.83104318 118.2592677 156.84028625 119.80966187 C156.85866761 123.98540082 156.84594723 128.16049433 156.82619596 132.33620572 C156.80970045 136.72592887 156.81863727 141.11561463 156.82371521 145.50535583 C156.82822359 152.8730591 156.81244337 160.24050744 156.78442383 167.6081543 C156.75236569 176.10275677 156.7523964 184.59690003 156.7696386 193.09153515 C156.7855502 201.29497265 156.77874119 209.49824323 156.76170158 217.70167351 C156.7548637 221.17869499 156.75582971 224.65558136 156.76324654 228.13260078 C156.77095725 232.23277109 156.7586289 236.33242419 156.73139763 240.43250656 C156.72456298 241.92917154 156.72436241 243.42588528 156.73161316 244.92254829 C156.78550693 257.5050632 155.0284895 267.67751076 146 276.9375 C140.25030674 281.92056749 133.74467802 285.5747085 127.1875 289.375 C125.02027443 290.64487997 122.85365278 291.91579093 120.6875 293.1875 C117.01313745 295.34339681 113.33734239 297.49675845 109.65722656 299.64282227 C101.11128968 304.63054651 92.63152305 309.71688705 84.1875 314.875 C71.65355247 322.52795399 59.00545284 329.97382675 46.31956482 337.371521 C42.47679442 339.61486512 38.64698666 341.87900936 34.82421875 344.15625 C33.34187744 345.03845215 33.34187744 345.03845215 31.82958984 345.93847656 C30.022232 347.01571798 28.21640794 348.09553971 26.41259766 349.17871094 C9.11949767 359.47410592 9.11949767 359.47410592 -0.5 359.625 C-1.47324219 359.65078125 -2.44648438 359.6765625 -3.44921875 359.703125 C-11.81969206 358.88649346 -18.506295 355.08294264 -25.5625 350.75 C-27.50468659 349.57986274 -29.44742425 348.41063981 -31.390625 347.2421875 C-32.42380859 346.61795898 -33.45699219 345.99373047 -34.52148438 345.35058594 C-39.80556905 342.17856715 -45.12806802 339.07274479 -50.44946289 335.96386719 C-53.55647233 334.14795026 -56.66105031 332.3278879 -59.765625 330.5078125 C-60.36922852 330.15398499 -60.97283203 329.80015747 -61.59472656 329.43560791 C-75.84132899 321.0825969 -90.03635197 312.64955429 -104.1784668 304.12084961 C-109.71925796 300.79121469 -115.28347438 297.51013756 -120.89453125 294.30078125 C-121.77366684 293.79735199 -121.77366684 293.79735199 -122.67056274 293.28375244 C-125.48779031 291.67210777 -128.30884261 290.06777327 -131.13574219 288.47314453 C-143.09983707 281.65841728 -152.63417283 275.4724815 -157.1328125 261.9765625 C-157.90321816 259.0277684 -158.14056646 256.4096148 -157.8125 253.375 C-154.4599048 255.29963799 -151.35284586 257.4199854 -148.26025391 259.73730469 C-115.6505261 283.99061389 -73.95958475 292.51262314 -34.03417969 286.72558594 C-3.16738003 281.85473711 26.31919503 267.09631048 48.890625 245.53125 C51.1875 243.375 51.1875 243.375 53.72265625 241.40234375 C58.23407972 237.69168007 61.57997776 232.94032226 65.1875 228.375 C66.00863281 227.36953125 66.82976562 226.3640625 67.67578125 225.328125 C74.22102959 217.21410705 79.40592172 208.62680854 84.1875 199.375 C84.50847656 198.75898926 84.82945312 198.14297852 85.16015625 197.50830078 C95.16450095 178.03854836 99.78343864 157.01155225 102.1875 135.375 C110.4375 135.375 118.6875 135.375 127.1875 135.375 C120.39254476 125.67975898 113.52252097 116.06030882 106.47875977 106.54467773 C102.44896943 101.09756254 98.45957061 95.62335268 94.5 90.125 C88.77463449 82.17465647 82.99488043 74.26558904 77.1875 66.375 C73.61738363 69.81874057 70.51723256 73.35768113 67.5 77.3125 C67.06993652 77.87606201 66.63987305 78.43962402 66.19677734 79.02026367 C62.72947308 83.59263706 59.38837137 88.24969073 56.07714844 92.93579102 C52.88549978 97.43957564 49.5841589 101.85103023 46.25 106.25 C42.06213045 111.7911342 38.0034877 117.40541772 34.0625 123.125 C33.60109619 123.79257324 33.13969238 124.46014648 32.66430664 125.14794922 C30.60181581 128.16734574 28.82746243 131.09507515 27.1875 134.375 C34.7775 134.375 42.3675 134.375 50.1875 134.375 C51.75160776 164.48407435 37.07748075 193.65872512 17.5625 215.6875 C16.10949393 217.25495518 14.65166277 218.81796123 13.1875 220.375 C12.6615625 220.96539062 12.135625 221.55578125 11.59375 222.1640625 C-9.2294638 244.5808896 -42.37158154 257.05434156 -72.41992188 258.50048828 C-99.6822631 259.44171068 -125.01838971 253.90810864 -148.58719921 239.71352959 C-150.01661775 238.85372717 -151.46658827 238.0267438 -152.93897724 237.24279976 C-156.2686941 235.21175737 -158.4370996 233.68012538 -159.542593 229.8367424 C-159.82101549 226.6079059 -159.83624327 223.46640514 -159.76831055 220.22607422 C-159.77429764 219.00577011 -159.78028473 217.785466 -159.78645325 216.52818298 C-159.79449765 213.18955756 -159.766923 209.85491373 -159.7224462 206.51682043 C-159.68343158 203.01111042 -159.68769679 199.50543164 -159.68647766 195.99954224 C-159.67816254 190.10641574 -159.63960988 184.21411781 -159.58081055 178.32128906 C-159.51325923 171.53549899 -159.48319357 164.75041811 -159.4758355 157.96431148 C-159.46791591 150.71093886 -159.43705461 143.45781117 -159.39704156 136.20455027 C-159.38678105 134.12978486 -159.38018008 132.05503306 -159.37421227 129.98025131 C-159.36125625 126.08670167 -159.3220635 122.19364158 -159.2800293 118.30029297 C-159.27824677 117.16531876 -159.27646423 116.03034454 -159.27462769 114.86097717 C-159.09842858 102.76908039 -157.03445344 91.68404887 -148.29418945 82.83837891 C-142.85271343 77.76120083 -136.68153247 74.10335441 -130.24707031 70.44067383 C-127.66261772 68.96947722 -125.08957749 67.47879465 -122.51559448 65.98937988 C-121.19416256 65.2249673 -119.87215971 64.46154084 -118.54959106 63.69909668 C-112.42537481 60.16559841 -106.36416348 56.53123381 -100.3125 52.875 C-87.70461907 45.27929335 -75.01089487 37.83408273 -62.30029297 30.41210938 C-58.9917971 28.4801978 -55.68525965 26.54495125 -52.37890625 24.609375 C-47.48013053 21.74328953 -42.57672834 18.88530149 -37.66894531 16.03466797 C-35.72469778 14.9050103 -33.78137304 13.77376325 -31.83886719 12.64111328 C-28.95839288 10.96328196 -26.07360705 9.29311924 -23.1875 7.625 C-22.32833984 7.12315186 -21.46917969 6.62130371 -20.58398438 6.10424805 C-13.70492498 2.14685812 -8.04221236 0.01542131 0 0 Z M-7.44421387 159.76620483 C-8.09104126 160.41747345 -8.73786865 161.06874207 -9.40429688 161.73974609 C-10.13845825 162.47405853 -10.87261963 163.20837097 -11.62902832 163.9649353 C-12.81812805 165.16951889 -12.81812805 165.16951889 -14.03125 166.3984375 C-14.84493042 167.21494781 -15.65861084 168.03145813 -16.49694824 168.87271118 C-19.10684303 171.49383664 -21.70972028 174.12181094 -24.3125 176.75 C-26.06855287 178.51608007 -27.82505753 180.28171103 -29.58203125 182.046875 C-33.45248187 185.93704252 -37.31851674 189.83153838 -41.18078613 193.72982788 C-42.38861128 194.94761508 -43.59968359 196.16218359 -44.8125 197.375 C-50.0925 192.095 -55.3725 186.815 -60.8125 181.375 C-64.12976504 183.03363252 -65.63353117 183.9606235 -68.0625 186.5 C-68.97 187.44875 -69.8775 188.3975 -70.8125 189.375 C-69.22818547 193.28351199 -66.54614905 195.89867356 -63.5859375 198.796875 C-63.07825836 199.30172424 -62.57057922 199.80657349 -62.04751587 200.32672119 C-60.43216158 201.93092096 -58.80997791 203.52800856 -57.1875 205.125 C-56.08808302 206.21438107 -54.98911941 207.3042199 -53.890625 208.39453125 C-51.2031398 211.06001885 -48.50950979 213.71915143 -45.8125 216.375 C-41.55504617 214.98359485 -39.11054523 213.03737238 -35.9765625 209.8671875 C-34.62691406 208.50980469 -34.62691406 208.50980469 -33.25 207.125 C-32.78722656 206.65191406 -32.32445312 206.17882812 -31.84765625 205.69140625 C-30.45559154 204.26849246 -29.05207402 202.85681253 -27.6484375 201.4453125 C-23.71948718 197.47145989 -19.84856765 193.48573991 -16.2109375 189.2421875 C-13.72737212 186.34776251 -11.11902853 183.66493104 -8.375 181.015625 C-7.62605469 180.29246094 -6.87710938 179.56929687 -6.10546875 178.82421875 C-4.55272235 177.33495772 -2.99257333 175.85338324 -1.42578125 174.37890625 C-0.31783203 173.30189453 -0.31783203 173.30189453 0.8125 172.203125 C1.48539062 171.5627832 2.15828125 170.92244141 2.8515625 170.26269531 C4.42816899 168.46756094 4.42816899 168.46756094 3.99584961 166.2421875 C2.97651845 163.88765874 1.72434681 162.75044977 -0.25 161.125 C-1.17619141 160.34382812 -1.17619141 160.34382812 -2.12109375 159.546875 C-4.47825991 157.91373447 -5.25095171 157.89622201 -7.44421387 159.76620483 Z " fill="#1E6062" transform="translate(162.8125,3.625)"/>
<path d="M0 0 C6.27 0 12.54 0 19 0 C19 0.33 19 0.66 19 1 C17.94039063 1.04898438 16.88078125 1.09796875 15.7890625 1.1484375 C14.40101503 1.22346709 13.01299549 1.29901485 11.625 1.375 C10.57699219 1.42140625 10.57699219 1.42140625 9.5078125 1.46875 C5.29814173 1.59499498 5.29814173 1.59499498 2 4 C1.60235737 5.98821313 1.26224651 7.98944339 1 10 C0.67 10 0.34 10 0 10 C0 6.7 0 3.4 0 0 Z " fill="#135256" transform="translate(265,139)"/>
<path d="M0 0 C1 3 1 3 0.00390625 5.48046875 C-0.47175781 6.37378906 -0.94742188 7.26710937 -1.4375 8.1875 C-1.91058594 9.08855469 -2.38367188 9.98960937 -2.87109375 10.91796875 C-3.24363281 11.60503906 -3.61617187 12.29210937 -4 13 C-5.0169313 10.34501768 -5.13022151 9.30844625 -4.00390625 6.640625 C-3.52824219 5.85171875 -3.05257812 5.0628125 -2.5625 4.25 C-2.08941406 3.45078125 -1.61632812 2.6515625 -1.12890625 1.828125 C-0.75636719 1.22484375 -0.38382813 0.6215625 0 0 Z " fill="#13585D" transform="translate(253,192)"/>
</svg>
