<svg width="131" height="32" viewBox="0 0 131 32" fill="none" xmlns="http://www.w3.org/2000/svg">
<g clip-path="url(#clip0_2185_7886)">
<path d="M31.5104 9.5761C30.5904 7.35613 28.5665 5.92682 26.3385 5.66149C26.0732 3.43352 24.6452 1.40955 22.4239 0.489568C20.2039 -0.430418 17.7626 -0.00909321 16 1.37889C14.2374 -0.00909321 11.7961 -0.430418 9.5761 0.489568C7.35613 1.40955 5.92682 3.43352 5.66149 5.66149C3.43352 5.92682 1.40955 7.3548 0.489568 9.5761C-0.430418 11.7961 -0.00909321 14.2374 1.37889 16C-0.00909321 17.7626 -0.430418 20.2039 0.489568 22.4239C1.40955 24.6439 3.43352 26.0732 5.66149 26.3385C5.92682 28.5665 7.3548 30.5904 9.5761 31.5104C11.7961 32.4304 14.2374 32.0091 16 30.6211C17.7626 32.0091 20.2039 32.4304 22.4239 31.5104C24.6439 30.5904 26.0732 28.5665 26.3385 26.3385C28.5665 26.0732 30.5904 24.6452 31.5104 22.4239C32.4304 20.2039 32.0091 17.7626 30.6211 16C32.0091 14.2374 32.4304 11.7961 31.5104 9.5761ZM28.3931 14.8347L26.9718 16.256L23.9492 19.2799V22.6652L23.9545 22.6706L28.8731 17.752C29.5918 18.8186 29.7811 20.2133 29.2518 21.4906C28.6198 23.0172 27.1438 23.9385 25.5879 23.9399H23.5772H19.3026L16.9093 26.3345V26.3412H23.8652C23.6199 27.6038 22.7666 28.7238 21.4892 29.2518C19.9626 29.8838 18.2666 29.4918 17.1666 28.3918L15.7453 26.9705L12.7214 23.9479H9.3361L9.33076 23.9532L14.2494 28.8718C13.1827 29.5905 11.7881 29.7798 10.5107 29.2505C8.98411 28.6185 8.06279 27.1425 8.06145 25.5865H8.02412V23.5932V19.3026L5.62949 16.9093H5.62282V23.8585C4.37484 23.6039 3.27219 22.7546 2.7482 21.4892C2.11621 19.9626 2.5082 18.2666 3.60819 17.1666L5.0295 15.7453L8.05079 12.7214V9.3361L8.04546 9.33077L3.12686 14.2494C2.40821 13.1827 2.21888 11.7881 2.7482 10.5107C3.38019 8.9841 4.85617 8.06279 6.41215 8.06145H8.42278H12.6974L15.0907 5.66682V5.66016H8.13479C8.38011 4.39751 9.23344 3.27752 10.5107 2.74953C12.0374 2.11754 13.7334 2.50954 14.8333 3.60952L16.2547 5.03083L19.2786 8.05345H22.6639L22.6692 8.04812L17.7506 3.12953C18.8173 2.41087 20.2119 2.22154 21.4892 2.75087C23.0159 3.38286 23.9372 4.85883 23.9385 6.41481V8.42545V12.7L26.3332 15.0933H26.3398V8.13745C27.6025 8.38278 28.7225 9.2361 29.2505 10.5134C29.8825 12.0401 29.4905 13.736 28.3905 14.836L28.3931 14.8347Z" fill="#004A46" style="fill:#004A46;fill:color(display-p3 0.0000 0.2902 0.2745);fill-opacity:1;"/>
</g>
<path d="M47.016 25.8464C45.8287 25.8464 44.7942 25.6937 43.9124 25.3882C43.0306 25.0828 42.3028 24.7402 41.7264 24.363C41.0425 23.9314 40.4675 23.436 40 22.8783L42.2935 20.5848C42.6176 20.9805 43.0133 21.3404 43.4808 21.6645C43.8765 21.934 44.3666 22.1824 44.9509 22.4068C45.5352 22.6326 46.2232 22.7441 47.0147 22.7441C48.0943 22.7441 48.9257 22.4878 49.5114 21.9752C50.0957 21.4626 50.3879 20.865 50.3879 20.181C50.3879 19.5515 50.1488 19.0615 49.6734 18.7109C49.1966 18.3603 48.5977 18.0549 47.8792 17.7932C47.1594 17.5329 46.3772 17.2766 45.5312 17.0243C44.6853 16.772 43.9031 16.4307 43.1833 15.9991C42.4635 15.5675 41.8659 15.0057 41.3891 14.3125C40.9124 13.6206 40.6746 12.6976 40.6746 11.5462C40.6746 10.845 40.8274 10.1664 41.1328 9.50899C41.4383 8.85294 41.8792 8.27657 42.4555 7.78255C43.0306 7.28852 43.7278 6.89143 44.5472 6.59528C45.3652 6.29913 46.2789 6.15039 47.2856 6.15039C48.2922 6.15039 49.1966 6.28586 49.943 6.55545C50.6893 6.82504 51.3228 7.12251 51.846 7.44655C52.4397 7.82371 52.943 8.24736 53.3573 8.71483L51.0638 11.0083C50.7942 10.6843 50.4702 10.3974 50.093 10.1451C49.769 9.92863 49.3732 9.72678 48.9058 9.5382C48.4383 9.34962 47.8978 9.25533 47.2869 9.25533C46.2617 9.25533 45.4874 9.48508 44.9668 9.94325C44.4449 10.4014 44.1846 10.9379 44.1846 11.5488C44.1846 12.1597 44.4223 12.6684 44.8991 13.019C45.3759 13.3696 45.9735 13.6763 46.6933 13.9366C47.4131 14.1969 48.1953 14.4532 49.0412 14.7056C49.8872 14.9579 50.6694 15.2992 51.3892 15.7308C52.109 16.1624 52.7066 16.7255 53.1834 17.4174C53.6601 18.1106 53.8978 19.0323 53.8978 20.1837C53.8978 20.9221 53.7358 21.6326 53.4118 22.3152C53.0877 22.9991 52.6243 23.602 52.0227 24.1226C51.4197 24.6445 50.696 25.0629 49.85 25.3776C49.004 25.6924 48.0598 25.8504 47.016 25.8504V25.8464Z" fill="#004A46" style="fill:#004A46;fill:color(display-p3 0.0000 0.2902 0.2745);fill-opacity:1;"/>
<path d="M62.3897 25.7106C61.4361 25.7106 60.545 25.53 59.7177 25.1714C58.8903 24.8115 58.1612 24.3175 57.5317 23.6867C56.9022 23.0572 56.4069 22.3281 56.047 21.5008C55.6871 20.6734 55.5078 19.7836 55.5078 18.8288C55.5078 17.8739 55.6871 17.0067 56.047 16.1714C56.4069 15.3347 56.9009 14.6016 57.5317 13.9722C58.1612 13.3427 58.8903 12.8486 59.7177 12.4874C60.545 12.1275 61.4348 11.9482 62.3897 11.9482C63.3445 11.9482 64.2117 12.1288 65.047 12.4874C65.8837 12.8473 66.6168 13.3427 67.2463 13.9722C67.8758 14.6016 68.3698 15.3347 68.731 16.1714C69.0909 17.008 69.2702 17.8938 69.2702 18.8288C69.2702 19.7637 69.0896 20.6734 68.731 21.5008C68.3711 22.3281 67.8758 23.0572 67.2463 23.6867C66.6168 24.3162 65.8837 24.8115 65.047 25.1714C64.2104 25.5313 63.3246 25.7106 62.3897 25.7106ZM62.3897 22.7425C62.9288 22.7425 63.4282 22.6482 63.8877 22.4596C64.3459 22.271 64.7469 22.0014 65.0882 21.6495C65.4295 21.2989 65.6951 20.8846 65.8837 20.4078C66.0723 19.931 66.1666 19.4051 66.1666 18.8288C66.1666 18.2524 66.0723 17.7265 65.8837 17.2497C65.6951 16.773 65.4295 16.36 65.0882 16.008C64.7469 15.6574 64.3459 15.3878 63.8877 15.1979C63.4295 15.0093 62.9302 14.9151 62.3897 14.9151C61.8492 14.9151 61.3511 15.0093 60.8916 15.1979C60.4335 15.3865 60.0324 15.6561 59.6911 16.008C59.3498 16.3586 59.0842 16.773 58.8956 17.2497C58.707 17.7265 58.6127 18.2524 58.6127 18.8288C58.6127 19.4051 58.707 19.931 58.8956 20.4078C59.0842 20.8846 59.3498 21.2989 59.6911 21.6495C60.0324 22.0001 60.4335 22.2697 60.8916 22.4596C61.3498 22.6482 61.8492 22.7425 62.3897 22.7425Z" fill="#004A46" style="fill:#004A46;fill:color(display-p3 0.0000 0.2902 0.2745);fill-opacity:1;"/>
<path d="M77.5781 25.7106C76.6246 25.7106 75.7335 25.53 74.9061 25.1714C74.0788 24.8115 73.3497 24.3175 72.7202 23.6867C72.0907 23.0572 71.5954 22.3281 71.2355 21.5008C70.8756 20.6734 70.6963 19.7836 70.6963 18.8288C70.6963 17.8739 70.8756 17.0067 71.2355 16.1714C71.5954 15.3347 72.0894 14.6016 72.7202 13.9722C73.3497 13.3427 74.0788 12.8486 74.9061 12.4874C75.7335 12.1275 76.6233 11.9482 77.5781 11.9482C78.533 11.9482 79.3497 12.0877 80.0337 12.3666C80.7176 12.6455 81.2926 12.9562 81.7601 13.2975C82.2993 13.6933 82.7495 14.1435 83.1094 14.6468L81.0855 16.6707C80.7973 16.3467 80.4825 16.0598 80.1412 15.8075C79.8358 15.591 79.4666 15.3892 79.035 15.2006C78.6034 15.012 78.1173 14.9177 77.5781 14.9177C77.039 14.9177 76.5396 15.012 76.0801 15.2006C75.622 15.3892 75.2209 15.6588 74.8796 16.0107C74.5383 16.3613 74.2727 16.7756 74.0841 17.2524C73.8955 17.7292 73.8012 18.2551 73.8012 18.8314C73.8012 19.4078 73.8955 19.9337 74.0841 20.4104C74.2727 20.8872 74.5383 21.3016 74.8796 21.6522C75.2209 22.0028 75.622 22.2723 76.0801 22.4622C76.5383 22.6508 77.0376 22.7451 77.5781 22.7451C78.1186 22.7451 78.6034 22.6548 79.035 22.4755C79.4666 22.2963 79.8358 22.0984 80.1412 21.8819C80.4825 21.6296 80.7973 21.3334 81.0855 20.9908L83.1094 23.0147C82.7495 23.518 82.2993 23.9682 81.7601 24.364C81.2926 24.7053 80.7163 25.0161 80.0337 25.2949C79.3497 25.5738 78.5317 25.7133 77.5781 25.7133V25.7106Z" fill="#004A46" style="fill:#004A46;fill:color(display-p3 0.0000 0.2902 0.2745);fill-opacity:1;"/>
<path d="M86.6228 10.3296C86.0836 10.3296 85.6335 10.1504 85.2736 9.79047C84.9137 9.43058 84.7344 8.98037 84.7344 8.44119C84.7344 7.90201 84.9137 7.4518 85.2736 7.09191C85.6335 6.73201 86.0836 6.55273 86.6228 6.55273C87.162 6.55273 87.6122 6.73334 87.9721 7.09191C88.332 7.4518 88.5113 7.90201 88.5113 8.44119C88.5113 8.98037 88.3307 9.43058 87.9721 9.79047C87.6122 10.1504 87.162 10.3296 86.6228 10.3296ZM85.004 12.2181H88.1076V25.4413H85.004V12.2181Z" fill="#004A46" style="fill:#004A46;fill:color(display-p3 0.0000 0.2902 0.2745);fill-opacity:1;"/>
<path d="M97.2012 25.7106C96.2477 25.7106 95.3565 25.53 94.5292 25.1714C93.7018 24.8115 92.9727 24.3175 92.3433 23.6867C91.7138 23.0572 91.2184 22.3281 90.8585 21.5008C90.4986 20.6734 90.3193 19.7836 90.3193 18.8288C90.3193 17.8739 90.4986 17.0067 90.8585 16.1714C91.2184 15.3347 91.7124 14.6016 92.3433 13.9722C92.9727 13.3427 93.7018 12.8486 94.5292 12.4874C95.3565 12.1275 96.2463 11.9482 97.2012 11.9482C98.156 11.9482 99.0232 12.1288 99.8586 12.4874C100.695 12.8473 101.428 13.3427 102.058 13.9722C102.687 14.6016 103.181 15.3347 103.543 16.1714C103.902 17.008 104.082 17.8938 104.082 18.8288C104.082 19.7637 103.902 20.6734 103.543 21.5008C103.183 22.3281 102.687 23.0572 102.058 23.6867C101.428 24.3162 100.695 24.8115 99.8586 25.1714C99.0219 25.5313 98.1361 25.7106 97.2012 25.7106ZM97.2012 22.7425C97.7404 22.7425 98.2397 22.6482 98.6992 22.4596C99.1574 22.271 99.5584 22.0014 99.8997 21.6495C100.241 21.2989 100.507 20.8846 100.695 20.4078C100.884 19.931 100.978 19.4051 100.978 18.8288C100.978 18.2524 100.884 17.7265 100.695 17.2497C100.507 16.773 100.241 16.36 99.8997 16.008C99.5584 15.6574 99.1574 15.3878 98.6992 15.1979C98.241 15.0093 97.7417 14.9151 97.2012 14.9151C96.6607 14.9151 96.1627 15.0093 95.7032 15.1979C95.245 15.3865 94.8439 15.6561 94.5026 16.008C94.1613 16.3586 93.8957 16.773 93.7071 17.2497C93.5186 17.7265 93.4243 18.2524 93.4243 18.8288C93.4243 19.4051 93.5186 19.931 93.7071 20.4078C93.8957 20.8846 94.1613 21.2989 94.5026 21.6495C94.8439 22.0001 95.245 22.2697 95.7032 22.4596C96.1613 22.6482 96.6607 22.7425 97.2012 22.7425Z" fill="#004A46" style="fill:#004A46;fill:color(display-p3 0.0000 0.2902 0.2745);fill-opacity:1;"/>
<path d="M111.247 25.7106C110.545 25.7106 109.888 25.5804 109.277 25.3188C108.665 25.0585 108.135 24.6853 107.685 24.1993C107.235 23.7132 106.884 23.1196 106.633 22.4184C106.381 21.7172 106.256 20.9257 106.256 20.0438V12.2178H109.359V19.6122C109.359 20.583 109.606 21.3254 110.102 21.838C110.596 22.3506 111.249 22.607 112.058 22.607C113.012 22.607 113.79 22.3015 114.393 21.6893C114.996 21.0784 115.297 20.259 115.297 19.2338V12.2178H118.401V25.441H115.297V23.5525H115.162C114.873 23.9483 114.541 24.3082 114.163 24.6322C113.839 24.9018 113.43 25.1488 112.936 25.3746C112.44 25.599 111.879 25.7119 111.249 25.7119L111.247 25.7106Z" fill="#004A46" style="fill:#004A46;fill:color(display-p3 0.0000 0.2902 0.2745);fill-opacity:1;"/>
<path d="M125.743 25.7105C124.861 25.7105 124.092 25.5844 123.436 25.3334C122.779 25.0811 122.217 24.8035 121.749 24.4967C121.21 24.1554 120.741 23.7504 120.346 23.2829L122.37 21.259C122.639 21.5644 122.945 21.8353 123.287 22.0691C123.593 22.267 123.949 22.4516 124.354 22.6229C124.759 22.7942 125.221 22.8792 125.743 22.8792C126.427 22.8792 126.934 22.7437 127.267 22.4741C127.601 22.2045 127.767 21.8898 127.767 21.5299C127.767 21.243 127.595 21.008 127.254 20.8287C126.913 20.6494 126.489 20.4781 125.986 20.3161C125.483 20.1541 124.929 19.9748 124.326 19.7769C123.723 19.579 123.169 19.328 122.666 19.0213C122.162 18.7158 121.739 18.32 121.398 17.834C121.056 17.3479 120.885 16.737 120.885 15.9987C120.885 15.4595 120.996 14.9468 121.222 14.4608C121.447 13.9747 121.776 13.5431 122.208 13.166C122.639 12.7888 123.165 12.4913 123.787 12.2762C124.407 12.0597 125.104 11.9521 125.878 11.9521C126.653 11.9521 127.394 12.0597 127.996 12.2762C128.599 12.4926 129.107 12.7264 129.521 12.9774C129.989 13.2842 130.394 13.6162 130.735 13.9761L128.711 16C128.494 15.8021 128.244 15.6228 127.955 15.4608C127.703 15.3174 127.403 15.1912 127.051 15.0836C126.7 14.9761 126.309 14.9216 125.877 14.9216C125.265 14.9216 124.82 15.0345 124.541 15.2589C124.262 15.4847 124.123 15.7317 124.123 16.0013C124.123 16.2895 124.294 16.5232 124.635 16.7025C124.977 16.8831 125.4 17.0531 125.904 17.2151C126.407 17.3772 126.961 17.5564 127.564 17.7543C128.166 17.9522 128.719 18.2045 129.224 18.51C129.727 18.8167 130.151 19.2112 130.492 19.6972C130.833 20.1833 131.004 20.7942 131.004 21.5325C131.004 22.0903 130.888 22.6215 130.654 23.1249C130.42 23.6282 130.078 24.0744 129.629 24.4609C129.178 24.8473 128.626 25.1541 127.969 25.3785C127.311 25.603 126.57 25.7158 125.743 25.7158V25.7105Z" fill="#004A46" style="fill:#004A46;fill:color(display-p3 0.0000 0.2902 0.2745);fill-opacity:1;"/>
<defs>
<clipPath id="clip0_2185_7886">
<rect width="32" height="32" fill="white" style="fill:white;fill:white;fill-opacity:1;"/>
</clipPath>
</defs>
</svg>
