<svg width="19" height="26" viewBox="0 0 19 26" fill="none" xmlns="http://www.w3.org/2000/svg">
<path d="M10.8051 8.93826C10.804 9.42716 10.6295 9.89983 10.3127 10.2722C9.99595 10.6446 9.55736 10.8926 9.07496 10.9721C8.59256 11.0516 8.0976 10.9574 7.67809 10.7063C7.25858 10.4552 6.94171 10.0635 6.78381 9.6008C6.62591 9.13809 6.63722 8.63438 6.81573 8.17923C6.99423 7.72408 7.32837 7.34698 7.75873 7.11498C8.18908 6.88298 8.68777 6.81112 9.16611 6.91217C9.64446 7.01322 10.0715 7.28064 10.3712 7.66687C10.6534 8.0305 10.8061 8.47796 10.8051 8.93826Z" fill="white"/>
<path d="M14.3053 3.75099L11.5703 6.48606C11.5097 6.54723 11.4276 6.58218 11.3415 6.58337C11.2555 6.58456 11.1724 6.5519 11.1102 6.49241C10.1988 5.6096 8.77243 5.26553 7.57653 5.70892C6.2829 6.18569 5.37863 7.58898 5.52643 8.96128C5.6337 9.95058 6.22251 10.8262 6.90826 11.5485L6.92813 11.57C7.47567 12.1389 7.77929 12.8992 7.77425 13.6888C7.7692 14.4783 7.45588 15.2347 6.90111 15.7966L6.10649 16.5975C6.04755 16.6569 5.96828 16.6918 5.88466 16.695C5.80105 16.6983 5.71931 16.6697 5.65595 16.615C4.57766 15.6861 3.50492 14.7445 2.57125 13.6702C1.57004 12.5196 0.726951 11.2029 0.300243 9.73842C-0.17952 8.06008 -0.082146 6.2693 0.576769 4.65288C0.740799 4.25314 0.940247 3.86887 1.17273 3.50466C1.28874 3.32269 1.41111 3.14549 1.54699 2.97545C1.70115 2.77759 1.87199 2.59483 2.04363 2.40968L2.27724 2.15938C2.30744 2.12664 2.34395 2.10035 2.38456 2.08207C2.42518 2.0638 2.46907 2.05392 2.5136 2.05302C2.55813 2.05213 2.60238 2.06025 2.64369 2.07689C2.685 2.09353 2.72253 2.11834 2.75401 2.14984L3.35236 2.74501C3.40447 2.79709 3.47429 2.82764 3.54791 2.83059C3.62153 2.83353 3.69356 2.80865 3.74967 2.7609C5.25217 1.50399 7.17318 0.859524 9.12972 0.955988C11.0863 1.05245 12.9346 1.88276 14.3061 3.28137C14.3371 3.31216 14.3617 3.34878 14.3784 3.38911C14.3951 3.42944 14.4037 3.47268 14.4036 3.51635C14.4035 3.56001 14.3948 3.60323 14.378 3.6435C14.3611 3.68378 14.3364 3.72031 14.3053 3.75099Z" fill="white"/>
<path d="M7.60107 17.277C7.60133 16.895 7.71032 16.5209 7.91529 16.1985C8.12026 15.8761 8.41275 15.6187 8.75858 15.4564C9.10442 15.294 9.48931 15.2335 9.86828 15.2818C10.2473 15.3301 10.6047 15.4852 10.8987 15.7291C10.9955 15.8091 11.0844 15.8983 11.1641 15.9953C11.3701 16.2441 11.5132 16.5388 11.5813 16.8545C11.6494 17.1703 11.6406 17.4978 11.5555 17.8093C11.4703 18.1209 11.3115 18.4074 11.0923 18.6447C10.8732 18.882 10.6001 19.063 10.2963 19.1725C9.99239 19.282 9.66663 19.3168 9.34649 19.2739C9.02635 19.231 8.72125 19.1117 8.45693 18.926C8.19262 18.7404 7.97687 18.4938 7.82791 18.2072C7.67895 17.9206 7.60114 17.6024 7.60107 17.2794V17.277Z" fill="white"/>
<path d="M4.05703 22.252L6.79289 19.5177C6.85329 19.4567 6.93521 19.4217 7.02107 19.4204C7.10694 19.4191 7.18991 19.4514 7.25218 19.5106C8.16599 20.3942 9.59073 20.7383 10.7834 20.2949C12.0779 19.8181 12.9821 18.4148 12.8336 17.0425C12.7271 16.0532 12.1383 15.1775 11.4525 14.4552L11.4319 14.4338C10.8847 13.8647 10.5813 13.1045 10.5864 12.315C10.5914 11.5256 10.9045 10.7693 11.4589 10.2072L12.2535 9.40626C12.3123 9.34697 12.3913 9.31213 12.4748 9.30874C12.5582 9.30535 12.6398 9.33366 12.7032 9.38798C13.7815 10.3177 14.8543 11.2593 15.7887 12.3328C16.7899 13.4842 17.633 14.8009 18.0589 16.2654C18.5398 17.9436 18.4424 19.7347 17.7824 21.3509C17.619 21.7508 17.4198 22.1351 17.1873 22.4991C17.0704 22.6811 16.9489 22.8583 16.813 23.0283C16.6541 23.2262 16.488 23.409 16.3156 23.5941L16.0788 23.8412C16.0486 23.874 16.0121 23.9003 15.9714 23.9185C15.9308 23.9368 15.8869 23.9467 15.8424 23.9476C15.7979 23.9485 15.7536 23.9404 15.7123 23.9237C15.671 23.9071 15.6335 23.8823 15.602 23.8508L15.0036 23.2556C14.9514 23.2037 14.8817 23.1733 14.8081 23.1703C14.7345 23.1674 14.6625 23.1921 14.6063 23.2397C13.1051 24.4959 11.1855 25.1402 9.23034 25.0442C7.27518 24.9482 5.428 24.1189 4.05703 22.7216C4.02611 22.6908 4.00157 22.6542 3.98483 22.614C3.96809 22.5737 3.95947 22.5305 3.95947 22.4868C3.95947 22.4432 3.96809 22.4 3.98483 22.3597C4.00157 22.3194 4.02611 22.2828 4.05703 22.252Z" fill="white"/>
</svg>
