<svg width="80" height="80" viewBox="0 0 80 80" fill="none" xmlns="http://www.w3.org/2000/svg">
<path d="M39.9982 39.0719C49.1921 39.0719 56.6452 31.6188 56.6452 22.425C56.6452 13.2311 49.1921 5.778 39.9982 5.778C30.8043 5.778 23.3512 13.2311 23.3512 22.425C23.3512 31.6188 30.8043 39.0719 39.9982 39.0719Z" fill="#BEC0C7"/>
<path d="M69.8694 69.1799C67.6877 63.001 63.6434 57.6508 58.2938 53.8665C52.9443 50.0821 46.5528 48.05 40 48.05C33.4472 48.05 27.0557 50.0821 21.7062 53.8665C16.3566 57.6508 12.3123 63.001 10.1306 69.1799C10.0091 69.5423 9.97173 69.9276 10.0212 70.3067C10.0706 70.6857 10.2056 71.0486 10.4159 71.3677C10.6424 71.6728 10.9362 71.9216 11.2744 72.0949C11.6125 72.2681 11.9861 72.3611 12.366 72.3666H67.634C68.0139 72.3611 68.3875 72.2681 68.7256 72.0949C69.0638 71.9216 69.3576 71.6728 69.5841 71.3677C69.7944 71.0486 69.9294 70.6857 69.9788 70.3067C70.0283 69.9276 69.9909 69.5423 69.8694 69.1799Z" fill="#BEC0C7"/>
</svg>
