<svg width="24" height="24" viewBox="0 0 24 24" fill="none" xmlns="http://www.w3.org/2000/svg">
<path d="M19.6663 8.16602H4.38886C3.62181 8.16602 3 8.78783 3 9.55488V19.2769C3 20.0439 3.62181 20.6658 4.38886 20.6658H19.6663C20.4334 20.6658 21.0552 20.0439 21.0552 19.2769V9.55488C21.0552 8.78783 20.4334 8.16602 19.6663 8.16602Z" stroke="#BEC0C7" stroke-width="1.4" stroke-linecap="round" stroke-linejoin="round"/>
<path d="M3 13.7227H21.0552" stroke="#BEC0C7" stroke-width="1.4" stroke-linecap="round" stroke-linejoin="round"/>
<path d="M12.0273 12.334V15.1117" stroke="#BEC0C7" stroke-width="1.4" stroke-linecap="round" stroke-linejoin="round"/>
<path d="M16.1945 8.16658C16.1945 7.06153 15.7555 6.00175 14.9741 5.22036C14.1927 4.43898 13.133 4 12.0279 4V4C10.9229 4 9.86308 4.43898 9.08169 5.22036C8.30031 6.00175 7.86133 7.06153 7.86133 8.16658" stroke="#BEC0C7" stroke-width="1.4" stroke-linecap="round" stroke-linejoin="round"/>
</svg>
