<svg width="24" height="24" viewBox="0 0 24 24" fill="none" xmlns="http://www.w3.org/2000/svg">
<mask id="path-1-inside-1_14419_313642" fill="white">
<path d="M20.6208 5.25H19.5042C19.5031 5.25 19.502 5.25044 19.5012 5.25124C19.5004 5.25203 19.5 5.2531 19.5 5.25422V19.5C19.5 19.8978 19.658 20.2794 19.9393 20.5607C20.2206 20.842 20.6022 21 21 21C21.3978 21 21.7794 20.842 22.0607 20.5607C22.342 20.2794 22.5 19.8978 22.5 19.5V7.12922C22.5 6.63082 22.302 6.15283 21.9496 5.80041C21.5972 5.44799 21.1192 5.25 20.6208 5.25Z"/>
<path d="M18 19.5V3.375C18 3.12877 17.9515 2.88495 17.8573 2.65747C17.763 2.42998 17.6249 2.22328 17.4508 2.04917C17.2767 1.87506 17.07 1.73695 16.8425 1.64273C16.615 1.5485 16.3712 1.5 16.125 1.5H3.375C2.87772 1.5 2.40081 1.69754 2.04917 2.04917C1.69754 2.40081 1.5 2.87772 1.5 3.375V19.875C1.5 20.5712 1.77656 21.2389 2.26884 21.7312C2.76113 22.2234 3.42881 22.5 4.125 22.5H20.1961C20.2032 22.5001 20.2102 22.4987 20.2168 22.496C20.2234 22.4933 20.2293 22.4894 20.2344 22.4844C20.2394 22.4793 20.2433 22.4734 20.246 22.4668C20.2487 22.4602 20.2501 22.4532 20.25 22.4461C20.25 22.4343 20.2461 22.4229 20.2388 22.4135C20.2316 22.4042 20.2216 22.3975 20.2102 22.3945C19.5757 22.2205 19.0159 21.8431 18.6167 21.3202C18.2174 20.7973 18.0008 20.1579 18 19.5ZM4.5 6C4.5 5.80109 4.57902 5.61032 4.71967 5.46967C4.86032 5.32902 5.05109 5.25 5.25 5.25H8.25C8.44891 5.25 8.63968 5.32902 8.78033 5.46967C8.92098 5.61032 9 5.80109 9 6V9C9 9.19891 8.92098 9.38968 8.78033 9.53033C8.63968 9.67098 8.44891 9.75 8.25 9.75H5.25C5.05109 9.75 4.86032 9.67098 4.71967 9.53033C4.57902 9.38968 4.5 9.19891 4.5 9V6ZM14.25 18.75H5.27109C4.8675 18.75 4.52109 18.4397 4.50094 18.0361C4.49605 17.9347 4.51181 17.8333 4.54724 17.7382C4.58268 17.6431 4.63707 17.5561 4.7071 17.4826C4.77714 17.4091 4.86137 17.3506 4.95469 17.3106C5.04801 17.2706 5.14848 17.25 5.25 17.25H14.2289C14.6325 17.25 14.9789 17.5603 14.9991 17.9639C15.0039 18.0653 14.9882 18.1667 14.9528 18.2618C14.9173 18.3569 14.8629 18.4439 14.7929 18.5174C14.7229 18.5909 14.6386 18.6494 14.5453 18.6894C14.452 18.7294 14.3515 18.75 14.25 18.75ZM14.25 15.75H5.27109C4.8675 15.75 4.52109 15.4397 4.50094 15.0361C4.49605 14.9347 4.51181 14.8333 4.54724 14.7382C4.58268 14.6431 4.63707 14.5561 4.7071 14.4826C4.77714 14.4091 4.86137 14.3506 4.95469 14.3106C5.04801 14.2706 5.14848 14.25 5.25 14.25H14.2289C14.6325 14.25 14.9789 14.5603 14.9991 14.9639C15.0039 15.0653 14.9882 15.1667 14.9528 15.2618C14.9173 15.3569 14.8629 15.4439 14.7929 15.5174C14.7229 15.5909 14.6386 15.6494 14.5453 15.6894C14.452 15.7294 14.3515 15.75 14.25 15.75ZM14.25 12.75H5.27109C4.8675 12.75 4.52109 12.4397 4.50094 12.0361C4.49605 11.9347 4.51181 11.8333 4.54724 11.7382C4.58268 11.6431 4.63707 11.5561 4.7071 11.4826C4.77714 11.4091 4.86137 11.3506 4.95469 11.3106C5.04801 11.2706 5.14848 11.25 5.25 11.25H14.2289C14.6325 11.25 14.9789 11.5603 14.9991 11.9639C15.0039 12.0653 14.9882 12.1667 14.9528 12.2618C14.9173 12.3569 14.8629 12.4439 14.7929 12.5174C14.7229 12.5909 14.6386 12.6494 14.5453 12.6894C14.452 12.7294 14.3515 12.75 14.25 12.75ZM14.25 9.75H11.2711C10.8675 9.75 10.5211 9.43969 10.5009 9.03609C10.4961 8.93469 10.5118 8.83334 10.5472 8.7382C10.5827 8.64307 10.6371 8.55611 10.7071 8.48261C10.7771 8.40911 10.8614 8.3506 10.9547 8.31062C11.048 8.27063 11.1485 8.25001 11.25 8.25H14.2289C14.6325 8.25 14.9789 8.56031 14.9991 8.96391C15.0039 9.06531 14.9882 9.16666 14.9528 9.2618C14.9173 9.35693 14.8629 9.44389 14.7929 9.51739C14.7229 9.59089 14.6386 9.6494 14.5453 9.68938C14.452 9.72937 14.3515 9.74999 14.25 9.75ZM14.25 6.75H11.2711C10.8675 6.75 10.5211 6.43969 10.5009 6.03609C10.4961 5.93469 10.5118 5.83334 10.5472 5.7382C10.5827 5.64307 10.6371 5.55611 10.7071 5.48261C10.7771 5.40911 10.8614 5.3506 10.9547 5.31062C11.048 5.27063 11.1485 5.25001 11.25 5.25H14.2289C14.6325 5.25 14.9789 5.56031 14.9991 5.96391C15.0039 6.06531 14.9882 6.16666 14.9528 6.2618C14.9173 6.35693 14.8629 6.44389 14.7929 6.51739C14.7229 6.59089 14.6386 6.6494 14.5453 6.68938C14.452 6.72937 14.3515 6.74999 14.25 6.75Z"/>
</mask>
<path d="M20.6208 5.25H19.5042C19.5031 5.25 19.502 5.25044 19.5012 5.25124C19.5004 5.25203 19.5 5.2531 19.5 5.25422V19.5C19.5 19.8978 19.658 20.2794 19.9393 20.5607C20.2206 20.842 20.6022 21 21 21C21.3978 21 21.7794 20.842 22.0607 20.5607C22.342 20.2794 22.5 19.8978 22.5 19.5V7.12922C22.5 6.63082 22.302 6.15283 21.9496 5.80041C21.5972 5.44799 21.1192 5.25 20.6208 5.25Z" stroke="#BEC0C7" stroke-width="2" mask="url(#path-1-inside-1_14419_313642)"/>
<path d="M18 19.5V3.375C18 3.12877 17.9515 2.88495 17.8573 2.65747C17.763 2.42998 17.6249 2.22328 17.4508 2.04917C17.2767 1.87506 17.07 1.73695 16.8425 1.64273C16.615 1.5485 16.3712 1.5 16.125 1.5H3.375C2.87772 1.5 2.40081 1.69754 2.04917 2.04917C1.69754 2.40081 1.5 2.87772 1.5 3.375V19.875C1.5 20.5712 1.77656 21.2389 2.26884 21.7312C2.76113 22.2234 3.42881 22.5 4.125 22.5H20.1961C20.2032 22.5001 20.2102 22.4987 20.2168 22.496C20.2234 22.4933 20.2293 22.4894 20.2344 22.4844C20.2394 22.4793 20.2433 22.4734 20.246 22.4668C20.2487 22.4602 20.2501 22.4532 20.25 22.4461C20.25 22.4343 20.2461 22.4229 20.2388 22.4135C20.2316 22.4042 20.2216 22.3975 20.2102 22.3945C19.5757 22.2205 19.0159 21.8431 18.6167 21.3202C18.2174 20.7973 18.0008 20.1579 18 19.5ZM4.5 6C4.5 5.80109 4.57902 5.61032 4.71967 5.46967C4.86032 5.32902 5.05109 5.25 5.25 5.25H8.25C8.44891 5.25 8.63968 5.32902 8.78033 5.46967C8.92098 5.61032 9 5.80109 9 6V9C9 9.19891 8.92098 9.38968 8.78033 9.53033C8.63968 9.67098 8.44891 9.75 8.25 9.75H5.25C5.05109 9.75 4.86032 9.67098 4.71967 9.53033C4.57902 9.38968 4.5 9.19891 4.5 9V6ZM14.25 18.75H5.27109C4.8675 18.75 4.52109 18.4397 4.50094 18.0361C4.49605 17.9347 4.51181 17.8333 4.54724 17.7382C4.58268 17.6431 4.63707 17.5561 4.7071 17.4826C4.77714 17.4091 4.86137 17.3506 4.95469 17.3106C5.04801 17.2706 5.14848 17.25 5.25 17.25H14.2289C14.6325 17.25 14.9789 17.5603 14.9991 17.9639C15.0039 18.0653 14.9882 18.1667 14.9528 18.2618C14.9173 18.3569 14.8629 18.4439 14.7929 18.5174C14.7229 18.5909 14.6386 18.6494 14.5453 18.6894C14.452 18.7294 14.3515 18.75 14.25 18.75ZM14.25 15.75H5.27109C4.8675 15.75 4.52109 15.4397 4.50094 15.0361C4.49605 14.9347 4.51181 14.8333 4.54724 14.7382C4.58268 14.6431 4.63707 14.5561 4.7071 14.4826C4.77714 14.4091 4.86137 14.3506 4.95469 14.3106C5.04801 14.2706 5.14848 14.25 5.25 14.25H14.2289C14.6325 14.25 14.9789 14.5603 14.9991 14.9639C15.0039 15.0653 14.9882 15.1667 14.9528 15.2618C14.9173 15.3569 14.8629 15.4439 14.7929 15.5174C14.7229 15.5909 14.6386 15.6494 14.5453 15.6894C14.452 15.7294 14.3515 15.75 14.25 15.75ZM14.25 12.75H5.27109C4.8675 12.75 4.52109 12.4397 4.50094 12.0361C4.49605 11.9347 4.51181 11.8333 4.54724 11.7382C4.58268 11.6431 4.63707 11.5561 4.7071 11.4826C4.77714 11.4091 4.86137 11.3506 4.95469 11.3106C5.04801 11.2706 5.14848 11.25 5.25 11.25H14.2289C14.6325 11.25 14.9789 11.5603 14.9991 11.9639C15.0039 12.0653 14.9882 12.1667 14.9528 12.2618C14.9173 12.3569 14.8629 12.4439 14.7929 12.5174C14.7229 12.5909 14.6386 12.6494 14.5453 12.6894C14.452 12.7294 14.3515 12.75 14.25 12.75ZM14.25 9.75H11.2711C10.8675 9.75 10.5211 9.43969 10.5009 9.03609C10.4961 8.93469 10.5118 8.83334 10.5472 8.7382C10.5827 8.64307 10.6371 8.55611 10.7071 8.48261C10.7771 8.40911 10.8614 8.3506 10.9547 8.31062C11.048 8.27063 11.1485 8.25001 11.25 8.25H14.2289C14.6325 8.25 14.9789 8.56031 14.9991 8.96391C15.0039 9.06531 14.9882 9.16666 14.9528 9.2618C14.9173 9.35693 14.8629 9.44389 14.7929 9.51739C14.7229 9.59089 14.6386 9.6494 14.5453 9.68938C14.452 9.72937 14.3515 9.74999 14.25 9.75ZM14.25 6.75H11.2711C10.8675 6.75 10.5211 6.43969 10.5009 6.03609C10.4961 5.93469 10.5118 5.83334 10.5472 5.7382C10.5827 5.64307 10.6371 5.55611 10.7071 5.48261C10.7771 5.40911 10.8614 5.3506 10.9547 5.31062C11.048 5.27063 11.1485 5.25001 11.25 5.25H14.2289C14.6325 5.25 14.9789 5.56031 14.9991 5.96391C15.0039 6.06531 14.9882 6.16666 14.9528 6.2618C14.9173 6.35693 14.8629 6.44389 14.7929 6.51739C14.7229 6.59089 14.6386 6.6494 14.5453 6.68938C14.452 6.72937 14.3515 6.74999 14.25 6.75Z" stroke="#BEC0C7" stroke-width="2" mask="url(#path-1-inside-1_14419_313642)"/>
</svg>
