<svg width="36" height="36" viewBox="0 0 36 36" fill="none" xmlns="http://www.w3.org/2000/svg">
<g clip-path="url(#clip0_1715_241948)">
<path d="M18 36C27.9751 36 36 27.9751 36 18C36 8.02494 27.9751 0 18 0C8.02494 0 0 8.02494 0 18C0 27.9751 8.02494 36 18 36Z" fill="#2775CA"/>
<path d="M22.9501 20.8499C22.9501 18.225 21.3751 17.325 18.2251 16.95C15.9751 16.65 15.5251 16.05 15.5251 14.9999C15.5251 13.9498 16.2751 13.275 17.7751 13.275C19.1251 13.275 19.8751 13.725 20.2501 14.85C20.3251 15.075 20.5501 15.2249 20.7751 15.2249H21.975C22.2751 15.2249 22.5001 14.9999 22.5001 14.7V14.625C22.2 12.9749 20.85 11.7 19.1251 11.55V9.75002C19.1251 9.44996 18.9001 9.22496 18.5251 9.1499H17.4001C17.1001 9.1499 16.8751 9.3749 16.8 9.75002V11.475C14.55 11.775 13.1251 13.275 13.1251 15.15C13.1251 17.625 14.6251 18.5999 17.7751 18.975C19.8751 19.35 20.5501 19.8 20.5501 21C20.5501 22.2001 19.5 23.025 18.0751 23.025C16.125 23.025 15.45 22.1999 15.225 21.0749C15.1501 20.775 14.9251 20.6249 14.7001 20.6249H13.425C13.1251 20.6249 12.9001 20.8499 12.9001 21.15V21.225C13.2 23.0999 14.4001 24.4499 16.8751 24.825V26.625C16.8751 26.9249 17.1001 27.1499 17.475 27.225H18.6C18.9001 27.225 19.1251 27 19.2001 26.625V24.825C21.4501 24.4499 22.9501 22.8749 22.9501 20.8499Z" fill="white"/>
<path d="M14.175 28.7249C8.325 26.625 5.32494 20.1 7.50006 14.3249C8.62506 11.1749 11.1001 8.77494 14.175 7.64994C14.4751 7.5 14.625 7.275 14.625 6.89988V5.84994C14.625 5.54988 14.4751 5.32488 14.175 5.25C14.0999 5.25 13.95 5.25 13.8749 5.32488C6.75 7.57488 2.84994 15.15 5.09994 22.2749C6.44994 26.4749 9.675 29.6999 13.8749 31.0499C14.175 31.1999 14.4751 31.0499 14.5499 30.7499C14.625 30.675 14.625 30.5999 14.625 30.45V29.3999C14.625 29.1749 14.4 28.875 14.175 28.7249ZM22.1251 5.32488C21.825 5.17494 21.5249 5.32488 21.4501 5.62494C21.375 5.7 21.375 5.77488 21.375 5.925V6.97494C21.375 7.275 21.6 7.57488 21.825 7.725C27.675 9.82488 30.6751 16.3499 28.4999 22.125C27.3749 25.275 24.8999 27.6749 21.825 28.7999C21.5249 28.9499 21.375 29.1749 21.375 29.55V30.5999C21.375 30.9 21.5249 31.125 21.825 31.1999C21.9001 31.1999 22.05 31.1999 22.1251 31.125C29.25 28.875 33.1501 21.2999 30.9001 14.1749C29.5501 9.89994 26.2499 6.67488 22.1251 5.32488Z" fill="white"/>
</g>
<defs>
<clipPath id="clip0_1715_241948">
<rect width="36" height="36" fill="white"/>
</clipPath>
</defs>
</svg>
