<svg width="36" height="36" viewBox="0 0 36 36" fill="none" xmlns="http://www.w3.org/2000/svg">
<g clip-path="url(#clip0_1718_242063)">
<path d="M18 0C27.9407 0 36 8.05932 36 18C36 27.9407 27.9403 36 18 36C8.05968 36 0 27.9428 0 18C0 8.05716 8.05824 0 18 0Z" fill="#53AE94"/>
<path d="M20.2214 15.6018V12.9241H26.3447V8.84424H9.67092V12.9241H15.7949V15.5996C10.8179 15.8282 7.07568 16.8139 7.07568 17.9947C7.07568 19.1755 10.8197 20.1612 15.7949 20.3912V28.9682H20.2229V20.3905C25.1909 20.1612 28.9255 19.1762 28.9255 17.9965C28.9255 16.8168 25.1909 15.8318 20.2229 15.6025M20.2229 19.664V19.6619C20.098 19.6698 19.4561 19.7083 18.0269 19.7083C16.8842 19.7083 16.0804 19.6759 15.797 19.6612V19.6648C11.4 19.47 8.11788 18.7043 8.11788 17.7881C8.11788 16.8719 11.4004 16.1072 15.797 15.9121V18.9019C16.085 18.9217 16.9087 18.9703 18.0456 18.9703C19.4111 18.9703 20.0976 18.9134 20.2236 18.9019V15.9121C24.612 16.1076 27.8866 16.874 27.8866 17.787C27.8866 18.7 24.6106 19.4668 20.2236 19.6622" fill="white"/>
</g>
<defs>
<clipPath id="clip0_1718_242063">
<rect width="36" height="36" fill="white"/>
</clipPath>
</defs>
</svg>
