<svg width="24" height="24" viewBox="0 0 24 24" fill="none" xmlns="http://www.w3.org/2000/svg">
<rect x="-4" width="32" height="24" fill="#EEF3F8"/>
<rect x="-4" width="18" height="14" fill="#41479B"/>
<rect x="14" width="14" height="2" fill="#DC251C"/>
<rect x="14" y="4" width="14" height="2" fill="#DC251C"/>
<rect x="14" y="8" width="14" height="2" fill="#DC251C"/>
<rect x="14" y="12" width="14" height="2" fill="#DC251C"/>
<rect x="-4" y="16" width="32" height="2" fill="#DC251C"/>
<rect x="-4" y="20" width="32" height="2" fill="#DC251C"/>
<rect x="2" y="2" width="2" height="2" fill="#C5D0EC"/>
<rect x="6" y="2" width="2" height="2" fill="#C5D0EC"/>
<rect x="10" y="2" width="2" height="2" fill="#C5D0EC"/>
<rect x="2" y="6" width="2" height="2" fill="#C5D0EC"/>
<rect x="6" y="6" width="2" height="2" fill="#C5D0EC"/>
<rect y="8" width="2" height="2" fill="#C5D0EC"/>
<rect x="4" y="8" width="2" height="2" fill="#C5D0EC"/>
<rect x="8" y="8" width="2" height="2" fill="#C5D0EC"/>
<rect y="4" width="2" height="2" fill="#C5D0EC"/>
<rect x="4" y="4" width="2" height="2" fill="#C5D0EC"/>
<rect x="8" y="4" width="2" height="2" fill="#C5D0EC"/>
<rect x="10" y="6" width="2" height="2" fill="#C5D0EC"/>
<rect x="2" y="10" width="2" height="2" fill="#C5D0EC"/>
<rect x="6" y="10" width="2" height="2" fill="#C5D0EC"/>
<rect x="10" y="10" width="2" height="2" fill="#C5D0EC"/>
</svg>
