<svg width="59" height="58" viewBox="0 0 59 58" fill="none" xmlns="http://www.w3.org/2000/svg">
<path d="M19.1047 14.0763C18.8274 14.0763 18.5564 14.3197 18.6167 14.6865L22.0319 35.4519C22.0761 35.7207 22.2466 35.9704 22.5199 35.9704H26.6667L26.9722 39.3551H25.2035L29.3962 43.5485L33.5888 39.3551H31.8201L32.1256 35.9704H36.2724C36.5457 35.9704 36.7162 35.7207 36.7604 35.4519L40.1756 14.6865C40.2359 14.3197 39.9649 14.0763 39.6876 14.0763H19.1047ZM19.7355 15.1111H39.0568L38.4863 18.5805C36.2469 18.3213 32.8891 21.1901 29.1167 19.2946C24.4735 16.9616 24.3729 19.4765 20.4183 19.264L19.7355 15.1111ZM29.3809 22.3707C31.2039 25.5283 32.7602 26.7446 32.7602 28.8811C32.7602 30.3091 31.859 32.1589 29.3809 32.1589C26.9028 32.1589 26.0016 30.3091 26.0016 28.8811C26.0016 26.7446 27.5578 25.5283 29.3809 22.3707Z" fill="white"/>
</svg>
