<svg width="59" height="58" viewBox="0 0 59 58" fill="none" xmlns="http://www.w3.org/2000/svg">
<path d="M30.6613 17.9875C22.2218 17.9088 13.7262 21.758 8.78012 29.0289C18.3724 43.1301 41.3159 44.3626 51.3083 29.0289C46.4682 21.6017 38.5893 18.0615 30.6613 17.9875ZM30.1756 20.0976C30.624 20.0977 31.0638 20.1234 31.2608 20.1755C31.4323 20.2207 31.7482 20.2866 31.9626 20.3213C32.4376 20.3983 33.1365 20.608 33.4167 20.7582C33.5305 20.8192 33.6827 20.8697 33.7542 20.8697C33.8257 20.8697 33.9366 20.9222 34.0009 20.9865C34.0652 21.0508 34.1855 21.1034 34.2682 21.1034C34.3509 21.1034 34.4186 21.1388 34.4186 21.1828C34.4186 21.2267 34.5073 21.2966 34.6157 21.3378C34.724 21.379 34.8557 21.4496 34.9082 21.4944C34.9606 21.5392 35.1899 21.7123 35.4183 21.8793C35.8297 22.1799 36.9136 23.1735 36.9136 23.2501C36.9136 23.272 37.0887 23.5126 37.3031 23.7854C37.5175 24.0582 37.6933 24.318 37.6933 24.3628C37.6933 24.4076 37.7367 24.4918 37.7903 24.5491C38.0879 24.8673 38.7067 26.492 38.7067 26.9555C38.7067 27.493 38.2421 27.6696 37.8995 27.2625C37.3968 26.665 36.912 27.3182 37.3497 28.0033C37.4269 28.1242 37.4282 28.1857 37.3565 28.279C37.2385 28.4326 36.6392 28.744 36.4607 28.744C36.2489 28.744 35.9264 29.1691 35.8696 29.5238C35.8111 29.8899 35.9231 30.3946 36.0949 30.5372C36.2032 30.6271 36.2638 31.0046 36.1698 31.0046C36.1073 31.0046 35.6705 30.6864 35.3755 30.4257C35.1432 30.2203 35.0221 30.0123 34.6897 29.2504C34.6336 29.1217 34.5679 28.9264 34.5439 28.8158C34.4677 28.4648 34.152 28.198 33.813 28.198C33.3402 28.198 33.2171 28.3361 33.2051 28.88C33.198 29.2013 33.1488 29.4084 33.0463 29.549C32.8687 29.7925 32.851 29.7955 32.6408 29.6208C32.2671 29.3102 32.1212 29.2114 32.0344 29.2114C31.9841 29.2114 31.8992 29.1589 31.8458 29.0946C31.7924 29.0303 31.6568 28.9757 31.5441 28.9732C31.1376 28.964 30.6509 28.6496 30.4635 28.2751C30.3671 28.0826 30.2875 27.8895 30.2871 27.846C30.2863 27.7763 29.5749 27.2625 29.4791 27.2625C29.4588 27.2625 29.2599 27.1421 29.0369 26.9952C28.5758 26.6915 28.4153 26.7059 28.4153 27.051C28.4153 27.2486 28.5241 27.3954 29.0339 27.8857C29.7141 28.5399 29.8467 28.8088 29.615 29.0648C29.4804 29.2136 29.0287 29.4451 28.8727 29.4451C28.8346 29.4451 28.5416 29.1796 28.2221 28.8548C27.781 28.4065 27.5982 28.2705 27.463 28.2897C27.3323 28.3082 27.2778 28.3744 27.2591 28.5386C27.245 28.6618 27.2716 28.8002 27.3179 28.8464C27.3641 28.8926 27.4019 28.9926 27.4019 29.0679C27.4019 29.3146 28.0717 30.1469 28.2702 30.1469C28.3065 30.1469 28.4262 30.2249 28.5359 30.3203C28.799 30.5491 28.7413 30.7708 28.3046 31.2138C27.9777 31.5454 27.9683 31.5689 27.9265 32.1784C27.903 32.5221 27.8493 32.8457 27.8074 32.8977C27.7655 32.9498 27.7091 33.0983 27.6814 33.2269C27.6536 33.3555 27.5269 33.5796 27.3996 33.7248C27.2665 33.8766 27.1682 34.0769 27.1682 34.1968C27.1682 34.3114 27.1166 34.4732 27.0536 34.5565C26.9907 34.6397 26.9374 34.7502 26.936 34.8016C26.9329 34.9216 26.5907 35.2927 26.4832 35.2927C26.4381 35.2927 26.3878 35.3322 26.3717 35.3805C26.3555 35.4288 26.1662 35.485 25.9509 35.5057C25.5961 35.5398 25.5477 35.525 25.4285 35.3431V35.3423C25.3399 35.207 25.2964 34.9796 25.2964 34.6443C25.2964 34.2242 25.2665 34.1117 25.1001 33.9203C24.9918 33.7957 24.886 33.6151 24.8657 33.5186C24.8453 33.4221 24.81 33.2529 24.787 33.1429C24.7588 33.0079 24.6577 32.9067 24.4754 32.8305C24.3269 32.7685 24.2051 32.6861 24.2051 32.6473C24.2051 32.6085 24.0632 32.4284 23.8897 32.2478C23.5858 31.9316 23.5608 31.9214 23.213 31.9691C23.0145 31.9963 22.7944 32.0715 22.7235 32.1356C22.6527 32.1997 22.4746 32.2512 22.3279 32.2501C22.1015 32.2486 22.0405 32.2064 21.9247 31.9737C21.8497 31.8229 21.788 31.6324 21.788 31.5498C21.788 31.4673 21.7385 31.2844 21.678 31.1436C21.5343 30.8089 21.3943 29.8989 21.3474 28.9968C21.3107 28.2926 21.3154 28.2668 21.549 27.9208C21.6806 27.7258 21.788 27.5359 21.788 27.4985C21.788 27.4205 22.3335 27.2187 22.4509 27.2533C22.4938 27.266 22.7274 27.308 22.9694 27.3473C23.2115 27.3865 23.5091 27.4713 23.6315 27.5351C23.754 27.599 23.9071 27.6526 23.9714 27.6543C24.0357 27.6558 24.1562 27.7082 24.2394 27.7711C24.3227 27.8341 24.4698 27.8857 24.5663 27.8857C24.6628 27.8857 24.7603 27.9166 24.7832 27.9536C24.8061 27.9907 24.9546 28.0417 25.1131 28.0674C25.6176 28.1493 26.3065 27.721 26.309 27.3236C26.3106 27.0273 26.0345 26.7944 25.6813 26.7944C25.5207 26.7944 25.3506 26.7428 25.2964 26.6775C25.243 26.6132 25.075 26.5607 24.9222 26.5607C24.7485 26.5607 24.5799 26.4998 24.4724 26.3988C24.2446 26.1848 23.6583 26.1546 23.4467 26.3461C23.364 26.421 23.2182 26.4828 23.1229 26.4828C23.0277 26.4828 22.8554 26.5309 22.7396 26.5897C22.6238 26.6484 22.3599 26.7207 22.1531 26.7508L21.7766 26.8058L21.8018 26.5859C21.8242 26.3896 21.8653 26.3606 22.1783 26.3171C22.862 26.222 23.2283 26.0651 23.2566 25.8558C23.2791 25.6892 23.361 25.5941 23.7766 25.2517C23.8195 25.2164 24.0425 25.126 24.2723 25.0509C24.6629 24.9231 24.7231 24.9228 25.1941 25.0409C25.8059 25.1944 26.0837 25.1437 26.4236 24.8179C26.5646 24.6828 26.7721 24.4933 26.8849 24.3971C27.1205 24.196 27.1358 24.1231 26.9719 23.987C26.7751 23.8237 26.3132 23.9496 26.0494 24.2383C25.8479 24.4588 25.7656 24.4933 25.4583 24.4888C25.0297 24.4824 24.4575 24.2465 24.3952 24.0504C24.2847 23.7021 24.9084 23.403 25.889 23.3341C26.3083 23.3046 26.6889 23.2507 26.7344 23.2134C26.8494 23.1195 27.8707 23.0181 27.8662 23.1012C27.8642 23.1383 27.715 23.2416 27.5348 23.3303C27.2451 23.4727 27.2071 23.5223 27.2071 23.7579C27.2071 23.953 27.2447 24.0321 27.3477 24.052C27.5126 24.0837 28.1183 23.8149 28.4565 23.5601C28.5865 23.4622 28.7591 23.3688 28.8399 23.3532C28.9207 23.3375 29.0211 23.2221 29.0629 23.0966C29.1314 22.8909 29.1133 22.8449 28.875 22.6346C28.5039 22.3069 28.3388 22.0383 28.3382 21.7609C28.337 21.2723 28.231 21.225 27.0376 21.1751C26.4445 21.1504 26.0338 21.1238 26.125 21.1163C26.2162 21.1089 26.3351 21.0501 26.3885 20.9857C26.4418 20.9214 26.5445 20.8689 26.6168 20.8689C26.6891 20.8689 26.8161 20.8173 26.8994 20.7544C26.9826 20.6914 27.1156 20.6389 27.1949 20.6375C27.2742 20.6359 27.45 20.5837 27.5852 20.5207C27.7203 20.4577 28.0237 20.3717 28.2595 20.3297C28.4953 20.2877 28.8463 20.2179 29.0392 20.1747C29.2705 20.1229 29.7272 20.0974 30.1756 20.0976ZM23.9492 22.662C24.233 22.662 24.1852 23.0003 23.8668 23.2432C23.5707 23.469 23.2696 23.5065 23.2696 23.3181C23.2696 23.1252 23.7494 22.662 23.9492 22.662ZM23.2291 24.1528C23.2721 24.1493 23.3146 24.15 23.3559 24.1558C23.5257 24.1798 23.4899 24.2327 22.9702 24.7286C22.3551 25.3155 22.2567 25.3831 22.2546 25.2219C22.2542 25.1647 22.3331 24.9575 22.4303 24.7614C22.5989 24.4211 22.9282 24.1772 23.2291 24.1528ZM38.6464 28.0529C38.6869 28.0627 38.7411 28.1067 38.8114 28.1843C38.9905 28.3822 39.0058 30.3027 38.8282 30.3027C38.7664 30.3027 38.6884 30.2586 38.6548 30.205C38.305 29.6472 38.2078 28.9949 38.431 28.6998C38.494 28.6165 38.5465 28.4344 38.5479 28.295C38.5496 28.1157 38.579 28.0366 38.6464 28.0529ZM32.1963 29.9133C32.2606 29.9133 32.3131 29.9269 32.3131 29.9438C32.3131 29.9607 32.2606 29.9947 32.1963 30.0194C32.132 30.0441 32.0795 30.0297 32.0795 29.9881C32.0795 29.9466 32.132 29.9133 32.1963 29.9133ZM37.103 30.8106C37.1286 30.8068 37.1581 30.8096 37.1885 30.8213C37.2512 30.8453 37.2825 30.8959 37.2588 30.9343C37.2082 31.0161 37.1162 31.0254 37.0457 30.9549C36.9835 30.8927 37.0262 30.8221 37.103 30.8106ZM28.9216 31.394C29.0069 31.394 28.9528 31.7585 28.8345 31.979C28.7655 32.1077 28.6809 32.3003 28.6467 32.4075C28.5994 32.5556 28.583 32.4954 28.5779 32.1547C28.5727 31.8044 28.6051 31.6717 28.7269 31.5498C28.8126 31.4641 28.9002 31.394 28.9216 31.394ZM38.0484 31.4078C38.1374 31.4198 38.2083 31.5284 38.2844 31.7476C38.378 32.0172 38.3758 32.0916 38.2684 32.3296C38.0454 32.8235 37.8407 33.2231 37.6887 33.4606C37.6064 33.5892 37.5057 33.7695 37.465 33.8615C37.4242 33.9535 37.3625 34.041 37.3275 34.0563C37.2926 34.0715 37.1626 34.233 37.0388 34.4152C36.9151 34.5974 36.7842 34.7466 36.7471 34.7466C36.7101 34.7466 36.6791 34.7992 36.6791 34.8635C36.6791 34.9278 36.6183 34.9839 36.5432 34.988C35.7421 35.0315 35.5951 35.016 35.5603 34.8833C35.5165 34.7161 35.251 34.7047 35.0922 34.8635C35.0279 34.9278 34.8848 34.9803 34.7745 34.9803C34.6068 34.9803 34.5744 34.9452 34.5744 34.7619C34.5744 34.6415 34.5228 34.4748 34.4599 34.3915C34.3908 34.3002 34.3445 34.061 34.343 33.7897C34.3403 33.3087 34.5221 32.9178 34.8959 32.6022C35.0726 32.4531 36.056 32.0927 36.279 32.0951C36.5508 32.0978 37.6233 31.6864 37.8636 31.4872C37.935 31.4281 37.9951 31.4006 38.0484 31.4078ZM34.9303 35.925C35.0442 35.9333 35.1246 35.9712 35.1525 36.0441C35.1796 36.1146 35.1925 36.1763 35.1808 36.1808C35.1691 36.1854 35.0886 36.2341 35.0029 36.2893C34.9171 36.3444 34.7511 36.431 34.6332 36.4817C34.5153 36.5325 34.4186 36.5983 34.4186 36.6284C34.4186 36.6584 34.316 36.7061 34.1903 36.7337C34.0646 36.7614 33.9199 36.8341 33.8688 36.8956C33.8177 36.9572 33.7252 37.0079 33.6633 37.0079C33.6015 37.0079 33.4737 37.0502 33.38 37.1026C33.1731 37.2184 32.6909 37.3642 31.9626 37.5303C31.3596 37.6677 29.1786 37.7449 28.9224 37.638H28.9216C28.8359 37.6022 28.5732 37.5471 28.3374 37.515C27.8746 37.4521 27.7947 37.3881 27.7929 37.0812C27.7917 36.864 28.2244 36.384 28.4214 36.384C28.4849 36.384 28.6151 36.3289 28.7108 36.2618C29.0425 36.0295 30.7545 36.1865 31.4036 36.5085C31.525 36.5687 31.6934 36.6177 31.7778 36.6177C31.8622 36.6177 32.0263 36.666 32.1421 36.7246C32.4125 36.8614 32.8629 36.9337 33.0234 36.8659C33.0921 36.8368 33.3115 36.675 33.5114 36.5069C33.945 36.1423 34.5886 35.9002 34.9303 35.925Z" fill="white"/>
</svg>
