<svg width="59" height="58" viewBox="0 0 59 58" fill="none" xmlns="http://www.w3.org/2000/svg">
<path
    d="M43.0724 14.0763C43.0484 14.0761 43.0233 14.0787 42.9983 14.0855L38.2207 15.3654C38.0207 15.419 37.954 15.6692 38.1008 15.8152L39.1333 16.8477L28.932 27.0559L24.8714 22.9962C24.4897 22.6146 23.8709 22.6146 23.4892 22.9962L15.291 31.1943L16.674 32.5766L24.1803 25.0696L28.2401 29.1301C28.6219 29.5122 29.2413 29.5122 29.6231 29.1301L40.5156 18.23L41.5977 19.3121C41.6491 19.3635 41.7191 19.3919 41.7917 19.3908C41.9118 19.3892 42.0162 19.3082 42.0475 19.1922L43.3275 14.4146C43.3746 14.2397 43.2406 14.078 43.0724 14.0763V14.0763ZM40.5156 20.9953L34.0792 27.4363V43.1697C34.0792 43.5834 34.4124 43.9159 34.8261 43.9159H40.3002C40.7139 43.9159 41.0471 43.5834 41.0471 43.1697V21.5268L40.5156 20.9953ZM23.9886 28.0266L17.0215 34.9945V43.1697C17.0215 43.5834 17.3547 43.9159 17.7684 43.9159H23.2425C23.6562 43.9159 23.9886 43.5834 23.9886 43.1697V28.0266ZM32.5175 28.9988L29.6231 31.8954C29.2413 32.2775 28.6219 32.2775 28.2401 31.8954L25.5504 29.205V43.1697C25.5504 43.5834 25.8836 43.9159 26.2972 43.9159H31.7714C32.185 43.9159 32.5175 43.5834 32.5175 43.1697V28.9988Z"
    fill="white"
  />
<path
    d="M43.0724 14.0763C43.0484 14.0761 43.0233 14.0787 42.9983 14.0855L38.2207 15.3654C38.0207 15.419 37.954 15.6692 38.1008 15.8152L39.1333 16.8477L28.932 27.0559L24.8714 22.9962C24.4897 22.6146 23.8709 22.6146 23.4892 22.9962L15.291 31.1943L16.674 32.5766L24.1803 25.0696L28.2401 29.1301C28.6219 29.5122 29.2413 29.5122 29.6231 29.1301L40.5156 18.23L41.5977 19.3121C41.6491 19.3635 41.7191 19.3919 41.7917 19.3908C41.9118 19.3892 42.0162 19.3082 42.0475 19.1922L43.3275 14.4146C43.3746 14.2397 43.2406 14.078 43.0724 14.0763V14.0763Z"
    fill="white"
  />
</svg>
