<svg width="59" height="58" viewBox="0 0 59 58" fill="none" xmlns="http://www.w3.org/2000/svg">
<path
    fill-rule="evenodd"
    clip-rule="evenodd"
    d="M44.7339 15.6403C44.1393 15.6434 43.5441 15.9694 43.5441 16.6086V18.3514H45.9229V16.6086C45.9229 15.9573 45.3285 15.6373 44.7339 15.6403ZM43.5441 19.1005V36.5203L44.7339 40.4235L45.9229 36.5203V19.1005H43.5441ZM15.9479 17.4165V36.6791L26.1555 39.8271V23.3537L15.9479 17.4165ZM26.0692 42.0264L13.7142 38.5334V18.2219L14.7891 17.4013V37.7404L26.3181 41.1039H27.2554L38.7844 37.7404V17.4013L39.8594 18.2219V38.5334L27.5043 42.0264H26.0692ZM37.6257 17.4165V36.6791L27.418 39.8271V23.3537L37.6257 17.4165Z"
    fill="white"
  />
</svg>
