<svg width="59" height="58" viewBox="0 0 59 58" fill="none" xmlns="http://www.w3.org/2000/svg">
<path
    fill-rule="evenodd"
    clip-rule="evenodd"
    d="M17.6051 21.1506L20.7474 22.9647C21.1056 23.1716 21.2275 23.6265 21.0207 23.9848C20.8138 24.3431 20.3589 24.465 20.0006 24.2581L16.8584 22.4439C16.5001 22.2371 16.3782 21.7821 16.5851 21.4239C16.7919 21.0656 17.2468 20.9437 17.6051 21.1506ZM23.0657 16.2781L24.8798 19.4204C25.0867 19.7786 24.9648 20.2336 24.6065 20.4404C24.2483 20.6473 23.7933 20.5254 23.5865 20.1671L21.7723 17.0248C21.5655 16.6666 21.6874 16.2116 22.0456 16.0048C22.4039 15.7979 22.8588 15.9198 23.0657 16.2781ZM30.2309 14.7887L30.2309 18.4171C30.2309 18.8308 29.8978 19.1638 29.4842 19.1638C29.0705 19.1638 28.7374 18.8308 28.7374 18.4171L28.7374 14.7887C28.7374 14.375 29.0705 14.042 29.4842 14.042C29.8978 14.042 30.2309 14.375 30.2309 14.7887ZM37.1808 17.0815L35.3666 20.2237C35.1598 20.582 34.7049 20.7039 34.3466 20.4971C33.9883 20.2902 33.8664 19.8353 34.0733 19.477L35.8875 16.3348C36.0943 15.9765 36.5493 15.8546 36.9075 16.0614C37.2658 16.2683 37.3877 16.7232 37.1808 17.0815ZM42.0533 22.5421L38.911 24.3562C38.5528 24.5631 38.0978 24.4412 37.891 24.0829C37.6841 23.7247 37.806 23.2697 38.1643 23.0629L41.3065 21.2487C41.6648 21.0418 42.1198 21.1637 42.3266 21.522C42.5335 21.8803 42.4115 22.3352 42.0533 22.5421ZM43.5427 29.7073L39.9143 29.7073C39.5006 29.7073 39.1676 29.3742 39.1676 28.9605C39.1676 28.5468 39.5006 28.2138 39.9143 28.2138L43.5427 28.2138C43.9564 28.2138 44.2894 28.5468 44.2894 28.9605C44.2894 29.3742 43.9564 29.7073 43.5427 29.7073ZM41.2499 36.6572L38.1076 34.843C37.7494 34.6362 37.6275 34.1813 37.8343 33.823C38.0412 33.4647 38.4961 33.3428 38.8544 33.5497L41.9966 35.3639C42.3549 35.5707 42.4768 36.0256 42.27 36.3839C42.0631 36.7422 41.6082 36.8641 41.2499 36.6572ZM35.7894 41.5297L33.9752 38.3874C33.7683 38.0292 33.8902 37.5742 34.2485 37.3674C34.6067 37.1605 35.0617 37.2824 35.2685 37.6407L37.0827 40.7829C37.2896 41.1412 37.1677 41.5961 36.8094 41.803C36.4511 42.0098 35.9962 41.8879 35.7894 41.5297ZM28.6241 43.019L28.6241 39.3907C28.6241 38.977 28.9572 38.644 29.3709 38.644C29.7845 38.644 30.1176 38.977 30.1176 39.3907L30.1176 43.0191C30.1176 43.4327 29.7845 43.7658 29.3709 43.7658C28.9572 43.7658 28.6241 43.4327 28.6241 43.019ZM21.6742 40.7263L23.4884 37.5841C23.6952 37.2258 24.1501 37.1039 24.5084 37.3107C24.8667 37.5176 24.9886 37.9725 24.7817 38.3308L22.9675 41.473C22.7607 41.8313 22.3058 41.9532 21.9475 41.7463C21.5892 41.5395 21.4673 41.0846 21.6742 40.7263ZM16.8017 35.2657L19.944 33.4515C20.3022 33.2447 20.7572 33.3666 20.964 33.7249C21.1709 34.0831 21.049 34.5381 20.6907 34.7449L17.5485 36.5591C17.1902 36.7659 16.7353 36.644 16.5284 36.2858C16.3216 35.9275 16.4435 35.4726 16.8017 35.2657ZM15.3123 28.1005L18.9407 28.1005C19.3544 28.1005 19.6874 28.4336 19.6874 28.8472C19.6874 29.2609 19.3544 29.594 18.9407 29.594L15.3123 29.594C14.8987 29.594 14.5656 29.2609 14.5656 28.8472C14.5656 28.4336 14.8987 28.1005 15.3123 28.1005ZM29.4272 20.3379C27.1554 20.338 24.9767 21.2406 23.3703 22.8471C21.764 24.4536 20.8616 26.6324 20.8617 28.9042C20.8618 31.1758 21.7643 33.3544 23.3706 34.9608C24.9769 36.5671 27.1555 37.4695 29.4272 37.4697C31.699 37.4697 33.8778 36.5673 35.4843 34.961C37.0907 33.3547 37.9933 31.176 37.9935 28.9042C37.9935 27.7792 37.7719 26.6653 37.3415 25.626C36.911 24.5866 36.28 23.6423 35.4845 22.8468C34.6891 22.0514 33.7447 21.4204 32.7054 20.9899C31.6661 20.5594 30.5521 20.3378 29.4272 20.3379ZM29.3951 23.2483C29.675 23.2483 29.8999 23.4739 29.8999 23.7539L29.8999 26.6406C29.8999 26.9205 29.675 27.1462 29.3951 27.1462C29.1152 27.1462 28.8896 26.9205 28.8896 26.6406L28.8896 23.7539C28.8896 23.4739 29.1152 23.2483 29.3951 23.2483ZM28.077 24.7291L28.077 26.2229C27.5804 26.473 27.1629 26.8561 26.8713 27.3295C26.5796 27.803 26.4252 28.3481 26.4251 28.9042C26.4252 29.7003 26.7415 30.4639 27.3045 31.0269C27.8675 31.5898 28.631 31.9061 29.4272 31.9062C29.8215 31.9063 30.2119 31.8287 30.5762 31.6779C30.9405 31.527 31.2715 31.3059 31.5504 31.0271C31.8292 30.7484 32.0504 30.4174 32.2013 30.0531C32.3523 29.6889 32.43 29.2985 32.43 28.9042C32.4294 28.3515 32.2763 27.8097 31.9876 27.3385C31.6988 26.8673 31.2856 26.485 30.7934 26.2336L30.7934 24.7375C31.672 25.0251 32.4374 25.5827 32.9805 26.3309C33.5235 27.0791 33.8165 27.9797 33.8176 28.9042C33.8176 29.4807 33.704 30.0516 33.4834 30.5842C33.2627 31.1168 32.9393 31.6007 32.5316 32.0084C32.1239 32.416 31.6399 32.7393 31.1073 32.9599C30.5746 33.1804 30.0037 33.2939 29.4272 33.2938C28.263 33.2938 27.1465 32.8313 26.3233 32.0081C25.5 31.1849 25.0375 30.0684 25.0375 28.9042C25.0379 27.9763 25.3323 27.0725 25.8784 26.3224C26.4244 25.5723 27.1941 25.0145 28.077 24.7291Z"
    fill="white"
  />
</svg>
