<svg width="59" height="58" viewBox="0 0 59 58" fill="none" xmlns="http://www.w3.org/2000/svg">
<path fill-rule="evenodd" clip-rule="evenodd" d="M23.4161 23.9027V26.2029H32.168V23.9027H23.4161ZM23.4161 27.4706V29.8793H32.168V27.4706H23.4161ZM33.7672 13.6853V16.1864H36.7425L33.5732 19.3564C31.9136 18.0498 29.8638 17.3375 27.7516 17.3334C25.248 17.3335 22.8469 18.328 21.0766 20.0984C19.3063 21.8687 18.3117 24.2698 18.3116 26.7734C18.3144 29.0621 19.1485 31.2719 20.6589 32.9915C22.1692 34.7112 24.2528 35.8235 26.522 36.1217V38.8916H23.5467V41.6729H26.522V44.3901H29.282V41.6729H32.236V38.8916H29.282V36.0774C31.4888 35.7148 33.4953 34.5805 34.9438 32.8766C36.3923 31.1726 37.1889 29.0098 37.1915 26.7734C37.1873 24.8301 36.5835 22.9355 35.4625 21.3481L38.5975 18.2132V20.9518H41.1627V13.6853H33.7672ZM27.7516 19.9094C29.572 19.9095 31.3179 20.6327 32.6051 21.9199C33.8923 23.2071 34.6155 24.953 34.6156 26.7734C34.6157 28.5939 33.8926 30.34 32.6053 31.6273C31.3181 32.9147 29.5721 33.6381 27.7516 33.6382C26.8501 33.6382 25.9574 33.4607 25.1245 33.1157C24.2916 32.7707 23.5348 32.2651 22.8973 31.6276C22.2599 30.9902 21.7542 30.2334 21.4093 29.4005C21.0643 28.5676 20.8867 27.6749 20.8868 26.7734C20.8869 24.9528 21.6102 23.2069 22.8976 21.9196C24.185 20.6324 25.931 19.9093 27.7516 19.9094Z" fill="white"/>
</svg>
