<svg width="59" height="58" viewBox="0 0 59 58" fill="none" xmlns="http://www.w3.org/2000/svg">
<path
    fill-rule="evenodd"
    clip-rule="evenodd"
    d="M29.3773 27.4144C29.3773 28.3039 29.2021 29.1847 28.8617 30.0065C28.5213 30.8282 28.0224 31.5749 27.3935 32.2038C26.7645 32.8328 26.0178 33.3317 25.1961 33.6721C24.3743 34.0125 23.4935 34.1877 22.6041 34.1877C20.8077 34.1877 19.0849 33.4741 17.8147 32.2038C16.5445 30.9336 15.8309 29.2108 15.8309 27.4144C15.8309 25.6181 16.5445 23.8953 17.8147 22.6251C19.0849 21.3548 20.8077 20.6412 22.6041 20.6412C24.4004 20.6412 26.1232 21.3548 27.3935 22.6251C28.6637 23.8953 29.3773 25.6181 29.3773 27.4144V27.4144Z"
    stroke="white"
    stroke-width="1.6"
    stroke-linecap="round"
    stroke-linejoin="round"
  />
<path
    fill-rule="evenodd"
    clip-rule="evenodd"
    d="M36.2419 22.4135C36.2419 24.2098 35.5283 25.9326 34.2581 27.2029C32.9878 28.4731 31.265 29.1867 29.4687 29.1867C27.6723 29.1867 25.9495 28.4731 24.6793 27.2029C23.409 25.9326 22.6955 24.2098 22.6954 22.4135C22.6954 21.524 22.8706 20.6432 23.211 19.8215C23.5514 18.9997 24.0503 18.253 24.6793 17.6241C25.3082 16.9951 26.0549 16.4962 26.8767 16.1558C27.6984 15.8155 28.5792 15.6403 29.4687 15.6403C31.265 15.6403 32.9878 16.3539 34.2581 17.6241C35.5283 18.8943 36.2419 20.6171 36.2419 22.4135V22.4135Z"
    stroke="white"
    stroke-width="1.6"
    stroke-linecap="round"
    stroke-linejoin="round"
  />
<path
    fill-rule="evenodd"
    clip-rule="evenodd"
    d="M40.4217 35.3883C40.4217 37.1847 39.7081 38.9075 38.4379 40.1777C37.1677 41.4479 35.4449 42.1615 33.6485 42.1615C32.759 42.1615 31.8783 41.9863 31.0565 41.646C30.2347 41.3056 29.488 40.8067 28.8591 40.1777C28.2301 39.5488 27.7312 38.8021 27.3909 37.9803C27.0505 37.1586 26.8753 36.2778 26.8753 35.3883C26.8753 33.592 27.5889 31.8692 28.8591 30.5989C30.1293 29.3287 31.8521 28.6151 33.6485 28.6151C35.4449 28.6151 37.1677 29.3287 38.4379 30.5989C39.7081 31.8692 40.4217 33.592 40.4217 35.3883V35.3883Z"
    stroke="white"
    stroke-width="1.6"
    stroke-linecap="round"
    stroke-linejoin="round"
  />
<path
    fill-rule="evenodd"
    clip-rule="evenodd"
    d="M43.0341 27.3335C43.0341 28.223 42.8589 29.1038 42.5185 29.9255C42.1782 30.7473 41.6792 31.494 41.0503 32.1229C40.4213 32.7519 39.6747 33.2508 38.8529 33.5911C38.0311 33.9315 37.1504 34.1067 36.2609 34.1067C35.3714 34.1067 34.4906 33.9315 33.6689 33.5911C32.8471 33.2508 32.1004 32.7519 31.4715 32.1229C30.8425 31.494 30.3436 30.7473 30.0032 29.9255C29.6628 29.1038 29.4877 28.223 29.4877 27.3335C29.4877 26.444 29.6628 25.5633 30.0032 24.7415C30.3436 23.9197 30.8425 23.1731 31.4715 22.5441C32.1004 21.9152 32.8471 21.4162 33.6689 21.0759C34.4906 20.7355 35.3714 20.5603 36.2609 20.5603C37.1504 20.5603 38.0311 20.7355 38.8529 21.0759C39.6747 21.4162 40.4213 21.9152 41.0503 22.5441C41.6792 23.1731 42.1782 23.9197 42.5185 24.7415C42.8589 25.5633 43.0341 26.444 43.0341 27.3335V27.3335Z"
    stroke="white"
    stroke-width="1.6"
    stroke-linecap="round"
    stroke-linejoin="round"
  />
<path
    fill-rule="evenodd"
    clip-rule="evenodd"
    d="M31.975 35.4319C31.975 36.3214 31.7998 37.2021 31.4594 38.0239C31.119 38.8457 30.6201 39.5923 29.9911 40.2213C29.3622 40.8503 28.6155 41.3491 27.7938 41.6895C26.972 42.0299 26.0912 42.2051 25.2018 42.2051C24.3123 42.2051 23.4315 42.0299 22.6098 41.6895C21.788 41.3491 21.0413 40.8503 20.4124 40.2213C19.7834 39.5923 19.2845 38.8457 18.9441 38.0239C18.6037 37.2021 18.4285 36.3214 18.4285 35.4319C18.4285 34.5424 18.6037 33.6617 18.9441 32.8399C19.2845 32.0181 19.7834 31.2715 20.4124 30.6425C21.0413 30.0136 21.788 29.5146 22.6098 29.1743C23.4315 28.8339 24.3123 28.6587 25.2018 28.6587C26.0912 28.6587 26.972 28.8339 27.7938 29.1743C28.6155 29.5146 29.3622 30.0136 29.9911 30.6425C30.6201 31.2715 31.119 32.0181 31.4594 32.8399C31.7998 33.6617 31.975 34.5424 31.975 35.4319Z"
    stroke="white"
    stroke-width="1.6"
    stroke-linecap="round"
    stroke-linejoin="round"
  />
</svg>
