<svg width="59" height="58" viewBox="0 0 59 58" fill="none" xmlns="http://www.w3.org/2000/svg">
<path d="M10.6807 31.2973H20.2542L23.6179 23.9231L25.2998 35.1785L29.3103 27.9768L31.7252 41.6471L39.4876 16.0314L43.0669 23.4056" stroke="white" stroke-width="1.6" stroke-linecap="round" stroke-linejoin="round"/>
<path fill-rule="evenodd" clip-rule="evenodd" d="M44.2921 35.4756C44.2921 35.4756 46.9273 32.7948 48.2563 31.4657C48.6648 31.0572 48.9881 30.4312 48.9881 29.6819C48.9881 28.36 48.418 26.6021 46.4572 26.6021C45.3409 26.6021 44.4089 27.6774 44.3074 27.7913C44.1549 27.9625 43.9781 27.9541 43.8498 27.7913C43.7554 27.6715 42.8163 26.6021 41.7 26.6021C39.7392 26.6021 39.1691 28.36 39.1691 29.6819C39.1691 30.4312 39.4924 31.0572 39.9009 31.4657C41.2299 32.7948 43.865 35.4756 43.865 35.4756C44.01 35.6295 44.1244 35.6324 44.2921 35.4756Z" fill="white"/>
</svg>
