<svg width="59" height="58" viewBox="0 0 59 58" fill="none" xmlns="http://www.w3.org/2000/svg">
<path d="M19.8362 19.0519C15.4742 19.3543 15.9285 23.5925 18.0511 24.7991C16.2575 27.6156 18.0376 30.2852 20.1845 30.2852H27.1944C31.053 30.2852 33.7643 23.7354 27.7387 21.0329C29.9372 13.4151 19.7732 13.9304 19.8362 19.0519Z" fill="white"/>
<path d="M34.1902 27.2169C36.1462 26.3097 38.5312 28.3253 38.5312 28.3253C38.5312 28.3253 40.5759 26.4223 42.8107 27.2477C43.3854 27.46 43.3414 26.8623 43.1494 26.7243C42.0088 25.905 40.5803 25.1156 38.5928 26.6935C36.1913 25.1569 34.8612 25.8539 33.9131 26.6935C33.6645 26.9138 33.7514 27.4205 34.1902 27.2169Z" fill="white"/>
<path d="M31.2185 20.1695C32.7647 19.28 34.8765 20.7681 34.8765 20.7681C34.8765 20.7681 36.4235 19.0515 38.3252 19.5697C38.8142 19.7029 38.7346 19.2135 38.5663 19.1138C37.5669 18.5213 36.3324 17.9743 34.8089 19.4189C32.7182 18.3267 31.6726 18.9976 30.9521 19.7583C30.7632 19.9579 30.8716 20.3691 31.2185 20.1695Z" fill="white"/>
<path d="M36.826 15.926C38.2457 15.7163 39.3873 17.4532 39.3873 17.4532C39.3873 17.4532 41.0516 16.6247 42.3221 17.5735C42.6488 17.8176 42.7336 17.4277 42.6371 17.3034C42.0639 16.5651 41.3012 15.7915 39.7347 16.4233C38.4921 14.9891 37.5116 15.1828 36.748 15.5397C36.5477 15.6333 36.5075 15.9731 36.826 15.926Z" fill="white"/>
<path fill-rule="evenodd" clip-rule="evenodd" d="M23.6148 31.3804H25.0692C25.2483 31.3804 25.3925 31.5245 25.3925 31.7036V35.5794C25.3925 35.7585 25.2483 35.9027 25.0692 35.9027H23.6148C23.4357 35.9027 23.2915 35.7585 23.2915 35.5794V31.7036C23.2915 31.5245 23.4357 31.3804 23.6148 31.3804Z" fill="white"/>
<path fill-rule="evenodd" clip-rule="evenodd" d="M15.9523 37.6464H43.6644C43.8435 37.6464 43.9877 37.7906 43.9877 37.9696V39.3482C43.9877 39.5273 43.8435 39.6714 43.6644 39.6714H15.9523C15.7732 39.6714 15.6291 39.5273 15.6291 39.3482V37.9696C15.6291 37.7906 15.7732 37.6464 15.9523 37.6464Z" fill="white"/>
<path fill-rule="evenodd" clip-rule="evenodd" d="M15.9523 40.9713H43.6644C43.8435 40.9713 43.9877 41.1155 43.9877 41.2946V42.6731C43.9877 42.8522 43.8435 42.9964 43.6644 42.9964H15.9523C15.7732 42.9964 15.6291 42.8522 15.6291 42.6731V41.2946C15.6291 41.1155 15.7732 40.9713 15.9523 40.9713Z" fill="white"/>
</svg>
