<svg width="59" height="58" viewBox="0 0 59 58" fill="none" xmlns="http://www.w3.org/2000/svg">
<path d="M33.303 28.3728C29.353 28.4646 25.4801 30.5508 21.6369 33.4009C19.9447 30.4944 17.7134 28.4264 14.1596 28.4156C17.5562 33.4716 16.8743 37.975 14.1596 42.2024C17.7134 42.1916 19.9447 40.1236 21.6369 37.2171C29.3234 42.9173 37.1279 45.5607 45.4319 35.3094C41.2799 30.1837 37.253 28.281 33.303 28.3728ZM37.1275 32.3608C37.3764 32.3607 37.6228 32.4097 37.8527 32.5049C38.0826 32.6001 38.2914 32.7397 38.4674 32.9156C38.6433 33.0916 38.7829 33.3005 38.8781 33.5304C38.9733 33.7603 39.0223 34.0067 39.0222 34.2555C39.0221 34.7579 38.8225 35.2397 38.4671 35.5949C38.1118 35.9501 37.6299 36.1495 37.1275 36.1494C36.6252 36.1493 36.1436 35.9497 35.7884 35.5946C35.4333 35.2394 35.2337 34.7578 35.2336 34.2555C35.2335 33.7531 35.433 33.2712 35.7881 32.9159C36.1433 32.5606 36.6251 32.3609 37.1275 32.3608ZM45.1401 21.7757L45.2764 23.3335C42.3278 25.3623 40.1379 24.5563 38.1689 22.9246C35.7358 24.7199 33.0566 25.2541 29.7958 22.8078C27.3895 24.2809 24.9261 25.5665 21.2474 22.8662C19.3277 24.3635 17.4013 25.8384 14.3152 23.4309L14.2373 21.7952C17.0731 23.4559 19.3043 22.509 21.4227 20.8216C24.2332 22.7234 27.0109 23.2811 29.7179 20.9384C32.8574 23.8169 35.4948 22.5865 38.0716 20.8605C39.9596 22.0696 41.6989 23.6193 45.1401 21.7757ZM45.1401 16.9855L45.2764 18.5433C42.3278 20.5721 40.1379 19.7661 38.1689 18.1344C35.7358 19.9296 33.0566 20.4638 29.7958 18.0176C27.3895 19.4907 24.9261 20.7763 21.2474 18.076C19.3277 19.5733 17.4013 21.0481 14.3152 18.6407L14.2373 17.005C17.0731 18.6657 19.3043 17.7187 21.4227 16.0314C24.2332 17.9332 27.0109 18.4909 29.7179 16.1482C32.8574 19.0267 35.4948 17.7963 38.0716 16.0703C39.9596 17.2794 41.6989 18.8291 45.1401 16.9855Z" fill="white"/>
</svg>
