<svg width="58" height="58" viewBox="0 0 58 58" fill="none" xmlns="http://www.w3.org/2000/svg">
<path fill-rule="evenodd" clip-rule="evenodd" d="M13.6379 21.1607C13.6379 21.5878 13.468 21.9974 13.1655 22.2994C12.863 22.6014 12.4527 22.7711 12.0249 22.7711C11.5972 22.7711 11.1869 22.6014 10.8844 22.2994C10.5819 21.9974 10.412 21.5878 10.412 21.1607C10.412 20.9493 10.4537 20.7399 10.5348 20.5445C10.6158 20.3491 10.7346 20.1716 10.8844 20.0221C11.0342 19.8725 11.212 19.7539 11.4077 19.673C11.6034 19.5921 11.8131 19.5504 12.0249 19.5504C12.2368 19.5504 12.4465 19.5921 12.6422 19.673C12.8379 19.7539 13.0157 19.8725 13.1655 20.0221C13.3153 20.1716 13.4341 20.3491 13.5151 20.5445C13.5962 20.7399 13.6379 20.9493 13.6379 21.1607Z" fill="white"/>
<path fill-rule="evenodd" clip-rule="evenodd" d="M27.297 22.0522C27.297 22.4793 27.127 22.8889 26.8245 23.1909C26.522 23.4929 26.1118 23.6626 25.684 23.6626C25.2562 23.6626 24.846 23.4929 24.5435 23.1909C24.241 22.8889 24.071 22.4793 24.071 22.0522C24.071 21.6251 24.241 21.2156 24.5435 20.9136C24.846 20.6116 25.2562 20.4419 25.684 20.4419C25.8958 20.4419 26.1056 20.4836 26.3013 20.5645C26.4969 20.6454 26.6748 20.764 26.8245 20.9136C26.9743 21.0631 27.0931 21.2406 27.1742 21.436C27.2552 21.6314 27.297 21.8408 27.297 22.0522Z" fill="white"/>
<path fill-rule="evenodd" clip-rule="evenodd" d="M36.3425 22.0522C36.3425 22.4793 36.1726 22.8889 35.8701 23.1909C35.5676 23.4929 35.1573 23.6626 34.7295 23.6626C34.3018 23.6626 33.8915 23.4929 33.589 23.1909C33.2865 22.8889 33.1166 22.4793 33.1166 22.0522C33.1166 21.6251 33.2865 21.2156 33.589 20.9136C33.8915 20.6116 34.3018 20.4419 34.7295 20.4419C34.9414 20.4419 35.1511 20.4836 35.3468 20.5645C35.5425 20.6454 35.7203 20.764 35.8701 20.9136C36.0198 21.0631 36.1387 21.2406 36.2197 21.436C36.3008 21.6314 36.3425 21.8408 36.3425 22.0522Z" fill="white"/>
<path fill-rule="evenodd" clip-rule="evenodd" d="M49.0113 21.1979C49.0113 21.6249 48.8414 22.0345 48.5389 22.3365C48.2364 22.6385 47.8261 22.8082 47.3984 22.8082C46.9706 22.8082 46.5603 22.6385 46.2578 22.3365C45.9553 22.0345 45.7854 21.6249 45.7854 21.1979C45.7854 20.9864 45.8271 20.777 45.9082 20.5816C45.9892 20.3862 46.108 20.2087 46.2578 20.0592C46.4076 19.9096 46.5854 19.791 46.7811 19.7101C46.9768 19.6292 47.1865 19.5875 47.3984 19.5875C47.8261 19.5875 48.2364 19.7572 48.5389 20.0592C48.8414 20.3612 49.0113 20.7708 49.0113 21.1979Z" fill="white"/>
<path fill-rule="evenodd" clip-rule="evenodd" d="M19.792 29.2619C19.792 29.6036 19.656 29.9312 19.414 30.1728C19.172 30.4144 18.8438 30.5502 18.5016 30.5502C18.1594 30.5502 17.8312 30.4144 17.5892 30.1728C17.3472 29.9312 17.2112 29.6036 17.2112 29.2619C17.2112 29.0927 17.2446 28.9252 17.3095 28.7689C17.3743 28.6126 17.4694 28.4706 17.5892 28.351C17.709 28.2313 17.8513 28.1364 18.0078 28.0717C18.1644 28.007 18.3322 27.9736 18.5016 27.9736C18.6711 27.9736 18.8389 28.007 18.9954 28.0717C19.152 28.1364 19.2942 28.2313 19.414 28.351C19.5339 28.4706 19.6289 28.6126 19.6938 28.7689C19.7586 28.9252 19.792 29.0927 19.792 29.2619Z" fill="white"/>
<path fill-rule="evenodd" clip-rule="evenodd" d="M42.6377 29.2619C42.6377 29.4311 42.6044 29.5986 42.5395 29.7549C42.4747 29.9112 42.3796 30.0532 42.2598 30.1728C42.14 30.2925 41.9977 30.3874 41.8412 30.4521C41.6846 30.5168 41.5168 30.5502 41.3474 30.5502C41.0051 30.5502 40.6769 30.4144 40.435 30.1728C40.193 29.9312 40.057 29.6036 40.057 29.2619C40.057 29.0927 40.0904 28.9252 40.1552 28.7689C40.2201 28.6126 40.3151 28.4706 40.4349 28.351C40.5548 28.2313 40.697 28.1364 40.8536 28.0717C41.0101 28.007 41.1779 27.9736 41.3474 27.9736C41.5168 27.9736 41.6846 28.007 41.8412 28.0717C41.9977 28.1364 42.14 28.2313 42.2598 28.351C42.3796 28.4706 42.4747 28.6126 42.5395 28.7689C42.6044 28.9252 42.6377 29.0927 42.6377 29.2619Z" fill="white"/>
<path fill-rule="evenodd" clip-rule="evenodd" d="M47.0758 31.0333V37.6233C47.0758 38.7508 45.4132 38.7559 45.4132 37.6233V26.0785C45.4132 25.661 44.8424 25.6266 44.8424 26.0785V29.968C44.8424 30.8881 43.6265 30.9267 43.6265 29.968V25.2361C43.6265 24.2675 44.3608 23.4276 45.438 23.4276H49.3587C50.4359 23.4276 51.1702 24.2675 51.1702 25.2361V29.968C51.1702 30.9267 49.9543 30.8881 49.9543 29.968V26.0785C49.9543 25.6266 49.3835 25.661 49.3835 26.0785V37.6233C49.3835 38.7559 47.721 38.7508 47.721 37.6233V31.0333C47.721 30.6685 47.0758 30.6562 47.0758 31.0333Z" fill="white"/>
<path fill-rule="evenodd" clip-rule="evenodd" d="M10.011 23.4276C8.93382 23.4276 8.19964 24.2674 8.19964 25.236V29.9678C8.19964 30.293 8.33991 30.5007 8.52474 30.6009L7.05836 37.9201C6.97236 38.3494 7.54762 38.4433 7.62365 38.027L8.97223 30.6437C9.21205 30.5698 9.41512 30.3434 9.41512 29.9678V26.0784C9.41512 25.6265 9.98577 25.6609 9.98577 26.0784V37.623C9.98577 38.7556 11.6487 38.7506 11.6487 37.623V31.0332C11.6487 30.656 12.2936 30.6684 12.2936 31.0332V37.623C12.2936 38.7506 13.9565 38.7556 13.9565 37.623V26.0784C13.9565 25.6609 14.5272 25.6265 14.5272 26.0784V29.9678C14.5272 30.8879 15.7427 30.9265 15.7427 29.9678V25.236C15.7427 24.2674 15.0085 23.4276 13.9313 23.4276H10.011Z" fill="white"/>
<path fill-rule="evenodd" clip-rule="evenodd" d="M25.3984 33.0024V37.6678C25.3984 38.8232 23.7835 38.8041 23.7835 37.6678V33.0024H22.2357L23.9898 26.787C24.0691 26.5061 23.6068 26.2979 23.4911 26.6668L22.4248 30.0664C22.1727 30.8703 21.0917 30.5851 21.3758 29.6543L22.7172 25.2589C22.8704 24.757 23.3832 24.3661 23.9382 24.3661H27.3616C27.9166 24.3661 28.4294 24.757 28.5826 25.2589L29.924 29.6543C30.2081 30.5851 29.1271 30.8703 28.875 30.0664L27.8087 26.6668C27.693 26.2979 27.2307 26.5061 27.31 26.787L29.0641 33.0024H27.5163V37.6678C27.5163 38.8041 25.9014 38.8232 25.9014 37.6678V33.0024H25.3984Z" fill="white"/>
<path fill-rule="evenodd" clip-rule="evenodd" d="M34.4945 33.0024V37.6678C34.4945 38.8232 32.8796 38.8041 32.8796 37.6678V33.0024H31.3318L33.086 26.787C33.1652 26.5061 32.7029 26.2979 32.5872 26.6668L31.521 30.0664C31.2688 30.8703 30.1879 30.5851 30.4719 29.6543L31.8133 25.2589C31.9665 24.757 32.4793 24.3661 33.0344 24.3661H36.4577C37.0128 24.3661 37.5255 24.757 37.6787 25.2589L39.0201 29.6543C39.3042 30.5851 38.2232 30.8703 37.9711 30.0664L36.9048 26.6668C36.7891 26.2979 36.3268 26.5061 36.4061 26.787L38.1603 33.0024H36.6125V37.6678C36.6125 38.8041 34.9975 38.8232 34.9975 37.6678V33.0024H34.4945Z" fill="white"/>
<path fill-rule="evenodd" clip-rule="evenodd" d="M41.6577 35.8354V37.7756C41.6577 38.5995 42.7927 38.7026 42.7927 37.7756V33.1484C42.7927 32.9031 43.0559 32.8958 43.1453 33.1312L43.7398 34.6972C43.9423 35.2306 44.5649 35.0035 44.3417 34.4569L43.1625 31.5688C43.0602 31.3182 42.8103 31.1138 42.4746 31.1138H40.2675C39.9317 31.1138 39.6819 31.3182 39.5796 31.5688L38.4003 34.4569C38.1772 35.0035 38.7998 35.2306 39.0023 34.6972L39.5968 33.1312C39.6861 32.8958 39.9493 32.9031 39.9493 33.1484V37.7756C39.9493 38.7026 41.0844 38.5995 41.0844 37.7756V35.8354C41.0844 35.4913 41.6577 35.4668 41.6577 35.8354Z" fill="white"/>
<path fill-rule="evenodd" clip-rule="evenodd" d="M18.2681 35.9534V37.9355C18.2681 38.6475 17.2296 38.7678 17.2296 37.9355V35.7552H16.5118L17.138 33.4835C17.2456 33.0929 17.1629 32.6943 16.97 32.3552L15.8857 30.4494C15.5607 29.8782 16.3516 29.5601 16.6035 29.9615L17.3976 31.227C17.515 31.414 17.6606 31.3947 17.8405 31.3947H19.3211C19.5009 31.3947 19.6466 31.414 19.764 31.227L20.5581 29.9615C20.81 29.5601 21.6008 29.8782 21.2758 30.4494L20.1916 32.3552C19.9987 32.6943 19.9159 33.0929 20.0236 33.4835L20.6497 35.7552H19.932V37.9355C19.932 38.7678 18.8935 38.6475 18.8935 37.9355V35.9534C18.8935 35.5056 18.2681 35.5179 18.2681 35.9534Z" fill="white"/>
</svg>
