<svg width="59" height="58" viewBox="0 0 59 58" fill="none" xmlns="http://www.w3.org/2000/svg">
<path fill-rule="evenodd" clip-rule="evenodd" d="M43.1479 16.0315C41.8228 16.0194 41.6221 16.7832 41.5945 17.6666C42.9196 17.6787 43.1203 16.9149 43.1479 16.0315ZM39.586 16.24C38.8184 17.3202 39.3307 17.9216 40.0396 18.4493C40.8073 17.3692 40.295 16.7678 39.586 16.24ZM38.0411 17.8575C37.2783 18.9411 37.7933 19.54 38.5046 20.0645C39.2674 18.9809 38.7524 18.3821 38.0411 17.8575ZM41.1012 18.0698C41.0555 18.0693 41.0114 18.0865 40.9782 18.1179C39.9419 19.0699 39.045 20.0755 38.5528 21.2246C38.437 21.4949 38.3464 21.774 38.2801 22.0608C37.5905 21.3725 37.3397 20.6378 36.4496 20.6534C34.3177 20.6907 33.2087 24.0065 30.2454 24.0273C26.0576 24.0567 26.3895 18.9747 18.5113 18.9335C23.2302 22.7102 18.4443 26.1804 25.4341 28.8607C22.4679 29.4149 22.4024 31.9517 18.4907 30.6951C20.3138 31.4025 22.2802 33.7051 25.9511 33.8384V36.5915C21.7731 36.4671 17.7209 36.2982 17.7209 36.2982V38.0448C17.7209 38.0448 27.4708 37.6232 32.3676 37.6232C33.9878 37.6232 35.3349 37.9506 35.9142 38.1166V39.2216C35.9142 39.6267 36.2407 39.9525 36.6458 39.9525H40.7705C41.1756 39.9525 41.5021 39.6267 41.5021 39.2216V35.1428C41.5021 34.7377 41.1756 34.4119 40.7705 34.4119H36.6458C36.2407 34.4119 35.9142 34.7377 35.9142 35.1428V36.2257C35.3349 36.3917 33.9878 36.7198 32.3676 36.7198C31.2672 36.7198 29.9069 36.6971 28.482 36.6641V33.7216C35.6302 32.8965 35.3868 28.3349 35.3613 27.2928C35.2763 23.826 36.8898 23.0819 38.1701 22.8864C38.1374 23.5888 38.2575 24.3371 38.5833 25.1392C38.592 25.1607 38.6049 25.1802 38.6211 25.1966C38.6374 25.213 38.6567 25.2261 38.678 25.2351C38.6994 25.2441 38.7222 25.2487 38.7453 25.2489C38.7685 25.249 38.7914 25.2446 38.8128 25.2359C38.8342 25.2271 38.8537 25.2143 38.8701 25.198C38.8866 25.1818 38.8997 25.1624 38.9086 25.1411C38.9176 25.1198 38.9223 25.0969 38.9224 25.0738C38.9225 25.0507 38.9181 25.0278 38.9094 25.0064C38.5915 24.2237 38.4807 23.5128 38.5207 22.8482C38.8324 22.8197 39.1198 22.8077 39.3233 22.7871C39.0285 22.6546 38.7881 22.4994 38.5825 22.3358C38.6446 22.0014 38.7411 21.6772 38.8758 21.3628C39.3362 20.2883 40.1968 19.3143 41.2165 18.3776C41.2432 18.354 41.2621 18.3228 41.2707 18.2883C41.2793 18.2537 41.2772 18.2174 41.2647 18.184C41.2522 18.1507 41.2299 18.1219 41.2007 18.1015C41.1715 18.0811 41.1368 18.0701 41.1012 18.0698ZM42.1047 18.7747C41.6818 18.7972 41.3174 19.0851 40.9675 19.4383C41.9295 20.3497 42.597 19.9273 43.2189 19.2993C42.798 18.9006 42.4336 18.7572 42.1047 18.7747ZM40.7033 20.4571C40.3318 20.4572 39.9652 20.6543 39.6005 20.9038C40.3729 21.9806 41.108 21.6917 41.8374 21.1925C41.4512 20.6541 41.0748 20.457 40.7033 20.4571ZM36.1555 32.4019C35.7504 32.4019 35.4239 32.7284 35.4239 33.1335V33.2824C35.4239 33.6875 35.7504 34.0133 36.1555 34.0133H41.2272C41.6323 34.0133 41.958 33.6875 41.958 33.2824V33.1335C41.958 32.7284 41.6323 32.4019 41.2272 32.4019H36.1555ZM27.6756 33.7956V36.6442C27.3676 36.6363 27.0683 36.6246 26.7576 36.6159V33.8399C27.0749 33.8312 27.3812 33.8165 27.6756 33.7956ZM16.2661 35.7797C15.861 35.7797 15.5345 36.1055 15.5345 36.5106V37.7485C15.5345 38.1536 15.861 38.4793 16.2661 38.4793H16.4723C16.8774 38.4793 17.2031 38.1536 17.2031 37.7485V36.5106C17.2031 36.1055 16.8774 35.7797 16.4723 35.7797H16.2661ZM36.1555 40.2389C35.7504 40.2389 35.4239 40.5654 35.4239 40.9705V41.1194C35.4239 41.5245 35.7504 41.851 36.1555 41.851H41.2272C41.6323 41.851 41.958 41.5245 41.958 41.1194V40.9705C41.958 40.5654 41.6323 40.2389 41.2272 40.2389H36.1555Z" fill="white"/>
</svg>
