<svg width="58" height="58" viewBox="0 0 58 58" fill="none" xmlns="http://www.w3.org/2000/svg">
<path fill-rule="evenodd" clip-rule="evenodd" d="M26.8277 31.0658L21.66 32.7826C21.4316 32.8585 21.3709 33.1531 21.5507 33.3131L25.6207 36.9299C25.8005 37.0898 26.0859 36.9953 26.1349 36.7598L27.2326 31.4262C27.2814 31.1902 27.0564 30.9899 26.8277 31.0658ZM38.0114 19.5504C33.8174 19.5504 31.0966 22.5673 29.7567 24.1365C29.7567 24.1365 30.7822 26.261 31.3559 26.5771C31.3559 26.5771 34.0225 22.2485 38.0114 22.2485C39.4181 22.2485 40.9703 22.7095 42.1284 23.7476C43.2866 24.7858 44.153 26.3991 44.153 29.1057C44.153 30.7339 43.6165 32.3215 42.6913 33.4472C41.7661 34.573 40.5104 35.2763 38.7667 35.2763C36.887 35.2763 35.3975 34.7378 33.9646 33.5916C32.5318 32.4453 31.1773 30.6403 29.8736 28.1442C29.2045 26.8633 28.1251 24.7885 26.4354 22.9832C24.7457 21.1778 22.337 19.6054 19.2308 19.6054C17.15 19.6054 14.9856 20.2528 13.3298 21.8071C11.674 23.3615 10.626 25.7863 10.6118 28.9621C10.588 34.2916 14.6347 37.8904 19.2583 37.8904C22.586 37.8904 24.8248 35.8376 24.8248 35.8376L23.0164 33.8352C23.0164 33.8352 21.4813 35.1923 19.2583 35.1923C15.944 35.1923 13.2911 33.0126 13.3092 28.9743C13.3209 26.3621 14.1053 24.7798 15.1764 23.7744C16.2475 22.7689 17.705 22.3035 19.2308 22.3035C21.4478 22.3035 23.0957 23.3628 24.4659 24.8267C25.836 26.2906 26.8189 28.1232 27.4824 29.3936C28.8914 32.0911 30.4246 34.2142 32.2792 35.6978C34.1337 37.1814 36.3319 37.9744 38.7667 37.9744C41.2873 37.9744 43.3989 36.8351 44.7754 35.1602C46.1518 33.4853 46.8511 31.3133 46.8511 29.1057C46.8511 25.7873 45.6683 23.298 43.9292 21.7391C42.1901 20.1803 39.9965 19.5504 38.0114 19.5504Z" fill="white"/>
</svg>
