<svg width="59" height="58" viewBox="0 0 59 58" fill="none" xmlns="http://www.w3.org/2000/svg">
<path d="M14.4709 29.5011L18.5714 34.8862C18.7239 35.0864 18.6823 35.3234 18.3565 35.3234H9.99448C9.66864 35.3234 9.62705 35.0864 9.77952 34.8862L13.8801 29.5011C14.0787 29.2403 14.275 29.2439 14.4709 29.5011ZM40.1438 31.5236H48.4344C48.6286 31.5236 48.7849 31.6799 48.7849 31.8741V33.3428C48.7849 33.5369 48.6286 33.6933 48.4344 33.6933H40.1438C39.9496 33.6933 39.7933 33.5369 39.7933 33.3428V31.8741C39.7933 31.6799 39.9496 31.5236 40.1438 31.5236ZM40.1441 34.2888C39.9499 34.2888 39.7936 34.4452 39.7936 34.6393V43.0788C39.7936 43.273 39.9499 43.4294 40.1441 43.4294H48.4347C48.6289 43.4294 48.7852 43.273 48.7852 43.0788V34.6393C48.7852 34.4452 48.6289 34.2888 48.4347 34.2888H40.1441ZM41.3576 35.5626H43.4761C43.6703 35.5626 43.8266 35.719 43.8266 35.9132V36.8953C43.8266 37.0895 43.6703 37.2458 43.4761 37.2458H41.3576C41.1634 37.2458 41.0078 37.0895 41.0078 36.8953V35.9132C41.0078 35.719 41.1634 35.5626 41.3576 35.5626ZM45.2524 35.5626H47.3701C47.5643 35.5626 47.7207 35.719 47.7207 35.9132V36.8953C47.7207 37.0895 47.5643 37.2458 47.3701 37.2458H45.2524C45.0582 37.2458 44.9019 37.0895 44.9019 36.8953V35.9132C44.9019 35.719 45.0582 35.5626 45.2524 35.5626ZM41.3576 38.4448H43.4761C43.6703 38.4448 43.8266 38.6011 43.8266 38.7953V39.7767C43.8266 39.9708 43.6703 40.1272 43.4761 40.1272H41.3576C41.1634 40.1272 41.0078 39.9708 41.0078 39.7767V38.7953C41.0078 38.6011 41.1634 38.4448 41.3576 38.4448ZM45.2524 38.4448H47.3701C47.5643 38.4448 47.7207 38.6011 47.7207 38.7953V39.7767C47.7207 39.9708 47.5643 40.1272 47.3701 40.1272H45.2524C45.0582 40.1272 44.9019 39.9708 44.9019 39.7767V38.7953C44.9019 38.6011 45.0582 38.4448 45.2524 38.4448ZM20.2172 14.0763C20.023 14.0763 19.8667 14.2326 19.8667 14.4268V43.0788C19.8667 43.273 20.023 43.4294 20.2172 43.4294H28.3131C28.5072 43.4294 28.6636 43.273 28.6636 43.0788V14.4268C28.6636 14.2326 28.5072 14.0763 28.3131 14.0763H20.2172ZM21.7988 18.0849H23.0352C23.2294 18.0849 23.3858 18.2412 23.3858 18.4354V19.9261C23.3858 20.1203 23.2294 20.2767 23.0352 20.2767H21.7988C21.6046 20.2767 21.4483 20.1203 21.4483 19.9261V18.4354C21.4483 18.2412 21.6046 18.0849 21.7988 18.0849ZM25.5768 18.0849H26.8132C27.0074 18.0849 27.1637 18.2412 27.1637 18.4354V19.9261C27.1637 20.1203 27.0074 20.2767 26.8132 20.2767H25.5768C25.3826 20.2767 25.2262 20.1203 25.2262 19.9261V18.4354C25.2262 18.2412 25.3826 18.0849 25.5768 18.0849ZM21.7988 23.0458H23.0352C23.2294 23.0458 23.3858 23.2022 23.3858 23.3963V24.8871C23.3858 25.0812 23.2294 25.2376 23.0352 25.2376H21.7988C21.6046 25.2376 21.4483 25.0812 21.4483 24.8871V23.3963C21.4483 23.2022 21.6046 23.0458 21.7988 23.0458ZM25.5768 23.0458H26.8132C27.0074 23.0458 27.1637 23.2022 27.1637 23.3963V24.8871C27.1637 25.0812 27.0074 25.2376 26.8132 25.2376H25.5768C25.3826 25.2376 25.2262 25.0812 25.2262 24.8871V23.3963C25.2262 23.2022 25.3826 23.0458 25.5768 23.0458ZM21.7988 28.0067H23.0352C23.2294 28.0067 23.3858 28.1631 23.3858 28.3572V29.848C23.3858 30.0421 23.2294 30.1985 23.0352 30.1985H21.7988C21.6046 30.1985 21.4483 30.0421 21.4483 29.848V28.3572C21.4483 28.1631 21.6046 28.0067 21.7988 28.0067ZM25.5768 28.0067H26.8132C27.0074 28.0067 27.1637 28.1631 27.1637 28.3572V29.848C27.1637 30.0421 27.0074 30.1985 26.8132 30.1985H25.5768C25.3826 30.1985 25.2262 30.0421 25.2262 29.848V28.3572C25.2262 28.1631 25.3826 28.0067 25.5768 28.0067ZM21.7988 32.9676H23.0352C23.2294 32.9676 23.3858 33.124 23.3858 33.3182V34.8089C23.3858 35.0031 23.2294 35.1594 23.0352 35.1594H21.7988C21.6046 35.1594 21.4483 35.0031 21.4483 34.8089V33.3182C21.4483 33.124 21.6046 32.9676 21.7988 32.9676ZM25.5768 32.9676H26.8132C27.0074 32.9676 27.1637 33.124 27.1637 33.3182V34.8089C27.1637 35.0031 27.0074 35.1594 26.8132 35.1594H25.5768C25.3826 35.1594 25.2262 35.0031 25.2262 34.8089V33.3182C25.2262 33.124 25.3826 32.9676 25.5768 32.9676ZM21.7988 37.9285H23.0352C23.2294 37.9285 23.3858 38.0849 23.3858 38.2791V39.7706C23.3858 39.9647 23.2294 40.1211 23.0352 40.1211H21.7988C21.6046 40.1211 21.4483 39.9647 21.4483 39.7706V38.2791C21.4483 38.0849 21.6046 37.9285 21.7988 37.9285ZM25.5768 37.9285H26.8132C27.0074 37.9285 27.1637 38.0849 27.1637 38.2791V39.7706C27.1637 39.9647 27.0074 40.1211 26.8132 40.1211H25.5768C25.3826 40.1211 25.2262 39.9647 25.2262 39.7706V38.2791C25.2262 38.0849 25.3826 37.9285 25.5768 37.9285ZM30.0443 30.5283V43.0788C30.0443 43.273 30.2007 43.4294 30.3949 43.4294H38.3739C38.5681 43.4294 38.7244 43.273 38.7244 43.0788V19.8788C38.7244 19.6846 38.4676 19.416 38.1598 19.8058L30.3513 29.695C30.0848 30.0324 30.0443 30.1353 30.0443 30.5283ZM37.527 22.6777C37.6689 22.6769 37.6927 23.017 37.6927 23.1626V25.2742C37.6927 25.4684 37.5363 25.6248 37.3421 25.6248H35.7109C35.5032 25.6248 35.1492 25.5365 35.3604 25.2742L37.3421 22.8121C37.4192 22.7164 37.4796 22.678 37.527 22.6777ZM35.2244 26.8238H37.3421C37.5363 26.8238 37.6927 26.9801 37.6927 27.1743V28.1556C37.6927 28.3498 37.5363 28.5062 37.3421 28.5062H35.2244C35.0303 28.5062 34.8739 28.3498 34.8739 28.1556V27.1743C34.8739 26.9801 35.0303 26.8238 35.2244 26.8238ZM33.6245 27.5989C33.7638 27.5701 33.7979 27.8883 33.7979 28.1106V31.1164C33.7979 31.3106 33.6415 31.467 33.4473 31.467H31.4396C31.2454 31.467 30.9511 31.3129 31.0891 31.1164L33.4473 27.76C33.5197 27.6571 33.5781 27.6085 33.6245 27.5989ZM35.2244 29.6968H37.3421C37.5363 29.6968 37.6927 29.8531 37.6927 30.0473V31.0294C37.6927 31.2236 37.5363 31.3799 37.3421 31.3799H35.2244C35.0303 31.3799 34.8739 31.2236 34.8739 31.0294V30.0473C34.8739 29.8531 35.0303 29.6968 35.2244 29.6968ZM31.4396 32.5789H33.4473C33.6415 32.5789 33.7979 32.7353 33.7979 32.9294V33.9115C33.7979 34.1057 33.6415 34.2621 33.4473 34.2621H31.4396C31.2454 34.2621 31.0891 34.1057 31.0891 33.9115V32.9294C31.0891 32.7353 31.2454 32.5789 31.4396 32.5789ZM35.2244 32.5789H37.3421C37.5363 32.5789 37.6927 32.7353 37.6927 32.9294V33.9115C37.6927 34.1057 37.5363 34.2621 37.3421 34.2621H35.2244C35.0303 34.2621 34.8739 34.1057 34.8739 33.9115V32.9294C34.8739 32.7353 35.0303 32.5789 35.2244 32.5789ZM31.4396 35.5626H33.4473C33.6415 35.5626 33.7979 35.719 33.7979 35.9132V36.8953C33.7979 37.0895 33.6415 37.2458 33.4473 37.2458H31.4396C31.2454 37.2458 31.0891 37.0895 31.0891 36.8953V35.9132C31.0891 35.719 31.2454 35.5626 31.4396 35.5626ZM35.2244 35.5626H37.3421C37.5363 35.5626 37.6927 35.719 37.6927 35.9132V36.8953C37.6927 37.0895 37.5363 37.2458 37.3421 37.2458H35.2244C35.0303 37.2458 34.8739 37.0895 34.8739 36.8953V35.9132C34.8739 35.719 35.0303 35.5626 35.2244 35.5626ZM31.4396 38.4448H33.4473C33.6415 38.4448 33.7979 38.6011 33.7979 38.7953V39.7767C33.7979 39.9708 33.6415 40.1272 33.4473 40.1272H31.4396C31.2454 40.1272 31.0891 39.9708 31.0891 39.7767V38.7953C31.0891 38.6011 31.2454 38.4448 31.4396 38.4448ZM35.2244 38.4448H37.3421C37.5363 38.4448 37.6927 38.6011 37.6927 38.7953V39.7767C37.6927 39.9708 37.5363 40.1272 37.3421 40.1272H35.2244C35.0303 40.1272 34.8739 39.9708 34.8739 39.7767V38.7953C34.8739 38.6011 35.0303 38.4448 35.2244 38.4448ZM9.88377 36.1194C9.68959 36.1194 9.53323 36.2757 9.53323 36.4699V43.0788C9.53323 43.273 9.68959 43.4294 9.88377 43.4294H12.714C12.7132 43.4164 12.7101 43.4037 12.7101 43.3904V39.543C12.7101 39.2409 12.9533 38.9977 13.2554 38.9977H15.037C15.3391 38.9977 15.5823 39.2409 15.5823 39.543V43.3904C15.5823 43.4037 15.5796 43.4164 15.5784 43.4294H18.2521C18.4462 43.4294 18.6026 43.273 18.6026 43.0788V36.4699C18.6026 36.2757 18.4462 36.1194 18.2521 36.1194H9.88377Z" fill="white"/>
</svg>
