<svg width="58" height="58" viewBox="0 0 58 58" fill="none" xmlns="http://www.w3.org/2000/svg">
<path
    fill-rule="evenodd"
    clip-rule="evenodd"
    d="M33.4507 42.3228C33.9097 42.3228 33.9916 41.823 33.969 41.4995C33.9416 41.1063 34.3198 41.0439 34.5179 40.9811C36.7528 40.2726 39.0972 38.9134 40.952 36.956C42.7302 35.0795 44.1335 33.1323 44.6417 29.8815C44.7033 29.4878 44.4814 29.1802 44.0929 29.1802H13.8533C13.4648 29.1802 13.2429 29.4878 13.3044 29.8815C13.8127 33.1323 15.216 35.0795 16.9941 36.956C18.849 38.9134 21.1934 40.2726 23.4282 40.9811C23.6264 41.0439 24.0046 41.1063 23.9771 41.4995C23.9546 41.823 24.0364 42.3228 24.4955 42.3228H33.4507ZM23.1391 27.8514H25.1444C25.1444 27.8514 26.0634 25.283 23.8722 23.0862C23.1712 22.3833 22.7269 21.3298 22.7269 20.3371C22.7269 18.449 23.5742 17.3556 23.8246 16.9523C24.4702 15.9129 22.9317 15.1817 22.2695 15.9765C21.2467 17.2042 20.6533 18.8917 20.6533 20.4896C20.6533 22.2903 21.5276 23.2047 22.422 24.2707C24.0828 26.2504 23.1391 27.8514 23.1391 27.8514ZM35.2145 27.8514H37.2197C37.2197 27.8514 38.1388 25.283 35.9476 23.0862C35.2465 22.3833 34.8023 21.3298 34.8023 20.3371C34.8023 18.449 35.6496 17.3556 35.9 16.9523C36.5456 15.9129 35.007 15.1817 34.3449 15.9765C33.3221 17.2042 32.7287 18.8917 32.7287 20.4896C32.7287 22.2903 33.603 23.2047 34.4973 24.2707C36.1582 26.2504 35.2145 27.8514 35.2145 27.8514ZM29.2073 27.8514H31.2126C31.2126 27.8514 32.1316 25.283 29.9404 23.0862C29.2393 22.3833 28.7951 21.3298 28.7951 20.3371C28.7951 18.449 29.6424 17.3556 29.8928 16.9523C30.5384 15.9129 28.9998 15.1817 28.3377 15.9765C27.3149 17.2042 26.7215 18.8917 26.7215 20.4896C26.7215 22.2903 27.5958 23.2047 28.4901 24.2707C30.151 26.2504 29.2073 27.8514 29.2073 27.8514Z"
    fill="white"
  />
</svg>
