<svg width="46" height="32" viewBox="0 0 46 32" fill="none" xmlns="http://www.w3.org/2000/svg">
<rect x="0.5" y="0.5" width="45" height="31" rx="3.5" fill="white"/>
<rect x="0.5" y="0.5" width="45" height="31" rx="3.5" stroke="#F2F4F7"/>
<path d="M33.9881 9.91736H24.9591L24.0408 10.9829L21.061 14.4405V14.4406L20.1427 15.5061H11.233L12.1371 14.427L12.565 13.9163L13.4691 12.8373H9.36372C8.61371 12.8373 8 13.4859 8 14.2785V17.3194C8 18.1121 8.61371 18.7607 9.36372 18.7607H25.0808C25.8308 18.7607 26.8554 18.279 27.3576 17.6903L29.7351 14.9033L33.9881 9.91736Z" fill="#005697"/>
<path d="M35.8021 6.66663C36.5521 6.66663 37.1659 7.3152 37.1659 8.10793V11.1487C37.1659 11.9413 36.5521 12.59 35.8021 12.59H31.7102L32.6228 11.5191H32.6229L33.0754 10.9882L33.988 9.91735H24.9591L20.1427 15.5101H11.1777L17.607 8.01777L17.8502 7.73422C18.3542 7.14702 19.3801 6.66663 20.1301 6.66663H35.8021V6.66663Z" fill="#FBD500"/>
<path fill-rule="evenodd" clip-rule="evenodd" d="M11.0733 23.9299C11.0733 23.7314 11.0278 23.5596 10.9371 23.4145C10.8463 23.2694 10.7269 23.1586 10.5787 23.0823C10.7269 23.0059 10.8417 22.8932 10.9233 22.7442C11.0048 22.5953 11.0455 22.4274 11.0455 22.2403V22.1372C11.0455 21.908 11.0029 21.7172 10.9177 21.5644C10.8325 21.4117 10.7129 21.2894 10.5592 21.1978C10.4055 21.1061 10.2211 21.0403 10.0063 21.0001C9.79129 20.96 9.5524 20.9401 9.28929 20.9401C9.20042 20.9401 9.10776 20.942 9.01151 20.9458C8.91503 20.9496 8.82156 20.9543 8.73085 20.96C8.64003 20.9658 8.55659 20.9725 8.48077 20.9801C8.40472 20.9879 8.34263 20.9955 8.29451 21.003C8.18707 21.0223 8.11113 21.0565 8.0667 21.1061C8.02227 21.1558 8 21.2456 8 21.3754V24.8579C8 24.9878 8.02308 25.0775 8.06947 25.1271C8.11575 25.1768 8.19445 25.211 8.3057 25.2302C8.36121 25.2416 8.42792 25.2511 8.5057 25.2589C8.58348 25.2665 8.66772 25.2731 8.75855 25.2788C8.84937 25.2845 8.94284 25.2893 9.03921 25.2932C9.13557 25.2969 9.22997 25.2989 9.32264 25.2989C9.56348 25.2989 9.79037 25.2798 10.0035 25.2416C10.2164 25.2035 10.4017 25.1356 10.5592 25.0382C10.7167 24.9409 10.8417 24.8091 10.9344 24.6431C11.0269 24.4769 11.0733 24.2679 11.0733 24.0158V23.9299ZM10.1286 22.2861C10.1286 22.3472 10.1193 22.4055 10.1008 22.4608C10.0822 22.5161 10.0517 22.5638 10.0091 22.6041C9.96643 22.6441 9.90907 22.6765 9.83683 22.7013C9.76459 22.7261 9.67284 22.7385 9.56171 22.7385H8.93934V21.7476C8.95781 21.7476 8.98654 21.7468 9.02543 21.7448C9.06432 21.7429 9.10506 21.7419 9.14764 21.7419H9.3616C9.64688 21.7419 9.84606 21.7791 9.95904 21.8536C10.072 21.9281 10.1286 22.0435 10.1286 22.2001V22.2861ZM9.98686 24.3652C10.0961 24.2775 10.1508 24.1533 10.1508 23.993V23.9299C10.1508 23.7924 10.1081 23.6731 10.023 23.5719C9.9377 23.4708 9.78398 23.4202 9.56171 23.4202H8.93934V24.4912H9.03651C9.07909 24.4912 9.12352 24.4924 9.16992 24.4942C9.21619 24.4961 9.26062 24.4971 9.30332 24.4971H9.39495C9.68023 24.4971 9.87757 24.4531 9.98686 24.3652ZM14.1188 23.0879C14.1188 22.878 14.0883 22.6994 14.0271 22.5524C13.966 22.4055 13.8798 22.2851 13.7687 22.1915C13.6576 22.098 13.5214 22.0294 13.3602 21.9854C13.1991 21.9415 13.0185 21.9195 12.8184 21.9195C12.633 21.9195 12.4524 21.9329 12.2765 21.9597C12.1004 21.9863 11.9606 22.0131 11.8569 22.0397C11.7865 22.059 11.7513 22.1009 11.7513 22.1657V22.6297C11.7513 22.668 11.7606 22.6947 11.7792 22.7098C11.7976 22.7252 11.8216 22.7329 11.8514 22.7329H11.8791L12.0459 22.7185C12.1126 22.7128 12.1876 22.7082 12.271 22.7041C12.3543 22.7004 12.4413 22.6976 12.5322 22.6956C12.6229 22.6937 12.7128 22.6927 12.8017 22.6927C12.9313 22.6927 13.0332 22.7176 13.1073 22.7672C13.1814 22.8169 13.2185 22.9238 13.2185 23.0879V23.2942H12.9184C12.4404 23.2942 12.0931 23.3715 11.8763 23.5261C11.6596 23.6807 11.5512 23.9261 11.5512 24.2621V24.3138C11.5512 24.5008 11.5781 24.6573 11.6318 24.7833C11.6855 24.9094 11.7569 25.0106 11.8457 25.0871C11.9347 25.1633 12.0356 25.2178 12.1487 25.2501C12.2617 25.2826 12.3794 25.2989 12.5016 25.2989C12.6683 25.2989 12.8119 25.2759 12.9323 25.2301C13.0526 25.1844 13.1665 25.1213 13.2741 25.0412V25.1327C13.2741 25.1633 13.2852 25.1901 13.3074 25.2129C13.3297 25.2359 13.3556 25.2473 13.3852 25.2473H14.0077C14.0373 25.2473 14.0632 25.2359 14.0855 25.2129C14.1078 25.1901 14.1188 25.1633 14.1188 25.1327V23.0879ZM13.0213 24.5628C13.0971 24.538 13.1685 24.5084 13.2352 24.474V23.844H12.9184C12.8221 23.844 12.7424 23.8526 12.6794 23.8697C12.6164 23.887 12.5663 23.9128 12.5294 23.9471C12.4924 23.9814 12.4664 24.0254 12.4516 24.0788C12.4367 24.1323 12.4294 24.1933 12.4294 24.2621V24.3138C12.4294 24.4359 12.458 24.5141 12.5154 24.5485C12.5729 24.5829 12.6609 24.6 12.7795 24.6C12.8647 24.6 12.9452 24.5877 13.0213 24.5628ZM17.5201 25.127V23.2196C17.5201 23.0404 17.5062 22.8712 17.4784 22.7128C17.4506 22.5545 17.4006 22.4169 17.3284 22.3003C17.2561 22.1839 17.1561 22.0912 17.0282 22.0226C16.9005 21.9539 16.7365 21.9195 16.5364 21.9195C16.3585 21.9195 16.201 21.9416 16.064 21.9859C15.9269 22.0301 15.7824 22.108 15.6306 22.2196V22.0808C15.6306 22.0501 15.6194 22.0231 15.5972 22C15.5749 21.9769 15.549 21.9653 15.5193 21.9653H14.8969C14.8672 21.9653 14.8413 21.9767 14.8192 21.9996C14.7969 22.0226 14.7858 22.0494 14.7858 22.0798V25.127C14.7858 25.1576 14.7977 25.1853 14.8219 25.21C14.8459 25.2349 14.8728 25.2473 14.9025 25.2473H15.5749C15.6046 25.2473 15.6306 25.2349 15.6527 25.2102C15.675 25.1854 15.6861 25.1578 15.6861 25.1273V22.8755C15.7824 22.8222 15.8731 22.7785 15.9584 22.7442C16.0436 22.7098 16.1269 22.6927 16.2085 22.6927C16.2937 22.6927 16.3631 22.7013 16.4169 22.7185C16.4706 22.7356 16.5122 22.7651 16.5419 22.8072C16.5716 22.849 16.592 22.9042 16.6031 22.9727C16.6141 23.0413 16.6198 23.1252 16.6198 23.2242V25.1273C16.6198 25.1578 16.6309 25.1854 16.6531 25.2102C16.6753 25.2349 16.7012 25.2473 16.7309 25.2473H17.4034C17.4329 25.2473 17.4598 25.2349 17.4839 25.21C17.5081 25.1853 17.5201 25.1576 17.5201 25.127ZM20.2543 24.5716V25.0812C20.2543 25.1232 20.245 25.1528 20.2265 25.17C20.2079 25.1872 20.1783 25.2015 20.1375 25.2129C20.0598 25.2321 19.9588 25.2511 19.8347 25.2704C19.7105 25.2893 19.5651 25.2989 19.3984 25.2989C19.0057 25.2989 18.6916 25.1748 18.4565 24.9265C18.2211 24.6784 18.1036 24.3194 18.1036 23.8497V23.3686C18.1036 22.8989 18.2211 22.54 18.4565 22.2919C18.6916 22.0435 19.0057 21.9195 19.3984 21.9195C19.5651 21.9195 19.7105 21.929 19.8347 21.948C19.9588 21.9673 20.0598 21.9863 20.1375 22.0054C20.1783 22.0168 20.2079 22.0312 20.2265 22.0483C20.245 22.0655 20.2543 22.0952 20.2543 22.1371V22.6469C20.2543 22.6775 20.2441 22.7013 20.2237 22.7185C20.2033 22.7356 20.1783 22.7442 20.1487 22.7442H20.1375C20.0338 22.7329 19.9348 22.7233 19.8403 22.7157C19.7457 22.7082 19.6188 22.7041 19.4595 22.7041C19.3965 22.7041 19.3373 22.7147 19.2817 22.7356C19.2261 22.7567 19.178 22.793 19.1372 22.8445C19.0964 22.8961 19.0641 22.9647 19.0399 23.0507C19.0158 23.1366 19.0038 23.2426 19.0038 23.3686V23.8497C19.0038 23.9757 19.0158 24.0817 19.0399 24.1677C19.0641 24.2535 19.0964 24.3223 19.1372 24.3738C19.178 24.4254 19.2261 24.4617 19.2817 24.4826C19.3373 24.5037 19.3965 24.5141 19.4595 24.5141C19.6188 24.5141 19.7457 24.5103 19.8403 24.5027C19.9348 24.4951 20.0338 24.4855 20.1375 24.4741H20.1487C20.1783 24.4741 20.2033 24.4826 20.2237 24.4999C20.2441 24.5171 20.2543 24.5409 20.2543 24.5716ZM23.3389 23.4087C23.3389 23.1795 23.3082 22.9734 23.247 22.7901C23.1857 22.6068 23.0966 22.4513 22.9797 22.3233C22.8628 22.1954 22.718 22.0961 22.5454 22.0255C22.3728 21.9549 22.1731 21.9195 21.9467 21.9195C21.7203 21.9195 21.5208 21.9549 21.3481 22.0255C21.1755 22.0961 21.0297 22.1954 20.911 22.3233C20.7921 22.4513 20.7021 22.6068 20.6409 22.7901C20.5795 22.9734 20.549 23.1795 20.549 23.4087V23.8097C20.549 24.0387 20.5795 24.245 20.6409 24.4283C20.7021 24.6115 20.7921 24.7671 20.911 24.8951C21.0297 25.0231 21.1755 25.1223 21.3481 25.1929C21.5208 25.2635 21.7203 25.2989 21.9467 25.2989C22.1731 25.2989 22.3728 25.2635 22.5454 25.1929C22.718 25.1223 22.8628 25.0231 22.9797 24.8951C23.0966 24.7671 23.1857 24.6115 23.247 24.4283C23.3082 24.245 23.3389 24.0387 23.3389 23.8097V23.4087ZM21.9467 24.5141C22.2746 24.5141 22.4386 24.2794 22.4386 23.8097V23.4087C22.4386 22.9428 22.2746 22.7098 21.9467 22.7098C21.7846 22.7098 21.6612 22.7681 21.5765 22.8846C21.4917 23.0011 21.4493 23.1758 21.4493 23.4087V23.8097C21.4493 24.0425 21.4917 24.2182 21.5765 24.3366C21.6612 24.455 21.7846 24.5141 21.9467 24.5141ZM26.6454 25.127V23.2196C26.6454 23.0404 26.6314 22.8712 26.6038 22.7128C26.576 22.5545 26.5259 22.4169 26.4535 22.3003C26.3813 22.1839 26.2814 22.0912 26.1536 22.0226C26.0257 21.9539 25.8617 21.9195 25.6618 21.9195C25.4839 21.9195 25.3264 21.9416 25.1893 21.9859C25.0522 22.0301 24.9077 22.108 24.7558 22.2196V22.0808C24.7558 22.0501 24.7448 22.0231 24.7224 22C24.7003 21.9769 24.6742 21.9653 24.6447 21.9653H24.0222C23.9926 21.9653 23.9667 21.9767 23.9444 21.9996C23.9223 22.0226 23.9111 22.0494 23.9111 22.0798V25.127C23.9111 25.1576 23.9231 25.1853 23.9472 25.21C23.9713 25.2349 23.9981 25.2473 24.0279 25.2473H24.7003C24.7299 25.2473 24.7558 25.2349 24.7781 25.2102C24.8003 25.1854 24.8115 25.1578 24.8115 25.1273V22.8755C24.9077 22.8222 24.9985 22.7785 25.0837 22.7442C25.169 22.7098 25.2523 22.6927 25.3339 22.6927C25.4191 22.6927 25.4885 22.7013 25.5422 22.7185C25.5959 22.7356 25.6376 22.7651 25.6673 22.8072C25.6969 22.849 25.7173 22.9042 25.7285 22.9727C25.7395 23.0413 25.7451 23.1252 25.7451 23.2242V25.1273C25.7451 25.1578 25.7562 25.1854 25.7784 25.2102C25.8007 25.2349 25.8265 25.2473 25.8562 25.2473H26.5287C26.5583 25.2473 26.5852 25.2349 26.6093 25.21C26.6333 25.1853 26.6454 25.1576 26.6454 25.127ZM29.0687 24.6966V25.1399C29.0687 25.2042 29.0335 25.2421 28.9631 25.2533C28.8778 25.2686 28.8037 25.2799 28.7408 25.2875C28.6778 25.2951 28.6055 25.2989 28.5241 25.2989C28.3729 25.2989 28.2394 25.2864 28.1234 25.2617C28.0075 25.2368 27.9106 25.1881 27.8333 25.1156C27.7561 25.043 27.6971 24.9428 27.6566 24.8148C27.6162 24.6869 27.5959 24.522 27.5959 24.3194V22.6584L27.1514 22.5839C27.1216 22.5762 27.0948 22.562 27.0707 22.5409C27.0466 22.52 27.0346 22.4942 27.0346 22.4636V22.0855C27.0346 22.0551 27.0466 22.0273 27.0707 22.0025C27.0948 21.9777 27.1216 21.9653 27.1514 21.9653H27.5959V21.4956C27.5959 21.465 27.607 21.4403 27.629 21.4211C27.651 21.4021 27.6769 21.3888 27.7065 21.381L28.3803 21.2609H28.3968C28.4262 21.2609 28.4503 21.2693 28.4687 21.2865C28.4871 21.3037 28.4963 21.3276 28.4963 21.3581V21.9653H28.952C28.9816 21.9653 29.0075 21.9768 29.0298 21.9999C29.0521 22.0229 29.0632 22.0501 29.0632 22.0807V22.5485C29.0632 22.5795 29.0521 22.6063 29.0298 22.6294C29.0075 22.6525 28.9816 22.664 28.952 22.664H28.4963V24.3308C28.4963 24.4454 28.5055 24.519 28.5241 24.5513C28.5426 24.5838 28.5944 24.6 28.6796 24.6H28.952C29.0298 24.6 29.0687 24.6322 29.0687 24.6966ZM32.0363 23.0879C32.0363 22.878 32.0058 22.6994 31.9445 22.5524C31.8835 22.4055 31.7974 22.2851 31.6863 22.1915C31.5751 22.098 31.439 22.0294 31.2777 21.9854C31.1166 21.9415 30.936 21.9195 30.7359 21.9195C30.5505 21.9195 30.37 21.9329 30.1941 21.9597C30.018 21.9863 29.8781 22.0131 29.7745 22.0397C29.7039 22.059 29.6689 22.1009 29.6689 22.1657V22.6297C29.6689 22.668 29.678 22.6947 29.6966 22.7098C29.7152 22.7252 29.7392 22.7329 29.7688 22.7329H29.7967L29.9634 22.7185C30.0301 22.7128 30.1051 22.7082 30.1884 22.7041C30.2719 22.7004 30.3589 22.6976 30.4497 22.6956C30.5404 22.6937 30.6303 22.6927 30.7192 22.6927C30.8489 22.6927 30.9508 22.7176 31.0249 22.7672C31.099 22.8169 31.136 22.9238 31.136 23.0879V23.2942H30.836C30.3579 23.2942 30.0106 23.3715 29.7939 23.5261C29.5772 23.6807 29.4688 23.9261 29.4688 24.2621V24.3138C29.4688 24.5008 29.4956 24.6573 29.5493 24.7833C29.6029 24.9094 29.6744 25.0106 29.7633 25.0871C29.8523 25.1633 29.9531 25.2178 30.0662 25.2501C30.1792 25.2826 30.2968 25.2989 30.4191 25.2989C30.5859 25.2989 30.7293 25.2759 30.8498 25.2301C30.9702 25.1844 31.084 25.1213 31.1916 25.0412V25.1327C31.1916 25.1633 31.2027 25.1901 31.225 25.2129C31.2472 25.2359 31.2731 25.2473 31.3028 25.2473H31.9253C31.9548 25.2473 31.9808 25.2359 32.003 25.2129C32.0252 25.1901 32.0363 25.1633 32.0363 25.1327V23.0879ZM30.9388 24.5628C31.0146 24.538 31.086 24.5084 31.1528 24.474V23.844H30.836C30.7396 23.844 30.66 23.8526 30.597 23.8697C30.534 23.887 30.4839 23.9128 30.4469 23.9471C30.4098 23.9814 30.3838 24.0254 30.3692 24.0788C30.3543 24.1323 30.3469 24.1933 30.3469 24.2621V24.3138C30.3469 24.4359 30.3755 24.5141 30.433 24.5485C30.4905 24.5829 30.5784 24.6 30.697 24.6C30.7822 24.6 30.8626 24.5877 30.9388 24.5628ZM34.7706 25.0812V24.5716C34.7706 24.5409 34.7604 24.5171 34.7401 24.4999C34.7196 24.4826 34.6947 24.4741 34.665 24.4741H34.654C34.5502 24.4855 34.4511 24.4951 34.3566 24.5027C34.2622 24.5103 34.1352 24.5141 33.976 24.5141C33.9128 24.5141 33.8535 24.5037 33.7981 24.4826C33.7425 24.4617 33.6943 24.4254 33.6535 24.3738C33.6128 24.3223 33.5804 24.2535 33.5564 24.1677C33.5321 24.0817 33.5202 23.9757 33.5202 23.8497V23.3686C33.5202 23.2426 33.5321 23.1366 33.5564 23.0507C33.5804 22.9647 33.6128 22.8961 33.6535 22.8445C33.6943 22.793 33.7425 22.7567 33.7981 22.7356C33.8535 22.7147 33.9128 22.7041 33.976 22.7041C34.1352 22.7041 34.2622 22.7082 34.3566 22.7157C34.4511 22.7233 34.5502 22.7329 34.654 22.7442H34.665C34.6947 22.7442 34.7196 22.7356 34.7401 22.7185C34.7604 22.7013 34.7706 22.6775 34.7706 22.6469V22.1371C34.7706 22.0952 34.7614 22.0655 34.7428 22.0483C34.7241 22.0312 34.6947 22.0168 34.654 22.0054C34.5762 21.9863 34.4751 21.9673 34.351 21.948C34.2269 21.929 34.0816 21.9195 33.9148 21.9195C33.5219 21.9195 33.2081 22.0435 32.9728 22.2919C32.7375 22.54 32.6199 22.8989 32.6199 23.3686V23.8497C32.6199 24.3194 32.7375 24.6784 32.9728 24.9265C33.2081 25.1748 33.5219 25.2989 33.9148 25.2989C34.0816 25.2989 34.2269 25.2893 34.351 25.2704C34.4751 25.2511 34.5762 25.2321 34.654 25.2129C34.6947 25.2015 34.7241 25.1872 34.7428 25.17C34.7614 25.1528 34.7706 25.1232 34.7706 25.0812ZM37.1659 24.6966V25.1399C37.1659 25.2042 37.1306 25.2421 37.0603 25.2533C36.975 25.2686 36.9009 25.2799 36.838 25.2875C36.7749 25.2951 36.7026 25.2989 36.6213 25.2989C36.4701 25.2989 36.3366 25.2864 36.2206 25.2617C36.1045 25.2368 36.0078 25.1881 35.9306 25.1156C35.8533 25.043 35.7943 24.9428 35.7538 24.8148C35.7134 24.6869 35.6931 24.522 35.6931 24.3194V22.6584L35.2486 22.5839C35.2188 22.5762 35.192 22.562 35.1679 22.5409C35.1438 22.52 35.1318 22.4942 35.1318 22.4636V22.0855C35.1318 22.0551 35.1438 22.0273 35.1679 22.0025C35.192 21.9777 35.2188 21.9653 35.2486 21.9653H35.6931V21.4956C35.6931 21.465 35.7042 21.4403 35.7262 21.4211C35.7481 21.4021 35.774 21.3888 35.8035 21.381L36.4774 21.2609H36.494C36.5234 21.2609 36.5474 21.2693 36.5657 21.2865C36.5842 21.3037 36.5935 21.3276 36.5935 21.3581V21.9653H37.0492C37.0787 21.9653 37.1047 21.9768 37.127 21.9999C37.1491 22.0229 37.1603 22.0501 37.1603 22.0807V22.5485C37.1603 22.5795 37.1491 22.6063 37.127 22.6294C37.1047 22.6525 37.0787 22.664 37.0492 22.664H36.5935V24.3308C36.5935 24.4454 36.6027 24.519 36.6213 24.5513C36.6397 24.5838 36.6916 24.6 36.7768 24.6H37.0492C37.127 24.6 37.1659 24.6322 37.1659 24.6966Z" fill="#005697"/>
</svg>
