<svg width="46" height="32" viewBox="0 0 46 32" fill="none" xmlns="http://www.w3.org/2000/svg">
<rect x="0.5" y="0.5" width="45" height="31" rx="3.5" fill="white"/>
<rect x="0.5" y="0.5" width="45" height="31" rx="3.5" stroke="#F2F4F7"/>
<path fill-rule="evenodd" clip-rule="evenodd" d="M9.24721 18.3556C8.99927 18.4972 8.7353 18.5679 8.45546 18.5679H8.23952C8.18342 18.5679 8.10332 18.5631 7.87196 18.5209L8.65419 15.0948C8.7981 14.9617 8.95333 14.8753 9.1333 14.8335C9.31327 14.7919 9.42917 14.7806 9.54127 14.7806C9.88499 14.7806 10.151 14.8834 10.279 15.1083C10.4069 15.333 10.4709 15.6453 10.4709 16.0449C10.4709 16.3697 10.4188 16.682 10.315 16.9817C10.211 17.2815 10.069 17.55 9.88916 17.7873C9.70919 18.0246 9.49506 18.2141 9.24721 18.3556ZM11.0109 13.4346C10.7308 13.2931 10.399 13.2223 10.015 13.2223C9.83099 13.2223 9.65908 13.2431 9.49923 13.2847C9.3391 13.3265 9.18831 13.3804 9.02846 13.4553L9.76321 10.2372L7.90359 10.5369L5.82812 19.6171C6.06002 19.7338 6.30587 19.8253 6.56595 19.8918C6.82576 19.9584 7.0717 20.0083 7.30369 20.0417C7.53559 20.0749 7.74166 20.0936 7.92163 20.0979C8.1016 20.102 8.22756 20.1041 8.29951 20.1041C8.85927 20.1041 9.37925 19.9937 9.85908 19.7731C10.339 19.5526 10.7548 19.2529 11.1068 18.8739C11.4587 18.495 11.7366 18.0496 11.9406 17.5375C12.1446 17.0254 12.2466 16.4821 12.2466 15.9075C12.2466 15.5329 12.2024 15.1832 12.1145 14.8584C12.0264 14.5336 11.8905 14.2507 11.7066 14.0091C11.5226 13.7677 11.2907 13.5762 11.0109 13.4346ZM15.9292 12.4207L16.2024 11.2242H14.421L14.1478 12.4207H15.9292ZM18.5069 18.5183C18.2774 18.5183 18.097 18.4843 17.966 18.4159C17.8347 18.3477 17.7426 18.2517 17.6894 18.1279C17.6359 18.0043 17.6156 17.857 17.6278 17.6863C17.6402 17.5157 17.6709 17.3323 17.7201 17.1359L18.2611 14.7806H20.2898L20.6586 13.219H18.6176L19.0848 11.2349L17.1791 11.5421L15.9741 16.8414C15.8758 17.2766 15.8183 17.6907 15.802 18.0831C15.7854 18.4757 15.8429 18.8235 15.9741 19.1263C16.1052 19.4293 16.3265 19.6683 16.6381 19.8431C16.9495 20.0179 17.3881 20.1055 17.9537 20.1055C18.3471 20.1055 18.6872 20.0713 18.9742 20.0031C19.0038 19.996 19.0489 19.9847 19.078 19.9774L19.449 18.3618C19.3244 18.406 19.1993 18.4356 19.0787 18.4607C18.8943 18.4991 18.7037 18.5183 18.5069 18.5183ZM40.1519 13.2211H38.3706L37.3345 17.7594H37.3363L37.1939 18.3836C37.0945 18.4127 36.9955 18.4388 36.8973 18.4593C36.7129 18.4977 36.5223 18.5169 36.3256 18.5169C36.096 18.5169 35.9156 18.4829 35.7846 18.4145C35.6534 18.3463 35.5612 18.2503 35.5079 18.1264C35.4546 18.0029 35.4342 17.8557 35.4465 17.6848C35.4588 17.5143 35.4895 17.3309 35.5387 17.1344L36.0797 14.7792L36.4362 13.2175L36.4363 13.2171H34.6165L33.7928 16.8401C33.6944 17.2753 33.637 17.6893 33.6207 18.0817C33.6041 18.4743 33.6615 18.8221 33.7928 19.1249C33.9238 19.4279 34.1451 19.667 34.4567 19.8418C34.7681 20.0165 35.2067 20.1041 35.7723 20.1041C36.1657 20.1041 36.5058 20.07 36.7928 20.0017C36.8029 19.9993 36.8126 19.9968 36.8224 19.9943L36.8269 19.9931L36.8261 19.9965C36.7463 20.3703 36.5849 20.6734 36.3257 20.91C36.0662 21.1468 35.6813 21.2652 35.1708 21.2652C34.9529 21.2652 34.7549 21.2517 34.5755 21.2259L34.2248 22.7616C34.462 22.7935 34.7249 22.8101 35.0152 22.8101C35.5577 22.8101 36.0325 22.7455 36.4394 22.6168C36.8463 22.4881 37.1952 22.293 37.4864 22.0313C37.7776 21.7697 38.0209 21.4414 38.2165 21.0472C38.4118 20.6525 38.5694 20.1856 38.6891 19.6455L39.9218 14.251L39.9173 14.249L40.1519 13.2211ZM31.4146 14.7806C30.5839 14.7806 30.4254 14.7806 30.085 14.9644C29.8434 15.0948 29.6434 15.2908 29.4678 15.5195C29.292 15.7483 29.1542 16.0122 29.0545 16.3116C28.9544 16.6111 28.9046 16.9229 28.9046 17.2473C28.9046 17.6464 28.9685 17.9627 29.0964 18.1954C29.224 18.4283 29.4598 18.5447 29.8033 18.5447C29.987 18.5447 30.1528 18.5073 30.3007 18.4324C30.4484 18.3576 30.6062 18.2328 30.774 18.0581C30.7899 17.8504 30.8159 17.6321 30.8519 17.4032C30.8847 17.1944 30.9256 16.9994 30.9629 16.8212L30.963 16.821L30.963 16.8209L30.963 16.8208L30.9734 16.7711L31.4146 14.7806ZM32.6793 17.0976C32.5673 17.5717 32.5354 18.0478 32.5834 18.526C32.6314 19.0044 32.8071 19.7372 32.9785 20.1041H31.2546C31.0977 19.8278 31.063 19.6609 31.039 19.5455L31.039 19.5455L31.039 19.5455C31.0308 19.506 31.0238 19.4726 31.0137 19.4429C30.7899 19.6343 30.5423 19.7923 30.2708 19.917C29.9991 20.0417 29.6955 20.1041 29.3599 20.1041C28.9605 20.1041 28.6189 20.0312 28.3355 19.8858C28.0518 19.7404 27.8201 19.5449 27.6404 19.2995C27.4606 19.0543 27.3307 18.7673 27.251 18.4387C27.171 18.1102 27.1311 17.7588 27.1311 17.3845C27.1311 16.8107 27.2288 16.2701 27.4247 15.7628C27.6204 15.2555 27.8921 14.8126 28.2396 14.4341C28.587 14.0557 29.4257 13.2212 30.802 13.2212L33.5656 13.2211L32.6793 17.0976ZM22.7633 18.5715C22.5622 18.5715 22.3933 18.5548 22.2566 18.5212L23.1192 14.7806C23.1192 14.7806 23.5581 14.7806 23.8223 14.7817C24.2003 14.7833 24.4683 14.9168 24.6211 15.168C24.7738 15.4191 24.8503 15.7249 24.8503 16.0848C24.8503 16.4533 24.7999 16.7902 24.6995 17.0958C24.5989 17.4016 24.4583 17.6631 24.2773 17.8807C24.0964 18.0986 23.8772 18.2681 23.6199 18.3894C23.3623 18.5108 23.077 18.5715 22.7633 18.5715ZM26.3462 17.6232C26.5392 17.1168 26.6357 16.5579 26.6357 15.9466C26.6357 15.5699 26.5853 15.2163 26.4849 14.8853C26.3842 14.5548 26.2295 14.2659 26.0205 14.0188C25.8113 13.7719 25.544 13.5773 25.2182 13.4348C24.8926 13.2926 24.5044 13.2213 24.0541 13.2213L23.4341 13.2213H23.4331H23.4316H23.4292H23.4287C22.7697 13.2213 21.8909 13.2212 21.6751 13.2213L19.6026 22.3015H21.388L21.9309 20.0283C22.2042 20.0786 22.4777 20.1037 22.7512 20.1037C23.3141 20.1037 23.8349 20.001 24.3135 19.796C24.7919 19.5909 25.202 19.3042 25.544 18.9356C25.8857 18.5674 26.1533 18.13 26.3462 17.6232ZM12.3907 20.1055L13.9633 13.2172H15.7447L14.1721 20.1055H12.3907Z" fill="#002855"/>
</svg>
