<svg width="46" height="32" viewBox="0 0 46 32" fill="none" xmlns="http://www.w3.org/2000/svg">
<rect x="0.5" y="0.5" width="45" height="31" rx="3.5" fill="white"/>
<rect x="0.5" y="0.5" width="45" height="31" rx="3.5" stroke="#F2F4F7"/>
<path fill-rule="evenodd" clip-rule="evenodd" d="M21.118 25.7333H24.5794C29.9827 25.7333 34.2884 21.4466 34.4572 16.1513V16.0672C34.3728 10.6878 29.9827 6.3171 24.5794 6.40116H20.6959C15.5459 6.56926 11.4935 10.94 11.6623 16.1513C11.6623 21.3626 15.8836 25.6492 21.118 25.7333ZM13.3508 16.0672C13.3508 11.6964 16.9811 8.08217 21.3713 8.08217C25.7614 8.08217 29.3917 11.6964 29.3917 16.0672C29.3917 20.4379 25.7614 24.0522 21.3713 24.0522C16.9811 24.0522 13.3508 20.4379 13.3508 16.0672ZM22.6377 21.4466V10.7719C25.5925 11.5283 27.4499 14.4702 26.6901 17.412C26.1835 19.4293 24.6639 20.9423 22.6377 21.4466ZM16.1369 14.7224C15.377 17.6642 17.15 20.6901 20.1049 21.4466V10.7719C18.1631 11.2762 16.6434 12.7891 16.1369 14.7224Z" fill="#0079BE"/>
</svg>
