<svg width="46" height="32" viewBox="0 0 46 32" fill="none" xmlns="http://www.w3.org/2000/svg">
<rect x="0.5" y="0.5" width="45" height="31" rx="3.5" fill="white"/>
<rect x="0.5" y="0.5" width="45" height="31" rx="3.5" stroke="#F2F4F7"/>
<path fill-rule="evenodd" clip-rule="evenodd" d="M33.3333 16C33.3333 21.891 28.5577 26.6666 22.6667 26.6666C16.7756 26.6666 12 21.891 12 16C12 10.1089 16.7756 5.33331 22.6667 5.33331C28.5577 5.33331 33.3333 10.1089 33.3333 16ZM19.7712 16.792L21.2749 11.1517H24.5338L23.4058 15.5387L24.91 14.9121L24.5338 16.2906L23.0296 16.792L22.2777 19.5495H27.6676L27.1661 21.5546H18.5173L19.395 18.1705L18.1417 18.6719L18.5173 17.2934L19.7712 16.792Z" fill="#A5A8A9"/>
</svg>
