<svg width="46" height="32" viewBox="0 0 46 32" fill="none" xmlns="http://www.w3.org/2000/svg">
<rect x="0.5" y="0.5" width="45" height="31" rx="3.5" fill="white"/>
<rect x="0.5" y="0.5" width="45" height="31" rx="3.5" stroke="#F2F4F7"/>
<path fill-rule="evenodd" clip-rule="evenodd" d="M5.33301 19.2082C5.35609 19.0842 5.37723 18.9641 5.39795 18.8463C5.42998 18.6643 5.46101 18.4879 5.49669 18.3116C5.64777 17.5139 5.79989 16.7173 5.95202 15.9207L5.95202 15.9207L5.95203 15.9206L5.95203 15.9206L5.95204 15.9206L5.95206 15.9205C6.1042 15.1238 6.25633 14.3271 6.40742 13.5294C6.42841 13.4284 6.45779 13.361 6.55851 13.3442C7.34334 13.2263 8.13236 13.1421 8.91719 13.34C9.60129 13.5084 10.0797 13.9925 10.1595 14.5608C10.3232 15.6932 9.66425 16.5982 8.68636 16.9224C8.17014 17.0908 7.64552 17.1329 7.11251 17.0824C6.9866 17.0697 6.94883 17.1034 6.92784 17.2255C6.81453 17.8443 6.69701 18.4589 6.5753 19.0735C6.56691 19.124 6.52074 19.204 6.49136 19.204C6.20617 19.2103 5.92567 19.2096 5.63411 19.2088H5.63408H5.63406H5.63403H5.634H5.63398L5.63355 19.2088C5.53484 19.2085 5.43486 19.2082 5.33301 19.2082ZM7.37662 16.0847L7.37664 16.0847H7.37664C7.54081 16.0892 7.69583 16.0934 7.84697 16.0762C8.28346 16.0299 8.6318 15.8321 8.82906 15.4153C9.0515 14.9438 8.89201 14.4429 8.47232 14.2956C8.17434 14.1903 7.86796 14.2114 7.56158 14.2535C7.52381 14.2577 7.47345 14.3166 7.46505 14.3545C7.40634 14.6631 7.34764 14.9729 7.28672 15.2945L7.13769 16.0805C7.21974 16.0805 7.29919 16.0826 7.37662 16.0847ZM12.7742 18.4C12.7078 18.4693 12.6456 18.539 12.5848 18.6071C12.4535 18.7542 12.3287 18.894 12.1824 19.0062C11.7417 19.3472 11.2381 19.4229 10.7303 19.1872C10.2266 18.9557 10.021 18.5052 10 17.9748C9.95385 16.8592 10.3442 15.9373 11.2801 15.2975C11.8676 14.8933 12.5434 14.7713 13.2442 14.8091C13.4761 14.8228 13.7062 14.8632 13.9368 14.9036L13.9368 14.9036C14.061 14.9254 14.1854 14.9472 14.3103 14.9649C14.453 14.986 14.4739 15.0659 14.4488 15.188C14.4152 15.3636 14.3812 15.5391 14.3472 15.7144L14.3472 15.7145L14.347 15.7157L14.347 15.7157L14.347 15.7157L14.347 15.7157L14.347 15.7157L14.347 15.7157C14.2199 16.3721 14.093 17.0269 13.9871 17.6843C13.9264 18.0607 13.9021 18.4462 13.8781 18.8279L13.8781 18.8282C13.8739 18.8947 13.8697 18.9611 13.8654 19.0272C13.857 19.1619 13.8234 19.2167 13.6849 19.2125C13.4247 19.204 13.1645 19.204 12.9043 19.2125C12.77 19.2167 12.7238 19.1661 12.7364 19.0356C12.7484 18.8914 12.7561 18.7429 12.7641 18.5886C12.7673 18.5267 12.7706 18.4639 12.7742 18.4ZM13.068 15.7984C12.6609 15.6847 12.3209 15.7647 12.0355 16.0046C11.4983 16.4593 11.2549 17.0486 11.3011 17.7517C11.3137 17.9664 11.3976 18.1726 11.6242 18.2652C11.8509 18.3578 12.0565 18.2905 12.2328 18.1389C12.3377 18.0463 12.4384 17.9411 12.514 17.8232C12.81 17.37 12.8909 16.8588 12.973 16.3395L12.973 16.3395L12.973 16.3395L12.973 16.3395L12.973 16.3395L12.973 16.3395C13.0015 16.1594 13.0302 15.9783 13.068 15.7984ZM19.015 18.1558C19.2459 18.8967 19.8796 19.3093 20.9918 19.3093C21.7556 19.2882 22.5153 18.8546 22.9895 17.9622C23.2413 17.4823 23.3337 16.9687 23.3001 16.4299C23.2707 15.9121 23.0651 15.4743 22.6454 15.1627C22.2047 14.8344 21.7011 14.767 21.1639 14.826C19.3676 15.028 18.6331 16.935 19.015 18.1558ZM20.2102 17.5376L20.2102 17.5375C20.2107 17.516 20.2111 17.4947 20.2111 17.4738C20.2237 16.9897 20.3413 16.5393 20.6308 16.1394C20.7609 15.9626 20.9246 15.8279 21.1429 15.7773C21.5877 15.6763 21.9529 15.9331 21.9948 16.4172C22.0452 17.0108 21.9025 17.558 21.529 18.0337C21.3863 18.2105 21.2058 18.3326 20.975 18.3537C20.5595 18.3915 20.2447 18.1095 20.2111 17.6675C20.2083 17.6252 20.2093 17.5811 20.2102 17.5376ZM24.299 14.9144H25.365C25.3482 15.1417 25.3314 15.3606 25.3105 15.5837C25.3493 15.5475 25.3868 15.5116 25.4236 15.4765L25.4238 15.4764L25.4238 15.4763L25.4238 15.4763L25.4238 15.4763C25.5023 15.4014 25.5775 15.3297 25.6546 15.2638C26.0701 14.9018 26.5444 14.7418 27.0942 14.8302C27.5474 14.906 27.8622 15.2385 27.9126 15.7058C27.9673 16.192 27.8764 16.6636 27.7856 17.1342V17.1342L27.7657 17.2381C27.729 17.4285 27.6927 17.619 27.6565 17.8093L27.656 17.8118C27.5763 18.2306 27.4967 18.6489 27.4131 19.0651C27.4005 19.1198 27.3376 19.1998 27.2956 19.204C26.9347 19.2124 26.5737 19.2082 26.2128 19.204C26.2007 19.204 26.1886 19.1975 26.1702 19.1875C26.1631 19.1836 26.155 19.1793 26.1456 19.1746C26.2128 18.8252 26.2799 18.4715 26.3429 18.1179C26.4394 17.5749 26.5318 17.0361 26.6157 16.493C26.6325 16.4004 26.6241 16.3036 26.6115 16.211C26.5779 15.8868 26.3387 15.7395 26.0281 15.8363C25.726 15.9331 25.5455 16.1689 25.3986 16.4299C25.1804 16.8129 25.1048 17.2381 25.0293 17.6633V17.6633L25.0293 17.6633C25.0103 17.7687 24.9916 17.8738 24.9729 17.9789L24.9728 17.9794C24.9087 18.34 24.8447 18.6992 24.7732 19.0609C24.7607 19.1156 24.6977 19.1998 24.6557 19.204C24.3614 19.2141 24.0644 19.2135 23.7478 19.2128H23.7478H23.7476H23.7474H23.7472C23.6667 19.2126 23.5849 19.2124 23.5016 19.2124C23.7786 17.7643 24.0388 16.3457 24.299 14.9144ZM30.3509 18.3284C29.9061 18.2737 29.6081 17.9622 29.6375 17.5244C29.7303 17.5244 29.8226 17.5258 29.9145 17.5272H29.9145C30.0968 17.53 30.2772 17.5328 30.4559 17.5244C30.8881 17.4991 31.312 17.4275 31.7065 17.2297C32.2102 16.9771 32.4452 16.5604 32.4074 16.0173C32.3697 15.4658 32.0717 15.0659 31.5387 14.906C30.7412 14.666 30.0068 14.8344 29.3814 15.369C28.6218 16.0173 28.3364 16.8761 28.4455 17.8569C28.5211 18.5515 28.8988 19.0483 29.5871 19.2251C30.3258 19.4145 31.0518 19.3135 31.7527 19.0272C31.8031 19.0062 31.8618 18.9262 31.8576 18.8757C31.8476 18.6703 31.8267 18.4648 31.8059 18.2594C31.8007 18.208 31.7955 18.1567 31.7905 18.1053C31.7851 18.1053 31.7803 18.1052 31.7759 18.105C31.7691 18.1048 31.7634 18.1044 31.7586 18.104C31.7473 18.1033 31.7409 18.1028 31.7359 18.1053C31.6898 18.1221 31.6436 18.139 31.6016 18.1558C31.1987 18.3116 30.7832 18.3789 30.3509 18.3284ZM31.0014 16.4635C30.7454 16.5982 30.0823 16.6782 29.7591 16.6108C29.8263 16.051 30.418 15.6132 30.9175 15.7352C31.0854 15.7773 31.2071 15.8657 31.2365 16.0468C31.2658 16.2236 31.1777 16.3709 31.0014 16.4635ZM33.8302 17.5412C33.7925 17.9538 34.0862 18.2695 34.5353 18.3285C34.955 18.379 35.3579 18.3158 35.7524 18.1727C35.7888 18.159 35.8239 18.1454 35.8624 18.1303L35.8625 18.1303C35.8952 18.1176 35.9303 18.1039 35.9707 18.0885C35.9789 18.1777 35.988 18.265 35.9969 18.3512L35.9969 18.3513C36.0155 18.5295 36.0335 18.7026 36.042 18.8757C36.0462 18.9262 35.9875 19.0062 35.9413 19.0273C35.2278 19.3219 34.4933 19.423 33.7421 19.2167C33.0664 19.0315 32.7138 18.5389 32.6299 17.8654C32.525 17.0024 32.7474 16.2236 33.3476 15.5838C33.9939 14.8976 34.7871 14.6534 35.7021 14.906C36.2603 15.0618 36.5582 15.4659 36.5918 16.0342C36.6254 16.5899 36.3736 17.0066 35.849 17.2508C35.3201 17.4949 34.7577 17.5328 34.187 17.5455C34.0737 17.5412 33.9561 17.5412 33.8302 17.5412ZM33.9519 16.6446C34.0283 16.6398 34.1033 16.636 34.1772 16.6323C34.3634 16.623 34.5427 16.614 34.72 16.5899C34.8879 16.5688 35.0557 16.5183 35.2068 16.4467C35.3705 16.3752 35.4503 16.2236 35.4251 16.0384C35.3999 15.8616 35.2824 15.7774 35.1187 15.7353C34.6235 15.6006 34.0065 16.0552 33.9519 16.6446ZM36.8226 18.3284C36.768 18.6147 36.7177 18.8967 36.6631 19.2082C36.7472 19.2082 36.83 19.2084 36.9119 19.2086C37.2348 19.2093 37.5428 19.2099 37.8508 19.1998C37.8802 19.1998 37.9264 19.1198 37.9348 19.0693C37.9776 18.8591 38.0173 18.6478 38.057 18.4366C38.1301 18.0472 38.2032 17.6581 38.2957 17.276C38.5014 16.4257 38.8497 16.131 39.6765 16.0215C39.7101 16.0173 39.7647 15.9794 39.773 15.95C39.8257 15.708 39.8729 15.4643 39.9218 15.2114C39.947 15.0814 39.9726 14.9491 39.9997 14.8134C39.2023 14.7292 38.7574 15.1922 38.3713 15.7605L38.3774 15.6789C38.3964 15.4274 38.4157 15.1714 38.4384 14.9018C38.3512 14.9018 38.2655 14.9015 38.1811 14.9012C37.9325 14.9004 37.6944 14.8997 37.4563 14.906C37.4228 14.9102 37.3598 14.9859 37.3556 15.0323C37.2661 16.1142 37.0541 17.1724 36.8423 18.2299L36.8226 18.3284Z" fill="black"/>
<path fill-rule="evenodd" clip-rule="evenodd" d="M25.7107 9.8358C25.6682 9.82455 25.6257 9.8133 25.5832 9.80383C25.4531 9.80383 25.323 9.80383 25.1845 9.80804C25.1372 9.81753 25.0899 9.82788 25.0422 9.83831C24.9841 9.85101 24.9255 9.86384 24.8655 9.8754C24.2234 9.99748 23.6191 10.2206 23.0357 10.5153C21.7724 11.1551 20.6392 11.9844 19.6236 12.9653C18.9479 13.6136 18.2931 14.2913 17.6594 14.9859C16.5472 16.2067 15.5945 17.5496 14.8349 19.023C14.4446 19.7849 14.092 20.5637 13.9325 21.4099C13.9032 21.5656 13.9535 21.7466 14.0039 21.9024C14.0249 21.9655 14.1424 22.0119 14.2221 22.0371C14.2431 22.0455 14.3061 21.9403 14.3354 21.8814C14.3459 21.8585 14.3565 21.8351 14.3675 21.8112C14.5497 21.4119 14.7962 20.872 15.01 20.5145C15.4633 19.7568 15.8212 19.1703 16.329 18.4505C17.1432 17.2928 18.0945 16.157 19.0934 15.1551C20.0377 14.2079 20.9834 13.361 22.1711 12.7211C22.7167 12.4307 23.2749 12.1444 23.8457 11.9087C24.832 11.5003 25.8602 11.2225 26.9178 11.0667C27.0312 11.0499 27.1823 10.9615 27.22 10.8689C27.2536 10.7847 27.1739 10.6247 27.0941 10.5447C26.771 10.2122 26.3932 9.95959 25.9232 9.88382C25.8523 9.87329 25.7815 9.85455 25.7107 9.8358ZM16.1024 15.5795C16.3038 15.0322 16.4045 14.4639 16.4171 13.8746C16.4115 13.8114 16.4069 13.7483 16.4022 13.6851C16.3929 13.5589 16.3836 13.4326 16.3668 13.3063C16.2534 12.3296 15.8338 11.5003 15.1664 10.7889C15.0867 10.7089 14.9776 10.6458 14.8685 10.6079C14.7593 10.5658 14.688 10.6289 14.6964 10.7552C14.6966 10.7579 14.6968 10.7605 14.697 10.7632C14.7052 10.8702 14.7137 10.981 14.7342 11.0878C14.7636 11.256 14.7929 11.4244 14.8222 11.593C14.9264 12.192 15.0308 12.7925 15.1455 13.3905C15.2588 13.9924 15.3847 14.5902 15.519 15.1838C15.5651 15.3732 15.6407 15.5627 15.733 15.7395C15.8044 15.8742 15.9051 15.8615 15.9974 15.7395L15.9974 15.7395C16.0394 15.6889 16.0814 15.6384 16.1024 15.5795Z" fill="#FC461E"/>
</svg>
