<svg width="46" height="32" viewBox="0 0 46 32" fill="none" xmlns="http://www.w3.org/2000/svg">
<rect x="0.5" y="0.5" width="45" height="31" rx="3.5" fill="white"/>
<rect x="0.5" y="0.5" width="45" height="31" rx="3.5" stroke="#F2F4F7"/>
<path fill-rule="evenodd" clip-rule="evenodd" d="M24.3579 10.8559L22.055 11.3647V9.44269L24.3579 8.94336V10.8559ZM29.1469 11.9205C28.2478 11.9205 27.6698 12.3539 27.3487 12.6554L27.2294 12.0713H25.211V23.0566L27.5046 22.5573L27.5138 19.891C27.8441 20.136 28.3304 20.4846 29.1377 20.4846C30.78 20.4846 32.2754 19.1279 32.2754 16.1413C32.2663 13.4091 30.7525 11.9205 29.1469 11.9205ZM28.5964 18.4118C28.0551 18.4118 27.734 18.214 27.5138 17.969L27.5046 14.4737C27.7432 14.2005 28.0735 14.0121 28.5964 14.0121C29.4313 14.0121 30.0093 14.973 30.0093 16.2072C30.0093 17.4697 29.4405 18.4118 28.5964 18.4118ZM39.5051 16.2355C39.5051 13.8236 38.3675 11.9205 36.1931 11.9205C34.0095 11.9205 32.6884 13.8236 32.6884 16.2167C32.6884 19.0525 34.2481 20.4845 36.4867 20.4845C37.5785 20.4845 38.4042 20.2302 39.0281 19.8722V17.9879C38.4042 18.3082 37.6886 18.5061 36.7803 18.5061C35.8903 18.5061 35.1013 18.1857 35.0004 17.074H39.4868C39.4868 17.0221 39.4901 16.9041 39.4939 16.7682C39.499 16.5835 39.5051 16.3658 39.5051 16.2355ZM34.9728 15.3405C34.9728 14.2759 35.6059 13.8331 36.1839 13.8331C36.7435 13.8331 37.3399 14.2759 37.3399 15.3405H34.9728ZM22.0549 12.0807H24.3577V20.3244H22.0549V12.0807ZM19.4404 12.0807L19.5871 12.7779C20.1284 11.7604 21.2019 11.9676 21.4955 12.0807V14.2476C21.2111 14.144 20.2936 14.0121 19.7523 14.7375V20.3244H17.4586V12.0807H19.4404ZM14.9997 10.0362L12.7611 10.5261L12.7519 18.0727C12.7519 19.467 13.7703 20.494 15.1281 20.494C15.8805 20.494 16.4309 20.3526 16.7337 20.1831V18.2705C16.4401 18.393 14.9905 18.8264 14.9905 17.432V14.0874H16.7337V12.0807H14.9905L14.9997 10.0362ZM9.57759 13.965C9.09134 13.965 8.79775 14.1063 8.79775 14.4737C8.79775 14.8749 9.30302 15.0514 9.92986 15.2703C10.9518 15.6272 12.2968 16.097 12.3025 17.8372C12.3025 19.5236 10.9905 20.494 9.08216 20.494C8.29314 20.494 7.43073 20.3338 6.57748 19.957V17.7147C7.34815 18.1481 8.32067 18.4684 9.08216 18.4684C9.59594 18.4684 9.96293 18.3271 9.96293 17.8937C9.96293 17.4493 9.41521 17.2462 8.75395 17.001C7.74691 16.6275 6.47656 16.1564 6.47656 14.5868C6.47656 12.9192 7.71514 11.9205 9.57759 11.9205C10.3391 11.9205 11.0914 12.043 11.8529 12.3539V14.5679C11.1556 14.1817 10.2749 13.965 9.57759 13.965Z" fill="#6461FC"/>
</svg>
