<svg width="80" height="80" viewBox="0 0 80 80" fill="none" xmlns="http://www.w3.org/2000/svg">
<path d="M69.7772 39.9451H55.4883C53.5154 39.9451 51.9161 41.5444 51.9161 43.5173V69.7137C51.9161 71.6866 53.5154 73.2859 55.4883 73.2859H69.7772C71.7501 73.2859 73.3495 71.6866 73.3495 69.7137V43.5173C73.3495 41.5444 71.7501 39.9451 69.7772 39.9451Z" fill="#BEC0C7"/>
<path d="M43.8181 24.4179L28.3385 7.74747C27.6424 7.05524 26.7006 6.66667 25.7188 6.66667C24.7371 6.66667 23.7953 7.05524 23.0992 7.74747L7.61954 24.4179C7.01108 25.081 6.67147 25.947 6.66694 26.847V69.7138C6.66063 70.1869 6.74838 70.6565 6.92507 71.0954C7.10176 71.5343 7.36389 71.9338 7.69624 72.2706C8.02858 72.6073 8.42451 72.8747 8.86105 73.0572C9.29759 73.2397 9.76603 73.3337 10.2392 73.3336H16.1929C17.1403 73.3336 18.0489 72.9573 18.7188 72.2873C19.3888 71.6174 19.7651 70.7088 19.7651 69.7614V63.8077C19.7651 62.2286 20.3924 60.7143 21.5089 59.5978C22.6255 58.4812 24.1398 57.854 25.7188 57.854C27.2979 57.854 28.8122 58.4812 29.9288 59.5978C31.0453 60.7143 31.6726 62.2286 31.6726 63.8077V69.7614C31.6726 70.7088 32.0489 71.6174 32.7188 72.2873C33.3888 72.9573 34.2974 73.3336 35.2448 73.3336H41.1985C41.6717 73.3337 42.1401 73.2397 42.5766 73.0572C43.0132 72.8747 43.4091 72.6073 43.7414 72.2706C44.0738 71.9338 44.3359 71.5343 44.5126 71.0954C44.6893 70.6565 44.777 70.1869 44.7707 69.7138V26.847C44.7662 25.947 44.4266 25.081 43.8181 24.4179ZM22.1466 47.0896C22.1466 47.7212 21.8957 48.327 21.4491 48.7736C21.0025 49.2202 20.3967 49.4711 19.7651 49.4711H16.1929C15.5613 49.4711 14.9555 49.2202 14.5089 48.7736C14.0623 48.327 13.8114 47.7212 13.8114 47.0896V44.7558C13.8114 44.1242 14.0623 43.5184 14.5089 43.0718C14.9555 42.6252 15.5613 42.3743 16.1929 42.3743H19.7651C20.3967 42.3743 21.0025 42.6252 21.4491 43.0718C21.8957 43.5184 22.1466 44.1242 22.1466 44.7558V47.0896ZM22.1466 32.8007C22.1466 33.4323 21.8957 34.0381 21.4491 34.4847C21.0025 34.9313 20.3967 35.1822 19.7651 35.1822H16.1929C15.5613 35.1822 14.9555 34.9313 14.5089 34.4847C14.0623 34.0381 13.8114 33.4323 13.8114 32.8007V30.4669C13.8114 29.8352 14.0623 29.2295 14.5089 28.7829C14.9555 28.3363 15.5613 28.0854 16.1929 28.0854H19.7651C20.3967 28.0854 21.0025 28.3363 21.4491 28.7829C21.8957 29.2295 22.1466 29.8352 22.1466 30.4669V32.8007ZM37.6263 47.0896C37.6326 47.4064 37.5757 47.7212 37.4589 48.0156C37.342 48.3101 37.1676 48.5783 36.9458 48.8045C36.724 49.0307 36.4594 49.2104 36.1673 49.333C35.8752 49.4557 35.5616 49.5188 35.2448 49.5187H31.6726C31.0409 49.5187 30.4352 49.2678 29.9886 48.8212C29.542 48.3746 29.2911 47.7689 29.2911 47.1373V44.7558C29.2911 44.1242 29.542 43.5184 29.9886 43.0718C30.4352 42.6252 31.0409 42.3743 31.6726 42.3743H35.2448C35.8764 42.3743 36.4821 42.6252 36.9288 43.0718C37.3754 43.5184 37.6263 44.1242 37.6263 44.7558V47.0896ZM37.6263 32.8007C37.6326 33.1174 37.5757 33.4322 37.4589 33.7267C37.342 34.0212 37.1676 34.2893 36.9458 34.5156C36.724 34.7418 36.4594 34.9215 36.1673 35.0441C35.8752 35.1668 35.5616 35.2299 35.2448 35.2298H31.6726C31.0409 35.2298 30.4352 34.9789 29.9886 34.5323C29.542 34.0857 29.2911 33.48 29.2911 32.8483V30.4669C29.2911 29.8352 29.542 29.2295 29.9886 28.7829C30.4352 28.3363 31.0409 28.0854 31.6726 28.0854H35.2448C35.8764 28.0854 36.4821 28.3363 36.9288 28.7829C37.3754 29.2295 37.6263 29.8352 37.6263 30.4669V32.8007Z" fill="#BEC0C7"/>
</svg>
